<svg width="14" height="14" viewBox="0 0 14 14" fill="none" xmlns="http://www.w3.org/2000/svg">
<path d="M6.99992 12.3333C5.76224 12.3333 4.57526 11.8417 3.70009 10.9665C2.82492 10.0913 2.33325 8.90433 2.33325 7.66666C2.33325 6.42898 2.82492 5.242 3.70009 4.36683C4.57526 3.49166 5.76224 2.99999 6.99992 2.99999C8.2376 2.99999 9.42458 3.49166 10.2997 4.36683C11.1749 5.242 11.6666 6.42898 11.6666 7.66666C11.6666 8.90433 11.1749 10.0913 10.2997 10.9665C9.42458 11.8417 8.2376 12.3333 6.99992 12.3333ZM6.99992 1.66666C5.40862 1.66666 3.8825 2.2988 2.75728 3.42402C1.63206 4.54923 0.999919 6.07536 0.999919 7.66666C0.999919 9.25796 1.63206 10.7841 2.75728 11.9093C3.8825 13.0345 5.40862 13.6667 6.99992 13.6667C8.59122 13.6667 10.1173 13.0345 11.2426 11.9093C12.3678 10.7841 12.9999 9.25796 12.9999 7.66666C12.9999 6.07536 12.3678 4.54923 11.2426 3.42402C10.1173 2.2988 8.59122 1.66666 6.99992 1.66666ZM7.33325 4.33332H6.33325V8.33332L9.49992 10.2333L9.99992 9.41332L7.33325 7.83332V4.33332ZM4.25325 1.25999L3.39992 0.23999L0.333252 2.80666L1.19325 3.82666L4.25325 1.25999ZM13.6666 2.81332L10.5999 0.23999L9.73992 1.25999L12.8066 3.83332L13.6666 2.81332Z" fill="#1169B0"/>
</svg>
