<svg width="12" height="10" viewBox="0 0 12 10" fill="none" xmlns="http://www.w3.org/2000/svg">
<path d="M2.66675 9.66665H2.00008L1.56675 8.33331H0.666748V4.98331C0.666748 4.61665 0.797415 4.30553 1.05875 4.04998C1.31964 3.79442 1.63341 3.66665 2.00008 3.66665V1.66665C2.00008 1.29998 2.13075 0.986202 2.39208 0.725313C2.65297 0.46398 2.96675 0.333313 3.33341 0.333313H8.66675C9.03341 0.333313 9.34741 0.46398 9.60875 0.725313C9.86964 0.986202 10.0001 1.29998 10.0001 1.66665V3.66665C10.3667 3.66665 10.6807 3.79709 10.9421 4.05798C11.203 4.31931 11.3334 4.63331 11.3334 4.99998V8.33331H10.4334L10.0001 9.66665H9.33342L8.90008 8.33331H3.10008L2.66675 9.66665ZM6.66675 3.66665H8.66675V1.66665H6.66675V3.66665ZM3.33341 3.66665H5.33342V1.66665H3.33341V3.66665ZM2.00008 6.99998H10.0001V4.99998H2.00008V6.99998ZM10.0001 6.99998H2.00008H10.0001Z" fill="#1169B0"/>
</svg>
