<svg width="14" height="16" viewBox="0 0 14 16" fill="none" xmlns="http://www.w3.org/2000/svg">
<path d="M7 8.66663C8.10457 8.66663 9 7.7712 9 6.66663C9 5.56206 8.10457 4.66663 7 4.66663C5.89543 4.66663 5 5.56206 5 6.66663C5 7.7712 5.89543 8.66663 7 8.66663Z" stroke="#292929" stroke-width="1.5" stroke-linecap="round" stroke-linejoin="round"/>
<path d="M7.00008 1.33331C5.58559 1.33331 4.22904 1.89522 3.22885 2.89541C2.22865 3.8956 1.66675 5.25216 1.66675 6.66665C1.66675 7.92798 1.93475 8.75331 2.66675 9.66665L7.00008 14.6666L11.3334 9.66665C12.0654 8.75331 12.3334 7.92798 12.3334 6.66665C12.3334 5.25216 11.7715 3.8956 10.7713 2.89541C9.77112 1.89522 8.41457 1.33331 7.00008 1.33331V1.33331Z" stroke="#292929" stroke-width="1.5" stroke-linecap="round" stroke-linejoin="round"/>
</svg>
