<svg width="36" height="45" viewBox="0 0 36 45" fill="none" xmlns="http://www.w3.org/2000/svg">
<path d="M36 18.2022C36 28.2551 26.5 39.9438 18 45C10.5 39.4382 0 28.2551 0 18.2022C0 8.14942 8.05887 0 18 0C27.9411 0 36 8.14942 36 18.2022Z" fill="#6AAC1D"/>
<path d="M12.6216 13.3799L11.832 15.7753H15.6V12.1349H14.3304C13.9524 12.1347 13.5838 12.2548 13.2771 12.4783C12.9704 12.7017 12.7411 13.0172 12.6216 13.3799ZM11.4336 16.9888L11.4288 17.0009L11.1096 17.081L10.9632 17.1174C10.5736 17.216 10.2279 17.4434 9.98084 17.7636C9.73383 18.0837 9.59977 18.4782 9.59999 18.8843V20.9326C9.59999 21.1268 9.65999 21.3088 9.76439 21.4569C9.9799 20.8287 10.3934 20.2895 10.9414 19.9221C11.4894 19.5547 12.1416 19.3794 12.7977 19.4233C13.4537 19.4671 14.0774 19.7276 14.5729 20.1647C15.0683 20.6018 15.4081 21.1914 15.54 21.8427H20.46C20.5911 21.1907 20.9305 20.6003 21.426 20.1625C21.9215 19.7247 22.5455 19.4638 23.2021 19.4199C23.8587 19.376 24.5113 19.5517 25.0594 19.9197C25.6076 20.2878 26.0208 20.8279 26.2356 21.4569C26.3428 21.3036 26.4003 21.1204 26.4 20.9326V19.4607C26.4001 19.0594 26.2691 18.6693 26.0274 18.3511C25.7856 18.0329 25.4466 17.8044 25.0632 17.7011L22.422 16.9888H11.4336ZM21.4476 15.7753L19.9608 13.0717C19.8051 12.788 19.5773 12.5516 19.3009 12.3869C19.0245 12.2222 18.7096 12.1352 18.3888 12.1349H16.8V15.7753H21.4476ZM27.6 20.9326C27.6 21.3398 27.4843 21.7383 27.2667 22.0808C27.049 22.4233 26.7386 22.6954 26.3724 22.8645C26.2763 23.5745 25.9348 24.2271 25.4083 24.7068C24.8819 25.1865 24.2045 25.4623 23.4963 25.4852C22.788 25.5082 22.0945 25.2769 21.5388 24.8323C20.983 24.3877 20.6009 23.7585 20.46 23.0562H15.54C15.3991 23.7585 15.0169 24.3877 14.4612 24.8323C13.9054 25.2769 13.212 25.5082 12.5037 25.4852C11.7955 25.4623 11.1181 25.1865 10.5917 24.7068C10.0652 24.2271 9.72369 23.5745 9.62759 22.8645C9.26137 22.6954 8.95095 22.4233 8.7333 22.0808C8.51566 21.7383 8.39996 21.3398 8.39999 20.9326V18.8843C8.39997 18.2393 8.60319 17.6112 8.98017 17.091C9.35714 16.5708 9.88824 16.1856 10.4964 15.9913L11.484 12.9952C11.6832 12.3912 12.0653 11.8659 12.5762 11.4937C13.087 11.1215 13.7007 10.9213 14.3304 10.9214H18.3876C18.9227 10.9213 19.4482 11.0659 19.9094 11.3403C20.3707 11.6147 20.7509 12.0089 21.0108 12.4819L22.8612 15.8518L25.3728 16.5289C26.0116 16.7011 26.5763 17.0819 26.979 17.6121C27.3818 18.1422 27.6001 18.7921 27.6 19.4607V20.9326ZM12.6 20.6293C12.1226 20.6293 11.6648 20.821 11.3272 21.1624C10.9896 21.5037 10.8 21.9667 10.8 22.4495C10.8 22.9322 10.9896 23.3952 11.3272 23.7366C11.6648 24.0779 12.1226 24.2697 12.6 24.2697C13.0774 24.2697 13.5352 24.0779 13.8728 23.7366C14.2103 23.3952 14.4 22.9322 14.4 22.4495C14.4 21.9667 14.2103 21.5037 13.8728 21.1624C13.5352 20.821 13.0774 20.6293 12.6 20.6293ZM23.4 20.6293C22.9226 20.6293 22.4648 20.821 22.1272 21.1624C21.7896 21.5037 21.6 21.9667 21.6 22.4495C21.6 22.9322 21.7896 23.3952 22.1272 23.7366C22.4648 24.0779 22.9226 24.2697 23.4 24.2697C23.8774 24.2697 24.3352 24.0779 24.6728 23.7366C25.0103 23.3952 25.2 22.9322 25.2 22.4495C25.2 21.9667 25.0103 21.5037 24.6728 21.1624C24.3352 20.821 23.8774 20.6293 23.4 20.6293Z" fill="#004500"/>
</svg>
