<svg width="12" height="12" viewBox="0 0 12 12" fill="none" xmlns="http://www.w3.org/2000/svg">
<path d="M4.5 0.20848C4.57321 0.297439 4.61806 0.406309 4.62876 0.521022C4.63945 0.635735 4.6155 0.751019 4.56 0.85198C4.12639 1.64809 3.89995 2.54045 3.9015 3.44698C3.9015 6.46273 6.36 8.90473 9.39 8.90473C9.78525 8.90473 10.17 8.86348 10.5398 8.78473C10.6531 8.76018 10.7712 8.76957 10.8792 8.81172C10.9872 8.85387 11.0805 8.92691 11.1473 9.02173C11.2177 9.12032 11.2537 9.23943 11.2495 9.36056C11.2453 9.48168 11.2012 9.59802 11.124 9.69148C10.5358 10.4141 9.79369 10.9963 8.95188 11.3956C8.11007 11.795 7.18974 12.0015 6.258 12C2.8005 12 0 9.21448 0 5.78248C0 3.19948 1.5855 0.98398 3.843 0.0449797C3.95545 -0.00254638 4.08029 -0.0123009 4.19876 0.0171815C4.31723 0.0466639 4.42294 0.113791 4.5 0.20848ZM3.6435 0.98323C2.77545 1.44885 2.04978 2.14096 1.5436 2.986C1.03742 3.83104 0.769651 4.79744 0.76875 5.78248C0.76875 8.79748 3.228 11.2395 6.258 11.2395C6.98358 11.2407 7.70221 11.0981 8.37229 10.8197C9.04237 10.5414 9.65059 10.1329 10.1618 9.61798C9.909 9.64948 9.65175 9.66523 9.39 9.66523C5.9325 9.66523 3.13275 6.87973 3.13275 3.44773C3.13275 2.57248 3.31425 1.73923 3.6435 0.98323Z" fill="#1169B0"/>
</svg>
