<svg width="12" height="12" viewBox="0 0 12 12" fill="none" xmlns="http://www.w3.org/2000/svg">
<path d="M5 1.66668C5 1.57827 5.03512 1.49349 5.09763 1.43097C5.16014 1.36846 5.24493 1.33334 5.33333 1.33334H6.66667C6.75507 1.33334 6.83986 1.36846 6.90237 1.43097C6.96488 1.49349 7 1.57827 7 1.66668C7 1.75508 6.96488 1.83987 6.90237 1.90238C6.83986 1.96489 6.75507 2.00001 6.66667 2.00001H5.33333C5.24493 2.00001 5.16014 1.96489 5.09763 1.90238C5.03512 1.83987 5 1.75508 5 1.66668Z" fill="#1169B0"/>
<path fill-rule="evenodd" clip-rule="evenodd" d="M9.12144 4.17333C9.00044 4.26833 8.84344 4.34433 8.6541 4.406C8.69033 4.77632 8.64865 5.15011 8.53176 5.50336C8.41487 5.8566 8.22534 6.18148 7.97538 6.45709C7.72541 6.7327 7.42053 6.95295 7.08034 7.10368C6.74015 7.25441 6.37219 7.33227 6.0001 7.33227C5.62802 7.33227 5.26006 7.25441 4.91987 7.10368C4.57968 6.95295 4.2748 6.7327 4.02483 6.45709C3.77486 6.18148 3.58534 5.8566 3.46845 5.50336C3.35156 5.15011 3.30988 4.77632 3.3461 4.406C3.15677 4.34433 2.99977 4.26833 2.8791 4.17333C2.72244 4.05 2.61744 3.88533 2.6051 3.68733C2.59344 3.50367 2.6661 3.34767 2.73877 3.23767C2.81051 3.13348 2.89569 3.03922 2.9921 2.95733C3.03877 2.91633 3.08477 2.88 3.12744 2.84833C3.11477 2.78 3.10077 2.69733 3.08677 2.60167C3.02772 2.18149 2.99876 1.75764 3.0001 1.33333C3.0001 1.22867 3.04477 1.15067 3.06544 1.11767C3.09144 1.076 3.1221 1.04033 3.1501 1.01167C3.20577 0.953333 3.27777 0.894 3.35677 0.837C3.51677 0.721 3.73677 0.590667 3.9981 0.468667C4.5191 0.225333 5.23477 0 6.0001 0C6.76577 0 7.4811 0.225667 8.0021 0.468667C8.22677 0.571426 8.44146 0.694728 8.64344 0.837C8.72244 0.894 8.79444 0.953667 8.8501 1.01167C8.8781 1.04033 8.90877 1.076 8.93477 1.11767C8.95544 1.15067 9.0001 1.22867 9.0001 1.33333C9.0001 1.86733 8.95677 2.3 8.91344 2.60167C8.89944 2.69733 8.88544 2.78 8.87277 2.84833C8.91544 2.88 8.96177 2.91633 9.00844 2.95733C9.09177 3.03033 9.1871 3.12533 9.26144 3.23767C9.33444 3.34767 9.40677 3.50367 9.39544 3.68767C9.3831 3.88533 9.2781 4.05 9.12144 4.17333ZM3.66744 1.43933C3.67244 1.88867 3.70977 2.252 3.74677 2.506C3.75544 2.566 3.7641 2.61933 3.7721 2.66667H8.2281C8.23644 2.61933 8.24477 2.56567 8.25344 2.506C8.2901 2.252 8.32777 1.88867 8.33277 1.43933C8.30682 1.4174 8.28003 1.39649 8.25244 1.37667C8.1321 1.28967 7.94944 1.18 7.7201 1.073C7.2591 0.857667 6.64144 0.666667 6.0001 0.666667C5.35877 0.666667 4.7411 0.857667 4.2801 1.073C4.05077 1.18 3.8681 1.28967 3.7481 1.37633C3.72039 1.39637 3.69348 1.4175 3.66744 1.43967V1.43933ZM3.5961 3.33333L3.5951 3.334C3.53757 3.37234 3.48247 3.41419 3.4301 3.45933C3.37077 3.51133 3.32344 3.562 3.29477 3.606C3.28795 3.6159 3.28182 3.62625 3.27644 3.637C3.28116 3.64131 3.28605 3.64542 3.2911 3.64933C3.3411 3.68867 3.44844 3.74633 3.65777 3.80333C3.6991 3.81467 3.74344 3.82533 3.79077 3.836L3.79377 3.83667C3.9611 3.87367 4.1671 3.90667 4.4181 3.93267C4.77377 3.96967 5.22144 3.994 5.78077 3.99933L6.0001 4C7.07577 4 7.77144 3.933 8.20677 3.83667L8.20944 3.836C8.2571 3.82533 8.30144 3.81467 8.34277 3.80333C8.55177 3.74667 8.65944 3.68867 8.7091 3.64933C8.71416 3.64542 8.71905 3.64131 8.72377 3.637C8.71849 3.62627 8.71247 3.61591 8.70577 3.606C8.667 3.55152 8.62141 3.50223 8.5701 3.45933C8.51785 3.4142 8.46286 3.37234 8.40544 3.334L8.4041 3.33333H3.5961ZM5.90944 4.66667C6.7901 4.66667 7.47277 4.62 7.9961 4.53867C8.01331 4.81044 7.97483 5.08286 7.88303 5.33924C7.79123 5.59561 7.64804 5.83054 7.46223 6.02962C7.27643 6.2287 7.05193 6.38774 6.80249 6.497C6.55305 6.60625 6.28393 6.66341 6.01162 6.66498C5.73931 6.66655 5.46954 6.61249 5.21886 6.50612C4.96818 6.39975 4.74186 6.2433 4.55378 6.04637C4.3657 5.84945 4.21981 5.61618 4.12506 5.36088C4.03031 5.10558 3.9887 4.83362 4.00277 4.56167C4.49044 4.629 5.11544 4.66667 5.90944 4.66667ZM3.35944 10.959C3.34207 11.083 3.33338 11.2081 3.33344 11.3333V11.6667C3.33347 11.7399 3.30936 11.8112 3.26484 11.8694C3.22031 11.9276 3.15785 11.9695 3.08711 11.9886C3.01637 12.0077 2.9413 12.003 2.87351 11.9752C2.80573 11.9474 2.749 11.898 2.7121 11.8347C2.48745 11.9565 2.22456 11.9874 1.97777 11.921L1.33377 11.7483C1.07769 11.6796 0.859391 11.512 0.726874 11.2823C0.594356 11.0527 0.55847 10.7798 0.627104 10.5237L0.885771 9.55767C0.954438 9.30152 1.12203 9.08314 1.3517 8.95056C1.58136 8.81798 1.85428 8.78204 2.11044 8.85067L2.75444 9.023C2.97844 9.083 3.16444 9.21467 3.29377 9.38667C3.60234 8.95715 4.00881 8.60733 4.4795 8.36619C4.9502 8.12504 5.47157 7.99952 6.00044 8C6.52902 7.99965 7.05009 8.12518 7.52053 8.3662C7.99097 8.60721 8.39726 8.95679 8.70577 9.386C8.83975 9.20831 9.0294 9.08063 9.24444 9.02333L9.88844 8.851C10.1445 8.78236 10.4174 8.81825 10.6471 8.95077C10.8767 9.08329 11.0444 9.30159 11.1131 9.55767L11.3721 10.524C11.4061 10.6509 11.4147 10.7832 11.3976 10.9134C11.3804 11.0436 11.3378 11.1691 11.2721 11.2828C11.2064 11.3966 11.119 11.4962 11.0148 11.5762C10.9106 11.6561 10.7916 11.7147 10.6648 11.7487L10.0211 11.921C9.77475 11.9875 9.51228 11.9569 9.28777 11.8357C9.25076 11.8989 9.19395 11.9482 9.12613 11.9759C9.05832 12.0036 8.98326 12.0081 8.91257 11.9889C8.84189 11.9697 8.7795 11.9277 8.73507 11.8694C8.69064 11.8112 8.66664 11.7399 8.66677 11.6667V11.3333C8.66683 11.2081 8.65814 11.083 8.64077 10.959L6.9061 11.424C6.82558 11.5963 6.69757 11.7422 6.5371 11.8443C6.37662 11.9465 6.19034 12.0007 6.0001 12.0007C5.80987 12.0007 5.62359 11.9465 5.46311 11.8443C5.30264 11.7422 5.17462 11.5963 5.0941 11.424L3.35944 10.959ZM5.0401 10.719C5.08484 10.567 5.16496 10.4278 5.27389 10.3128C5.38282 10.1978 5.51746 10.1103 5.66677 10.0573V8.68733C5.19922 8.74644 4.75565 8.92826 4.38113 9.21432C4.00661 9.50037 3.71448 9.88048 3.53444 10.316L5.0401 10.7193V10.719ZM8.46577 10.3157C8.28568 9.88021 7.99353 9.50017 7.61902 9.21418C7.2445 8.92818 6.80095 8.74641 6.33344 8.68733V10.057C6.63477 10.1637 6.8701 10.4103 6.9601 10.7193L8.46577 10.316V10.3157ZM9.18144 10.0757C9.17009 10.0334 9.16719 9.98927 9.1729 9.94587C9.1786 9.90246 9.1928 9.8606 9.21469 9.82268C9.23657 9.78477 9.26571 9.75153 9.30044 9.72487C9.33517 9.69822 9.37481 9.67867 9.4171 9.66733L10.0611 9.49467C10.1465 9.47186 10.2374 9.48387 10.3139 9.52806C10.3904 9.57225 10.4462 9.645 10.4691 9.73033L10.7281 10.6963C10.7394 10.7386 10.7423 10.7827 10.7366 10.8261C10.7309 10.8695 10.7167 10.9114 10.6949 10.9493C10.673 10.9872 10.6438 11.0205 10.6091 11.0471C10.5744 11.0738 10.5347 11.0933 10.4924 11.1047L9.84844 11.2773C9.80613 11.2887 9.762 11.2916 9.71858 11.2858C9.67515 11.2801 9.63328 11.2659 9.59536 11.244C9.55744 11.222 9.52421 11.1929 9.49757 11.1581C9.47093 11.1233 9.4514 11.0837 9.4401 11.0413L9.18144 10.0757ZM1.9381 9.49467C1.8958 9.48327 1.85166 9.48033 1.80821 9.48601C1.76477 9.4917 1.72287 9.50589 1.68491 9.52777C1.64696 9.54966 1.61369 9.57882 1.58701 9.61358C1.56033 9.64833 1.54077 9.68801 1.52944 9.73033L1.27077 10.696C1.25943 10.7383 1.25653 10.7824 1.26223 10.8258C1.26794 10.8692 1.28214 10.9111 1.30402 10.949C1.32591 10.9869 1.35505 11.0201 1.38978 11.0468C1.42451 11.0734 1.46415 11.093 1.50644 11.1043L2.15044 11.277C2.19272 11.2883 2.23683 11.2912 2.28024 11.2855C2.32364 11.2798 2.3655 11.2656 2.40342 11.2437C2.44134 11.2219 2.47458 11.1927 2.50123 11.158C2.52789 11.1233 2.54744 11.0836 2.55877 11.0413L2.81744 10.0753C2.82883 10.033 2.83177 9.98889 2.82609 9.94544C2.82041 9.902 2.80622 9.8601 2.78433 9.82214C2.76244 9.78418 2.73328 9.75092 2.69853 9.72424C2.66377 9.69756 2.6241 9.678 2.58177 9.66667L1.93777 9.49433L1.9381 9.49467ZM6.33344 11C6.33344 11.0884 6.29832 11.1732 6.23581 11.2357C6.17329 11.2982 6.08851 11.3333 6.0001 11.3333C5.9117 11.3333 5.82691 11.2982 5.7644 11.2357C5.70189 11.1732 5.66677 11.0884 5.66677 11C5.66677 10.9116 5.70189 10.8268 5.7644 10.7643C5.82691 10.7018 5.9117 10.6667 6.0001 10.6667C6.08851 10.6667 6.17329 10.7018 6.23581 10.7643C6.29832 10.8268 6.33344 10.9116 6.33344 11Z" fill="#1169B0"/>
</svg>
