<svg width="8" height="12" viewBox="0 0 8 12" fill="none" xmlns="http://www.w3.org/2000/svg">
<path d="M3.6 0.400029C3.69362 0.399998 3.78429 0.432806 3.85621 0.492741C3.92813 0.552675 3.97675 0.635938 3.9936 0.728029L4 0.800029V3.20003C4.00009 3.66109 3.84089 4.10802 3.54932 4.46519C3.25776 4.82236 2.85175 5.06782 2.4 5.16003V11.2C2.40018 11.3 2.36294 11.3964 2.29559 11.4703C2.22825 11.5441 2.13569 11.5901 2.03614 11.5991C1.9366 11.6082 1.83727 11.5796 1.75774 11.5191C1.6782 11.4585 1.62421 11.3704 1.6064 11.272L1.6 11.2V5.16003C1.17133 5.07236 0.78322 4.84659 0.495107 4.51729C0.206994 4.188 0.0347656 3.77334 0.00480071 3.33683L6.78551e-07 3.20003V0.800029C-0.000183332 0.700073 0.0370639 0.603669 0.104407 0.529803C0.171751 0.455936 0.26431 0.409961 0.363858 0.400929C0.463406 0.391897 0.562728 0.420465 0.642266 0.481005C0.721804 0.541545 0.775793 0.629672 0.793601 0.728029L0.800001 0.800029V3.20003C0.799871 3.44829 0.876743 3.69048 1.02002 3.89322C1.1633 4.09596 1.36594 4.24928 1.6 4.33203V0.800029C1.59982 0.700073 1.63706 0.603669 1.70441 0.529803C1.77175 0.455936 1.86431 0.409961 1.96386 0.400929C2.06341 0.391897 2.16273 0.420465 2.24227 0.481005C2.3218 0.541545 2.37579 0.629672 2.3936 0.728029L2.4 0.800029V4.33123C2.8304 4.17923 3.148 3.78883 3.1944 3.31923L3.2 3.20003V0.800029C3.2 0.693943 3.24214 0.592201 3.31716 0.517187C3.39217 0.442172 3.49391 0.400029 3.6 0.400029ZM7.6 0.400029C7.69362 0.399998 7.78429 0.432806 7.85621 0.492741C7.92813 0.552675 7.97675 0.635938 7.9936 0.728029L8 0.800029V11.2C8.00019 11.3 7.96294 11.3964 7.89559 11.4703C7.82825 11.5441 7.73569 11.5901 7.63614 11.5991C7.5366 11.6082 7.43727 11.5796 7.35774 11.5191C7.2782 11.4585 7.22421 11.3704 7.2064 11.272L7.2 11.2V6.80003H6C5.90638 6.80006 5.81571 6.76725 5.74379 6.70732C5.67187 6.64738 5.62325 6.56412 5.6064 6.47203L5.6 6.40003V2.40003C5.6 1.8696 5.81071 1.36089 6.18579 0.985816C6.56086 0.610743 7.06957 0.400029 7.6 0.400029ZM7.2 6.00003V1.26803C6.7696 1.42003 6.452 1.81043 6.4056 2.28083L6.4 2.40003V6.00003H7.2V1.26803V6.00003Z" fill="#1169B0"/>
</svg>
