<svg width="17" height="19" viewBox="0 0 17 19" fill="none" xmlns="http://www.w3.org/2000/svg">
<path d="M9 3V1.21C9 0.76 8.46 0.54 8.15 0.86L5.35 3.65C5.15 3.85 5.15 4.16 5.35 4.36L8.14 7.15C8.46 7.46 9 7.24 9 6.79V5C12.31 5 15 7.69 15 11C15 13.72 13.17 16.02 10.69 16.75C10.27 16.87 10 17.27 10 17.7C10 18.35 10.62 18.86 11.25 18.67C12.909 18.1853 14.3661 17.1758 15.4028 15.7929C16.4395 14.4101 16.9999 12.7283 17 11C17 6.58 13.42 3 9 3ZM3 11C3 9.66 3.44 8.42 4.19 7.41C4.49 7.01 4.45 6.46 4.1 6.1C3.68 5.68 2.96 5.72 2.6 6.2C1.82397 7.23316 1.31005 8.4391 1.10231 9.71444C0.894562 10.9898 0.999186 12.2965 1.40721 13.5225C1.81523 14.7486 2.51448 15.8574 3.44502 16.7539C4.37556 17.6504 5.50962 18.3079 6.75 18.67C7.38 18.86 8 18.35 8 17.7C8 17.27 7.73 16.87 7.31 16.75C4.83 16.02 3 13.72 3 11Z" fill="#003C7D"/>
</svg>
