<svg width="26" height="20" viewBox="0 0 26 20" fill="none" xmlns="http://www.w3.org/2000/svg">
<path d="M5.82875 3.64159L4.77595 6.79999H9.79995V1.99999H8.10715C7.6031 1.9997 7.11175 2.15812 6.70279 2.45278C6.29384 2.74743 5.98803 3.16337 5.82875 3.64159ZM4.24475 8.39999L4.23835 8.41599L3.81275 8.52159L3.61755 8.56959C3.09815 8.69952 2.6371 8.9994 2.30775 9.42152C1.9784 9.84365 1.79965 10.3638 1.79995 10.8992V13.6C1.79995 13.856 1.87995 14.096 2.01915 14.2912C2.30649 13.463 2.85787 12.752 3.58854 12.2676C4.31922 11.7831 5.18876 11.5521 6.06352 11.6099C6.93828 11.6677 7.76986 12.0111 8.43045 12.5875C9.09103 13.1638 9.54408 13.9411 9.71995 14.8H16.28C16.4547 13.9403 16.9073 13.1618 17.5679 12.5846C18.2286 12.0073 19.0607 11.6633 19.9361 11.6054C20.8115 11.5476 21.6816 11.7792 22.4125 12.2645C23.1434 12.7498 23.6944 13.4619 23.9808 14.2912C24.1237 14.0891 24.2003 13.8476 24.2 13.6V11.6592C24.2001 11.1301 24.0255 10.6158 23.7031 10.1962C23.3808 9.77664 22.9288 9.47535 22.4176 9.33919L18.896 8.39999H4.24315H4.24475ZM17.5968 6.79999L15.6144 3.23519C15.4068 2.86121 15.103 2.54949 14.7345 2.33233C14.366 2.11516 13.9461 2.00042 13.5184 1.99999H11.4V6.79999H17.5968ZM25.8 13.6C25.8 14.1368 25.6457 14.6623 25.3555 15.1139C25.0653 15.5655 24.6514 15.9242 24.1632 16.1472C24.035 17.0833 23.5797 17.9438 22.8777 18.5763C22.1758 19.2088 21.2727 19.5724 20.3283 19.6027C19.384 19.633 18.4594 19.328 17.7184 18.7418C16.9774 18.1556 16.4678 17.326 16.28 16.4H9.71995C9.53211 17.326 9.02254 18.1556 8.28154 18.7418C7.54054 19.328 6.61595 19.633 5.67159 19.6027C4.72724 19.5724 3.82409 19.2088 3.12217 18.5763C2.42025 17.9438 1.96488 17.0833 1.83675 16.1472C1.34846 15.9242 0.93456 15.5655 0.644363 15.1139C0.354166 14.6623 0.199904 14.1368 0.199951 13.6V10.8992C0.199918 10.0488 0.470882 9.2206 0.973514 8.5347C1.47615 7.84879 2.18429 7.34092 2.99515 7.08479L4.31195 3.13439C4.57758 2.338 5.08705 1.64537 5.76819 1.15461C6.44934 0.663851 7.26763 0.399848 8.10715 0.399994H13.5168C14.2303 0.399838 14.9309 0.590544 15.5458 0.952339C16.1608 1.31413 16.6679 1.83385 17.0144 2.45759L19.4816 6.90079L22.8304 7.79359C23.6821 8.02067 24.435 8.52274 24.972 9.22179C25.509 9.92083 25.8001 10.7777 25.8 11.6592V13.6ZM5.79995 13.2C5.16343 13.2 4.55298 13.4529 4.10289 13.9029C3.65281 14.353 3.39995 14.9635 3.39995 15.6C3.39995 16.2365 3.65281 16.847 4.10289 17.2971C4.55298 17.7471 5.16343 18 5.79995 18C6.43647 18 7.04692 17.7471 7.49701 17.2971C7.9471 16.847 8.19995 16.2365 8.19995 15.6C8.19995 14.9635 7.9471 14.353 7.49701 13.9029C7.04692 13.4529 6.43647 13.2 5.79995 13.2ZM20.2 13.2C19.5634 13.2 18.953 13.4529 18.5029 13.9029C18.0528 14.353 17.8 14.9635 17.8 15.6C17.8 16.2365 18.0528 16.847 18.5029 17.2971C18.953 17.7471 19.5634 18 20.2 18C20.8365 18 21.4469 17.7471 21.897 17.2971C22.3471 16.847 22.6 16.2365 22.6 15.6C22.6 14.9635 22.3471 14.353 21.897 13.9029C21.4469 13.4529 20.8365 13.2 20.2 13.2Z" fill="#003C7D"/>
</svg>
