<svg width="56" height="40" viewBox="0 0 56 40" fill="none" xmlns="http://www.w3.org/2000/svg">
<path d="M51.8513 29.112L51.3263 26.4058H45.4603L44.527 29.0928L39.8253 29.1024C42.0636 23.5531 44.3068 18.0059 46.5547 12.4607C46.9373 11.5202 47.6163 11.0415 48.6173 11.0463C49.3827 11.0535 50.631 11.0535 52.3647 11.0487L56 29.1048L51.8513 29.112ZM46.781 22.6988H50.561L49.1493 15.9151L46.781 22.6988ZM16.4733 11.0439L21.2007 11.0487L13.8927 29.1144L9.107 29.1096C7.90358 24.3378 6.71513 19.5619 5.54167 14.7821C5.30833 13.8295 4.84633 13.1632 3.95733 12.848C3.16633 12.5666 1.848 12.1336 0 11.5442V11.0511H7.553C8.85967 11.0511 9.62267 11.703 9.86767 13.0405C10.115 14.3804 10.7357 17.7915 11.7343 23.2737L16.4733 11.0439ZM27.6967 11.0487L23.9587 29.1096L19.46 29.1048L23.1933 11.0439L27.6967 11.0487ZM36.82 10.7143C38.1663 10.7143 39.8627 11.1473 40.838 11.5442L40.0493 15.2897C39.1673 14.924 37.716 14.4309 36.4957 14.4477C34.7223 14.479 33.6257 15.2464 33.6257 15.9825C33.6257 17.1804 35.5297 17.7842 37.4897 19.0929C39.7273 20.5843 40.0213 21.9242 39.9933 23.3796C39.963 26.401 37.4897 29.3815 32.2723 29.3815C29.8923 29.3454 29.0337 29.1385 27.0923 28.4289L27.9137 24.5198C29.89 25.3738 30.7277 25.6456 32.417 25.6456C33.964 25.6456 35.2917 25.0009 35.3033 23.8775C35.3127 23.0789 34.8367 22.682 33.1007 21.6957C31.3647 20.707 28.9287 19.3382 28.9613 16.5911C29.001 13.0741 32.2327 10.7143 36.8223 10.7143H36.82Z" fill="white"/>
</svg>
