<svg width="14" height="13" viewBox="0 0 14 13" fill="none" xmlns="http://www.w3.org/2000/svg">
<path d="M7.83335 1C7.03102 0.977092 6.23225 1.11534 5.4843 1.40657C4.73634 1.6978 4.0544 2.13609 3.47881 2.69551C2.90323 3.25493 2.4457 3.92412 2.13329 4.66348C1.82089 5.40284 1.65995 6.19735 1.66001 7H0.46668C0.16668 7 0.0200138 7.36 0.233347 7.56667L2.09335 9.43334C2.22668 9.56667 2.43335 9.56667 2.56668 9.43334L4.42668 7.56667C4.64001 7.36 4.48668 7 4.19335 7H2.99335C2.99335 4.4 5.11335 2.3 7.72668 2.33334C10.2067 2.36667 12.2933 4.45334 12.3267 6.93334C12.36 9.54 10.26 11.6667 7.66001 11.6667C6.58668 11.6667 5.59335 11.3 4.80668 10.68C4.67899 10.5794 4.51878 10.5293 4.35652 10.5391C4.19427 10.5489 4.04129 10.6181 3.92668 10.7333C3.64668 11.02 3.66668 11.4867 3.98001 11.7333C5.03016 12.5559 6.32609 13.0019 7.66001 13C11.0267 13 13.7533 10.22 13.66 6.82667C13.5733 3.7 10.96 1.08667 7.83335 1ZM7.49335 4.33334C7.22001 4.33334 6.99335 4.56 6.99335 4.83334V7.28667C6.99335 7.52 7.12001 7.74 7.32001 7.86L9.40001 9.09334C9.64001 9.23334 9.94668 9.15334 10.0867 8.92C10.2267 8.68 10.1467 8.37334 9.91335 8.23334L7.99335 7.09334V4.82667C7.99335 4.56 7.77335 4.33334 7.49335 4.33334Z" fill="#1169B0"/>
</svg>
