<svg width="300" height="300" viewBox="0 0 300 300" fill="none" xmlns="http://www.w3.org/2000/svg">
<path d="M300 229.44H0V229.59H300V229.44Z" fill="#EBEBEB"/>
<path d="M269.94 239.094H250.068V239.244H269.94V239.094Z" fill="#EBEBEB"/>
<path d="M198.732 240.726H193.518V240.876H198.732V240.726Z" fill="#EBEBEB"/>
<path d="M249.467 233.526H237.953V233.676H249.467V233.526Z" fill="#EBEBEB"/>
<path d="M57.3906 234.534H31.4766V234.684H57.3906V234.534Z" fill="#EBEBEB"/>
<path d="M66.5343 234.534H62.7363V234.684H66.5343V234.534Z" fill="#EBEBEB"/>
<path d="M135.091 237.066H78.8828V237.216H135.091V237.066Z" fill="#EBEBEB"/>
<path d="M142.2 202.68H26.3458C25.4382 202.678 24.5683 202.317 23.9271 201.674C23.2859 201.032 22.9258 200.162 22.9258 199.254V36.396C22.9337 35.4936 23.2973 34.6308 23.9376 33.9949C24.578 33.3591 25.4434 33.0015 26.3458 33H142.2C143.108 33 143.98 33.361 144.622 34.0035C145.265 34.646 145.626 35.5174 145.626 36.426V199.254C145.626 200.163 145.265 201.034 144.622 201.677C143.98 202.319 143.108 202.68 142.2 202.68ZM26.3458 33.12C25.478 33.1216 24.6463 33.4674 24.0332 34.0816C23.4201 34.6958 23.0758 35.5282 23.0758 36.396V199.254C23.0758 200.122 23.4201 200.954 24.0332 201.568C24.6463 202.183 25.478 202.528 26.3458 202.53H142.2C143.068 202.528 143.9 202.183 144.515 201.569C145.129 200.955 145.474 200.122 145.476 199.254V36.396C145.474 35.5276 145.129 34.6953 144.515 34.0813C143.9 33.4672 143.068 33.1216 142.2 33.12H26.3458Z" fill="#EBEBEB"/>
<path d="M271.985 202.68H156.125C155.217 202.678 154.347 202.317 153.704 201.675C153.062 201.033 152.701 200.162 152.699 199.254V36.396C152.709 35.4931 153.074 34.6302 153.715 33.9946C154.356 33.3589 155.222 33.0015 156.125 33H271.985C272.887 33.0031 273.75 33.3613 274.389 33.997C275.029 34.6327 275.391 35.4947 275.399 36.396V199.254C275.399 200.161 275.04 201.03 274.4 201.672C273.76 202.314 272.892 202.677 271.985 202.68ZM156.125 33.12C155.257 33.1216 154.425 33.4672 153.81 34.0813C153.196 34.6953 152.851 35.5276 152.849 36.396V199.254C152.851 200.122 153.196 200.955 153.81 201.569C154.425 202.183 155.257 202.528 156.125 202.53H271.985C272.854 202.528 273.686 202.183 274.3 201.569C274.914 200.955 275.26 200.122 275.261 199.254V36.396C275.26 35.5276 274.914 34.6953 274.3 34.0813C273.686 33.4672 272.854 33.1216 271.985 33.12H156.125Z" fill="#EBEBEB"/>
<path d="M136.398 95.292V108.954L143.43 109.614C144.373 114.107 146.154 118.381 148.68 122.214L144.162 127.674L153.816 137.334L159.276 132.81C163.108 135.338 167.383 137.12 171.876 138.06L172.536 145.092H186.198L186.864 138.06C191.356 137.116 195.631 135.335 199.464 132.81L204.918 137.334L214.578 127.674L210.06 122.214C212.587 118.382 214.366 114.107 215.304 109.614L222.342 108.954V95.292L215.304 94.626C214.367 90.1328 212.588 85.8575 210.06 82.026L214.578 76.566L204.918 66.906L199.5 71.4C195.668 68.8744 191.393 67.0952 186.9 66.156L186.234 59.118H172.554L171.894 66.156C167.401 67.0941 163.126 68.8734 159.294 71.4L153.834 66.882L144.18 76.542L148.698 81.996C146.174 85.8296 144.393 90.1039 143.448 94.596L136.398 95.292ZM179.4 83.628C183.058 83.628 186.633 84.7125 189.674 86.7444C192.715 88.7764 195.085 91.6644 196.485 95.0434C197.884 98.4224 198.251 102.14 197.537 105.728C196.824 109.315 195.062 112.61 192.476 115.196C189.89 117.782 186.595 119.543 183.008 120.257C179.421 120.97 175.703 120.604 172.324 119.204C168.945 117.805 166.057 115.435 164.025 112.394C161.993 109.353 160.908 105.777 160.908 102.12C160.908 97.2156 162.857 92.5121 166.325 89.0442C169.793 85.5762 174.496 83.628 179.4 83.628Z" fill="#E0E0E0"/>
<path d="M113.316 156.42L117.24 159.666L124.2 152.724L120.936 148.8C122.751 146.041 124.029 142.966 124.704 139.734L129.756 139.26V129.45L124.704 128.97C124.03 125.74 122.752 122.666 120.936 119.91L124.182 115.986L117.24 109.044L113.316 112.29C110.559 110.474 107.483 109.195 104.25 108.522L103.776 103.47H93.9605L93.4865 108.522C90.2547 109.198 87.1791 110.476 84.4205 112.29L80.4965 109.044L73.5605 115.986L76.8065 119.91C74.989 122.665 73.7104 125.739 73.0385 128.97L67.9805 129.45V139.266L73.0385 139.74C73.7103 142.97 74.9868 146.044 76.8005 148.8L73.5545 152.718L80.4905 159.66L84.4145 156.414C87.1723 158.238 90.2505 159.522 93.4865 160.2L93.9605 165.258H103.8L104.274 160.2C107.5 159.523 110.568 158.24 113.316 156.42ZM85.5845 134.358C85.5833 131.729 86.3619 129.159 87.8217 126.972C89.2816 124.786 91.3572 123.081 93.7858 122.075C96.2145 121.068 98.8872 120.804 101.466 121.317C104.044 121.83 106.413 123.096 108.272 124.955C110.131 126.814 111.397 129.182 111.909 131.761C112.422 134.339 112.158 137.012 111.152 139.441C110.145 141.869 108.441 143.945 106.254 145.405C104.068 146.865 101.497 147.643 98.8685 147.642C95.3458 147.64 91.9679 146.24 89.477 143.749C86.9861 141.259 85.5861 137.881 85.5845 134.358Z" fill="#E0E0E0"/>
<path d="M156.941 222.906C160.79 222.098 164.454 220.576 167.741 218.418L172.409 222.282L180.671 214.02L176.807 209.352C178.968 206.066 180.488 202.402 181.289 198.552L187.289 197.982V186.306L181.289 185.736C180.488 181.886 178.968 178.222 176.807 174.936L180.671 170.268L172.403 162L167.735 165.864C164.448 163.706 160.784 162.184 156.935 161.376L156.365 155.376H144.689L144.089 161.376C140.24 162.182 136.576 163.704 133.289 165.864L128.657 162L120.395 170.262L124.259 174.93C122.097 178.216 120.575 181.88 119.771 185.73L113.771 186.3V198L119.771 198.57C120.575 202.42 122.097 206.084 124.259 209.37L120.395 214.038L128.657 222.3L133.325 218.436C136.612 220.596 140.276 222.118 144.125 222.924L144.725 228.924H156.407L156.941 222.906ZM134.741 192.144C134.741 189.014 135.67 185.955 137.408 183.353C139.147 180.751 141.619 178.723 144.51 177.526C147.401 176.328 150.583 176.015 153.652 176.626C156.722 177.237 159.541 178.745 161.753 180.958C163.966 183.172 165.472 185.991 166.082 189.061C166.692 192.131 166.378 195.312 165.179 198.203C163.981 201.094 161.952 203.565 159.349 205.302C156.747 207.04 153.687 207.967 150.557 207.966C148.477 207.97 146.417 207.564 144.494 206.77C142.572 205.977 140.824 204.812 139.352 203.342C137.88 201.872 136.713 200.127 135.917 198.205C135.12 196.284 134.711 194.224 134.711 192.144H134.741Z" fill="#E0E0E0"/>
<path d="M240.93 126.738H253.836C254.116 126.735 254.391 126.66 254.633 126.519C254.876 126.379 255.077 126.178 255.219 125.936C255.36 125.694 255.437 125.42 255.44 125.14C255.444 124.86 255.375 124.583 255.24 124.338L248.784 113.16C248.643 112.913 248.439 112.708 248.193 112.565C247.947 112.423 247.668 112.347 247.383 112.347C247.099 112.347 246.819 112.423 246.573 112.565C246.327 112.708 246.123 112.913 245.982 113.16L239.532 124.338C239.398 124.583 239.329 124.859 239.332 125.138C239.336 125.418 239.411 125.692 239.552 125.934C239.693 126.175 239.894 126.376 240.135 126.517C240.377 126.658 240.651 126.734 240.93 126.738ZM248.25 116.178L247.968 121.746H246.768L246.474 116.178H248.25ZM246.45 123.66C246.449 123.537 246.473 123.416 246.521 123.303C246.568 123.19 246.638 123.088 246.726 123.002C246.814 122.917 246.919 122.851 247.033 122.807C247.148 122.763 247.27 122.743 247.392 122.748C247.516 122.742 247.639 122.762 247.755 122.805C247.871 122.848 247.977 122.914 248.067 122.999C248.156 123.085 248.228 123.187 248.277 123.301C248.326 123.414 248.352 123.536 248.352 123.66C248.353 123.785 248.329 123.909 248.28 124.024C248.232 124.139 248.161 124.243 248.071 124.33C247.981 124.417 247.875 124.485 247.758 124.53C247.642 124.574 247.517 124.595 247.392 124.59C247.267 124.596 247.142 124.576 247.025 124.532C246.908 124.487 246.801 124.419 246.711 124.332C246.622 124.245 246.55 124.141 246.502 124.025C246.454 123.909 246.43 123.785 246.432 123.66H246.45Z" fill="#F0F0F0"/>
<path d="M52.2 76.338H65.1C65.3801 76.3353 65.6548 76.26 65.8971 76.1194C66.1394 75.9789 66.3411 75.7779 66.4825 75.5361C66.624 75.2943 66.7003 75.02 66.7041 74.7399C66.7078 74.4598 66.6389 74.1835 66.504 73.938L60 62.73C59.858 62.4833 59.6534 62.2783 59.4069 62.1358C59.1605 61.9933 58.8808 61.9182 58.596 61.9182C58.3113 61.9182 58.0316 61.9933 57.7851 62.1358C57.5387 62.2783 57.3341 62.4833 57.192 62.73L50.766 73.908C50.6225 74.1566 50.5475 74.4388 50.5488 74.7259C50.5502 75.0129 50.6278 75.2944 50.7736 75.5416C50.9195 75.7889 51.1285 75.9929 51.3791 76.1328C51.6297 76.2727 51.913 76.3435 52.2 76.338ZM59.52 65.784L59.232 71.346H58.032L57.732 65.784H59.52ZM57.72 73.266C57.7183 73.1435 57.7415 73.0218 57.7882 72.9085C57.8349 72.7952 57.9041 72.6925 57.9916 72.6067C58.0791 72.5209 58.1831 72.4537 58.2973 72.4092C58.4115 72.3648 58.5335 72.3439 58.656 72.348C58.7832 72.3377 58.9112 72.3539 59.0318 72.3955C59.1524 72.4372 59.2632 72.5033 59.357 72.5899C59.4507 72.6764 59.5256 72.7814 59.5768 72.8983C59.628 73.0152 59.6544 73.1414 59.6544 73.269C59.6544 73.3966 59.628 73.5229 59.5768 73.6397C59.5256 73.7566 59.4507 73.8616 59.357 73.9482C59.2632 74.0347 59.1524 74.1009 59.0318 74.1425C58.9112 74.1841 58.7832 74.2003 58.656 74.19C58.5293 74.2001 58.4019 74.1835 58.282 74.1415C58.1621 74.0994 58.0523 74.0327 57.9596 73.9457C57.867 73.8587 57.7935 73.7533 57.744 73.6362C57.6945 73.5192 57.67 73.3931 57.672 73.266H57.72Z" fill="#F0F0F0"/>
<path d="M86.791 213.834H99.691C99.9754 213.834 100.255 213.759 100.501 213.617C100.748 213.475 100.952 213.271 101.095 213.024C101.237 212.778 101.312 212.499 101.312 212.214C101.312 211.93 101.237 211.65 101.095 211.404L94.645 200.226C94.5029 199.979 94.2983 199.774 94.0519 199.632C93.8054 199.489 93.5257 199.414 93.241 199.414C92.9562 199.414 92.6765 199.489 92.4301 199.632C92.1836 199.774 91.979 199.979 91.837 200.226L85.387 211.404C85.2447 211.65 85.1699 211.93 85.1699 212.214C85.17 212.499 85.2449 212.778 85.3872 213.024C85.5295 213.271 85.7342 213.475 85.9806 213.617C86.227 213.759 86.5065 213.834 86.791 213.834ZM94.111 203.274L93.823 208.842H92.623L92.323 203.274H94.111ZM92.311 210.756C92.3101 210.633 92.334 210.512 92.3814 210.399C92.4288 210.286 92.4987 210.184 92.5867 210.098C92.6748 210.013 92.7793 209.947 92.8938 209.903C93.0083 209.859 93.1305 209.839 93.253 209.844C93.3768 209.838 93.5005 209.858 93.6167 209.901C93.7329 209.944 93.8392 210.01 93.9293 210.095C94.0195 210.18 94.0916 210.283 94.1413 210.396C94.1911 210.51 94.2175 210.632 94.219 210.756C94.2191 210.881 94.1939 211.005 94.1449 211.12C94.0959 211.236 94.0242 211.34 93.934 211.427C93.8438 211.514 93.7369 211.581 93.6199 211.626C93.5029 211.67 93.3781 211.691 93.253 211.686C93.1274 211.693 93.0018 211.673 92.8841 211.629C92.7663 211.585 92.6587 211.518 92.5682 211.431C92.4776 211.343 92.4059 211.239 92.3575 211.122C92.3092 211.006 92.2851 210.882 92.287 210.756H92.311Z" fill="#F0F0F0"/>
<path d="M207.599 197.664H220.505C220.789 197.663 221.068 197.588 221.314 197.445C221.559 197.303 221.763 197.098 221.905 196.852C222.046 196.606 222.121 196.327 222.12 196.043C222.12 195.759 222.045 195.48 221.903 195.234L215.459 184.056C215.317 183.809 215.113 183.604 214.866 183.462C214.62 183.319 214.34 183.244 214.055 183.244C213.771 183.244 213.491 183.319 213.245 183.462C212.998 183.604 212.793 183.809 212.651 184.056L206.201 195.234C206.059 195.48 205.985 195.759 205.984 196.043C205.984 196.327 206.059 196.606 206.2 196.852C206.342 197.098 206.546 197.303 206.791 197.445C207.037 197.588 207.315 197.663 207.599 197.664ZM214.919 187.104L214.631 192.672H213.431L213.131 187.104H214.919ZM213.119 194.586C213.118 194.464 213.141 194.342 213.188 194.229C213.234 194.116 213.304 194.014 213.391 193.929C213.479 193.843 213.583 193.777 213.697 193.733C213.811 193.689 213.933 193.669 214.055 193.674C214.179 193.668 214.303 193.688 214.419 193.731C214.535 193.774 214.642 193.84 214.732 193.925C214.822 194.01 214.894 194.113 214.944 194.226C214.994 194.34 215.02 194.462 215.021 194.586C215.022 194.711 214.996 194.835 214.947 194.95C214.898 195.066 214.827 195.17 214.736 195.257C214.646 195.344 214.539 195.411 214.422 195.456C214.305 195.5 214.181 195.521 214.055 195.516C213.931 195.521 213.807 195.5 213.691 195.456C213.575 195.411 213.469 195.343 213.381 195.256C213.292 195.169 213.222 195.064 213.175 194.949C213.128 194.834 213.105 194.71 213.107 194.586H213.119Z" fill="#F0F0F0"/>
<path d="M216.883 56.274H224.029C224.186 56.2735 224.34 56.2319 224.476 56.1532C224.612 56.0746 224.725 55.9617 224.804 55.8258C224.883 55.6898 224.925 55.5356 224.926 55.3785C224.927 55.2213 224.886 55.0667 224.809 54.93L221.209 48.744C221.131 48.6068 221.018 48.4927 220.881 48.4133C220.745 48.334 220.589 48.2922 220.432 48.2922C220.274 48.2922 220.119 48.334 219.982 48.4133C219.846 48.4927 219.733 48.6068 219.655 48.744L216.085 54.93C216.004 55.0677 215.962 55.2245 215.963 55.3839C215.964 55.5433 216.007 55.6997 216.088 55.8368C216.17 55.9739 216.286 56.0867 216.426 56.1636C216.566 56.2405 216.723 56.2786 216.883 56.274ZM220.939 50.43L220.801 53.514H220.147L219.979 50.43H220.939ZM219.931 54.6C219.93 54.5318 219.943 54.4641 219.969 54.401C219.995 54.338 220.034 54.2809 220.082 54.2332C220.131 54.1855 220.189 54.1482 220.253 54.1236C220.316 54.099 220.384 54.0876 220.453 54.09C220.588 54.09 220.718 54.1437 220.813 54.2394C220.909 54.335 220.963 54.4648 220.963 54.6C220.963 54.7353 220.909 54.865 220.813 54.9606C220.718 55.0563 220.588 55.11 220.453 55.11C220.384 55.1125 220.316 55.101 220.253 55.0764C220.189 55.0518 220.131 55.0145 220.082 54.9668C220.034 54.9192 219.995 54.862 219.969 54.799C219.943 54.7359 219.93 54.6682 219.931 54.6Z" fill="#F0F0F0"/>
<path d="M38.6631 150.9H45.8091C45.967 150.901 46.1223 150.861 46.2595 150.783C46.3966 150.704 46.5106 150.591 46.5898 150.455C46.6691 150.318 46.7108 150.163 46.7106 150.005C46.7105 149.847 46.6686 149.692 46.5891 149.556L42.9891 143.37C42.9119 143.233 42.7995 143.118 42.6634 143.039C42.5274 142.959 42.3727 142.917 42.2151 142.917C42.0575 142.917 41.9028 142.959 41.7668 143.039C41.6307 143.118 41.5183 143.233 41.4411 143.37L37.8411 149.556C37.7595 149.696 37.7172 149.855 37.7188 150.016C37.7204 150.178 37.7657 150.336 37.8501 150.474C37.9344 150.612 38.0546 150.724 38.1977 150.799C38.3409 150.874 38.5017 150.909 38.6631 150.9ZM42.7191 145.056L42.5631 148.14H41.9091L41.7471 145.056H42.7191ZM41.7111 149.202C41.7102 149.134 41.7232 149.066 41.7493 149.003C41.7754 148.94 41.814 148.883 41.8628 148.835C41.9116 148.788 41.9696 148.75 42.0333 148.726C42.0969 148.701 42.1649 148.69 42.2331 148.692C42.3684 148.692 42.4981 148.746 42.5937 148.841C42.6894 148.937 42.7431 149.067 42.7431 149.202C42.7431 149.337 42.6894 149.467 42.5937 149.563C42.4981 149.658 42.3684 149.712 42.2331 149.712C42.1649 149.714 42.0969 149.703 42.0333 149.678C41.9696 149.654 41.9116 149.617 41.8628 149.569C41.814 149.521 41.7754 149.464 41.7493 149.401C41.7232 149.338 41.7102 149.27 41.7111 149.202Z" fill="#F0F0F0"/>
<path d="M175.487 105.174H182.633C182.791 105.173 182.945 105.131 183.081 105.051C183.217 104.972 183.33 104.858 183.409 104.722C183.487 104.585 183.528 104.43 183.528 104.273C183.528 104.115 183.486 103.96 183.407 103.824L179.837 97.638C179.759 97.5008 179.646 97.3867 179.51 97.3073C179.373 97.228 179.218 97.1862 179.06 97.1862C178.902 97.1862 178.747 97.228 178.611 97.3073C178.474 97.3867 178.361 97.5008 178.283 97.638L174.683 103.824C174.603 103.963 174.561 104.12 174.563 104.28C174.564 104.44 174.607 104.597 174.689 104.735C174.771 104.872 174.888 104.986 175.029 105.063C175.169 105.14 175.327 105.178 175.487 105.174ZM179.537 99.324L179.381 102.408H178.727L178.565 99.324H179.537ZM178.535 103.47C178.534 103.402 178.547 103.335 178.573 103.272C178.599 103.21 178.637 103.153 178.685 103.105C178.733 103.058 178.79 103.02 178.853 102.995C178.916 102.97 178.984 102.958 179.051 102.96C179.154 102.96 179.254 102.99 179.339 103.047C179.424 103.104 179.49 103.185 179.529 103.28C179.567 103.375 179.577 103.479 179.557 103.579C179.536 103.679 179.487 103.771 179.414 103.843C179.341 103.915 179.249 103.964 179.148 103.983C179.048 104.002 178.944 103.991 178.85 103.951C178.755 103.911 178.675 103.844 178.619 103.758C178.563 103.673 178.534 103.572 178.535 103.47Z" fill="#F0F0F0"/>
<path d="M117.031 52.998H98.4668V65.268H117.031V52.998Z" fill="#E0E0E0"/>
<path d="M117.067 52.998H98.4668V55.014H117.067V52.998Z" fill="#F0F0F0"/>
<path d="M76.4644 98.496H57.9004V110.766H76.4644V98.496Z" fill="#E0E0E0"/>
<path d="M76.5004 98.496H57.9004V100.512H76.5004V98.496Z" fill="#F0F0F0"/>
<path d="M73.896 185.832H55.332V198.102H73.896V185.832Z" fill="#E0E0E0"/>
<path d="M73.932 185.832H55.332V187.848H73.932V185.832Z" fill="#F0F0F0"/>
<path d="M216.828 154.212H198.264V166.482H216.828V154.212Z" fill="#E0E0E0"/>
<path d="M216.864 154.212H198.264V156.228H216.864V154.212Z" fill="#F0F0F0"/>
<path d="M257.513 170.13H238.949V182.4H257.513V170.13Z" fill="#E0E0E0"/>
<path d="M257.549 170.13H238.949V172.146H257.549V170.13Z" fill="#F0F0F0"/>
<path d="M250.685 78.456H232.121V90.726H250.685V78.456Z" fill="#E0E0E0"/>
<path d="M250.721 78.456H232.121V80.472H250.721V78.456Z" fill="#F0F0F0"/>
<path d="M150 256.536C214.249 256.536 266.334 253.495 266.334 249.744C266.334 245.993 214.249 242.952 150 242.952C85.7505 242.952 33.666 245.993 33.666 249.744C33.666 253.495 85.7505 256.536 150 256.536Z" fill="#F5F5F5"/>
<path d="M128.089 71.652H110.857C109.449 71.652 108.098 72.2114 107.102 73.2073C106.106 74.2031 105.547 75.5537 105.547 76.962V91.962C105.547 92.659 105.684 93.3492 105.951 93.9931C106.218 94.637 106.609 95.222 107.103 95.7146C107.596 96.2072 108.181 96.5978 108.825 96.864C109.469 97.1302 110.16 97.2668 110.857 97.266H114.085L112.885 102.006L117.685 97.266H128.125C128.821 97.266 129.511 97.1288 130.155 96.8623C130.798 96.5957 131.383 96.205 131.875 95.7125C132.368 95.22 132.759 94.6353 133.025 93.9918C133.292 93.3482 133.429 92.6585 133.429 91.962V76.962C133.429 76.2622 133.291 75.5692 133.022 74.923C132.753 74.2768 132.359 73.6901 131.863 73.1966C131.367 72.7031 130.778 72.3126 130.13 72.0476C129.482 71.7825 128.789 71.648 128.089 71.652Z" fill="#619EEA"/>
<path opacity="0.7" d="M128.089 71.652H110.857C109.449 71.652 108.098 72.2114 107.102 73.2073C106.106 74.2031 105.547 75.5537 105.547 76.962V91.962C105.547 92.659 105.684 93.3492 105.951 93.9931C106.218 94.637 106.609 95.222 107.103 95.7146C107.596 96.2072 108.181 96.5978 108.825 96.864C109.469 97.1302 110.16 97.2668 110.857 97.266H114.085L112.885 102.006L117.685 97.266H128.125C128.821 97.266 129.511 97.1288 130.155 96.8623C130.798 96.5957 131.383 96.205 131.875 95.7125C132.368 95.22 132.759 94.6353 133.025 93.9918C133.292 93.3482 133.429 92.6585 133.429 91.962V76.962C133.429 76.2622 133.291 75.5692 133.022 74.923C132.753 74.2768 132.359 73.6901 131.863 73.1966C131.367 72.7031 130.778 72.3126 130.13 72.0476C129.482 71.7825 128.789 71.648 128.089 71.652Z" fill="white"/>
<path d="M119.474 93.474C117.717 93.474 116.001 92.9532 114.54 91.9774C113.08 91.0017 111.942 89.6148 111.27 87.9922C110.598 86.3696 110.422 84.5841 110.764 82.8616C111.107 81.139 111.953 79.5568 113.195 78.3149C114.437 77.073 116.019 76.2273 117.741 75.8846C119.464 75.542 121.249 75.7178 122.872 76.3899C124.495 77.062 125.881 78.2002 126.857 79.6605C127.833 81.1208 128.354 82.8377 128.354 84.594C128.351 86.9481 127.414 89.205 125.749 90.8696C124.085 92.5342 121.828 93.4708 119.474 93.474ZM119.474 76.914C117.955 76.914 116.47 77.3644 115.207 78.2083C113.944 79.0522 112.96 80.2517 112.378 81.655C111.797 83.0583 111.645 84.6025 111.941 86.0923C112.238 87.5821 112.969 88.9505 114.043 90.0246C115.117 91.0986 116.486 91.8301 117.975 92.1264C119.465 92.4228 121.009 92.2707 122.413 91.6894C123.816 91.1081 125.016 90.1237 125.859 88.8608C126.703 87.5978 127.154 86.113 127.154 84.594C127.152 82.5576 126.343 80.6051 124.903 79.1652C123.463 77.7252 121.51 76.9156 119.474 76.914Z" fill="#619EEA"/>
<path d="M118.111 88.026C118.028 88.0258 117.947 88.0086 117.872 87.9755C117.796 87.9425 117.729 87.8943 117.673 87.834L115.057 85.002C115.003 84.9439 114.961 84.8757 114.933 84.8013C114.906 84.7268 114.894 84.6477 114.897 84.5685C114.9 84.4893 114.919 84.4115 114.953 84.3397C114.987 84.2678 115.034 84.2034 115.093 84.15C115.21 84.0429 115.365 83.9866 115.523 83.9933C115.682 84.0001 115.831 84.0694 115.939 84.186L118.117 86.55L123.001 81.36C123.113 81.2483 123.265 81.1855 123.424 81.1855C123.582 81.1855 123.734 81.2483 123.847 81.36C123.903 81.4158 123.948 81.4822 123.978 81.5553C124.009 81.6284 124.024 81.7068 124.024 81.786C124.024 81.8652 124.009 81.9437 123.978 82.0168C123.948 82.0899 123.903 82.1562 123.847 82.212L118.513 87.864C118.404 87.9662 118.26 88.024 118.111 88.026Z" fill="#619EEA"/>
<path d="M97.9805 246.768L102.156 246.696L103.194 237.048L99.0185 237.12L97.9805 246.768Z" fill="#E4897B"/>
<path opacity="0.2" d="M103.194 237.054L102.66 242.022L98.4844 242.094L99.0184 237.12L103.194 237.054Z" fill="black"/>
<path d="M107.771 202.23C107.771 215.43 104.057 240.564 104.057 240.564L97.0729 241.65C97.0729 241.65 96.3949 218.214 96.1309 205.242C96.0889 203.334 90.7669 194.106 85.2829 185.094C82.4569 180.45 79.5889 175.854 77.3689 172.344C74.9989 168.588 73.3789 166.068 73.3789 166.068L89.9569 159.864C89.9569 159.864 107.759 189.522 107.771 202.23Z" fill="#619EEA"/>
<path d="M105.036 240.972L96.6245 241.506L96.4805 238.8L105.714 238.074L105.036 240.972Z" fill="#263238"/>
<path d="M102.359 246.114C102.358 246.093 102.364 246.072 102.374 246.054C102.385 246.036 102.401 246.021 102.419 246.012C102.611 245.922 104.321 245.124 104.819 245.412C104.867 245.439 104.905 245.479 104.932 245.526C104.958 245.574 104.971 245.628 104.969 245.682C104.976 245.772 104.961 245.861 104.926 245.944C104.89 246.027 104.835 246.099 104.765 246.156C104.291 246.54 103.103 246.342 102.437 246.186C102.419 246.183 102.402 246.175 102.388 246.162C102.374 246.149 102.364 246.132 102.359 246.114ZM102.773 246.066C103.685 246.252 104.375 246.234 104.639 246.012C104.687 245.976 104.724 245.928 104.747 245.873C104.77 245.819 104.778 245.759 104.771 245.7C104.773 245.68 104.769 245.659 104.759 245.641C104.75 245.623 104.735 245.608 104.717 245.598H104.681C104.399 245.46 103.445 245.778 102.773 246.066Z" fill="#619EEA"/>
<path d="M102.396 246.18C102.383 246.169 102.373 246.155 102.367 246.14C102.36 246.124 102.358 246.107 102.36 246.09C102.427 245.502 102.677 244.951 103.074 244.512C103.152 244.449 103.241 244.403 103.337 244.376C103.433 244.35 103.533 244.343 103.632 244.356C103.902 244.398 103.974 244.536 103.986 244.644C104.046 245.118 103.008 245.982 102.498 246.192C102.487 246.198 102.475 246.201 102.462 246.201C102.45 246.201 102.437 246.198 102.426 246.192L102.396 246.18ZM103.596 244.554C103.524 244.544 103.45 244.549 103.38 244.569C103.31 244.588 103.245 244.622 103.188 244.668C102.862 245.016 102.653 245.456 102.588 245.928C103.11 245.64 103.788 244.956 103.788 244.668C103.782 244.647 103.77 244.627 103.755 244.611C103.739 244.596 103.719 244.584 103.698 244.578C103.667 244.566 103.635 244.558 103.602 244.554H103.596Z" fill="#619EEA"/>
<path d="M102.036 245.604L97.4757 245.46C97.3934 245.458 97.3128 245.484 97.2466 245.533C97.1804 245.581 97.1322 245.651 97.1097 245.73L96.1317 249.396C96.1068 249.485 96.1027 249.578 96.1195 249.668C96.1364 249.758 96.1738 249.844 96.2289 249.917C96.284 249.991 96.3553 250.051 96.4373 250.093C96.5192 250.135 96.6097 250.157 96.7017 250.158C98.3517 250.158 100.728 250.158 102.798 250.23C105.198 250.308 106.752 250.194 109.584 250.29C111.294 250.344 111.846 248.634 111.132 248.454C107.898 247.638 105.78 247.788 103.026 245.964C102.736 245.754 102.393 245.629 102.036 245.604Z" fill="#263238"/>
<path opacity="0.2" d="M85.2831 185.094C82.4571 180.45 79.5891 175.854 77.3691 172.344C78.254 171.217 79.2805 170.209 80.4231 169.344C80.4231 169.344 85.2651 177.768 85.2831 185.094Z" fill="black"/>
<path d="M50.8789 246.264L54.9109 247.356L58.5949 238.38L54.5629 237.288L50.8789 246.264Z" fill="#E4897B"/>
<path opacity="0.2" d="M58.5901 238.386L56.6941 243.012L52.6621 241.914L54.5581 237.288L58.5901 238.386Z" fill="black"/>
<path d="M90.3772 156.282L90.0412 162.084L79.9852 170.106C79.9852 170.106 79.2952 197.106 76.4332 203.022C73.5712 208.938 59.8072 239.922 59.8072 239.922L52.2832 237.6C52.2832 237.6 64.2412 201.18 65.4472 199.026C66.6532 196.872 60.3172 165.468 68.8012 150.618L90.3772 156.282Z" fill="#619EEA"/>
<path d="M102.78 130.392C103.206 133.098 103.56 135.792 103.872 138.51C104.184 141.228 104.472 143.946 104.64 146.724L104.748 148.524C104.798 148.966 104.905 149.4 105.066 149.814C105.469 150.807 106.035 151.726 106.74 152.532C107.529 153.457 108.399 154.311 109.338 155.082C109.824 155.478 110.322 155.886 110.838 156.282C111.354 156.678 111.906 157.032 112.38 157.356L111.18 160.23C110.467 160.018 109.765 159.766 109.08 159.474C108.414 159.186 107.742 158.874 107.094 158.538C105.751 157.832 104.491 156.976 103.338 155.988C102.067 154.916 101.005 153.619 100.206 152.16C99.7665 151.353 99.4414 150.489 99.2403 149.592C99.1803 149.37 99.1503 149.13 99.1083 148.896L99.0243 148.296L98.8863 147.318L97.6863 139.326C97.2843 136.65 96.9063 133.962 96.5703 131.28L102.78 130.392Z" fill="#DC897C"/>
<path d="M94.0505 123C91.7165 126.24 95.7245 138.6 95.7245 138.6L105 136.362C104.685 132.755 103.981 129.192 102.9 125.736C101.172 120.75 96.6005 119.436 94.0505 123Z" fill="#619EEA"/>
<path opacity="0.7" d="M94.0505 123C91.7165 126.24 95.7245 138.6 95.7245 138.6L105 136.362C104.685 132.755 103.981 129.192 102.9 125.736C101.172 120.75 96.6005 119.436 94.0505 123Z" fill="white"/>
<path opacity="0.2" d="M97.1996 129.6C98.8076 131.136 99.7376 135.096 99.1496 137.766L95.7236 138.6C94.7896 135.613 94.0797 132.561 93.5996 129.468C94.4696 128.748 95.3516 127.854 97.1996 129.6Z" fill="black"/>
<path d="M77.0407 115.38C76.7201 120.023 76.0523 124.636 75.0427 129.18C74.3527 132.354 73.5607 135.336 72.7807 138.024C70.9807 144.318 69.1807 148.986 68.8027 150.624L90.4027 156.27C101.071 134.856 99.6127 121.47 99.6127 121.47C98.0611 120.6 96.4582 119.824 94.8127 119.148C94.4647 119.004 94.1047 118.872 93.7387 118.74C90.7298 117.763 87.6667 116.961 84.5647 116.34C83.9647 116.214 83.3647 116.106 82.7647 116.004C79.7647 115.53 77.0407 115.38 77.0407 115.38Z" fill="#619EEA"/>
<path opacity="0.7" d="M77.0407 115.38C76.7201 120.023 76.0523 124.636 75.0427 129.18C74.3527 132.354 73.5607 135.336 72.7807 138.024C70.9807 144.318 69.1807 148.986 68.8027 150.624L90.4027 156.27C101.071 134.856 99.6127 121.47 99.6127 121.47C98.0611 120.6 96.4582 119.824 94.8127 119.148C94.4647 119.004 94.1047 118.872 93.7387 118.74C90.7298 117.763 87.6667 116.961 84.5647 116.34C83.9647 116.214 83.3647 116.106 82.7647 116.004C79.7647 115.53 77.0407 115.38 77.0407 115.38Z" fill="white"/>
<path d="M92.2739 120.168C91.1639 118.188 92.3939 116.484 93.8759 115.062L91.5659 107.814C90.4499 110.706 87.9659 115.74 85.0859 116.34C85.3856 117.737 86.0013 119.046 86.8859 120.168H92.2739Z" fill="#E4897B"/>
<path opacity="0.2" d="M92.507 110.772L93.875 115.056C93.4587 115.446 93.0772 115.872 92.735 116.328C91.727 115.488 90.965 113.328 91.571 112.128C91.7956 111.621 92.1131 111.162 92.507 110.772Z" fill="black"/>
<path d="M106.5 108.174C106.386 108.726 101.472 107.574 100.71 106.482C99.9482 105.39 102.432 104.826 103.98 105.63C105.023 106.249 105.891 107.125 106.5 108.174Z" fill="#619EEA"/>
<path opacity="0.3" d="M106.5 108.174C106.386 108.726 101.472 107.574 100.71 106.482C99.9482 105.39 102.432 104.826 103.98 105.63C105.023 106.249 105.891 107.125 106.5 108.174Z" fill="black"/>
<path d="M104.208 105.39C104.208 107.07 102.906 110.118 101.106 108.39C99.3063 106.662 104.238 102.504 104.208 105.39Z" fill="#263238"/>
<path d="M101.532 112.482C101.237 112.987 100.906 113.47 100.542 113.928C98.0701 117.042 93.1261 116.886 91.2841 113.388C91.1562 113.155 91.0459 112.912 90.9541 112.662C89.9521 109.884 91.0381 107.712 92.5501 103.872C92.8939 102.973 93.4603 102.176 94.1962 101.555C94.9321 100.935 95.8134 100.511 96.7577 100.324C97.7019 100.137 98.6782 100.193 99.5951 100.486C100.512 100.779 101.339 101.3 102 102C104.568 104.7 103.41 109.332 101.532 112.482Z" fill="#E4897B"/>
<path d="M95.3394 97.2C94.4849 97.466 93.7056 97.9307 93.0654 98.556C90.8334 100.608 89.2074 103.68 92.0334 106.782C94.0794 106.014 95.0874 103.182 95.3394 102.372V97.2Z" fill="#263238"/>
<path d="M89.6518 106.308C89.5873 106.817 89.6246 107.334 89.7616 107.828C89.8986 108.323 90.1326 108.785 90.4498 109.188C91.3078 110.262 92.5498 109.692 92.9878 108.468C93.3898 107.364 93.4258 105.468 92.2378 104.868C91.9767 104.74 91.6884 104.676 91.3975 104.684C91.1066 104.691 90.8218 104.769 90.5676 104.911C90.3134 105.052 90.0972 105.253 89.9377 105.497C89.7782 105.74 89.6801 106.018 89.6518 106.308Z" fill="#E4897B"/>
<path d="M97.7646 107.508C97.6206 107.808 97.6686 108.108 97.8726 108.222C98.0766 108.336 98.3466 108.138 98.4726 107.832C98.5986 107.526 98.5686 107.232 98.3646 107.118C98.1606 107.004 97.9086 107.202 97.7646 107.508Z" fill="#263238"/>
<path d="M101.226 109.08C101.082 109.38 101.13 109.68 101.328 109.794C101.526 109.908 101.808 109.71 101.928 109.41C102.048 109.11 102.018 108.81 101.82 108.69C101.622 108.57 101.364 108.774 101.226 109.08Z" fill="#263238"/>
<path d="M100.057 108.732C100.012 109.803 100.117 110.876 100.369 111.918C100.093 111.961 99.8109 111.946 99.5412 111.874C99.2715 111.802 99.0199 111.674 98.8027 111.498L100.057 108.732Z" fill="#DE5753"/>
<path d="M96.6 111.918C96.7238 111.995 96.8521 112.065 96.984 112.128C97.0081 112.137 97.0347 112.137 97.0589 112.128C97.0831 112.12 97.1033 112.102 97.116 112.08C97.122 112.068 97.1255 112.055 97.1263 112.042C97.1271 112.029 97.1252 112.016 97.1207 112.004C97.1162 111.991 97.1092 111.98 97.1001 111.97C97.0911 111.961 97.0801 111.953 97.068 111.948C96.6839 111.785 96.3442 111.533 96.077 111.213C95.8099 110.893 95.623 110.513 95.532 110.106C95.524 110.084 95.5086 110.065 95.4883 110.053C95.4679 110.041 95.444 110.036 95.4206 110.039C95.3972 110.043 95.3758 110.054 95.3599 110.072C95.3441 110.09 95.335 110.112 95.334 110.136C95.4112 110.504 95.5635 110.852 95.7813 111.159C95.9991 111.466 96.2778 111.724 96.6 111.918Z" fill="#263238"/>
<path d="M97.2005 105.912C97.2315 105.93 97.2667 105.939 97.3025 105.939C97.3383 105.939 97.3735 105.93 97.4045 105.912C97.6199 105.788 97.8612 105.717 98.1092 105.703C98.3572 105.69 98.6049 105.735 98.8325 105.834C98.8553 105.847 98.8804 105.855 98.9064 105.858C98.9324 105.861 98.9586 105.858 98.9837 105.851C99.0088 105.844 99.0322 105.832 99.0526 105.815C99.073 105.799 99.09 105.779 99.1025 105.756C99.1151 105.734 99.123 105.709 99.1259 105.683C99.1288 105.658 99.1265 105.632 99.1192 105.608C99.112 105.583 99.0998 105.56 99.0836 105.54C99.0673 105.52 99.0472 105.504 99.0245 105.492C98.7401 105.361 98.4287 105.299 98.1158 105.311C97.8029 105.324 97.4975 105.411 97.2245 105.564C97.2013 105.575 97.1806 105.591 97.1637 105.611C97.1468 105.631 97.1341 105.653 97.1262 105.678C97.1184 105.703 97.1156 105.729 97.1181 105.755C97.1205 105.78 97.1281 105.805 97.1405 105.828C97.1534 105.86 97.174 105.889 97.2005 105.912Z" fill="#263238"/>
<path d="M103.265 108.6C103.298 108.625 103.339 108.635 103.379 108.63C103.405 108.63 103.431 108.625 103.454 108.615C103.478 108.605 103.499 108.59 103.517 108.572C103.535 108.553 103.549 108.531 103.558 108.507C103.568 108.483 103.572 108.458 103.571 108.432C103.572 108.12 103.497 107.812 103.354 107.534C103.211 107.256 103.004 107.017 102.749 106.836C102.703 106.81 102.65 106.803 102.598 106.815C102.547 106.828 102.503 106.858 102.473 106.902C102.447 106.947 102.439 107 102.451 107.051C102.463 107.101 102.495 107.145 102.539 107.172C102.74 107.316 102.902 107.507 103.013 107.727C103.123 107.947 103.179 108.191 103.175 108.438C103.174 108.471 103.182 108.503 103.198 108.531C103.214 108.56 103.237 108.584 103.265 108.6Z" fill="#263238"/>
<path d="M104.051 106.482C101.291 104.34 97.7692 103.368 95.0152 102.924C93.5344 102.674 92.0349 102.551 90.5332 102.558C90.6532 101.01 92.6332 97.47 93.8752 97.212C95.9618 96.9641 98.0739 97.0349 100.139 97.422C101.591 97.962 104.477 100.056 104.693 100.938C105.143 102.78 104.051 106.482 104.051 106.482Z" fill="#619EEA"/>
<path d="M95.0098 102.918C95.0098 102.918 98.6698 102.102 101.874 103.344C105.078 104.586 106.5 108.144 106.5 108.144C106.5 108.144 106.218 107.406 103.572 106.452C100.638 105.426 98.1538 105.408 95.0098 102.918Z" fill="#619EEA"/>
<path opacity="0.1" d="M100.139 97.422C100.139 97.422 96.8692 98.832 96.6412 99.06C96.4132 99.288 95.0152 102.924 95.0152 102.924C93.5344 102.674 92.0349 102.551 90.5332 102.558C90.6532 101.01 92.6332 97.47 93.8752 97.212C95.9618 96.9641 98.0739 97.0349 100.139 97.422Z" fill="black"/>
<path opacity="0.1" d="M95.0098 102.918C95.0098 102.918 98.6698 102.102 101.874 103.344C105.078 104.586 106.5 108.144 106.5 108.144C106.5 108.144 106.218 107.406 103.572 106.452C100.638 105.426 98.1538 105.408 95.0098 102.918Z" fill="black"/>
<path opacity="0.3" d="M101.531 112.482C101.236 112.987 100.906 113.47 100.541 113.928C98.0694 117.042 93.1254 116.886 91.2834 113.388C91.1714 110.766 91.8531 108.171 93.2394 105.942L93.8754 105.258C93.8754 105.258 93.0834 108.312 93.3174 108.912C93.5514 109.512 95.2494 108.744 96.0354 109.242C96.5539 109.622 96.9367 110.158 97.1274 110.772L96.6414 111.078C96.6414 111.078 95.6874 109.554 95.3394 109.512C94.9914 109.47 93.3294 110.988 93.4794 111.51C93.6294 112.032 93.3774 112.296 93.8754 112.53C94.3734 112.764 95.5854 111.966 95.5854 111.966L96.2454 112.566C96.2454 112.566 95.1894 113.694 95.3514 113.922C95.6297 114.129 95.9531 114.267 96.2951 114.326C96.6371 114.384 96.9881 114.361 97.3194 114.258C98.0754 113.952 98.0454 112.302 98.1894 112.134C98.3334 111.966 97.0254 111.396 97.0254 111.396L97.4274 110.796C97.4274 110.796 99.0774 111.846 99.1374 112.158C99.1974 112.47 98.8734 113.418 99.1374 113.418C99.9916 113.275 100.807 112.957 101.531 112.482Z" fill="black"/>
<path d="M102.99 102.708L102.9 102.354L103.158 102.102L103.758 102.258C103.731 102.138 103.672 102.028 103.588 101.94C103.503 101.851 103.396 101.787 103.278 101.754C103.166 101.722 103.047 101.721 102.934 101.751C102.821 101.78 102.718 101.839 102.636 101.922C102.611 101.904 102.582 101.892 102.552 101.886L100.968 101.436H100.884C100.853 101.32 100.791 101.215 100.705 101.132C100.62 101.048 100.513 100.989 100.397 100.96C100.281 100.931 100.159 100.934 100.044 100.968C99.9294 101.002 99.8258 101.066 99.7442 101.154L100.344 101.316L100.434 101.664L100.176 101.916L99.5762 101.76C99.6038 101.879 99.6628 101.989 99.7473 102.078C99.8317 102.166 99.9384 102.231 100.056 102.264C100.168 102.295 100.286 102.297 100.399 102.268C100.511 102.24 100.615 102.183 100.698 102.102H100.782L102.366 102.552C102.394 102.558 102.422 102.558 102.45 102.552C102.482 102.668 102.543 102.773 102.629 102.856C102.715 102.94 102.821 102.999 102.937 103.028C103.054 103.057 103.175 103.054 103.29 103.02C103.405 102.986 103.509 102.922 103.59 102.834L102.99 102.708Z" fill="white"/>
<path d="M111.636 156.984L115.68 158.274L112.458 161.706C112.458 161.706 108.918 160.338 109.698 158.544L111.636 156.984Z" fill="#E4897B"/>
<path d="M117.725 162.738L116.513 164.928L112.457 161.706L115.679 158.274L117.725 162.738Z" fill="#E4897B"/>
<path d="M76.8 124.02C74.946 126.144 73.056 128.34 71.262 130.524C70.35 131.61 69.462 132.72 68.652 133.812C67.8635 134.832 67.1458 135.904 66.504 137.022C66.3961 137.216 66.3 137.416 66.216 137.622C66.216 137.682 66.174 137.73 66.18 137.676C66.186 137.622 66.18 137.676 66.18 137.622V137.352C66.1507 137.067 66.0736 136.789 65.952 136.53C65.8946 136.414 65.8305 136.302 65.76 136.194C65.688 136.092 65.598 135.99 65.55 135.93C65.502 135.87 65.418 135.804 65.352 135.744L65.196 135.624C65.1221 135.573 65.0438 135.529 64.962 135.492L64.83 135.432H64.764C64.716 135.432 64.764 135.432 64.854 135.468C65.0944 135.525 65.3394 135.561 65.586 135.576C66.186 135.624 66.852 135.636 67.53 135.624C68.208 135.612 68.91 135.624 69.618 135.57C72.438 135.438 75.342 135.222 78.228 135.048L78.828 138.114C75.9934 139.066 73.0991 139.829 70.164 140.4C68.6173 140.717 67.0488 140.918 65.472 141C64.9896 141.017 64.5066 141.003 64.026 140.958C63.695 140.923 63.3677 140.859 63.048 140.766C62.9377 140.737 62.8295 140.701 62.724 140.658C62.604 140.61 62.496 140.574 62.34 140.496C62.1761 140.416 62.0195 140.322 61.872 140.214C61.7811 140.155 61.6949 140.088 61.614 140.016C61.506 139.926 61.41 139.83 61.314 139.734C61.2067 139.618 61.1084 139.493 61.02 139.362C60.9197 139.221 60.8333 139.07 60.762 138.912C60.599 138.571 60.4994 138.203 60.468 137.826C60.4621 137.734 60.4621 137.642 60.468 137.55V137.28C60.4612 137.172 60.4612 137.064 60.468 136.956C60.5051 136.613 60.5713 136.274 60.666 135.942C60.8088 135.45 60.9852 134.969 61.194 134.502C61.8883 133.036 62.7052 131.631 63.636 130.302C64.5 129 65.4 127.8 66.312 126.6C68.16 124.2 70.056 121.986 72.102 119.772L76.8 124.02Z" fill="#DC897C"/>
<path d="M75.767 115.428C71.819 116.028 65.627 126.228 65.627 126.228L74.195 131.796C76.3925 129.047 78.3346 126.102 79.997 123C82.583 118.032 80.543 114.672 75.767 115.428Z" fill="#619EEA"/>
<path opacity="0.7" d="M75.767 115.428C71.819 116.028 65.627 126.228 65.627 126.228L74.195 131.796C76.3925 129.047 78.3346 126.102 79.997 123C82.583 118.032 80.543 114.672 75.767 115.428Z" fill="white"/>
<path d="M84.5155 116.358L86.6275 114.822L90.5635 120.09L92.0815 117.456L93.6895 118.758C94.1108 119.488 94.3326 120.315 94.3326 121.158C94.3326 122.001 94.1108 122.828 93.6895 123.558L90.5335 120.972L87.1375 123.15C87.1375 123.15 83.5255 118.944 84.5155 116.358Z" fill="#619EEA"/>
<path d="M79.7389 108.552C80.9319 110.067 81.7007 111.873 81.9667 113.783C82.2327 115.693 81.9864 117.64 81.2529 119.424C80.5194 121.207 79.325 122.764 77.7922 123.935C76.2593 125.105 74.4429 125.847 72.529 126.085C70.615 126.323 68.6723 126.048 66.8995 125.288C65.1268 124.529 63.5877 123.311 62.4399 121.761C61.2922 120.211 60.5768 118.384 60.3672 116.467C60.1576 114.55 60.4612 112.611 61.2469 110.85L67.1929 118.41L72.9889 117.576L75.1669 112.14L69.2209 104.58C71.1697 104.219 73.1799 104.399 75.0339 105.099C76.888 105.799 78.515 106.993 79.7389 108.552Z" fill="#619EEA"/>
<path d="M121.799 197.184C120.609 195.669 119.842 193.865 119.578 191.956C119.313 190.048 119.56 188.103 120.294 186.322C121.028 184.54 122.221 182.985 123.753 181.816C125.284 180.647 127.099 179.906 129.011 179.668C130.923 179.431 132.864 179.705 134.635 180.464C136.406 181.222 137.944 182.438 139.092 183.986C140.239 185.534 140.955 187.358 141.165 189.274C141.376 191.189 141.074 193.126 140.291 194.886L134.345 187.326L128.549 188.16L126.371 193.602L132.317 201.156C130.368 201.517 128.358 201.337 126.504 200.637C124.65 199.937 123.023 198.743 121.799 197.184Z" fill="#619EEA"/>
<g opacity="0.2">
<path d="M79.7389 108.552C80.9319 110.067 81.7007 111.873 81.9667 113.783C82.2327 115.693 81.9864 117.64 81.2529 119.424C80.5194 121.207 79.325 122.764 77.7922 123.935C76.2593 125.105 74.4429 125.847 72.529 126.085C70.615 126.323 68.6723 126.048 66.8995 125.288C65.1268 124.529 63.5877 123.311 62.4399 121.761C61.2922 120.211 60.5768 118.384 60.3672 116.467C60.1576 114.55 60.4612 112.611 61.2469 110.85L67.1929 118.41L72.9889 117.576L75.1669 112.14L69.2209 104.58C71.1697 104.219 73.1799 104.399 75.0339 105.099C76.888 105.799 78.515 106.993 79.7389 108.552Z" fill="white"/>
<path d="M121.799 197.184C120.609 195.669 119.842 193.865 119.578 191.956C119.313 190.048 119.56 188.103 120.294 186.322C121.028 184.54 122.221 182.985 123.753 181.816C125.284 180.647 127.099 179.906 129.011 179.668C130.923 179.431 132.864 179.705 134.635 180.464C136.406 181.222 137.944 182.438 139.092 183.986C140.239 185.534 140.955 187.358 141.165 189.274C141.376 191.189 141.074 193.126 140.291 194.886L134.345 187.326L128.549 188.16L126.371 193.602L132.317 201.156C130.368 201.517 128.358 201.337 126.504 200.637C124.65 199.937 123.023 198.743 121.799 197.184Z" fill="white"/>
</g>
<path d="M127.253 186.558C126.66 187.024 125.981 187.369 125.255 187.573C124.529 187.776 123.77 187.835 123.021 187.745C122.272 187.656 121.548 187.419 120.891 187.05C120.233 186.68 119.655 186.185 119.189 185.592L73.295 127.248C72.8285 126.656 72.4833 125.977 72.279 125.251C72.0748 124.525 72.0156 123.766 72.1047 123.017C72.1939 122.268 72.4296 121.544 72.7986 120.887C73.1675 120.229 73.6624 119.65 74.255 119.184C74.8475 118.718 75.5261 118.372 76.252 118.168C76.9779 117.964 77.737 117.905 78.4858 117.994C79.2346 118.083 79.9586 118.319 80.6163 118.688C81.274 119.057 81.8525 119.551 82.319 120.144L128.219 178.494C128.685 179.087 129.03 179.766 129.234 180.492C129.437 181.218 129.496 181.977 129.406 182.726C129.317 183.475 129.08 184.199 128.711 184.856C128.341 185.514 127.846 186.092 127.253 186.558Z" fill="#619EEA"/>
<path opacity="0.2" d="M127.253 186.558C126.66 187.024 125.981 187.369 125.255 187.573C124.529 187.776 123.77 187.835 123.021 187.745C122.272 187.656 121.548 187.419 120.891 187.05C120.233 186.68 119.655 186.185 119.189 185.592L73.295 127.248C72.8285 126.656 72.4833 125.977 72.279 125.251C72.0748 124.525 72.0156 123.766 72.1047 123.017C72.1939 122.268 72.4296 121.544 72.7986 120.887C73.1675 120.229 73.6624 119.65 74.255 119.184C74.8475 118.718 75.5261 118.372 76.252 118.168C76.9779 117.964 77.737 117.905 78.4858 117.994C79.2346 118.083 79.9586 118.319 80.6163 118.688C81.274 119.057 81.8525 119.551 82.319 120.144L128.219 178.494C128.685 179.087 129.03 179.766 129.234 180.492C129.437 181.218 129.496 181.977 129.406 182.726C129.317 183.475 129.08 184.199 128.711 184.856C128.341 185.514 127.846 186.092 127.253 186.558Z" fill="white"/>
<path opacity="0.2" d="M124.565 183.138C124.261 183.378 123.913 183.555 123.54 183.66C123.167 183.765 122.778 183.796 122.393 183.75C122.009 183.705 121.637 183.584 121.299 183.394C120.962 183.205 120.665 182.95 120.425 182.646L76.4512 126.744C75.9682 126.128 75.7487 125.346 75.8409 124.569C75.9331 123.792 76.3295 123.083 76.9432 122.598C77.5602 122.117 78.3422 121.9 79.1188 121.993C79.8954 122.086 80.6037 122.483 81.0892 123.096L125.063 178.998C125.545 179.613 125.764 180.395 125.67 181.171C125.577 181.947 125.179 182.655 124.565 183.138Z" fill="black"/>
<path d="M77.2852 135.786L80.4292 132.96L81.9832 138.078C81.9832 138.078 78.7792 139.878 77.6392 138.27L77.2852 135.786Z" fill="#E4897B"/>
<path d="M83.8798 132.72L84.9718 137.004L81.9838 138.078L80.4238 132.96L83.8798 132.72Z" fill="#E4897B"/>
<path d="M59.196 242.07L51.252 239.256L52.182 236.706L60.96 239.67L59.196 242.07Z" fill="#263238"/>
<path d="M55.5294 246.114C55.5284 246.093 55.5335 246.072 55.5442 246.054C55.5549 246.036 55.5706 246.021 55.5894 246.012C55.7814 245.922 57.4914 245.124 57.9894 245.412C58.0366 245.439 58.0754 245.479 58.1018 245.526C58.1283 245.574 58.1413 245.628 58.1394 245.682C58.1461 245.772 58.131 245.861 58.0955 245.944C58.06 246.027 58.0051 246.099 57.9354 246.156C57.4614 246.54 56.2734 246.342 55.6074 246.186C55.5888 246.183 55.5714 246.175 55.5576 246.162C55.5437 246.149 55.5339 246.132 55.5294 246.114ZM55.9434 246.066C56.8554 246.252 57.5454 246.234 57.8094 246.012C57.8566 245.976 57.8936 245.928 57.9168 245.873C57.9399 245.819 57.9484 245.759 57.9414 245.7C57.943 245.68 57.9387 245.659 57.9292 245.641C57.9196 245.623 57.9051 245.608 57.8874 245.598H57.8514C57.5394 245.46 56.6154 245.778 55.9434 246.066Z" fill="#619EEA"/>
<path d="M55.5714 246.18C55.5577 246.169 55.5467 246.156 55.5394 246.14C55.5321 246.124 55.5287 246.107 55.5294 246.09C55.5968 245.502 55.8464 244.951 56.2434 244.512C56.3209 244.449 56.4103 244.403 56.5063 244.376C56.6022 244.35 56.7027 244.343 56.8014 244.356C57.0714 244.398 57.1434 244.536 57.1554 244.644C57.2154 245.118 56.1774 245.982 55.6674 246.192C55.6563 246.198 55.6439 246.201 55.6314 246.201C55.6189 246.201 55.6065 246.198 55.5954 246.192L55.5714 246.18ZM56.7714 244.554C56.6992 244.544 56.6258 244.549 56.5556 244.569C56.4854 244.588 56.42 244.622 56.3634 244.668C56.0376 245.016 55.8279 245.456 55.7634 245.928C56.2854 245.64 56.9634 244.956 56.9634 244.668C56.9572 244.647 56.9457 244.627 56.9299 244.611C56.9142 244.596 56.8948 244.584 56.8734 244.578C56.8407 244.565 56.8064 244.557 56.7714 244.554Z" fill="#619EEA"/>
<path d="M55.1998 245.604L50.6398 245.46C50.5576 245.458 50.477 245.484 50.4108 245.533C50.3445 245.581 50.2964 245.651 50.2738 245.73L49.2958 249.396C49.2702 249.487 49.2665 249.583 49.285 249.676C49.3034 249.768 49.3435 249.855 49.402 249.93C49.4605 250.004 49.5357 250.063 49.6216 250.103C49.7074 250.143 49.8014 250.162 49.8958 250.158C51.5458 250.158 53.9218 250.158 55.9918 250.23C58.3918 250.308 59.9458 250.194 62.7778 250.29C64.4878 250.344 65.0398 248.634 64.3258 248.454C61.0918 247.638 58.9738 247.788 56.2198 245.964C55.9215 245.748 55.5674 245.623 55.1998 245.604Z" fill="#263238"/>
<path d="M68.0812 150.93L73.9912 152.526L73.4632 154.692L67.1992 153.186L68.0812 150.93Z" fill="#263238"/>
<path d="M74.6645 152.7L88.6145 156.462L88.2904 158.274L74.0645 154.842L74.6645 152.7Z" fill="#263238"/>
<path d="M90.5758 156.99L90.3778 158.772L88.7578 158.388L89.1238 156.6L90.5758 156.99Z" fill="#263238"/>
<path d="M80.3632 154.38L79.9912 156.132C79.975 156.204 79.9879 156.28 80.0272 156.343C80.0665 156.406 80.129 156.451 80.2012 156.468L83.4892 157.242C83.5262 157.25 83.5645 157.25 83.6017 157.244C83.6389 157.237 83.6745 157.223 83.7062 157.202C83.738 157.181 83.7654 157.155 83.7868 157.123C83.8083 157.092 83.8233 157.057 83.8312 157.02L84.1732 155.37C84.1879 155.299 84.1749 155.226 84.137 155.164C84.099 155.103 84.039 155.058 83.9692 155.04L80.7172 154.164C80.6797 154.154 80.6407 154.152 80.6024 154.158C80.5641 154.163 80.5273 154.177 80.4943 154.197C80.4612 154.217 80.4326 154.244 80.4101 154.275C80.3876 154.306 80.3716 154.342 80.3632 154.38Z" fill="white"/>
<path d="M96.3599 132.504L96.2699 132.156L96.5279 131.898L97.1279 132.06C97.1014 131.943 97.0445 131.835 96.9629 131.748C96.8813 131.66 96.778 131.596 96.6633 131.561C96.5487 131.526 96.427 131.522 96.3104 131.55C96.1939 131.578 96.0867 131.636 95.9999 131.718L95.9219 131.682L94.3379 131.232H94.2539C94.2218 131.12 94.1614 131.018 94.0783 130.936C93.9953 130.854 93.8925 130.795 93.7799 130.764C93.6619 130.732 93.5374 130.733 93.4199 130.767C93.3025 130.8 93.1966 130.866 93.1139 130.956L93.6839 131.112L93.7799 131.46L93.5219 131.718L92.9219 131.556C92.9455 131.674 93.0007 131.783 93.0814 131.872C93.1622 131.962 93.2656 132.027 93.3807 132.062C93.4958 132.097 93.6182 132.101 93.7349 132.072C93.8517 132.043 93.9585 131.983 94.0439 131.898C94.0687 131.912 94.0948 131.925 94.1219 131.934L95.7119 132.384H95.7959C95.8273 132.5 95.889 132.605 95.9746 132.688C96.0603 132.772 96.1667 132.831 96.283 132.86C96.3992 132.889 96.5211 132.886 96.6358 132.852C96.7506 132.818 96.8542 132.754 96.9359 132.666L96.3599 132.504Z" fill="#619EEA"/>
<path d="M161.826 248.076V249.876C161.826 249.984 161.869 250.088 161.946 250.165C162.022 250.241 162.126 250.284 162.234 250.284H213.324C213.76 250.283 214.188 250.176 214.573 249.971C214.957 249.766 215.285 249.47 215.529 249.109C215.772 248.747 215.923 248.332 215.969 247.899C216.014 247.466 215.953 247.028 215.79 246.624L199.59 206.532L173.43 206.712L174.324 211.914L180.096 245.586C180.137 245.841 180.122 246.101 180.053 246.35C179.984 246.599 179.862 246.83 179.696 247.027C179.53 247.225 179.323 247.384 179.09 247.495C178.857 247.605 178.602 247.664 178.344 247.668H162.234C162.18 247.667 162.127 247.677 162.077 247.697C162.027 247.718 161.982 247.748 161.944 247.786C161.906 247.824 161.876 247.869 161.856 247.919C161.835 247.969 161.825 248.022 161.826 248.076Z" fill="#619EEA"/>
<path opacity="0.6" d="M161.826 248.076V249.876C161.826 249.984 161.869 250.088 161.946 250.165C162.022 250.241 162.126 250.284 162.234 250.284H213.324C213.76 250.283 214.188 250.176 214.573 249.971C214.957 249.766 215.285 249.47 215.529 249.109C215.772 248.747 215.923 248.332 215.969 247.899C216.014 247.466 215.953 247.028 215.79 246.624L205.758 221.772L199.602 206.532L173.442 206.712L174.336 211.914L176.844 226.554L180.108 245.586C180.149 245.841 180.134 246.101 180.065 246.35C179.996 246.599 179.874 246.83 179.708 247.027C179.542 247.225 179.335 247.384 179.102 247.495C178.868 247.605 178.614 247.664 178.356 247.668H162.234C162.18 247.667 162.127 247.677 162.077 247.697C162.027 247.718 161.982 247.748 161.944 247.786C161.906 247.824 161.876 247.869 161.856 247.919C161.835 247.969 161.825 248.022 161.826 248.076Z" fill="white"/>
<path opacity="0.2" d="M178.356 247.674H211.59C211.779 247.667 211.964 247.615 212.129 247.522C212.295 247.43 212.436 247.3 212.541 247.142C212.647 246.985 212.713 246.805 212.736 246.617C212.758 246.428 212.735 246.238 212.67 246.06L198.474 211.92H174.336L180.108 245.592C180.148 245.847 180.134 246.107 180.064 246.356C179.995 246.605 179.874 246.836 179.707 247.033C179.541 247.231 179.335 247.39 179.101 247.501C178.868 247.611 178.614 247.67 178.356 247.674Z" fill="black"/>
<path opacity="0.1" d="M173.443 206.718L174.337 211.92L176.845 226.56L205.759 221.778L199.603 206.538L173.443 206.718Z" fill="black"/>
<path d="M122.575 132H243.691C244.098 132 244.501 132.08 244.877 132.236C245.253 132.392 245.594 132.621 245.882 132.909C246.17 133.197 246.397 133.539 246.553 133.915C246.708 134.292 246.787 134.695 246.787 135.102V217.068C246.787 217.889 246.461 218.678 245.88 219.259C245.3 219.841 244.512 220.168 243.691 220.17H122.575C121.752 220.17 120.963 219.843 120.381 219.261C119.799 218.68 119.473 217.891 119.473 217.068V135.078C119.477 134.259 119.807 133.475 120.388 132.898C120.969 132.321 121.756 131.998 122.575 132Z" fill="#619EEA"/>
<path opacity="0.7" d="M122.575 132H243.691C244.098 132 244.501 132.08 244.877 132.236C245.253 132.392 245.594 132.621 245.882 132.909C246.17 133.197 246.397 133.539 246.553 133.915C246.708 134.292 246.787 134.695 246.787 135.102V217.068C246.787 217.889 246.461 218.678 245.88 219.259C245.3 219.841 244.512 220.168 243.691 220.17H122.575C121.752 220.17 120.963 219.843 120.381 219.261C119.799 218.68 119.473 217.891 119.473 217.068V135.078C119.477 134.259 119.807 133.475 120.388 132.898C120.969 132.321 121.756 131.998 122.575 132Z" fill="white"/>
<path opacity="0.2" d="M241.123 220.164H243.691C244.512 220.164 245.3 219.838 245.88 219.257C246.461 218.677 246.787 217.889 246.787 217.068V135.078C246.788 134.671 246.708 134.268 246.553 133.891C246.398 133.515 246.17 133.173 245.882 132.885C245.595 132.597 245.253 132.368 244.877 132.212C244.501 132.056 244.098 131.976 243.691 131.976H241.123C241.53 131.976 241.933 132.056 242.309 132.212C242.685 132.368 243.027 132.597 243.314 132.885C243.602 133.173 243.83 133.515 243.985 133.891C244.14 134.268 244.22 134.671 244.219 135.078V217.068C244.219 217.889 243.893 218.677 243.312 219.257C242.732 219.838 241.944 220.164 241.123 220.164Z" fill="black"/>
<path d="M241.422 135.012H122.262V214.074H241.422V135.012Z" fill="#263238"/>
<path d="M241.422 135.012H122.262V141.078H241.422V135.012Z" fill="#619EEA"/>
<path opacity="0.2" d="M238.638 138.264C238.638 138.557 238.551 138.844 238.388 139.087C238.225 139.331 237.994 139.521 237.723 139.633C237.452 139.745 237.154 139.775 236.867 139.718C236.579 139.66 236.315 139.519 236.108 139.312C235.901 139.105 235.759 138.841 235.702 138.553C235.645 138.266 235.674 137.968 235.787 137.697C235.899 137.426 236.089 137.195 236.332 137.032C236.576 136.869 236.863 136.782 237.156 136.782C237.548 136.784 237.924 136.94 238.202 137.218C238.48 137.495 238.636 137.871 238.638 138.264Z" fill="black"/>
<path opacity="0.2" d="M233.743 138.264C233.747 138.558 233.663 138.846 233.502 139.092C233.342 139.338 233.111 139.531 232.841 139.646C232.57 139.761 232.272 139.793 231.983 139.738C231.695 139.683 231.429 139.543 231.22 139.336C231.011 139.13 230.868 138.866 230.809 138.578C230.75 138.29 230.779 137.991 230.89 137.719C231.002 137.447 231.192 137.215 231.436 137.051C231.68 136.887 231.967 136.8 232.261 136.8C232.651 136.8 233.025 136.954 233.303 137.228C233.58 137.502 233.738 137.874 233.743 138.264Z" fill="black"/>
<path opacity="0.2" d="M228.853 138.264C228.856 138.559 228.771 138.849 228.609 139.095C228.447 139.342 228.215 139.535 227.943 139.649C227.671 139.763 227.371 139.793 227.081 139.735C226.792 139.678 226.526 139.535 226.318 139.325C226.111 139.116 225.97 138.849 225.915 138.559C225.86 138.269 225.892 137.969 226.008 137.698C226.125 137.427 226.319 137.196 226.567 137.036C226.815 136.876 227.105 136.794 227.401 136.8C227.785 136.809 228.151 136.967 228.421 137.24C228.692 137.513 228.846 137.88 228.853 138.264Z" fill="black"/>
<path opacity="0.4" d="M241.422 141.108H122.262V161.634H241.422V141.108Z" fill="white"/>
<path d="M124.992 142.02L122.262 146.91V142.02H124.992Z" fill="#263238"/>
<path d="M139.71 142.02L129.252 160.788H122.262V158.49L131.442 142.02H139.71Z" fill="#263238"/>
<path d="M143.928 160.866H135.66L146.166 142.014H154.428L143.928 160.866Z" fill="#263238"/>
<path d="M158.647 160.866H150.379L160.885 142.014H169.153L158.647 160.866Z" fill="#263238"/>
<path d="M173.364 160.866H165.096L175.602 142.014H183.87L173.364 160.866Z" fill="#263238"/>
<path d="M188.082 160.866H179.82L190.32 142.014H198.588L188.082 160.866Z" fill="#263238"/>
<path d="M202.807 160.728H194.539L205.045 141.876H213.307L202.807 160.728Z" fill="#263238"/>
<path d="M217.524 160.728H209.256L219.762 141.876H228.03L217.524 160.728Z" fill="#263238"/>
<path d="M241.423 141.954V144.258L232.243 160.728H223.975L234.439 141.954H241.423Z" fill="#263238"/>
<path d="M241.422 155.976V160.788H238.74L241.422 155.976Z" fill="#263238"/>
<path opacity="0.4" d="M241.422 193.47H122.262V213.996H241.422V193.47Z" fill="white"/>
<path d="M124.992 194.55L122.262 199.398V194.55H124.992Z" fill="#263238"/>
<path d="M139.71 194.55L129.252 213.162H122.262V210.882L131.442 194.55H139.71Z" fill="#263238"/>
<path d="M143.928 213.24H135.66L146.166 194.55H154.428L143.928 213.24Z" fill="#263238"/>
<path d="M158.647 213.24H150.379L160.885 194.55H169.153L158.647 213.24Z" fill="#263238"/>
<path d="M173.364 213.24H165.096L175.602 194.55H183.87L173.364 213.24Z" fill="#263238"/>
<path d="M188.082 213.24H179.82L190.32 194.55H198.588L188.082 213.24Z" fill="#263238"/>
<path d="M202.807 213.102H194.539L205.045 194.412H213.307L202.807 213.102Z" fill="#263238"/>
<path d="M217.524 213.102H209.256L219.762 194.412H228.03L217.524 213.102Z" fill="#263238"/>
<path d="M241.423 194.484V196.764L232.243 213.096H223.975L234.439 194.484H241.423Z" fill="#263238"/>
<path d="M241.422 208.386V213.162H238.74L241.422 208.386Z" fill="#263238"/>
<path d="M162.103 180.6V182.31H153.883V171.348H161.887V173.052H155.923V175.902H161.215V177.6H155.923V180.6H162.103Z" fill="white"/>
<path d="M171.546 182.31L169.308 179.1C169.164 179.1 169.026 179.1 168.882 179.1H166.41V182.298H164.4V171.348H168.912C171.792 171.348 173.58 172.818 173.58 175.248C173.613 175.999 173.404 176.741 172.984 177.364C172.564 177.987 171.955 178.459 171.246 178.71L173.766 182.31H171.546ZM168.786 173.07H166.386V177.438H168.786C170.586 177.438 171.498 176.622 171.498 175.248C171.498 173.874 170.574 173.07 168.786 173.07Z" fill="white"/>
<path d="M183.001 182.31L180.763 179.1C180.619 179.1 180.481 179.1 180.337 179.1H177.865V182.298H175.801V171.348H180.307C183.193 171.348 184.975 172.818 184.975 175.248C185.008 175.999 184.799 176.741 184.379 177.364C183.958 177.987 183.349 178.459 182.641 178.71L185.161 182.31H183.001ZM180.247 173.07H177.847V177.438H180.247C182.047 177.438 182.953 176.622 182.953 175.248C182.953 173.874 182.017 173.07 180.235 173.07H180.247Z" fill="white"/>
<path d="M186.475 176.826C186.475 173.586 188.983 171.192 192.379 171.192C195.775 171.192 198.283 173.592 198.283 176.826C198.283 180.06 195.781 182.466 192.379 182.466C188.977 182.466 186.475 180.072 186.475 176.826ZM196.231 176.826C196.231 176.064 196.005 175.319 195.581 174.686C195.158 174.053 194.557 173.559 193.853 173.267C193.149 172.976 192.374 172.899 191.627 173.048C190.88 173.197 190.194 173.564 189.655 174.102C189.116 174.641 188.749 175.327 188.601 176.075C188.452 176.822 188.528 177.596 188.82 178.3C189.111 179.004 189.605 179.606 190.239 180.029C190.872 180.452 191.617 180.678 192.379 180.678C192.889 180.694 193.397 180.605 193.871 180.417C194.346 180.229 194.777 179.946 195.138 179.585C195.498 179.224 195.782 178.793 195.97 178.319C196.158 177.844 196.246 177.336 196.231 176.826Z" fill="white"/>
<path d="M207.6 182.31L205.362 179.1C205.218 179.1 205.08 179.1 204.942 179.1H202.464V182.298H200.43V171.348H204.942C207.822 171.348 209.604 172.818 209.604 175.248C209.637 175.999 209.428 176.741 209.007 177.364C208.587 177.987 207.978 178.459 207.27 178.71L209.796 182.31H207.6ZM204.846 173.07H202.446V177.438H204.846C206.646 177.438 207.552 176.622 207.552 175.248C207.552 173.874 206.64 173.07 204.858 173.07H204.846Z" fill="white"/>
<path opacity="0.4" d="M219.367 184.038H232.273C232.558 184.038 232.837 183.963 233.084 183.821C233.33 183.679 233.535 183.475 233.677 183.228C233.819 182.982 233.894 182.703 233.894 182.418C233.894 182.134 233.819 181.854 233.677 181.608L227.221 170.43C227.08 170.183 226.876 169.978 226.63 169.835C226.384 169.693 226.105 169.617 225.82 169.617C225.536 169.617 225.256 169.693 225.01 169.835C224.764 169.978 224.56 170.183 224.419 170.43L217.963 181.608C217.821 181.854 217.746 182.134 217.746 182.418C217.746 182.703 217.821 182.982 217.963 183.228C218.106 183.475 218.31 183.679 218.557 183.821C218.803 183.963 219.083 184.038 219.367 184.038ZM226.687 173.478L226.405 179.046H225.205L224.911 173.478H226.687ZM224.887 180.96C224.885 180.838 224.909 180.716 224.955 180.603C225.002 180.49 225.071 180.388 225.159 180.303C225.247 180.217 225.351 180.151 225.465 180.107C225.579 180.063 225.701 180.043 225.823 180.048C225.948 180.04 226.073 180.057 226.191 180.099C226.309 180.141 226.418 180.207 226.509 180.293C226.601 180.378 226.674 180.481 226.724 180.596C226.774 180.711 226.801 180.835 226.801 180.96C226.801 181.085 226.776 181.209 226.727 181.324C226.678 181.44 226.606 181.544 226.516 181.631C226.426 181.718 226.319 181.785 226.202 181.83C226.085 181.874 225.96 181.895 225.835 181.89C225.709 181.897 225.583 181.879 225.465 181.835C225.347 181.792 225.239 181.724 225.148 181.637C225.058 181.549 224.986 181.444 224.938 181.328C224.89 181.211 224.866 181.086 224.869 180.96H224.887Z" fill="white"/>
<path opacity="0.4" d="M131.4 184.038H144.306C144.59 184.037 144.869 183.962 145.115 183.819C145.36 183.677 145.564 183.472 145.706 183.226C145.847 182.98 145.922 182.701 145.921 182.417C145.921 182.133 145.846 181.854 145.704 181.608L139.254 170.43C139.113 170.183 138.909 169.978 138.663 169.835C138.417 169.693 138.138 169.617 137.853 169.617C137.569 169.617 137.29 169.693 137.044 169.835C136.798 169.978 136.594 170.183 136.452 170.43L129.996 181.608C129.854 181.854 129.779 182.134 129.779 182.418C129.779 182.703 129.854 182.982 129.997 183.228C130.139 183.475 130.344 183.679 130.59 183.821C130.836 183.963 131.116 184.038 131.4 184.038ZM138.72 173.478L138.432 179.046H137.232L136.938 173.478H138.72ZM136.92 180.96C136.919 180.838 136.942 180.716 136.989 180.603C137.035 180.49 137.105 180.388 137.192 180.303C137.28 180.217 137.384 180.151 137.498 180.107C137.612 180.063 137.734 180.043 137.856 180.048C137.98 180.041 138.104 180.06 138.221 180.103C138.338 180.146 138.444 180.212 138.535 180.297C138.625 180.382 138.697 180.485 138.746 180.599C138.796 180.713 138.822 180.836 138.822 180.96C138.822 181.085 138.797 181.209 138.748 181.324C138.699 181.44 138.628 181.544 138.537 181.631C138.447 181.718 138.34 181.785 138.223 181.83C138.106 181.874 137.981 181.895 137.856 181.89C137.733 181.893 137.61 181.872 137.496 181.826C137.381 181.78 137.277 181.712 137.189 181.625C137.102 181.538 137.033 181.435 136.987 181.32C136.94 181.206 136.918 181.083 136.92 180.96Z" fill="white"/>
<path opacity="0.1" d="M134.684 135C151.16 151.506 193.484 188.238 241.424 185.526V135H134.684Z" fill="white"/>
<path opacity="0.1" d="M122.262 165.348V214.08H194.004C191.25 204.234 185.754 190.758 175.086 181.128C155.892 163.8 133.62 163.848 122.262 165.348Z" fill="white"/>
<path d="M224.401 246.6L226.537 247.536C226.094 247.967 225.537 248.264 224.931 248.39C224.325 248.517 223.696 248.468 223.117 248.25C222.454 247.951 221.922 247.42 221.621 246.758C221.32 246.096 221.269 245.347 221.479 244.65C221.611 244.161 221.882 243.721 222.259 243.384L216.451 228.546C214.363 228.63 213.481 226.674 213.529 225.33L215.653 226.272C215.773 226.336 215.905 226.374 216.04 226.384C216.176 226.395 216.312 226.377 216.44 226.332C216.568 226.287 216.686 226.216 216.785 226.124C216.885 226.031 216.964 225.919 217.018 225.794C217.072 225.67 217.1 225.535 217.099 225.4C217.099 225.264 217.07 225.129 217.015 225.005C216.96 224.881 216.88 224.769 216.78 224.678C216.68 224.586 216.562 224.516 216.433 224.472L214.297 223.536C214.74 223.104 215.297 222.807 215.903 222.681C216.509 222.554 217.138 222.603 217.717 222.822C218.384 223.112 218.925 223.632 219.241 224.287C219.557 224.942 219.627 225.689 219.439 226.392C219.34 226.864 219.097 227.294 218.743 227.622L224.551 242.466C226.177 242.556 227.437 244.368 227.389 245.712L225.223 244.8C224.98 244.695 224.704 244.69 224.457 244.787C224.21 244.883 224.011 245.074 223.903 245.316C223.803 245.553 223.799 245.819 223.892 246.059C223.985 246.298 224.168 246.492 224.401 246.6Z" fill="#619EEA"/>
<path opacity="0.2" d="M224.401 246.6L226.537 247.536C226.094 247.967 225.537 248.264 224.931 248.39C224.325 248.517 223.696 248.468 223.117 248.25C222.454 247.951 221.922 247.42 221.621 246.758C221.32 246.096 221.269 245.347 221.479 244.65C221.611 244.161 221.882 243.721 222.259 243.384L216.451 228.546C214.363 228.63 213.481 226.674 213.529 225.33L215.653 226.272C215.773 226.336 215.905 226.374 216.04 226.384C216.176 226.395 216.312 226.377 216.44 226.332C216.568 226.287 216.686 226.216 216.785 226.124C216.885 226.031 216.964 225.919 217.018 225.794C217.072 225.67 217.1 225.535 217.099 225.4C217.099 225.264 217.07 225.129 217.015 225.005C216.96 224.881 216.88 224.769 216.78 224.678C216.68 224.586 216.562 224.516 216.433 224.472L214.297 223.536C214.74 223.104 215.297 222.807 215.903 222.681C216.509 222.554 217.138 222.603 217.717 222.822C218.384 223.112 218.925 223.632 219.241 224.287C219.557 224.942 219.627 225.689 219.439 226.392C219.34 226.864 219.097 227.294 218.743 227.622L224.551 242.466C226.177 242.556 227.437 244.368 227.389 245.712L225.223 244.8C224.98 244.695 224.704 244.69 224.457 244.787C224.21 244.883 224.011 245.074 223.903 245.316C223.803 245.553 223.799 245.819 223.892 246.059C223.985 246.298 224.168 246.492 224.401 246.6Z" fill="white"/>
<path d="M207.834 233.484L205.572 234.048C205.658 233.435 205.918 232.859 206.321 232.389C206.724 231.919 207.253 231.575 207.846 231.396C208.555 231.228 209.301 231.323 209.945 231.664C210.588 232.005 211.086 232.569 211.344 233.25C211.538 233.719 211.59 234.234 211.494 234.732L225.15 242.946C226.752 241.602 228.642 242.616 229.428 243.708L227.172 244.26C227.045 244.29 226.926 244.345 226.821 244.422C226.715 244.499 226.627 244.597 226.56 244.708C226.492 244.82 226.448 244.944 226.43 245.073C226.412 245.202 226.419 245.334 226.452 245.46C226.517 245.713 226.68 245.931 226.905 246.065C227.13 246.198 227.399 246.238 227.652 246.174L229.92 245.61C229.834 246.223 229.574 246.799 229.171 247.269C228.768 247.739 228.239 248.083 227.646 248.262C226.938 248.439 226.189 248.354 225.538 248.023C224.886 247.693 224.376 247.138 224.1 246.462C223.894 246.027 223.822 245.54 223.896 245.064L210.246 236.844C208.896 237.768 206.796 237.102 206.016 236.004L208.296 235.404C208.55 235.337 208.767 235.175 208.904 234.951C209.04 234.728 209.085 234.46 209.028 234.204C208.964 233.951 208.803 233.733 208.58 233.598C208.356 233.463 208.088 233.422 207.834 233.484Z" fill="#619EEA"/>
<path opacity="0.2" d="M207.834 233.484L205.572 234.048C205.658 233.435 205.918 232.859 206.321 232.389C206.724 231.919 207.253 231.575 207.846 231.396C208.555 231.228 209.301 231.323 209.945 231.664C210.588 232.005 211.086 232.569 211.344 233.25C211.538 233.719 211.59 234.234 211.494 234.732L225.15 242.946C226.752 241.602 228.642 242.616 229.428 243.708L227.172 244.26C227.045 244.29 226.926 244.345 226.821 244.422C226.715 244.499 226.627 244.597 226.56 244.708C226.492 244.82 226.448 244.944 226.43 245.073C226.412 245.202 226.419 245.334 226.452 245.46C226.517 245.713 226.68 245.931 226.905 246.065C227.13 246.198 227.399 246.238 227.652 246.174L229.92 245.61C229.834 246.223 229.574 246.799 229.171 247.269C228.768 247.739 228.239 248.083 227.646 248.262C226.938 248.439 226.189 248.354 225.538 248.023C224.886 247.693 224.376 247.138 224.1 246.462C223.894 246.027 223.822 245.54 223.896 245.064L210.246 236.844C208.896 237.768 206.796 237.102 206.016 236.004L208.296 235.404C208.55 235.337 208.767 235.175 208.904 234.951C209.04 234.728 209.085 234.46 209.028 234.204C208.964 233.951 208.803 233.733 208.58 233.598C208.356 233.463 208.088 233.422 207.834 233.484Z" fill="white"/>
<path d="M253.735 226.656L253.771 226.56H232.669L227.719 239.634H248.731L248.719 239.67H250.453L254.905 228.012L253.735 226.656Z" fill="#263238"/>
<path opacity="0.2" d="M253.735 226.656L253.771 226.56H232.669L227.719 239.634H248.731L248.719 239.67H250.453L254.905 228.012L253.735 226.656Z" fill="white"/>
<path opacity="0.4" d="M253.771 226.56L248.821 239.634H227.719L232.669 226.56H253.771Z" fill="black"/>
<path d="M217.141 235.71L222.025 241.986L223.777 241.722L218.623 235.71H217.141Z" fill="#263238"/>
<path opacity="0.1" d="M217.141 235.71L222.025 241.986L223.777 241.722L218.623 235.71H217.141Z" fill="white"/>
<path d="M218.623 229.776L223.507 236.052L225.259 235.788L220.105 229.776H218.623Z" fill="#263238"/>
<path opacity="0.1" d="M218.623 229.776L223.507 236.052L225.259 235.788L220.105 229.776H218.623Z" fill="white"/>
<path d="M212.328 250.29H248.82V239.634H212.328V250.29Z" fill="#263238"/>
<path opacity="0.2" d="M212.328 250.29H248.82V239.634H212.328V250.29Z" fill="white"/>
<path d="M216.289 236.376H249.811V234.69H216.289V236.376Z" fill="#263238"/>
<path opacity="0.2" d="M216.289 236.376H249.811V234.69H216.289V236.376Z" fill="white"/>
<path opacity="0.2" d="M236.941 236.376H249.811V234.69H236.941V236.376Z" fill="black"/>
<path d="M218.269 231.42H251.791V229.734H218.269V231.42Z" fill="#263238"/>
<path opacity="0.2" d="M218.269 231.42H251.791V229.734H218.269V231.42Z" fill="white"/>
<path opacity="0.2" d="M238.921 231.42H251.791V229.734H238.921V231.42Z" fill="black"/>
<path opacity="0.2" d="M234.468 250.29H248.82V239.634H234.468V250.29Z" fill="black"/>
</svg>
