<svg width="291" height="194" viewBox="0 0 291 194" fill="none" xmlns="http://www.w3.org/2000/svg">
<path d="M142.239 63.4341C141.926 63.4347 141.615 63.3822 141.32 63.2789L136.575 61.6338C136.108 61.4707 135.692 61.1882 135.369 60.8145C135.046 60.4407 134.826 59.9888 134.732 59.5037L133.781 54.5645C133.688 54.0788 133.724 53.5771 133.886 53.1099C134.048 52.6426 134.33 52.2263 134.704 51.9028L138.503 48.6125C138.878 48.289 139.331 48.0692 139.817 47.9753C140.303 47.8813 140.805 47.9164 141.273 48.0771L146.022 49.7261C146.49 49.8879 146.907 50.17 147.231 50.5439C147.555 50.9178 147.775 51.3704 147.869 51.8562L148.816 56.7916C148.908 57.2775 148.872 57.7791 148.711 58.2467C148.55 58.7143 148.269 59.1316 147.896 59.4571L144.094 62.7474C143.579 63.1923 142.92 63.4362 142.239 63.4341ZM137.739 58.7548L142.177 60.3068L145.731 57.2339L144.843 52.6206L140.404 51.0686L136.854 54.1454L137.739 58.7548Z" fill="#F5F5F5"/>
<path d="M197.663 49.0975C197.349 49.0981 197.039 49.0456 196.743 48.9423L194.337 48.1081C193.87 47.9457 193.454 47.6635 193.131 47.2896C192.808 46.9157 192.588 46.4634 192.494 45.978L192.013 43.4793C191.92 42.994 191.956 42.4928 192.118 42.0257C192.279 41.5586 192.56 41.1421 192.933 40.8176L194.873 39.1492C195.247 38.826 195.699 38.6067 196.185 38.5134C196.671 38.4201 197.172 38.456 197.639 38.6177L200.041 39.4519C200.509 39.6137 200.925 39.8958 201.25 40.2696C201.574 40.6435 201.794 41.0961 201.888 41.582L202.369 44.0807C202.462 44.5664 202.426 45.0681 202.264 45.5353C202.102 46.0025 201.82 46.4188 201.446 46.7424L199.506 48.4108C198.992 48.8516 198.339 49.0951 197.663 49.0975ZM195.509 45.2175L197.604 45.9431L199.277 44.492L198.858 42.3192L196.766 41.5936L195.09 43.068L195.509 45.2175Z" fill="#F5F5F5"/>
<path d="M264.104 85.6588C263.797 85.6566 263.495 85.5858 263.219 85.4515C262.943 85.3172 262.7 85.1229 262.509 84.8828L261.155 83.1911C260.932 82.9113 260.785 82.5777 260.731 82.2237C260.676 81.8697 260.716 81.5076 260.845 81.1735L261.621 79.1559C261.751 78.8223 261.966 78.5287 262.245 78.3046C262.525 78.0806 262.858 77.9339 263.212 77.8794L265.353 77.5496C265.708 77.4959 266.071 77.536 266.405 77.6661C266.739 77.7961 267.033 78.0114 267.258 78.2906L268.613 79.9823C268.836 80.2621 268.983 80.5957 269.037 80.9497C269.091 81.3037 269.052 81.6658 268.923 81.9999L268.147 84.0175C268.017 84.3518 267.801 84.646 267.521 84.8701C267.241 85.0943 266.907 85.2405 266.552 85.294L264.411 85.6238C264.309 85.6433 264.207 85.655 264.104 85.6588ZM265.675 79.0899H265.602L263.46 79.4197C263.374 79.4325 263.293 79.4675 263.225 79.5213C263.157 79.575 263.104 79.6457 263.072 79.7262L262.296 81.7438C262.264 81.824 262.255 81.9111 262.268 81.9962C262.281 82.0814 262.316 82.1617 262.37 82.2288L263.724 83.9205C263.779 83.9868 263.849 84.038 263.93 84.0693C264.01 84.1005 264.096 84.1107 264.182 84.099L266.323 83.7692C266.409 83.7572 266.491 83.7225 266.559 83.6686C266.627 83.6147 266.68 83.5436 266.711 83.4627L267.487 81.4451C267.518 81.3648 267.528 81.2779 267.515 81.1928C267.502 81.1078 267.467 81.0276 267.414 80.9601L266.06 79.2684C266.012 79.2124 265.954 79.1674 265.887 79.1365C265.821 79.1057 265.749 79.0898 265.675 79.0899Z" fill="#E0E0E0"/>
<path d="M22.3868 102.521C21.9932 102.521 21.6048 102.432 21.2497 102.262C20.8946 102.092 20.5819 101.846 20.3343 101.54L17.1527 97.5665C16.8671 97.2061 16.6811 96.7771 16.613 96.3223C16.5449 95.8676 16.5972 95.4029 16.7647 94.9746L18.6232 90.2294C18.7908 89.8009 19.0678 89.4239 19.4266 89.1359C19.7854 88.8479 20.2134 88.659 20.668 88.5882L25.712 87.8122C26.1673 87.7438 26.6326 87.7959 27.0615 87.9634C27.4904 88.1309 27.8679 88.4078 28.1564 88.7666L31.3108 92.732C31.5967 93.093 31.783 93.5227 31.8511 93.9781C31.9191 94.4336 31.8667 94.8989 31.6988 95.3277L29.8752 100.077C29.7079 100.507 29.4306 100.885 29.071 101.173C28.7114 101.462 28.2823 101.651 27.8266 101.722L22.7826 102.498C22.6516 102.517 22.5192 102.525 22.3868 102.521ZM19.3061 95.9252L22.4101 99.8053L27.3377 99.0525L29.1458 94.3965L26.0418 90.5165L21.1142 91.2731L19.3061 95.9252Z" fill="#E0E0E0"/>
<path d="M35.2612 67.7448H32.2619C31.9046 67.7459 31.5532 67.6534 31.2428 67.4764C30.9323 67.2994 30.6737 67.0441 30.4927 66.736L28.9911 64.1403C28.8139 63.8287 28.7207 63.4764 28.7207 63.1179C28.7207 62.7594 28.8139 62.4071 28.9911 62.0955L30.4927 59.4998C30.6719 59.1893 30.9299 58.9315 31.2405 58.7523C31.5511 58.5732 31.9034 58.4791 32.2619 58.4794H35.2612C35.6197 58.4791 35.972 58.5732 36.2827 58.7523C36.5933 58.9315 36.8512 59.1893 37.0305 59.4998L38.532 62.08C38.7092 62.3916 38.8024 62.7439 38.8024 63.1024C38.8024 63.4609 38.7092 63.8132 38.532 64.1248L37.0305 66.736C36.8491 67.0438 36.5904 67.2989 36.2801 67.4759C35.9697 67.6528 35.6184 67.7455 35.2612 67.7448ZM32.2619 60.0158C32.1757 60.016 32.091 60.0387 32.0162 60.0815C31.9413 60.1244 31.8789 60.186 31.8351 60.2603L30.3375 62.856C30.2938 62.9308 30.2708 63.0158 30.2708 63.1024C30.2708 63.189 30.2938 63.274 30.3375 63.3488L31.8351 65.96C31.8787 66.0348 31.941 66.0969 32.0158 66.1405C32.0906 66.184 32.1754 66.2074 32.2619 66.2083H35.2612C35.349 66.2087 35.4354 66.186 35.5117 66.1424C35.588 66.0988 35.6515 66.0359 35.6957 65.96L37.1934 63.3643C37.237 63.2895 37.26 63.2045 37.26 63.1179C37.26 63.0313 37.237 62.9463 37.1934 62.8715L35.6957 60.2603C35.6519 60.186 35.5896 60.1244 35.5147 60.0815C35.4399 60.0387 35.3552 60.016 35.2689 60.0158H32.2619Z" fill="#EBEBEB"/>
<path d="M86.4386 38.3926L80.5875 34.7105L73.4057 22.5894L63.4147 16.4745L61.4824 18.5658L62.4951 19.9316L65.6495 24.1608L78.1703 40.9689L83.2764 43.778L86.4386 38.3926Z" fill="#EBEBEB"/>
<path d="M79.0859 47.1071L77.4097 41.5276L59.0108 20.5058L56.5586 21.9569L60.4425 33.011L71.1241 43.5026L73.5181 50.052L79.0859 47.1071Z" fill="#EBEBEB"/>
<path d="M89.0539 39.4324C89.0539 39.4324 109.831 50.8358 114.018 54.6847C118.204 58.5337 127.986 74.562 126.993 76.6106C125.999 78.6592 125.239 78.9386 122.985 76.952C120.73 74.9655 113.444 63.9851 111.488 62.208C109.533 60.431 85.1895 46.172 85.1895 46.172L89.0539 39.4324Z" fill="#E0E0E0"/>
<path d="M74.9652 44.3174C78.5995 44.3174 81.5457 41.3712 81.5457 37.7369C81.5457 34.1026 78.5995 31.1564 74.9652 31.1564C71.3309 31.1564 68.3848 34.1026 68.3848 37.7369C68.3848 41.3712 71.3309 44.3174 74.9652 44.3174Z" fill="#EBEBEB"/>
<path d="M73.3304 44.104C73.8603 44.2037 74.3976 44.2595 74.9367 44.2708C75.5678 44.273 76.1957 44.1802 76.7991 43.9954C78.2517 43.5703 79.5109 42.6527 80.3605 41.4002C81.2101 40.1477 81.5972 38.6384 81.4551 37.1316C81.3892 36.5027 81.2269 35.8876 80.974 35.308C80.854 35.0105 80.714 34.7214 80.555 34.4428C80.3848 34.1615 80.1941 33.893 79.9846 33.6396C79.1187 32.5657 77.9313 31.7978 76.5967 31.4486C75.2622 31.0994 73.8508 31.1874 72.5699 31.6996C72.2664 31.8217 71.9709 31.963 71.6853 32.1226C71.4146 32.2902 71.1554 32.4755 70.9093 32.6774C70.4182 33.0642 69.9901 33.5249 69.6405 34.0432C68.981 34.9988 68.5885 36.1132 68.5037 37.2713C68.4408 38.1913 68.5724 39.1142 68.8899 39.9799C69.2075 40.8457 69.7038 41.6348 70.3467 42.2959C70.7834 42.7567 71.2869 43.1491 71.8405 43.4599C72.318 43.7114 72.8149 43.9242 73.3265 44.0962C73.2917 44.1007 73.2565 44.1007 73.2218 44.0962L72.9191 44.0109C72.7543 43.969 72.5933 43.9132 72.438 43.844C72.2202 43.7616 72.0088 43.663 71.8056 43.5492C71.2323 43.2532 70.7087 42.8696 70.2536 42.4123C69.5854 41.7459 69.0668 40.9448 68.7323 40.0624C68.3978 39.18 68.2551 38.2365 68.3136 37.2946C68.3978 36.1034 68.7997 34.9565 69.4776 33.9733C69.8375 33.4388 70.2772 32.9625 70.7812 32.561C71.2978 32.1317 71.881 31.7896 72.5078 31.5483C73.8264 31.0195 75.2796 30.9271 76.6546 31.2846C78.0295 31.6421 79.2536 32.4308 80.1476 33.5349C80.3602 33.7981 80.5547 34.0755 80.7296 34.3652C80.8941 34.6534 81.038 34.9529 81.1602 35.2615C81.4069 35.8549 81.5588 36.4833 81.6103 37.1239C81.717 38.2338 81.5405 39.3526 81.0974 40.3759C80.6544 41.3991 79.9591 42.2933 79.0767 42.9749C78.4056 43.4988 77.6384 43.8863 76.8185 44.1156C76.204 44.2955 75.5651 44.378 74.9251 44.3601C74.6913 44.361 74.4579 44.3442 74.2267 44.3096C74.0554 44.2976 73.8854 44.2717 73.7184 44.232L73.4119 44.1583C73.3823 44.1441 73.3549 44.1258 73.3304 44.104Z" fill="#E0E0E0"/>
<path d="M74.0342 41.3336C73.3222 41.1494 72.6808 40.7582 72.1913 40.2094C71.7017 39.6606 71.386 38.9789 71.284 38.2506C71.182 37.5223 71.2983 36.78 71.6183 36.1179C71.9382 35.4557 72.4474 34.9033 73.0814 34.5306C73.7154 34.158 74.4457 33.9817 75.1799 34.0242C75.9141 34.0667 76.6192 34.3261 77.206 34.7694C77.7927 35.2128 78.2348 35.8202 78.4762 36.5149C78.7176 37.2096 78.7475 37.9603 78.5621 38.6719C78.3139 39.6249 77.6977 40.4404 76.8487 40.9395C75.9998 41.4385 74.9875 41.5803 74.0342 41.3336Z" fill="#E0E0E0"/>
<path d="M74.0334 41.3336C74.0334 41.3065 74.3554 41.4112 74.9374 41.4112C75.6339 41.4049 76.3145 41.2019 76.9007 40.8258C77.4869 40.4496 77.9549 39.9155 78.2509 39.285C78.5223 38.6957 78.6321 38.045 78.5691 37.3993C78.4984 36.6876 78.219 36.0127 77.7659 35.4593C77.282 34.8615 76.6192 34.4345 75.8748 34.2411C75.1304 34.0476 74.3436 34.0979 73.6298 34.3845C73.291 34.5107 72.9751 34.6916 72.6948 34.92C72.4189 35.1399 72.1793 35.4018 71.9847 35.696C71.6161 36.229 71.3952 36.8502 71.3445 37.4963C71.3018 38.0603 71.3922 38.6265 71.6084 39.1492C71.9213 39.9161 72.4829 40.5557 73.203 40.965C73.472 41.1104 73.7493 41.2399 74.0334 41.353C73.7287 41.2995 73.435 41.196 73.1642 41.0465C72.4075 40.6506 71.8111 40.0048 71.4764 39.219C71.242 38.6765 71.1396 38.0861 71.1777 37.4963C71.2218 36.817 71.4468 36.1619 71.8295 35.599C72.0282 35.2895 72.2729 35.0122 72.5551 34.7764C72.8505 34.5322 73.1833 34.337 73.5406 34.1983C74.2934 33.8936 75.1243 33.8392 75.9104 34.0433C76.6965 34.2473 77.396 34.6989 77.9056 35.3313C78.3883 35.914 78.6868 36.6271 78.7631 37.3799C78.8237 38.0579 78.7018 38.7398 78.41 39.3548C78.1556 39.8874 77.7795 40.3526 77.312 40.7128C76.6359 41.2363 75.7999 41.5104 74.9452 41.4888C74.6347 41.4886 74.3264 41.4361 74.0334 41.3336Z" fill="#E0E0E0"/>
<path d="M85 38.1722L82.3113 42.8518C81.5234 44.2231 81.9964 45.9733 83.3676 46.7612L83.6199 46.9062C84.9911 47.694 86.7414 47.2211 87.5292 45.8499L90.218 41.1702C91.0058 39.799 90.5329 38.0487 89.1617 37.2609L88.9094 37.1159C87.5381 36.3281 85.7879 36.801 85 38.1722Z" fill="#EBEBEB"/>
<path d="M82.3089 42.8546C82.1481 43.2001 82.0396 43.5675 81.9868 43.9449C81.9467 44.3883 82.0064 44.8351 82.1614 45.2525C82.2577 45.5094 82.3882 45.7521 82.5494 45.9741C82.7389 46.2178 82.9669 46.4288 83.2245 46.5988C83.5071 46.7894 83.812 46.9444 84.1325 47.0605C84.6925 47.2502 85.2985 47.2558 85.8618 47.0764C86.4252 46.8969 86.9164 46.542 87.2636 46.0634C88.156 44.5773 89.0989 42.874 90.1154 41.1241C90.3479 40.7093 90.4699 40.2417 90.4699 39.7661C90.4699 39.2906 90.3479 38.823 90.1154 38.4081C89.9096 38.0097 89.6083 37.6685 89.2385 37.4149C88.8798 37.1628 88.4751 36.9835 88.0474 36.8872C87.6511 36.8068 87.242 36.8137 86.8487 36.9075C86.4553 37.0013 86.0872 37.1798 85.7698 37.4304C85.1607 37.8921 84.8929 38.5944 84.536 39.1609L82.9374 41.8769L82.4951 42.6102C82.4481 42.6984 82.3922 42.7816 82.3283 42.8585C82.3668 42.7654 82.4109 42.6748 82.4602 42.5869C82.5649 42.4007 82.7007 42.1485 82.8715 41.8381C83.2595 41.1707 83.7677 40.2395 84.4235 39.0949L84.9356 38.187C85.1245 37.8479 85.376 37.5477 85.6767 37.3023C86.0092 37.035 86.3959 36.8431 86.8099 36.7399C87.2239 36.6367 87.6554 36.6248 88.0745 36.7048C88.5224 36.8027 88.9468 36.9872 89.3239 37.248C89.7368 37.5065 90.0772 37.8656 90.3133 38.2917C90.5671 38.7375 90.7005 39.2416 90.7005 39.7545C90.7005 40.2674 90.5671 40.7715 90.3133 41.2173C89.2929 42.9749 88.3733 44.6511 87.4382 46.1681C87.1808 46.5127 86.852 46.7975 86.4743 47.0031C86.0966 47.2087 85.6789 47.3302 85.2499 47.3593C84.8619 47.3816 84.4733 47.3289 84.1053 47.2041C83.7746 47.0772 83.4606 46.9104 83.1702 46.7075C82.9012 46.5264 82.664 46.3023 82.4679 46.044C82.3041 45.8041 82.1735 45.543 82.0799 45.268C81.95 44.9163 81.8919 44.542 81.9092 44.1675C81.9266 43.7929 82.0189 43.4256 82.1808 43.0874C82.2169 43.0064 82.2597 42.9285 82.3089 42.8546Z" fill="#E0E0E0"/>
<path d="M74.2891 53.3655C74.2891 53.3655 82.1616 75.7221 85.2811 80.479C88.4006 85.2358 102.621 97.4889 104.801 96.8448C106.982 96.2007 107.366 95.4907 105.791 92.9648C104.216 90.4389 94.5388 81.4451 93.1109 79.2218C91.6831 76.9986 81.5447 50.665 81.5447 50.665L74.2891 53.3655Z" fill="#E0E0E0"/>
<path d="M78.7618 47.2741L73.7071 49.166C72.2261 49.7204 71.4748 51.3704 72.0291 52.8515L72.1311 53.124C72.6855 54.6051 74.3355 55.3564 75.8166 54.802L80.8713 52.9102C82.3523 52.3558 83.1036 50.7058 82.5493 49.2247L82.4473 48.9522C81.8929 47.4711 80.2429 46.7198 78.7618 47.2741Z" fill="#EBEBEB"/>
<path d="M78.7627 47.27C78.8516 47.2237 78.9453 47.1873 79.0421 47.1614C79.3208 47.082 79.6099 47.0453 79.8996 47.0528C80.359 47.068 80.8084 47.1917 81.211 47.4136C81.4609 47.5571 81.6906 47.7332 81.8939 47.9374C82.1156 48.1738 82.2989 48.4435 82.4371 48.7367C82.5904 49.0562 82.7025 49.3939 82.7708 49.7416C82.8388 50.1277 82.8283 50.5236 82.7397 50.9056C82.6394 51.326 82.4485 51.7195 82.1805 52.0586C81.9124 52.3976 81.5736 52.6742 81.1877 52.8689C79.5426 53.5324 77.7384 54.1803 75.8372 54.902C75.356 55.0794 74.8372 55.1297 74.3309 55.0481C73.8246 54.9666 73.3478 54.7559 72.9466 54.4364C72.5644 54.127 72.2656 53.7268 72.0775 53.2724C71.8789 52.854 71.7654 52.4003 71.7438 51.9377C71.7295 51.5078 71.8096 51.0801 71.9786 50.6845C72.1475 50.289 72.4011 49.9354 72.7216 49.6485C73.0126 49.3921 73.3497 49.1933 73.7149 49.0626L74.6926 48.7018L77.6492 47.6309L78.4562 47.3476C78.5491 47.3104 78.6452 47.2819 78.7433 47.2623C78.6579 47.314 78.5668 47.3557 78.4717 47.3864L77.6957 47.7046L74.7625 48.8376C74.1533 49.0975 73.4083 49.2488 72.8535 49.7726C72.5548 50.0458 72.319 50.3804 72.1623 50.7535C72.0055 51.1267 71.9316 51.5293 71.9456 51.9338C71.9736 52.3714 72.0856 52.7995 72.2754 53.1948C72.4529 53.6145 72.7331 53.9827 73.0902 54.2657C73.4645 54.5636 73.9095 54.7598 74.3819 54.8352C74.8543 54.9107 75.3383 54.8628 75.7868 54.6964C77.6763 53.9786 79.5116 53.3228 81.1257 52.6865C81.6521 52.4196 82.0804 51.9926 82.3488 51.4669C82.6172 50.9412 82.712 50.344 82.6195 49.761C82.5553 49.4246 82.4497 49.0975 82.3052 48.7871C82.1797 48.5031 82.0094 48.2411 81.8008 48.0111C81.6107 47.8115 81.394 47.6392 81.1567 47.499C80.7719 47.2742 80.3403 47.1414 79.8957 47.111C79.5121 47.1059 79.1301 47.1595 78.7627 47.27Z" fill="#E0E0E0"/>
<path d="M277.328 175.946C277.328 176.001 218.181 176.047 145.237 176.047C72.2931 176.047 13.1348 176.001 13.1348 175.946C13.1348 175.892 72.2698 175.845 145.237 175.845C218.204 175.845 277.328 175.892 277.328 175.946Z" fill="#263238"/>
<path d="M33.7578 131.559C33.8626 131.233 45.9527 91.7115 45.9527 91.7115L45.65 86.8033L48.8122 81.5964L52.7388 82.8962L52.2033 88.7162L49.4097 92.9609L37.2498 132.696L33.7578 131.559Z" fill="#E0E0E0"/>
<path d="M33.7578 131.559L33.9906 131.625L34.6619 131.835L37.2498 132.646L37.2071 132.669C39.1743 126.224 43.7217 111.309 49.3244 92.9454L52.1141 88.7046V88.7472C52.2848 86.8887 52.4672 84.9138 52.6495 82.9272L52.7194 83.032L52.3935 82.9272L48.7928 81.7361L48.9092 81.6934L45.747 86.9004V86.8422C45.8479 88.5157 45.9475 90.1518 46.0458 91.7504V91.7853C42.5111 103.266 39.4498 113.211 37.2731 120.288C36.1789 123.83 35.3021 126.651 34.7007 128.595C34.4019 129.565 34.1652 130.314 34.0061 130.826L33.8238 131.404L33.7578 131.602C33.771 131.538 33.7878 131.474 33.8083 131.412C33.8471 131.276 33.9014 131.086 33.9751 130.841C34.1303 130.329 34.3631 129.584 34.6425 128.622C35.2283 126.682 36.0819 123.857 37.1528 120.319C39.3179 113.218 42.352 103.247 45.8595 91.7271V91.762C45.7587 90.1634 45.6565 88.5274 45.553 86.8538V86.8228V86.7956L48.7152 81.5886L48.754 81.5188L48.8316 81.546L52.4361 82.7332L52.7582 82.8419L52.8358 82.8652V82.9466C52.6534 84.9448 52.4711 86.9198 52.2965 88.7666V88.7938V88.8132L49.5067 93.0579V93.0308C43.8458 111.356 39.2597 126.251 37.2731 132.696V132.731H37.2382L34.6463 131.873L33.9906 131.652L33.7578 131.559Z" fill="#263238"/>
<path d="M30.843 133.472L25.411 140.813L17.8179 168.361C17.8179 168.361 16.7276 173.979 22.9317 175.574C29.9157 177.366 31.5065 172.028 31.5065 172.028L38.8785 145.127L38.8009 135.8L40.6206 133.747C40.7029 133.652 40.7606 133.538 40.7888 133.415C40.8169 133.292 40.8147 133.164 40.7822 133.042C40.7497 132.92 40.688 132.808 40.6023 132.715C40.5167 132.622 40.4098 132.552 40.2908 132.51L31.5686 129.631C31.4474 129.593 31.3187 129.585 31.1939 129.609C31.0691 129.632 30.9519 129.686 30.8527 129.765C30.7535 129.845 30.6752 129.947 30.6248 130.064C30.5745 130.18 30.5535 130.307 30.5637 130.434L30.843 133.472Z" fill="#C53F3F"/>
<path d="M38.8477 136.122C38.8283 136.176 37.0008 135.645 34.7659 134.935C32.531 134.225 30.7268 133.604 30.7462 133.55C30.7656 133.495 32.5893 134.031 34.828 134.741C37.0668 135.451 38.8632 136.068 38.8477 136.122Z" fill="#263238"/>
<path d="M38.8941 145.131C38.7102 145.12 38.5281 145.089 38.3509 145.038C38.0017 144.965 37.505 144.844 36.8881 144.689C35.6543 144.383 33.9626 143.913 32.1196 143.323C30.2766 142.734 28.6276 142.136 27.4364 141.674C26.8467 141.442 26.3694 141.248 26.0435 141.108C25.8705 141.046 25.7041 140.966 25.5469 140.871C25.7277 140.908 25.9044 140.963 26.0746 141.034L27.4869 141.539C28.6819 141.965 30.3348 142.543 32.1778 143.129C34.0208 143.715 35.7047 144.208 36.923 144.553L38.3703 144.961C38.5497 145.001 38.7251 145.059 38.8941 145.131Z" fill="#263238"/>
<g opacity="0.3">
<path d="M28.6828 143.733L28.4929 143.678C27.814 143.48 27.1032 143.87 26.9052 144.549L20.1814 167.602C19.9834 168.28 20.3732 168.991 21.0521 169.189L21.2421 169.245C21.9209 169.443 22.6318 169.053 22.8298 168.374L29.5535 145.321C29.7515 144.642 29.3617 143.931 28.6828 143.733Z" fill="black"/>
</g>
<g opacity="0.3">
<path d="M32.5754 144.996L32.3854 144.94C31.7066 144.742 30.9957 145.132 30.7977 145.811L24.074 168.864C23.876 169.543 24.2658 170.254 24.9447 170.452L25.1346 170.507C25.8135 170.705 26.5243 170.315 26.7223 169.636L33.4461 146.583C33.6441 145.905 33.2543 145.194 32.5754 144.996Z" fill="black"/>
</g>
<g opacity="0.3">
<path d="M36.0854 146.157L35.8957 146.101C35.2176 145.9 34.5052 146.287 34.3045 146.965L27.4884 169.991C27.2877 170.669 27.6746 171.381 28.3527 171.582L28.5424 171.638C29.2205 171.839 29.9329 171.452 30.1336 170.774L36.9497 147.748C37.1505 147.07 36.7635 146.358 36.0854 146.157Z" fill="black"/>
</g>
<path d="M49.3814 92.9648C48.788 92.8653 48.2076 92.7001 47.6509 92.4721C47.0728 92.3095 46.5155 92.0803 45.9902 91.7892C46.5817 91.8912 47.1606 92.0564 47.7168 92.2819C48.296 92.4451 48.8545 92.6742 49.3814 92.9648Z" fill="#263238"/>
<path d="M52.7447 82.8962C52.7157 83.0809 52.6702 83.2627 52.6089 83.4394C52.4964 83.8274 52.349 84.3163 52.1666 84.9216L50.6146 89.9656L50.5836 90.0626L50.4866 90.0315L48.6979 89.4068L46.8588 88.7628L46.7695 88.7317L46.7967 88.6425C47.3554 86.6482 47.8482 84.8983 48.2129 83.5985C48.3914 82.9971 48.5349 82.5004 48.6474 82.128C48.693 81.9477 48.7527 81.7712 48.8259 81.6003C48.8047 81.7856 48.767 81.9687 48.7134 82.1474L48.3254 83.6334C47.9801 84.9254 47.5145 86.6792 46.9791 88.6774L46.917 88.5571L48.76 89.2012L50.5448 89.8259L50.4167 89.8918L52.0463 84.8828C52.2481 84.2814 52.4343 83.7925 52.543 83.42C52.5953 83.24 52.6628 83.0648 52.7447 82.8962Z" fill="#263238"/>
<path d="M167.189 43.425C166.876 43.4255 166.565 43.373 166.269 43.2698L161.516 41.6246C161.05 41.4615 160.634 41.179 160.311 40.8053C159.987 40.4316 159.767 39.9796 159.673 39.4945L158.722 34.5553C158.629 34.0696 158.665 33.5679 158.827 33.1007C158.99 32.6335 159.272 32.2172 159.646 31.8936L163.448 28.6034C163.823 28.2804 164.275 28.0614 164.761 27.9681C165.246 27.8748 165.747 27.9106 166.215 28.0718L170.964 29.7169C171.431 29.8795 171.848 30.1617 172.172 30.5355C172.496 30.9093 172.716 31.3615 172.811 31.847L173.761 36.7863C173.853 37.2719 173.815 37.773 173.653 38.2399C173.491 38.7068 173.21 39.1232 172.838 39.448L169.035 42.7382C168.522 43.1814 167.867 43.4252 167.189 43.425ZM162.688 38.7457L167.13 40.2977L170.681 37.2247L169.792 32.592L165.353 31.04L161.795 34.144L162.688 38.7457Z" fill="#E0E0E0"/>
<path d="M162.689 38.7456C162.656 38.6452 162.63 38.5429 162.611 38.4391L162.417 37.5273C162.25 36.7086 162.029 35.5563 161.73 34.1478C161.727 34.1346 161.728 34.1208 161.732 34.1079C161.736 34.0949 161.744 34.0833 161.754 34.0741L165.292 30.9701C165.307 30.9626 165.323 30.9587 165.339 30.9587C165.355 30.9587 165.371 30.9626 165.385 30.9701L169.824 32.5221L169.894 32.5997V32.6657V32.7433L169.925 32.8946L169.983 33.1972C170.022 33.3951 170.057 33.5852 170.096 33.7948C170.173 34.1828 170.247 34.5708 170.321 34.9588C170.468 35.7348 170.612 36.4797 170.747 37.1975C170.751 37.2138 170.75 37.2307 170.744 37.2464C170.739 37.2621 170.729 37.276 170.716 37.2868L167.178 40.352C167.167 40.3584 167.154 40.3618 167.141 40.3618C167.128 40.3618 167.115 40.3584 167.104 40.352L163.857 39.188L162.984 38.862C162.882 38.8291 162.784 38.7889 162.689 38.7418C162.799 38.7649 162.908 38.7961 163.015 38.8349L163.911 39.122L167.155 40.2084H167.081L170.619 37.1044L170.588 37.1975C170.449 36.4758 170.301 35.7309 170.154 34.9588C170.08 34.5708 170.002 34.1828 169.925 33.7948C169.886 33.5969 169.851 33.4068 169.812 33.1972L169.754 32.8946L169.723 32.7433V32.6657V32.6269V32.5997C169.723 32.5997 169.847 32.7433 169.785 32.6734L165.35 31.1214H165.443L161.878 34.1828L161.905 34.109C162.157 35.5136 162.367 36.6582 162.514 37.4769C162.58 37.8649 162.634 38.1714 162.673 38.4042C162.689 38.5173 162.694 38.6316 162.689 38.7456Z" fill="#263238"/>
<path d="M167.188 43.425C167.188 43.425 167.355 43.425 167.669 43.3629C168.122 43.2766 168.547 43.0808 168.907 42.7925L172.768 39.413C173.19 39.0484 173.492 38.564 173.633 38.024C173.709 37.7396 173.74 37.4451 173.726 37.151C173.692 36.8444 173.64 36.5399 173.571 36.2392C173.326 34.986 173.066 33.6512 172.795 32.2467C172.747 31.8953 172.651 31.5521 172.512 31.2262C172.361 30.8975 172.146 30.6022 171.879 30.3577C171.613 30.1132 171.3 29.9243 170.96 29.8023L169.865 29.4143L167.619 28.6383L166.455 28.2503C166.086 28.0951 165.691 28.0121 165.291 28.0058C164.889 28.0054 164.492 28.0928 164.127 28.2619C163.773 28.4397 163.448 28.6714 163.165 28.9487L161.368 30.5007L159.634 32.0022C159.106 32.486 158.788 33.1573 158.749 33.8724C158.744 34.2187 158.783 34.5643 158.866 34.9006C158.932 35.2459 158.994 35.5835 159.06 35.9172C159.184 36.5845 159.308 37.2286 159.424 37.8572C159.541 38.4857 159.653 39.091 159.774 39.6575C159.918 40.1946 160.221 40.6759 160.643 41.0388C160.839 41.2061 161.057 41.3457 161.291 41.4539C161.52 41.5548 161.764 41.6285 161.989 41.7139L163.289 42.1717L165.368 42.9089C165.799 43.0825 166.239 43.229 166.688 43.3474C166.998 43.4056 167.169 43.4017 167.169 43.4094C167.006 43.4291 166.842 43.4291 166.68 43.4094C166.226 43.305 165.78 43.1688 165.345 43.002L163.273 42.292L161.97 41.8497C161.737 41.7682 161.5 41.6984 161.256 41.5936C161.008 41.4819 160.777 41.337 160.569 41.1629C160.121 40.7847 159.798 40.2804 159.642 39.7157C159.51 39.1259 159.405 38.5284 159.281 37.9037C159.157 37.279 159.032 36.6311 158.893 35.9637C158.826 35.6352 158.76 35.2977 158.695 34.951C158.607 34.6009 158.566 34.241 158.571 33.8802C158.611 33.114 158.949 32.3941 159.514 31.8742L161.244 30.3688L163.04 28.8168C163.196 28.6848 163.339 28.5529 163.506 28.4288C163.676 28.3024 163.858 28.1932 164.049 28.1028C164.436 27.9234 164.857 27.8307 165.283 27.8312C165.706 27.8379 166.123 27.9248 166.513 28.0873L167.677 28.4753L169.924 29.2513L171.018 29.6393C171.387 29.7711 171.726 29.9756 172.015 30.2407C172.298 30.5006 172.526 30.8146 172.686 31.1642C172.833 31.5047 172.932 31.8637 172.981 32.2312C173.24 33.6409 173.492 34.973 173.738 36.2276C173.808 36.5358 173.858 36.8481 173.889 37.1626C173.911 37.6093 173.831 38.0551 173.653 38.4655C173.475 38.876 173.206 39.24 172.865 39.5294L168.961 42.8624C168.585 43.1494 168.144 43.3387 167.677 43.4133C167.515 43.4372 167.351 43.4411 167.188 43.425Z" fill="#263238"/>
<path d="M134.12 35.3468C133.812 35.3461 133.508 35.2759 133.232 35.1415C132.955 35.0072 132.712 34.8121 132.521 34.5708L131.167 32.883C130.943 32.6024 130.797 32.2682 130.743 31.9136C130.688 31.559 130.727 31.1963 130.856 30.8615L131.632 28.8439C131.763 28.51 131.979 28.2163 132.259 27.9923C132.539 27.7682 132.873 27.6217 133.227 27.5674L135.365 27.2376C135.72 27.1839 136.082 27.2241 136.416 27.3541C136.751 27.4841 137.045 27.6995 137.27 27.9787L138.624 29.6704C138.848 29.9502 138.994 30.2837 139.049 30.6378C139.103 30.9918 139.064 31.3539 138.935 31.688L138.159 33.7094C138.03 34.0436 137.816 34.3383 137.539 34.5642C137.261 34.7902 136.929 34.9396 136.576 34.9976L134.434 35.3235C134.33 35.3392 134.225 35.347 134.12 35.3468ZM135.672 28.778H135.598L133.472 29.1C133.386 29.1128 133.305 29.1478 133.237 29.2015C133.169 29.2553 133.116 29.326 133.084 29.4065L132.308 31.428C132.277 31.5083 132.267 31.5952 132.28 31.6802C132.293 31.7653 132.328 31.8455 132.381 31.913L133.735 33.6008C133.79 33.6677 133.86 33.7193 133.941 33.7506C134.021 33.7819 134.108 33.7918 134.193 33.7793L136.335 33.4495C136.421 33.4371 136.502 33.4022 136.57 33.3484C136.638 33.2946 136.691 33.2237 136.723 33.143L137.499 31.1254C137.531 31.0452 137.54 30.9581 137.527 30.8729C137.514 30.7878 137.479 30.7075 137.425 30.6404L136.071 28.9526C136.024 28.897 135.965 28.8526 135.899 28.8224C135.832 28.7923 135.76 28.7771 135.687 28.778H135.672Z" fill="#E0E0E0"/>
<path d="M135.688 28.7779C135.742 28.7609 135.8 28.7609 135.855 28.7779C135.922 28.7962 135.984 28.8294 136.037 28.8749C136.103 28.94 136.165 29.0087 136.223 29.0806L137.325 30.4037L137.504 30.6248C137.571 30.7161 137.609 30.8257 137.612 30.9391C137.61 31.0508 137.583 31.1606 137.535 31.2611C137.5 31.3581 137.461 31.4551 137.426 31.556C137.271 31.944 137.108 32.3825 136.937 32.8325C136.894 32.9451 136.852 33.0576 136.805 33.174C136.754 33.3142 136.652 33.4294 136.518 33.496C136.393 33.5426 136.263 33.5726 136.13 33.5853L135.742 33.6473C135.218 33.7249 134.706 33.8142 134.124 33.8879C134.041 33.8881 133.958 33.8706 133.882 33.8365C133.806 33.8024 133.737 33.7525 133.682 33.69L133.426 33.368L132.925 32.7472L132.448 32.1419L132.328 31.9945C132.282 31.9401 132.245 31.8784 132.219 31.8121C132.167 31.6747 132.167 31.5227 132.219 31.3853L132.724 30.1165L132.952 29.5423C132.986 29.4445 133.03 29.3508 133.084 29.2629C133.146 29.1755 133.233 29.1081 133.333 29.0689C134.078 28.9331 134.644 28.8788 135.052 28.8245C135.26 28.7837 135.472 28.7655 135.684 28.7702C135.633 28.7892 135.579 28.8023 135.525 28.809L135.067 28.9021C134.679 28.9797 134.066 29.0651 133.387 29.2009C133.314 29.2329 133.251 29.2838 133.205 29.3483C133.161 29.4291 133.125 29.5134 133.096 29.6005L132.879 30.1786L132.39 31.4551C132.355 31.549 132.355 31.6523 132.39 31.7461C132.444 31.8461 132.51 31.9386 132.588 32.0216L133.084 32.6308L133.585 33.2516L133.837 33.5659C133.874 33.6065 133.919 33.639 133.969 33.6611C134.019 33.6831 134.073 33.6943 134.128 33.6939L135.715 33.4572L136.103 33.399C136.221 33.3917 136.337 33.3682 136.448 33.3292C136.54 33.2855 136.611 33.2075 136.646 33.1119C136.689 32.9955 136.735 32.883 136.778 32.7705C136.957 32.3281 137.123 31.9013 137.283 31.5017C137.326 31.406 137.365 31.309 137.399 31.2107C137.441 31.13 137.466 31.0415 137.473 30.9507C137.469 30.868 137.443 30.7878 137.399 30.7179L137.228 30.5007L136.177 29.1388C136.13 29.0437 136.062 28.9612 135.977 28.8983C135.891 28.8355 135.792 28.7942 135.688 28.7779Z" fill="#263238"/>
<path d="M134.12 35.3468C134.204 35.3276 134.29 35.3147 134.376 35.308L135.117 35.1799L136.281 34.9821C136.523 34.9557 136.76 34.8983 136.987 34.8113C137.236 34.7087 137.461 34.5554 137.647 34.3613C137.861 34.1487 138.025 33.8917 138.128 33.6085C138.24 33.3137 138.361 33.0033 138.481 32.6812C138.694 32.0333 139.129 31.3698 138.97 30.6287C138.901 30.2529 138.729 29.9036 138.473 29.6199L137.697 28.6577L137.309 28.161C137.186 27.9941 137.039 27.8452 136.875 27.7187C136.539 27.4668 136.13 27.3307 135.711 27.3307C135.494 27.3386 135.279 27.3633 135.067 27.4044L134.419 27.5014L133.158 27.6993C132.771 27.7833 132.419 27.9836 132.149 28.2735C132.019 28.4125 131.909 28.5693 131.823 28.7391C131.741 28.906 131.676 29.1 131.606 29.2746L131.191 30.3261C131.046 30.6431 130.932 30.973 130.849 31.3116C130.803 31.6172 130.827 31.9293 130.919 32.2243C131.011 32.5193 131.169 32.7896 131.381 33.0149L132.355 34.2565C132.502 34.435 132.622 34.6135 132.762 34.7493C132.888 34.8735 133.03 34.9805 133.185 35.0674C133.482 35.225 133.808 35.32 134.143 35.3468C134.143 35.3468 134.12 35.3468 134.073 35.3468C134.027 35.3468 133.965 35.3468 133.879 35.3468C133.625 35.3237 133.377 35.2512 133.15 35.1334C132.986 35.0464 132.834 34.9395 132.696 34.8152C132.544 34.6586 132.4 34.4942 132.265 34.3225L131.268 33.1003C131.04 32.8614 130.869 32.5739 130.768 32.2593C130.667 31.9448 130.639 31.6114 130.686 31.2844C130.764 30.9312 130.877 30.5868 131.024 30.2562L131.431 29.2047C131.505 29.0224 131.563 28.8439 131.652 28.6538C131.745 28.4659 131.864 28.2922 132.005 28.1377C132.295 27.8258 132.67 27.6059 133.084 27.5053C133.511 27.4316 133.926 27.3734 134.357 27.3035L135.005 27.2065C135.227 27.1619 135.453 27.136 135.68 27.1289C136.142 27.1247 136.593 27.2719 136.964 27.548C137.142 27.6841 137.3 27.8448 137.433 28.0252L137.821 28.5219C138.085 28.8478 138.341 29.1737 138.597 29.488C138.874 29.7968 139.058 30.1773 139.129 30.586C139.198 30.978 139.155 31.3814 139.005 31.75C138.873 32.0876 138.741 32.4174 138.617 32.7394C138.493 33.0615 138.369 33.3641 138.252 33.6629C138.143 33.9547 137.973 34.2194 137.752 34.4389C137.358 34.8172 136.842 35.0417 136.297 35.0713L135.133 35.2343C134.811 35.2769 134.558 35.3119 134.388 35.3235C134.3 35.3418 134.21 35.3497 134.12 35.3468Z" fill="#263238"/>
<path d="M171.919 30.2834C171.645 30.7531 171.309 31.1826 170.918 31.5599C170.574 31.9847 170.161 32.3481 169.695 32.6347C170.022 32.2057 170.382 31.8023 170.77 31.428C171.108 31.0043 171.494 30.6203 171.919 30.2834Z" fill="#263238"/>
<path d="M164.645 28.0524C164.898 28.5087 165.072 29.0045 165.161 29.519C165.318 30.0207 165.387 30.5457 165.366 31.071C165.192 30.5844 165.062 30.0832 164.978 29.5733C164.821 29.0777 164.709 28.5685 164.645 28.0524Z" fill="#263238"/>
<path d="M161.749 34.0547C161.242 33.9548 160.743 33.812 160.26 33.6279C159.756 33.5043 159.263 33.3408 158.785 33.139C159.828 33.2233 160.84 33.5359 161.749 34.0547Z" fill="#263238"/>
<path d="M160.924 40.7865C161.127 40.3808 161.388 40.007 161.7 39.6769C161.967 39.3072 162.286 38.978 162.647 38.6991C162.446 39.1064 162.184 39.4806 161.871 39.8088C161.603 40.1784 161.285 40.5077 160.924 40.7865Z" fill="#263238"/>
<path d="M167.457 42.9089C167.3 42.5095 167.209 42.0878 167.185 41.6596C167.092 41.2395 167.067 40.8071 167.111 40.3792C167.266 40.7803 167.358 41.2031 167.383 41.6324C167.474 42.0514 167.499 42.4822 167.457 42.9089Z" fill="#263238"/>
<path d="M172.977 37.9386C172.58 37.8922 172.193 37.7794 171.833 37.6049C171.447 37.4946 171.084 37.3187 170.758 37.085C171.54 37.2438 172.29 37.5323 172.977 37.9386Z" fill="#263238"/>
<path d="M250.004 67.6905C252.631 64.5245 255.257 61.3273 257.306 57.7577C259.355 54.1881 260.798 50.1995 260.903 46.0867C260.903 45.462 260.651 41.1358 260.049 40.9612C259.622 40.8371 259.328 44.6589 258.978 44.9343C255.626 47.5572 253.449 51.4489 252.196 55.5151C251.016 59.4798 250.281 63.5634 250.004 67.6905Z" fill="#263238"/>
<path d="M215.787 91.7543C216.835 89.0383 221.995 75.4583 221.968 75.4583C221.941 75.4583 213.079 70.8333 216.148 61.4127C217.622 56.8615 221.421 47.7396 224.952 39.5217C226.784 35.2641 230.153 31.8523 234.386 29.9651C238.62 28.0779 243.409 27.8536 247.801 29.3367L248.705 29.6433C258.273 33.5233 260.345 43.7936 256.205 53.2492L237.193 97.2872L220.532 92.1384L215.787 91.7543Z" fill="#FFBF9D"/>
<path d="M221.97 75.466C221.97 75.466 227.763 77.794 235.399 75.9782C235.399 75.9782 230.114 81.9495 221.043 77.9453L221.97 75.466Z" fill="#FF9A6C"/>
<path d="M224.936 48.5893C224.815 48.9374 224.834 49.3189 224.99 49.6529C225.146 49.9868 225.426 50.247 225.77 50.378C225.936 50.4488 226.114 50.4858 226.295 50.4868C226.475 50.4878 226.654 50.4527 226.82 50.3837C226.987 50.3147 227.138 50.213 227.265 50.0848C227.392 49.9566 227.492 49.8043 227.559 49.6369C227.681 49.2888 227.662 48.9069 227.506 48.5726C227.35 48.2384 227.07 47.9784 226.725 47.8482C226.559 47.7768 226.38 47.7394 226.2 47.7381C226.019 47.7369 225.84 47.7718 225.674 47.8409C225.507 47.91 225.356 48.0118 225.229 48.1404C225.102 48.2689 225.003 48.4216 224.936 48.5893Z" fill="#263238"/>
<path d="M225.627 44.1001C225.735 44.3329 227.004 43.9216 228.443 44.4144C229.883 44.9072 230.698 45.9664 230.911 45.8578C231.016 45.8073 230.954 45.4348 230.605 44.9421C230.128 44.2994 229.464 43.8208 228.703 43.5724C227.951 43.3125 227.135 43.3016 226.375 43.5414C225.817 43.7315 225.572 43.9954 225.627 44.1001Z" fill="#263238"/>
<path d="M237.581 53.6759C237.459 54.0234 237.479 54.4049 237.634 54.7385C237.79 55.0721 238.071 55.3314 238.416 55.4607C238.581 55.5321 238.76 55.5696 238.94 55.5708C239.121 55.5721 239.3 55.5371 239.466 55.468C239.633 55.3989 239.784 55.2971 239.911 55.1686C240.038 55.04 240.137 54.8874 240.204 54.7197C240.325 54.3716 240.306 53.99 240.15 53.6561C239.994 53.3221 239.714 53.062 239.37 52.931C239.204 52.8602 239.025 52.8234 238.845 52.8227C238.664 52.822 238.485 52.8574 238.319 52.9268C238.152 52.9962 238.001 53.0982 237.874 53.2269C237.748 53.3555 237.648 53.5082 237.581 53.6759Z" fill="#263238"/>
<path d="M239.552 49.4507C239.657 49.6835 240.929 49.2761 242.369 49.7649C243.808 50.2538 244.619 51.3169 244.837 51.2122C244.938 51.1579 244.879 50.7854 244.53 50.2965C244.052 49.6528 243.387 49.173 242.625 48.923C241.873 48.6622 241.056 48.6513 240.297 48.8919C239.754 49.0821 239.498 49.3459 239.552 49.4507Z" fill="#263238"/>
<path d="M230.639 58.7821C230.674 58.7045 229.828 58.2466 228.439 57.5715C228.086 57.4085 227.76 57.2184 227.783 56.9429C227.807 56.6675 228.074 56.3027 228.397 55.938L230.434 53.5014C233.293 50.0094 235.497 47.111 235.353 46.9946C235.21 46.8782 232.781 49.6097 229.921 53.0901C229.227 53.9515 228.559 54.7701 227.927 55.5578C227.648 55.9458 227.248 56.3338 227.248 56.9391C227.258 57.0864 227.302 57.2296 227.375 57.3579C227.448 57.4863 227.549 57.5964 227.671 57.6801C227.857 57.8036 228.058 57.9039 228.268 57.9789C229.696 58.5493 230.604 58.8635 230.639 58.7821Z" fill="#263238"/>
<path d="M234.546 61.2109C234.313 61.1217 233.77 62.6853 232.071 63.3411C230.371 63.9968 228.745 63.2673 228.66 63.4807C228.606 63.57 228.932 63.9075 229.626 64.1675C230.54 64.488 231.536 64.4784 232.443 64.1403C233.312 63.8122 234.02 63.1599 234.418 62.3206C234.697 61.6921 234.655 61.2381 234.546 61.2109Z" fill="#263238"/>
<path d="M241.604 43.6306C241.604 44.0691 243.117 44.3717 244.739 45.1438C246.36 45.916 247.575 46.8433 247.916 46.5678C248.071 46.432 247.959 45.9819 247.528 45.4038C246.95 44.6891 246.217 44.1159 245.384 43.7279C244.551 43.34 243.64 43.1474 242.721 43.1651C242.023 43.2194 241.607 43.425 241.604 43.6306Z" fill="#263238"/>
<path d="M227.842 39.5101C227.986 39.9252 229.092 39.8981 230.29 40.2861C231.489 40.6741 232.424 41.2522 232.77 40.9884C232.929 40.8564 232.882 40.4762 232.545 40.0145C232.076 39.4429 231.448 39.0232 230.741 38.8084C230.034 38.5936 229.279 38.5934 228.572 38.8078C228.036 39.0212 227.784 39.3122 227.842 39.5101Z" fill="#263238"/>
<path d="M253.077 59.946C253.263 59.946 260.165 60.2138 257.799 66.542C255.432 72.8703 249.546 69.1998 249.604 69.0136C249.662 68.8274 253.077 59.946 253.077 59.946Z" fill="#FFBF9D"/>
<path d="M252.442 67.349C252.477 67.349 252.523 67.4693 252.678 67.6245C252.898 67.8362 253.192 67.9533 253.497 67.9504C254.273 67.9504 255.22 67.1007 255.678 65.9678C255.898 65.4297 255.995 64.8489 255.961 64.2683C255.977 64.0468 255.939 63.8247 255.849 63.6217C255.759 63.4186 255.62 63.2409 255.445 63.1043C255.33 63.0197 255.188 62.9791 255.046 62.9898C254.904 63.0005 254.77 63.0617 254.669 63.1625C254.518 63.31 254.51 63.4496 254.475 63.4496C254.44 63.4496 254.378 63.2906 254.525 63.0616C254.618 62.9199 254.754 62.8123 254.913 62.7551C255.137 62.6889 255.378 62.7125 255.584 62.8211C255.823 62.9719 256.02 63.181 256.156 63.4288C256.292 63.6765 256.362 63.9548 256.36 64.2373C256.423 64.8881 256.327 65.5444 256.081 66.1501C255.561 67.4111 254.463 68.3656 253.447 68.288C253.258 68.2729 253.074 68.216 252.91 68.1214C252.745 68.0268 252.604 67.8968 252.496 67.7409C252.395 67.512 252.415 67.3529 252.442 67.349Z" fill="#FF9A6C"/>
<path d="M233.049 30.6249C232.242 29.6704 236.584 27.5209 239.537 27.3579C243.999 27.0941 250.211 28.2581 253.33 30.5977C257.094 33.4107 259.79 36.8562 260.434 41.5083C261.079 46.1604 260.159 50.9406 258.355 55.2784C257.804 56.6015 257.129 57.9401 255.98 58.7976C254.564 59.8568 252.531 60.0857 251.864 62.0451C251.753 62.403 251.573 62.7354 251.333 63.0231C251.093 63.3108 250.799 63.5481 250.467 63.7213C248.837 64.4973 247.867 62.8095 247.662 61.3933C247.223 58.3824 248.201 55.3677 249.167 52.4693C249.854 50.4207 250.564 48.3293 251.883 46.6105C252.597 45.6754 253.474 44.8723 254.137 43.8945C254.801 42.9167 255.231 41.6945 254.913 40.5655C254.832 40.3165 254.727 40.0761 254.599 39.8477C254.012 38.7405 253.142 37.8092 252.077 37.1492C251.012 36.4892 249.791 36.1243 248.538 36.0918C244.492 35.9871 237.674 35.5331 236.569 33.7173C234.951 31.1021 234.838 29.7597 234.838 29.7597L233.049 30.6249Z" fill="#263238"/>
<path d="M254.14 26.7255C254.548 26.9311 264.081 32.821 264.019 41.4113C263.957 50.0016 262.385 52.1045 262.385 52.1045C262.705 52.4983 262.966 52.9361 263.161 53.4044C263.417 54.0562 261.954 56.2678 260.701 55.5306C252.142 47.5882 240.347 43.0254 226.891 38.8466L216.741 35.211C213.769 34.5631 213.028 33.4573 214.479 33.1585C215.592 32.9257 224.811 32.4601 224.811 32.4601L226.802 31.8471L233.01 27.4588C233.01 27.4588 232.769 26.4655 234.03 26.1435C235.291 25.8214 246.124 22.6515 254.14 26.7255Z" fill="#C53F3F"/>
<path d="M226.795 31.8626C226.795 31.8626 226.931 31.9169 227.183 32.0023L228.347 32.367C229.348 32.6658 230.772 33.1702 232.526 33.8142C237.063 35.5607 241.44 37.7002 245.605 40.2085C249.768 42.7273 253.784 45.4814 257.633 48.4574C259.123 49.5864 260.306 50.5254 261.125 51.1734L262.076 51.9144C262.293 52.0813 262.413 52.1628 262.413 52.1628C262.413 52.1628 262.309 52.0619 262.095 51.8834L261.168 51.1074C260.357 50.4478 259.181 49.4933 257.703 48.3526C253.867 45.3415 249.85 42.5686 245.675 40.0494C241.497 37.5318 237.097 35.4031 232.53 33.6901C230.65 32.9853 228.736 32.3754 226.795 31.8626Z" fill="#263238"/>
<g opacity="0.3">
<path d="M262.031 34.532C262.031 34.532 251.509 28.8983 245.696 29.5811L246.379 29.488L240.947 29.9381C240.028 30.0157 238.976 30.0429 238.348 29.3716C238.348 29.3716 241.642 27.9748 246.845 28.002C252.048 28.0291 259.684 29.876 262.031 34.532Z" fill="black"/>
</g>
<path d="M262.172 34.6252C261.938 34.2739 261.679 33.9406 261.396 33.628C260.638 32.7626 259.781 31.9891 258.843 31.3233C257.454 30.3283 255.925 29.5438 254.307 28.9953C252.335 28.269 250.229 27.9765 248.134 28.1378C247.058 28.2462 245.99 28.4225 244.937 28.6655C243.92 28.8944 242.931 29.0535 241.996 29.3251C241.139 29.6095 240.258 29.8198 239.365 29.9537C238.584 30.0309 237.795 29.926 237.06 29.6471C234.31 28.7431 232.824 27.5985 233.01 27.4705C233.02 27.5819 233.071 27.6857 233.153 27.7615C233.377 27.9798 233.627 28.1689 233.898 28.3241C234.886 28.9151 235.934 29.3978 237.026 29.7635C237.776 30.0537 238.583 30.1678 239.385 30.0972C240.288 29.971 241.178 29.7672 242.046 29.4881C242.962 29.2359 243.963 29.0651 244.98 28.8362C246.027 28.6031 247.086 28.4321 248.153 28.3241C250.224 28.1682 252.304 28.4525 254.257 29.1583C255.863 29.6956 257.383 30.4599 258.773 31.4281C259.71 32.0804 260.573 32.8337 261.345 33.6746C261.621 33.9733 261.827 34.2139 261.958 34.3807C262.09 34.5476 262.172 34.6252 262.172 34.6252Z" fill="#263238"/>
<g opacity="0.3">
<path d="M263.894 44.9615C261.899 44.2592 260.565 43.2232 258.729 42.1058C256.789 40.9185 254.807 39.8321 252.909 38.5517C251.47 37.5817 249.728 36.5574 249.088 35.0597C248.875 35.423 248.76 35.8351 248.754 36.256C248.748 36.6768 248.851 37.0921 249.053 37.4614C249.46 38.2374 251.187 39.6226 251.924 40.1231C256.118 42.9749 259.032 44.9227 263.719 46.9053C263.819 46.2632 263.876 45.6151 263.89 44.9653" fill="black"/>
</g>
<path d="M263.996 40.4607C265.075 41.4423 265.723 42.0786 265.389 43.1767C265.114 44.0846 264.555 45.1167 263.616 44.9731C263.338 44.9086 263.075 44.7928 262.84 44.6317L249.989 37.1084C249.524 36.9046 249.147 36.5413 248.926 36.084C248.67 35.3546 249.314 34.5553 250.055 34.3536C250.796 34.1518 251.588 34.3536 252.325 34.6096C256.508 35.9638 260.322 38.0434 263.996 40.4568" fill="#C53F3F"/>
<path d="M249.065 36.3634C248.947 36.1391 248.891 35.8872 248.902 35.6339C248.931 35.292 249.055 34.9652 249.261 34.6907C249.467 34.4162 249.746 34.2053 250.066 34.0819C250.889 33.8026 251.979 33.9888 253.05 34.4234C254.121 34.8579 255.327 35.3507 256.542 35.9133C258.651 36.8489 260.673 37.9707 262.583 39.2656C263.312 39.7661 263.875 40.2084 264.267 40.515L264.709 40.8758C264.759 40.9203 264.814 40.9593 264.872 40.9922C264.872 40.9922 264.83 40.9379 264.733 40.8486L264.31 40.4606C263.922 40.1386 263.382 39.6846 262.657 39.1608C260.759 37.8294 258.736 36.6871 256.616 35.7503C255.382 35.1838 254.191 34.695 253.096 34.2643C252.002 33.8336 250.881 33.6474 249.992 33.9616C249.656 34.096 249.365 34.3243 249.154 34.6194C248.944 34.9146 248.822 35.2641 248.805 35.6262C248.8 35.8206 248.841 36.0134 248.925 36.1888C248.961 36.2547 249.009 36.3137 249.065 36.3634Z" fill="#263238"/>
<path d="M231.061 28.8517L239.795 31.6492L238.224 33.8414L228.861 30.4037L231.061 28.8517Z" fill="white"/>
<path d="M241.539 41.0543C241.558 41.0078 237.884 39.1143 233.325 36.8562C228.766 34.598 225.041 32.7705 225.041 32.8171C225.041 32.8637 228.696 34.7571 233.255 37.0153C237.814 39.2734 241.516 41.097 241.539 41.0543Z" fill="#263238"/>
<path d="M243.738 88.1265L243.855 82.3918L224.23 89.6824C224.23 89.6824 220.602 77.8988 220.602 77.344L216.252 80.06L209.024 76.956L201.795 73.3864L187.176 98.9944L171.838 144.212L207.968 168.314L234.764 139.602L251.06 114.77L260.015 99.0487L243.738 88.1265Z" fill="#C53F3F"/>
<path d="M222.482 89.597C222.459 89.4065 222.45 89.2146 222.455 89.0227C222.455 88.6347 222.455 88.0838 222.432 87.4164L222.521 87.4707C220.365 88.524 218.374 89.8874 216.612 91.5176L216.457 91.665V91.4516C216.457 91.1955 216.426 90.9239 216.41 90.6485C216.251 87.8355 216.119 85.2902 216.022 83.4433C215.983 82.5431 215.952 81.8059 215.929 81.2589C215.929 81.0209 215.929 80.823 215.929 80.6652C215.903 80.6604 215.881 80.6462 215.865 80.6253C215.849 80.6045 215.842 80.5785 215.844 80.5525C215.847 80.5266 215.859 80.5024 215.878 80.4848C215.897 80.4673 215.922 80.4575 215.949 80.4575C215.975 80.4575 216 80.4673 216.019 80.4848C216.038 80.5024 216.05 80.5266 216.053 80.5525C216.055 80.5785 216.048 80.6045 216.032 80.6253C216.016 80.6462 215.994 80.6604 215.968 80.6652C215.968 80.8204 215.999 81.0183 216.022 81.255C216.061 81.8021 216.111 82.5393 216.174 83.4355C216.298 85.2785 216.449 87.8238 216.608 90.6368C216.608 90.9123 216.639 91.1839 216.651 91.44L216.484 91.3702C218.259 89.7287 220.281 88.375 222.475 87.3582L222.568 87.3194V87.4164C222.568 88.0838 222.541 88.6231 222.533 89.0227C222.53 89.2151 222.513 89.4071 222.482 89.597Z" fill="#263238"/>
<path d="M241.93 88.402C241.86 88.4507 241.785 88.491 241.705 88.5223L241.049 88.8365L238.62 89.9501L230.566 93.5507L226.74 95.2424L226.577 95.3123L226.608 95.1377C226.924 93.3185 227.072 91.4743 227.05 89.6281L227.14 89.6824L225.328 90.5631L224.843 90.7882C224.734 90.8386 224.676 90.8619 224.672 90.8541C224.719 90.8155 224.772 90.7829 224.827 90.7571L225.297 90.5011L227.085 89.5699L227.171 89.5233V89.6281C227.225 91.4897 227.095 93.3521 226.783 95.1881L226.651 95.0833L230.472 93.3839L238.551 89.8337L241.011 88.7783L241.682 88.5029C241.76 88.4592 241.844 88.4253 241.93 88.402Z" fill="#263238"/>
<path d="M207.618 59.7054H59.8289C56.7068 59.7054 54.1758 62.2364 54.1758 65.3586V167.69C54.1758 170.812 56.7068 173.343 59.8289 173.343H207.618C210.74 173.343 213.271 170.812 213.271 167.69V65.3586C213.271 62.2364 210.74 59.7054 207.618 59.7054Z" fill="#455A64"/>
<path d="M47.957 166.002H220.326V169.04C220.326 170.872 219.598 172.628 218.303 173.924C217.008 175.219 215.251 175.946 213.42 175.946H54.8634C53.0317 175.946 51.2751 175.219 49.9799 173.924C48.6847 172.628 47.957 170.872 47.957 169.04V166.002Z" fill="#455A64"/>
<path d="M208.559 64.2218H58.4492V160.186H208.559V64.2218Z" fill="#263238"/>
<path d="M118.041 164.939L120.179 168.613H150.276L152.263 164.939H118.041Z" fill="#263238"/>
<path d="M204.503 67.4694H62.8059C62.1051 67.4694 61.5371 68.0374 61.5371 68.7381V158.607C61.5371 159.307 62.1051 159.875 62.8059 159.875H204.503C205.204 159.875 205.772 159.307 205.772 158.607V68.7381C205.772 68.0374 205.204 67.4694 204.503 67.4694Z" fill="#EBEBEB"/>
<path d="M205.62 160.011H61.3848L61.5361 74.3757H205.62V160.011Z" fill="#FAFAFA"/>
<path d="M73.6583 71.0389C73.6469 71.2709 73.5677 71.4945 73.4305 71.6819C73.2933 71.8694 73.1042 72.0125 72.8865 72.0935C72.6688 72.1745 72.4321 72.1899 72.2058 72.1377C71.9794 72.0855 71.7733 71.9681 71.6131 71.7999C71.4528 71.6318 71.3454 71.4204 71.3041 71.1918C71.2628 70.9632 71.2894 70.7275 71.3808 70.514C71.4721 70.3004 71.6241 70.1183 71.8178 69.9902C72.0116 69.8621 72.2387 69.7937 72.471 69.7935C72.7935 69.8016 73.0996 69.9373 73.3221 70.1708C73.5447 70.4042 73.6656 70.7164 73.6583 71.0389Z" fill="#263238"/>
<path d="M66.4571 71.0389C66.4457 71.2709 66.3665 71.4945 66.2294 71.6819C66.0922 71.8694 65.903 72.0125 65.6853 72.0935C65.4676 72.1745 65.2309 72.1899 65.0046 72.1377C64.7782 72.0855 64.5722 71.9681 64.4119 71.7999C64.2516 71.6318 64.1442 71.4204 64.1029 71.1918C64.0616 70.9632 64.0883 70.7275 64.1796 70.514C64.2709 70.3004 64.4229 70.1183 64.6167 69.9902C64.8105 69.8621 65.0376 69.7937 65.2698 69.7935C65.5923 69.8016 65.8984 69.9373 66.1209 70.1708C66.3435 70.4042 66.4644 70.7164 66.4571 71.0389Z" fill="#263238"/>
<path d="M70.1583 71.0389C70.1469 71.2709 70.0677 71.4945 69.9305 71.6819C69.7933 71.8694 69.6042 72.0125 69.3865 72.0935C69.1688 72.1745 68.9321 72.1899 68.7058 72.1377C68.4794 72.0855 68.2733 71.9681 68.1131 71.7999C67.9528 71.6318 67.8454 71.4204 67.8041 71.1918C67.7628 70.9632 67.7894 70.7275 67.8808 70.514C67.9721 70.3004 68.1241 70.1183 68.3178 69.9902C68.5116 69.8621 68.7387 69.7937 68.971 69.7935C69.2935 69.8016 69.5996 69.9373 69.8221 70.1708C70.0447 70.4042 70.1656 70.7164 70.1583 71.0389Z" fill="#263238"/>
<path d="M211.906 164.939C211.906 165.001 176.598 165.047 133.045 165.047C89.4915 165.047 54.1758 165.001 54.1758 164.939C54.1758 164.877 89.4838 164.826 133.045 164.826C176.605 164.826 211.906 164.877 211.906 164.939Z" fill="#263238"/>
<path d="M118.162 90.792C120.507 89.3765 123.031 88.2804 125.666 87.5328L127.218 80.1026L139.766 79.8815L141.574 87.2535C144.233 87.9101 146.793 88.9174 149.186 90.2488L155.53 86.0933L164.559 94.8117L160.632 101.303C162.049 103.649 163.145 106.174 163.892 108.811L171.318 110.363L171.539 122.911L164.167 124.719C163.509 127.371 162.5 129.923 161.168 132.308L165.327 138.652L156.609 147.681L150.125 143.75C147.779 145.166 145.254 146.263 142.618 147.009L141.066 154.44L128.514 154.657L126.71 147.285C124.057 146.635 121.504 145.634 119.116 144.309L112.773 148.468L103.744 139.75L107.674 133.266C106.257 130.92 105.159 128.395 104.411 125.759L96.9848 124.207L96.7637 111.659L104.136 109.851C104.792 107.191 105.799 104.631 107.131 102.238L102.976 95.8942L111.694 86.8655L118.162 90.792ZM124.851 107.511C123.002 109.427 121.762 111.848 121.288 114.468C120.815 117.088 121.129 119.79 122.191 122.232C123.253 124.674 125.015 126.746 127.255 128.186C129.495 129.626 132.111 130.37 134.773 130.324C137.436 130.277 140.024 129.442 142.212 127.924C144.4 126.406 146.088 124.274 147.064 121.796C148.04 119.319 148.259 116.607 147.694 114.005C147.129 111.403 145.806 109.027 143.89 107.177C142.617 105.95 141.115 104.985 139.47 104.338C137.824 103.691 136.067 103.374 134.299 103.406C132.531 103.438 130.787 103.818 129.166 104.525C127.544 105.231 126.078 106.25 124.851 107.523V107.511Z" fill="#E0E0E0"/>
<path d="M168.296 95.5916C168.468 94.6635 168.761 93.762 169.169 92.9105L167.617 90.8153L170.426 87.5251L172.754 88.7434C173.53 88.2084 174.374 87.7791 175.264 87.4669L175.652 84.8789L179.963 84.5414L180.739 87.0362C181.668 87.2077 182.569 87.5026 183.42 87.9131L185.515 86.3611L188.805 89.1741L187.587 91.5021C188.124 92.2793 188.555 93.1249 188.867 94.0163L191.451 94.4043L191.789 98.7189L189.294 99.4949C189.124 100.424 188.829 101.326 188.417 102.176L189.969 104.275L187.16 107.561L184.832 106.343C184.055 106.88 183.209 107.311 182.318 107.624L181.93 110.211L177.619 110.549L176.843 108.05C175.915 107.88 175.013 107.587 174.162 107.177L172.063 108.729L168.781 105.885L169.999 103.557C169.463 102.78 169.032 101.934 168.719 101.043L166.134 100.655L165.797 96.3405L168.292 95.5645L168.296 95.5916ZM174.143 96.8992C174.051 97.8695 174.265 98.8443 174.757 99.686C175.248 100.528 175.991 101.194 176.881 101.591C177.771 101.988 178.764 102.096 179.718 101.899C180.673 101.702 181.542 101.211 182.202 100.494C182.863 99.7771 183.281 98.8711 183.4 97.9036C183.518 96.9361 183.329 95.9559 182.861 95.1012C182.392 94.2465 181.668 93.5604 180.788 93.1395C179.909 92.7186 178.92 92.5843 177.961 92.7553C176.959 92.934 176.043 93.4358 175.354 94.1842C174.664 94.9325 174.239 95.8862 174.143 96.8992Z" fill="#E0E0E0"/>
<path d="M73.8053 138.904C73.8367 137.789 74.0181 136.684 74.3447 135.618L72.1447 133.472L74.8374 129.134L77.7552 130.143C78.5701 129.378 79.4835 128.726 80.4712 128.203L80.4479 125.118L85.4221 123.954L86.7684 126.729C87.8832 126.76 88.9886 126.941 90.0548 127.268L92.2237 125.068L96.5615 127.761L95.5527 130.678C96.3175 131.493 96.9699 132.407 97.4927 133.394L100.577 133.371L101.741 138.341L98.9633 139.68C98.9287 140.795 98.746 141.9 98.4201 142.966L100.62 145.131L97.9273 149.473L95.0095 148.464C94.1954 149.23 93.2818 149.882 92.2935 150.404L92.3168 153.489L87.3465 154.653L85.9963 151.879C84.8846 151.84 83.7832 151.652 82.7216 151.32L80.5565 153.52L76.2148 150.827L77.2236 147.91C76.4589 147.095 75.8065 146.181 75.2836 145.194L72.1796 145.217L71.0156 140.247L73.7898 138.896L73.8053 138.904ZM80.995 140.301C81.2442 141.355 81.8002 142.311 82.5926 143.049C83.3851 143.787 84.3785 144.274 85.4473 144.447C86.5162 144.621 87.6126 144.474 88.598 144.025C89.5834 143.576 90.4137 142.845 90.9839 141.925C91.5542 141.004 91.8388 139.935 91.8018 138.853C91.7649 137.771 91.408 136.724 90.7764 135.844C90.1447 134.965 89.2665 134.292 88.2528 133.911C87.239 133.53 86.1351 133.459 85.0806 133.705C84.3775 133.869 83.7137 134.17 83.1274 134.591C82.5411 135.012 82.0438 135.545 81.6641 136.159C81.2844 136.773 81.0298 137.456 80.915 138.169C80.8002 138.882 80.8274 139.61 80.995 140.312V140.301Z" fill="#E0E0E0"/>
<path d="M82.7334 97.4579C82.8602 96.7572 83.0821 96.077 83.393 95.4364L82.229 93.8534L84.3475 91.374L86.0935 92.2936C86.6793 91.8895 87.316 91.5646 87.987 91.3275L88.2741 89.3875L91.5255 89.1314L92.1075 91.0132C92.8073 91.1435 93.487 91.3653 94.129 91.6728L95.712 90.5088L98.1875 92.6273L97.2718 94.3733C97.6762 94.9583 97.9999 95.5952 98.234 96.2667L100.174 96.55L100.43 99.8014L98.5522 100.368C98.4238 101.068 98.2033 101.747 97.8965 102.389L99.0605 103.969L96.942 106.448L95.196 105.528C94.6111 105.934 93.9743 106.259 93.3026 106.494L93.0193 108.434L89.7679 108.687L89.182 106.805C88.4814 106.677 87.8014 106.456 87.1605 106.145L85.5814 107.309L83.102 105.191L84.0177 103.445C83.6133 102.86 83.2896 102.223 83.0555 101.551L81.1155 101.264L80.8633 98.0127L82.7451 97.4307L82.7334 97.4579ZM87.1372 99.037C87.1921 99.7249 87.4496 100.381 87.8772 100.923C88.3047 101.465 88.8832 101.867 89.5395 102.081C90.1958 102.294 90.9006 102.308 91.5649 102.121C92.2291 101.933 92.823 101.554 93.2716 101.029C93.7202 100.505 94.0034 99.8595 94.0854 99.1743C94.1674 98.4891 94.0446 97.795 93.7324 97.1795C93.4202 96.5641 92.9327 96.055 92.3313 95.7164C91.73 95.3779 91.0419 95.2251 90.3538 95.2773C89.8954 95.3121 89.4484 95.4371 89.0384 95.6451C88.6284 95.853 88.2636 96.1399 87.9647 96.4892C87.6659 96.8385 87.439 97.2434 87.297 97.6806C87.155 98.1178 87.1007 98.5788 87.1372 99.037Z" fill="#EBEBEB"/>
<path d="M168.458 132.475C168.57 131.873 168.76 131.289 169.024 130.737L168.012 129.379L169.831 127.249L171.333 128.025C171.835 127.676 172.382 127.397 172.959 127.194L173.203 125.518L175.997 125.301L176.497 126.919C177.099 127.029 177.684 127.22 178.235 127.485L179.593 126.473L181.723 128.292L180.947 129.79C181.296 130.294 181.575 130.842 181.778 131.42L183.454 131.664L183.671 134.458L182.053 134.958C181.943 135.56 181.752 136.145 181.487 136.696L182.499 138.054L180.68 140.181L179.182 139.405C178.677 139.751 178.13 140.03 177.552 140.235L177.308 141.907L174.514 142.124L174.014 140.51C173.412 140.398 172.828 140.208 172.276 139.944L170.918 140.957L168.78 139.137L169.556 137.639C169.208 137.137 168.928 136.59 168.725 136.013L167.053 135.769L166.832 132.975L168.45 132.475H168.458ZM172.241 133.829C172.287 134.423 172.508 134.99 172.876 135.458C173.245 135.925 173.744 136.273 174.31 136.457C174.877 136.641 175.485 136.653 176.058 136.491C176.631 136.328 177.143 136 177.529 135.546C177.915 135.093 178.157 134.535 178.226 133.943C178.294 133.351 178.186 132.753 177.913 132.223C177.641 131.693 177.218 131.256 176.697 130.968C176.176 130.679 175.581 130.551 174.988 130.601C174.196 130.666 173.462 131.043 172.948 131.648C172.433 132.253 172.179 133.037 172.241 133.829Z" fill="#EBEBEB"/>
<path d="M134.144 136.685H114.848C113.714 136.682 112.601 136.381 111.619 135.813C110.637 135.245 109.822 134.43 109.254 133.448C108.687 132.466 108.387 131.352 108.385 130.218C108.383 129.084 108.678 127.969 109.242 126.985L118.895 110.266L128.545 93.5468C129.114 92.5632 129.932 91.7465 130.916 91.1788C131.9 90.611 133.017 90.3121 134.153 90.3121C135.29 90.3121 136.406 90.611 137.391 91.1788C138.375 91.7465 139.193 92.5632 139.762 93.5468L149.415 110.266L159.069 126.985C159.633 127.969 159.928 129.084 159.926 130.219C159.923 131.353 159.623 132.467 159.055 133.449C158.487 134.431 157.671 135.247 156.689 135.815C155.707 136.383 154.593 136.683 153.458 136.685H134.144Z" fill="#C53F3F"/>
<path d="M154.925 128.901C154.925 128.901 154.976 128.998 155.073 129.2C155.238 129.604 155.301 130.043 155.257 130.478C155.212 130.912 155.061 131.329 154.816 131.691C154.624 131.977 154.378 132.222 154.091 132.413C153.757 132.625 153.376 132.751 152.981 132.777C149.691 132.812 144.942 132.805 139.068 132.82L118.434 132.843H115.485C114.959 132.838 114.448 132.669 114.022 132.36C113.596 132.052 113.276 131.619 113.106 131.121C112.927 130.623 112.893 130.085 113.009 129.569C113.04 129.441 113.083 129.313 113.126 129.181C113.169 129.049 113.238 128.936 113.297 128.82L113.685 128.141C114.181 127.229 114.686 126.313 115.19 125.386L121.445 113.905L127.738 102.432C128.749 100.577 129.745 98.7577 130.726 96.9729C130.974 96.5305 131.203 96.0843 131.467 95.6459C131.729 95.198 132.103 94.8262 132.553 94.5673C132.994 94.3148 133.488 94.1711 133.996 94.1482C134.503 94.1252 135.009 94.2237 135.471 94.4353C135.929 94.6426 136.329 94.9598 136.635 95.3588C136.9 95.7613 137.139 96.1798 137.353 96.612C137.807 97.4423 138.257 98.261 138.695 99.0681C139.58 100.682 140.435 102.248 141.26 103.767C142.916 106.797 144.457 109.622 145.861 112.198C148.671 117.355 150.94 121.529 152.512 124.42L154.312 127.745C154.514 128.133 154.669 128.413 154.774 128.614C154.879 128.816 154.929 128.913 154.929 128.913C154.929 128.913 154.867 128.816 154.758 128.622L154.277 127.765L152.442 124.455C150.859 121.572 148.562 117.413 145.737 112.268L141.116 103.844L138.54 99.1534C138.098 98.3464 137.651 97.5277 137.193 96.6974C136.98 96.2782 136.743 95.8715 136.483 95.4791C136.197 95.1065 135.824 94.8095 135.397 94.6138C134.962 94.4143 134.486 94.3214 134.008 94.343C133.531 94.3646 133.065 94.5 132.65 94.738C132.229 94.9839 131.879 95.334 131.633 95.7545C131.377 96.1775 131.145 96.6314 130.9 97.0737L127.913 102.533C125.887 106.242 123.784 110.08 121.635 114.014L115.353 125.487C114.845 126.414 114.344 127.334 113.844 128.242C113.571 128.67 113.356 129.131 113.203 129.615C113.093 130.099 113.124 130.604 113.293 131.07C113.446 131.532 113.74 131.935 114.134 132.221C114.528 132.507 115.002 132.662 115.489 132.665H118.438L139.071 132.684L152.981 132.704C153.362 132.682 153.732 132.564 154.056 132.362C154.339 132.179 154.583 131.942 154.774 131.664C155.072 131.225 155.232 130.705 155.232 130.174C155.227 129.732 155.122 129.297 154.925 128.901Z" fill="#263238"/>
<path d="M131.016 125.324C131.016 123.613 132.381 122.336 134.325 122.336C136.269 122.336 137.604 123.613 137.604 125.324C137.604 127.035 136.269 128.37 134.325 128.37C132.381 128.37 131.016 127.012 131.016 125.324ZM131.047 107.798H137.604L136.502 120.711H132.121L131.047 107.798Z" fill="white"/>
<path d="M135.066 91.6146C134.669 91.4805 134.257 91.3945 133.84 91.3585C132.825 91.3366 131.835 91.6686 131.039 92.2974C130.261 92.9458 129.635 93.7562 129.203 94.672C128.85 95.3704 128.683 95.836 128.652 95.8166C128.663 95.702 128.69 95.5895 128.734 95.4829C128.831 95.1856 128.945 94.8941 129.075 94.6099C129.485 93.6487 130.12 92.7998 130.926 92.1345C131.756 91.4756 132.802 91.1492 133.859 91.2188C134.176 91.2425 134.487 91.3185 134.779 91.4438C134.969 91.5331 135.074 91.6029 135.066 91.6146Z" fill="white"/>
<path d="M126.996 98.7073C127.076 98.3725 127.219 98.0564 127.419 97.7761C127.702 97.2988 127.97 96.9341 128.02 96.9613C127.938 97.2911 127.794 97.6021 127.594 97.8769C127.45 98.1896 127.247 98.4715 126.996 98.7073Z" fill="white"/>
<g opacity="0.3">
<path d="M143.829 100.593L113.763 119.116L109.859 125.883L145.951 104.267L143.829 100.593Z" fill="white"/>
</g>
<g opacity="0.3">
<path d="M148.562 108.803L108.711 132.308C108.871 132.924 109.166 133.497 109.576 133.984L149.265 110.021L148.562 108.803Z" fill="white"/>
</g>
<path d="M247.047 152.639C245.532 150.97 243.568 149.772 241.391 149.188C239.213 148.605 236.913 148.661 234.767 149.349L231.053 145.275L230.537 144.697L201.154 112.458C201.98 110.544 202.281 108.445 202.027 106.377C201.773 104.308 200.973 102.345 199.709 100.688C198.445 99.0306 196.762 97.7402 194.834 96.9489C192.906 96.1577 190.802 95.8941 188.738 96.1852L187.303 96.7556L192.296 100.104L192.028 105.555L187.989 109.222L182.538 108.954L178.976 105.028L177.506 105.606C177.083 108.892 179.286 113.036 181.688 115.694C183.201 117.361 185.161 118.558 187.335 119.142C189.509 119.727 191.805 119.673 193.949 118.988L223.825 151.766L224.741 152.787L227.573 155.891C226.687 157.956 226.413 160.232 226.784 162.448C227.155 164.665 228.155 166.728 229.664 168.392C232.054 171.03 235.228 172.792 238.53 172.703L240.005 172.128L236.439 168.198L236.707 162.766L240.746 159.099L246.178 159.363L248.265 163.868L249.739 163.29C250.194 161.43 250.187 159.486 249.717 157.63C249.248 155.773 248.331 154.06 247.047 152.639Z" fill="#E0E0E0"/>
<g opacity="0.3">
<path d="M247.047 152.639C245.532 150.97 243.568 149.772 241.391 149.188C239.213 148.605 236.913 148.661 234.767 149.349L231.053 145.275L230.537 144.697L201.154 112.458C201.98 110.544 202.281 108.445 202.027 106.377C201.773 104.308 200.973 102.345 199.709 100.688C198.445 99.0306 196.762 97.7402 194.834 96.9489C192.906 96.1577 190.802 95.8941 188.738 96.1852L187.303 96.7556L192.296 100.104L192.028 105.555L187.989 109.222L182.538 108.954L178.976 105.028L177.506 105.606C177.083 108.892 179.286 113.036 181.688 115.694C183.201 117.361 185.161 118.558 187.335 119.142C189.509 119.727 191.805 119.673 193.949 118.988L223.825 151.766L224.741 152.787L227.573 155.891C226.687 157.956 226.413 160.232 226.784 162.448C227.155 164.665 228.155 166.728 229.664 168.392C232.054 171.03 235.228 172.792 238.53 172.703L240.005 172.128L236.439 168.198L236.707 162.766L240.746 159.099L246.178 159.363L248.265 163.868L249.739 163.29C250.194 161.43 250.187 159.486 249.717 157.63C249.248 155.773 248.331 154.06 247.047 152.639Z" fill="black"/>
</g>
<path d="M245.573 153.213C244.059 151.544 242.096 150.346 239.919 149.764C237.742 149.181 235.443 149.238 233.297 149.927L229.58 145.849L229.064 145.271L199.681 113.032C200.507 111.119 200.808 109.02 200.555 106.951C200.301 104.883 199.5 102.919 198.236 101.262C196.972 99.6057 195.289 98.3156 193.36 97.5249C191.432 96.7341 189.328 96.4713 187.265 96.7634L190.826 100.69L190.563 106.122L186.516 109.804L181.084 109.54L177.522 105.614C177.029 107.638 177.085 109.757 177.683 111.752C178.281 113.748 179.399 115.549 180.924 116.969C182.448 118.389 184.323 119.377 186.356 119.832C188.389 120.287 190.507 120.193 192.491 119.558L222.367 152.337L223.286 153.357L226.119 156.461C225.296 158.374 224.998 160.471 225.253 162.537C225.509 164.603 226.31 166.564 227.574 168.219C228.838 169.873 230.519 171.161 232.445 171.952C234.372 172.742 236.473 173.005 238.535 172.714L234.969 168.78L235.233 163.348L239.276 159.681L244.708 159.949L248.27 163.876C248.727 162.014 248.721 160.068 248.251 158.208C247.78 156.349 246.861 154.634 245.573 153.213Z" fill="#E0E0E0"/>
<path d="M245.573 153.213C245.573 153.213 245.743 153.4 246.065 153.776C246.524 154.349 246.931 154.962 247.28 155.607C248.628 158.143 249.001 161.084 248.327 163.876V163.953L248.273 163.895L244.707 159.972L244.738 159.992L239.306 159.732H239.345L235.31 163.402V163.36C235.232 165.051 235.143 166.894 235.05 168.811V168.761L238.585 172.66L238.678 172.761L238.542 172.78C236.575 173.066 234.567 172.849 232.706 172.15C230.845 171.45 229.191 170.291 227.899 168.78C226.493 167.147 225.567 165.157 225.222 163.03C224.856 160.8 225.133 158.512 226.021 156.434V156.527L192.386 119.632L192.49 119.659C190.365 120.331 188.094 120.395 185.933 119.845C182.924 119.067 180.342 117.136 178.744 114.469C177.147 111.803 176.663 108.615 177.397 105.594L177.444 105.408L177.572 105.548L181.134 109.474L181.064 109.443L186.515 109.707L186.441 109.734L190.508 106.064L190.473 106.134C190.562 104.294 190.651 102.482 190.74 100.682L190.764 100.752L187.202 96.8254L187.082 96.6896L187.26 96.6663C189.406 96.3631 191.594 96.655 193.585 97.5103C195.576 98.3656 197.294 99.7513 198.551 101.516C199.754 103.2 200.491 105.172 200.689 107.232C200.872 109.217 200.559 111.217 199.777 113.052V112.958L233.358 149.881H233.312C234.91 149.37 236.599 149.207 238.265 149.404C239.932 149.6 241.537 150.15 242.973 151.017C243.703 151.463 244.384 151.983 245.006 152.569C245.394 152.985 245.604 153.198 245.604 153.198L244.991 152.585C244.363 152.001 243.68 151.482 242.95 151.033C241.517 150.179 239.919 149.639 238.262 149.451C236.605 149.262 234.927 149.428 233.339 149.939H233.312V149.915L199.668 113.055L199.63 113.013L199.653 112.962C200.422 111.149 200.729 109.173 200.545 107.212C200.351 105.183 199.623 103.242 198.435 101.586C197.197 99.8497 195.506 98.4866 193.546 97.6457C191.587 96.8048 189.434 96.5183 187.322 96.8176L187.38 96.6586L190.896 100.624L190.923 100.651V100.694C190.837 102.489 190.75 104.3 190.659 106.126V106.168L190.628 106.196L186.589 109.862L186.558 109.889H186.515L181.083 109.622H181.04L181.013 109.591L177.448 105.664L177.622 105.621C177.135 107.627 177.19 109.727 177.782 111.705C178.373 113.682 179.48 115.467 180.989 116.876C182.498 118.285 184.354 119.267 186.368 119.722C188.381 120.177 190.48 120.088 192.448 119.465H192.506L192.552 119.512C204.767 132.929 216.22 145.488 226.165 156.422L226.204 156.465L226.18 156.519C225.307 158.563 225.032 160.812 225.385 163.007C225.725 165.05 226.601 166.966 227.923 168.56C229.246 170.155 230.967 171.37 232.912 172.082C234.707 172.731 236.633 172.931 238.523 172.664L238.476 172.784L234.918 168.858L234.899 168.834V168.78C234.992 166.867 235.081 165.024 235.166 163.348V163.321V163.301L239.213 159.643H239.237L244.669 159.914C245.972 161.358 247.171 162.681 248.223 163.849H248.153C248.832 161.075 248.474 158.148 247.148 155.619C246.804 154.973 246.405 154.358 245.957 153.78C245.732 153.411 245.573 153.213 245.573 153.213Z" fill="#263238"/>
<path d="M198.341 114.914C198.314 115.017 198.271 115.115 198.213 115.205C198.077 115.457 197.926 115.701 197.759 115.934C196.659 117.499 195.108 118.692 193.313 119.353C193.044 119.454 192.77 119.537 192.49 119.601C192.39 119.635 192.285 119.652 192.18 119.652C192.18 119.617 192.603 119.5 193.262 119.221C194.993 118.501 196.505 117.339 197.647 115.853C198.085 115.283 198.31 114.899 198.341 114.914Z" fill="#263238"/>
<path d="M231.155 128.917L219.996 123.718L210.021 122.472L213.683 125.576C213.683 125.576 200.786 130.073 200.561 131.086C200.336 132.099 201.578 134.822 203.852 134.318C203.852 134.318 202.575 135.87 203.107 137.581C203.638 139.292 204.814 139.614 206.987 139.214C206.987 139.214 205.512 141.422 206.668 142.547C207.825 143.673 209.625 143.389 209.625 143.389C209.625 143.389 209.648 146.078 211.068 146.311C212.488 146.544 216.446 146.268 217.924 145.814L225.432 143.486L230.298 142.396L231.155 128.917Z" fill="#FFBF9D"/>
<path d="M210.615 132.331C210.658 132.479 209.172 133.037 207.302 133.585C205.431 134.132 203.872 134.45 203.829 134.302C203.786 134.155 205.272 133.592 207.143 133.049C209.013 132.506 210.572 132.184 210.615 132.331Z" fill="#FF9A6C"/>
<path d="M212.511 137.635C212.554 137.783 211.379 138.268 209.881 138.722C208.383 139.176 207.13 139.416 207.083 139.269C207.037 139.121 208.22 138.636 209.718 138.186C211.216 137.736 212.469 137.492 212.511 137.635Z" fill="#FF9A6C"/>
<path d="M214.215 142.047C214.242 142.214 213.171 142.435 211.914 142.753C210.657 143.071 209.675 143.529 209.586 143.37C209.497 143.211 210.42 142.571 211.759 142.206C213.097 141.841 214.195 141.911 214.215 142.047Z" fill="#FF9A6C"/>
<path d="M215.623 125.13C215.666 125.281 214.203 125.813 212.391 126.438C210.579 127.062 209.101 127.54 209.039 127.396C208.977 127.252 210.382 126.538 212.213 125.91C214.044 125.281 215.585 124.983 215.623 125.13Z" fill="#FF9A6C"/>
<path d="M229.052 127.939L253.221 136.692L251.808 153.279L225.199 142.551L229.052 127.939Z" fill="#FFBF9D"/>
<path d="M260.061 98.9128C260.061 98.9128 263.212 102.168 265.047 108.023C266.882 113.878 275.523 138.698 275.314 146.594C275.085 154.762 269.587 160.589 257.504 157.361C250.295 155.421 241.705 152.317 241.705 152.317L247.812 132.242L252.588 133.472L244.875 118.992L260.061 98.9128Z" fill="#C53F3F"/>
<path d="M254.527 108.399C254.574 108.434 251.229 113.195 247.062 119.035C242.895 124.874 239.485 129.592 239.438 129.553C239.391 129.514 242.736 124.758 246.903 118.918C251.07 113.079 254.485 108.368 254.527 108.399Z" fill="#263238"/>
<path d="M263.779 136.188C263.779 136.188 263.569 136.087 263.193 135.913C262.657 135.673 262.103 135.477 261.536 135.327C260.818 135.129 259.949 134.939 258.983 134.733L255.848 134.042C253.625 133.546 251.611 133.084 250.16 132.739L248.441 132.32C248.228 132.279 248.019 132.219 247.816 132.141C248.032 132.159 248.246 132.194 248.457 132.246L250.191 132.599C251.654 132.909 253.683 133.348 255.895 133.844L259.026 134.555C259.988 134.772 260.857 134.974 261.575 135.191C262.145 135.356 262.698 135.574 263.228 135.843C263.371 135.916 263.51 135.997 263.643 136.087C263.692 136.115 263.738 136.149 263.779 136.188Z" fill="#263238"/>
<g opacity="0.3">
<path d="M269.955 137.073C269.878 136.596 269.687 136.146 269.398 135.759C269.109 135.373 268.73 135.062 268.295 134.853C267.421 134.44 266.48 134.188 265.517 134.108C261.175 133.511 256.783 133.332 252.402 133.181L252.79 133.356C258.202 134.356 263.5 135.9 268.601 137.965C268.881 138.12 269.209 138.159 269.517 138.074C269.683 137.971 269.815 137.821 269.893 137.642C269.971 137.463 269.993 137.264 269.955 137.073Z" fill="black"/>
</g>
<g opacity="0.3">
<path d="M170.387 60.109C166.313 59.4144 161.439 60.5978 157.365 59.9033C156.76 59.8024 156.093 59.7054 155.557 60.0158C154.913 60.3844 154.692 61.207 154.661 61.9558C154.645 62.9833 154.843 64.0028 155.244 64.9489C155.645 65.8951 156.24 66.747 156.989 67.4499C158.515 68.8447 160.42 69.7549 162.464 70.065C164.089 70.3405 165.839 70.2862 167.287 69.5024C169.832 68.1212 171.054 62.9064 170.387 60.109Z" fill="black"/>
</g>
<path d="M154.575 67.5625C154.575 67.5625 152.104 64.6641 151.747 63.3294C151.51 62.4448 151.626 59.9655 151.747 58.3941C151.774 57.8645 151.956 57.3546 152.269 56.9271C152.583 56.4996 153.015 56.1733 153.512 55.9885C153.658 55.9162 153.82 55.8849 153.982 55.8979C154.144 55.9109 154.299 55.9677 154.432 56.0622C154.767 55.607 155.144 55.1836 155.557 54.7973C156.527 53.804 156.988 53.1328 159.122 53.7497C159.122 53.7497 160.694 52.0929 161.598 52.2171C162.205 52.3069 162.805 52.4365 163.394 52.6051C163.394 52.6051 166.836 52.4577 167.542 53.5518C167.943 54.0457 168.484 54.4069 169.094 54.5878C169.632 54.7777 170.127 55.0737 170.549 55.4583C170.971 55.8428 171.311 56.3081 171.55 56.8265C171.952 57.7788 172.184 58.7937 172.237 59.8258L168.745 59.9655C168.745 59.9655 168.993 68.0009 168.112 68.6489C167.232 69.2969 166.898 69.0641 166.898 69.0641C166.898 69.0641 166.227 70.9497 163.608 69.5568C163.608 69.5568 161.435 70.2125 160.504 69.3163C159.573 68.42 156.166 59.8103 156.166 59.8103L156.263 64.0783C156.263 64.0783 158.059 66.8447 157.179 67.4927C156.298 68.1406 154.575 67.5625 154.575 67.5625Z" fill="#FFBF9D"/>
<path d="M158.938 56.6713C159.02 56.8324 159.086 57.0014 159.135 57.1757L159.609 58.5725C159.997 59.7365 160.528 61.3972 161.095 63.2091C161.661 65.0211 162.135 66.7011 162.67 67.803C162.876 68.247 163.115 68.6749 163.384 69.0834C163.574 69.3744 163.694 69.5219 163.683 69.5335C163.671 69.5452 163.64 69.5064 163.578 69.4365C163.487 69.3392 163.401 69.2369 163.322 69.13C163.024 68.7339 162.764 68.3104 162.546 67.8651C161.968 66.7438 161.483 65.0793 160.909 63.2712C160.334 61.4631 159.834 59.8102 159.477 58.6152C159.314 58.0448 159.174 57.5715 159.066 57.199C159.007 57.0274 158.964 56.8508 158.938 56.6713Z" fill="#FF9A6C"/>
<path d="M163.232 55.678C163.31 55.8445 163.37 56.0188 163.411 56.198L163.826 57.6374C164.164 58.8519 164.602 60.5358 165.114 62.3982C165.626 64.2606 166.042 65.9523 166.344 67.1784C166.488 67.7604 166.604 68.2492 166.697 68.6295C166.749 68.8066 166.783 68.9886 166.798 69.1727C166.725 69.0045 166.665 68.8306 166.62 68.6528C166.511 68.2648 166.375 67.7914 166.208 67.2133C165.867 65.9988 165.409 64.3149 164.92 62.4525C164.431 60.5901 163.993 58.8984 163.686 57.6724C163.547 57.0865 163.426 56.6015 163.337 56.2174C163.285 56.0413 163.25 55.8607 163.232 55.678Z" fill="#FF9A6C"/>
</svg>
