<svg width="568" height="568" viewBox="0 0 568 568" fill="none" xmlns="http://www.w3.org/2000/svg">
<path d="M511.086 452.685H473.462V452.969H511.086V452.685Z" fill="#EBEBEB"/>
<path d="M376.266 455.775H366.395V456.059H376.266V455.775Z" fill="#EBEBEB"/>
<path d="M472.326 442.143H450.526V442.427H472.326V442.143Z" fill="#EBEBEB"/>
<path d="M108.659 444.051H59.5947V444.335H108.659V444.051Z" fill="#EBEBEB"/>
<path d="M125.971 444.051H118.78V444.335H125.971V444.051Z" fill="#EBEBEB"/>
<path d="M255.77 448.845H149.35V449.129H255.77V448.845Z" fill="#EBEBEB"/>
<path d="M270.823 383.741H51.4612C49.7408 383.741 48.0909 383.057 46.8745 381.841C45.658 380.624 44.9746 378.975 44.9746 377.254V68.9098C44.9896 67.1993 45.6796 65.564 46.8944 64.3598C48.1093 63.1555 49.7506 62.4799 51.4612 62.48H270.823C271.675 62.48 272.518 62.6478 273.305 62.9738C274.092 63.2997 274.807 63.7775 275.409 64.3799C276.012 64.9822 276.49 65.6973 276.816 66.4843C277.142 67.2713 277.309 68.1147 277.309 68.9666V377.254C277.309 378.106 277.142 378.95 276.816 379.737C276.49 380.523 276.012 381.239 275.409 381.841C274.807 382.443 274.092 382.921 273.305 383.247C272.518 383.573 271.675 383.741 270.823 383.741ZM51.4612 62.7072C49.8171 62.7102 48.2412 63.3647 47.0786 64.5272C45.9161 65.6898 45.2616 67.2657 45.2586 68.9098V377.254C45.2616 378.898 45.9161 380.474 47.0786 381.637C48.2412 382.799 49.8171 383.454 51.4612 383.457H270.823C272.467 383.454 274.043 382.799 275.205 381.637C276.368 380.474 277.022 378.898 277.025 377.254V68.9098C277.022 67.2657 276.368 65.6898 275.205 64.5272C274.043 63.3647 272.467 62.7102 270.823 62.7072H51.4612Z" fill="#EBEBEB"/>
<path d="M516.54 383.741H297.178C295.458 383.741 293.808 383.057 292.591 381.841C291.375 380.624 290.691 378.975 290.691 377.254V68.9098C290.706 67.1993 291.396 65.564 292.611 64.3598C293.826 63.1555 295.467 62.4799 297.178 62.48H516.54C518.26 62.48 519.91 63.1634 521.126 64.3799C522.343 65.5963 523.026 67.2462 523.026 68.9666V377.254C523.026 378.975 522.343 380.624 521.126 381.841C519.91 383.057 518.26 383.741 516.54 383.741ZM297.178 62.7072C295.534 62.7102 293.958 63.3647 292.795 64.5272C291.633 65.6898 290.978 67.2657 290.975 68.9098V377.254C290.978 378.898 291.633 380.474 292.795 381.637C293.958 382.799 295.534 383.454 297.178 383.457H516.54C518.184 383.454 519.76 382.799 520.922 381.637C522.085 380.474 522.739 378.898 522.742 377.254V68.9098C522.739 67.2657 522.085 65.6898 520.922 64.5272C519.76 63.3647 518.184 62.7102 516.54 62.7072H297.178Z" fill="#EBEBEB"/>
<path d="M568 434.406H0V434.69H568V434.406Z" fill="#EBEBEB"/>
<path d="M135.559 357.556C134.604 346.582 123.403 342.481 110.123 343.64C96.8436 344.799 86.5401 350.785 87.4716 361.759L135.559 357.556Z" fill="#F0F0F0"/>
<path d="M109.692 338.63C115.849 338.085 117.814 332.882 117.28 326.725C116.746 320.568 113.872 315.785 107.738 316.319C101.603 316.853 99.6154 322.067 100.149 328.224C100.683 334.382 103.535 339.164 109.692 338.63Z" fill="#F0F0F0"/>
<path d="M386.353 123.824C386.461 125.042 386.205 126.264 385.618 127.337C385.031 128.409 384.138 129.283 383.054 129.849C381.97 130.414 380.743 130.645 379.527 130.512C378.312 130.38 377.163 129.889 376.226 129.104C375.289 128.318 374.607 127.272 374.265 126.098C373.922 124.924 373.936 123.676 374.304 122.51C374.672 121.344 375.377 120.313 376.331 119.548C377.285 118.783 378.444 118.318 379.662 118.212C381.293 118.07 382.914 118.582 384.169 119.634C385.423 120.686 386.209 122.193 386.353 123.824Z" fill="#F5F5F5"/>
<path d="M420.513 120.802C420.619 122.018 420.361 123.237 419.774 124.306C419.186 125.375 418.295 126.246 417.212 126.809C416.13 127.372 414.905 127.601 413.692 127.467C412.48 127.334 411.334 126.843 410.4 126.059C409.466 125.274 408.785 124.23 408.445 123.058C408.104 121.887 408.118 120.641 408.486 119.477C408.853 118.314 409.557 117.286 410.509 116.523C411.461 115.76 412.618 115.296 413.833 115.19C415.463 115.052 417.081 115.565 418.333 116.616C419.585 117.668 420.369 119.173 420.513 120.802Z" fill="#F5F5F5"/>
<path d="M454.684 117.815C454.792 119.032 454.536 120.255 453.949 121.327C453.362 122.4 452.47 123.274 451.385 123.839C450.301 124.404 449.074 124.635 447.858 124.503C446.643 124.37 445.494 123.88 444.557 123.094C443.62 122.309 442.938 121.263 442.596 120.089C442.253 118.915 442.267 117.666 442.635 116.5C443.003 115.334 443.708 114.303 444.662 113.538C445.616 112.773 446.775 112.309 447.993 112.203C449.624 112.061 451.245 112.572 452.5 113.624C453.754 114.677 454.54 116.184 454.684 117.815Z" fill="#F5F5F5"/>
<path d="M389.398 158.608C389.506 159.826 389.25 161.049 388.663 162.121C388.076 163.194 387.183 164.068 386.099 164.633C385.015 165.198 383.788 165.429 382.572 165.296C381.357 165.164 380.208 164.674 379.271 163.888C378.334 163.102 377.652 162.056 377.309 160.883C376.967 159.709 376.981 158.46 377.349 157.294C377.717 156.128 378.422 155.097 379.376 154.332C380.33 153.567 381.489 153.102 382.707 152.996C384.338 152.855 385.959 153.366 387.214 154.418C388.468 155.47 389.254 156.977 389.398 158.608Z" fill="#F5F5F5"/>
<path d="M423.558 155.632C423.663 156.847 423.406 158.067 422.819 159.136C422.231 160.205 421.34 161.076 420.257 161.639C419.175 162.201 417.95 162.43 416.737 162.297C415.525 162.163 414.379 161.673 413.445 160.888C412.511 160.104 411.83 159.059 411.49 157.888C411.149 156.717 411.163 155.47 411.531 154.307C411.898 153.144 412.602 152.116 413.554 151.353C414.506 150.589 415.663 150.126 416.878 150.02C417.685 149.95 418.498 150.039 419.271 150.284C420.043 150.528 420.76 150.921 421.38 151.443C422.001 151.964 422.512 152.602 422.886 153.321C423.26 154.039 423.488 154.825 423.558 155.632Z" fill="#F5F5F5"/>
<path d="M457.728 152.633C457.836 153.851 457.58 155.073 456.993 156.146C456.406 157.218 455.513 158.092 454.429 158.658C453.345 159.223 452.118 159.454 450.902 159.321C449.687 159.189 448.538 158.698 447.601 157.913C446.664 157.127 445.982 156.081 445.64 154.907C445.297 153.733 445.311 152.485 445.679 151.319C446.047 150.152 446.752 149.122 447.706 148.357C448.66 147.592 449.819 147.127 451.037 147.021C452.668 146.879 454.289 147.391 455.544 148.443C456.798 149.495 457.584 151.002 457.728 152.633Z" fill="#F5F5F5"/>
<path d="M392.443 193.438C392.548 194.654 392.291 195.873 391.703 196.942C391.116 198.011 390.225 198.882 389.142 199.445C388.06 200.008 386.835 200.237 385.622 200.103C384.409 199.969 383.264 199.479 382.329 198.694C381.395 197.91 380.715 196.866 380.374 195.694C380.034 194.523 380.048 193.277 380.415 192.113C380.783 190.95 381.487 189.922 382.439 189.159C383.391 188.396 384.548 187.932 385.763 187.826C386.57 187.755 387.384 187.843 388.157 188.086C388.93 188.33 389.648 188.724 390.268 189.245C390.889 189.766 391.4 190.405 391.774 191.125C392.147 191.844 392.374 192.63 392.443 193.438Z" fill="#F5F5F5"/>
<path d="M426.613 190.439C426.721 191.657 426.465 192.879 425.878 193.952C425.29 195.024 424.398 195.898 423.314 196.464C422.23 197.029 421.002 197.26 419.787 197.127C418.572 196.995 417.423 196.504 416.486 195.719C415.549 194.933 414.866 193.887 414.524 192.713C414.182 191.54 414.196 190.291 414.564 189.125C414.932 187.959 415.637 186.928 416.591 186.163C417.545 185.398 418.704 184.933 419.922 184.827C421.553 184.685 423.174 185.197 424.428 186.249C425.683 187.301 426.469 188.808 426.613 190.439Z" fill="#F5F5F5"/>
<path d="M460.773 187.44C460.881 188.658 460.625 189.88 460.038 190.953C459.451 192.025 458.558 192.899 457.474 193.465C456.39 194.03 455.163 194.261 453.947 194.128C452.732 193.996 451.583 193.505 450.646 192.72C449.709 191.934 449.027 190.888 448.684 189.714C448.342 188.54 448.356 187.292 448.724 186.126C449.092 184.96 449.797 183.929 450.751 183.164C451.705 182.399 452.864 181.934 454.082 181.828C455.713 181.686 457.334 182.198 458.589 183.25C459.843 184.302 460.629 185.809 460.773 187.44Z" fill="#F5F5F5"/>
<path d="M453.389 189.462L383.207 195.596L445.437 119.984L381.696 125.562C381.518 125.579 381.339 125.561 381.168 125.507C380.998 125.454 380.839 125.367 380.703 125.252C380.566 125.136 380.454 124.995 380.373 124.835C380.292 124.676 380.244 124.502 380.231 124.324C380.199 123.967 380.311 123.612 380.541 123.337C380.771 123.062 381.101 122.89 381.458 122.858L451.651 116.724L389.41 192.336L453.173 186.758C453.533 186.73 453.889 186.844 454.165 187.075C454.441 187.307 454.616 187.638 454.65 187.997C454.664 188.176 454.643 188.356 454.587 188.527C454.531 188.697 454.442 188.855 454.324 188.992C454.207 189.128 454.064 189.239 453.904 189.32C453.743 189.401 453.568 189.449 453.389 189.462Z" fill="#E6E6E6"/>
<path d="M454.469 324.453C454.36 324.122 454.157 323.83 453.885 323.614C453.612 323.398 453.282 323.267 452.935 323.237C449.883 323.097 446.994 321.82 444.835 319.659C442.029 316.83 440.382 312.548 440.109 307.458C440.083 306.999 439.883 306.567 439.55 306.251C439.216 305.934 438.774 305.757 438.315 305.754C438.066 305.756 437.82 305.807 437.592 305.906C437.364 306.005 437.158 306.149 436.987 306.329C436.817 306.51 436.684 306.723 436.598 306.956C436.512 307.189 436.473 307.437 436.486 307.686C436.804 313.661 438.826 318.773 442.268 322.215C444.963 324.915 448.54 326.556 452.344 326.839H452.605C452.904 326.861 453.204 326.81 453.478 326.689C453.752 326.568 453.992 326.381 454.176 326.145C454.361 325.909 454.484 325.631 454.535 325.336C454.586 325.04 454.563 324.737 454.469 324.453Z" fill="#F0F0F0"/>
<path d="M450.833 346.253C435.781 344.935 424.92 334.677 421.49 318.659C421.435 318.419 421.43 318.17 421.474 317.927C421.518 317.684 421.611 317.453 421.747 317.247C421.883 317.041 422.059 316.865 422.264 316.729C422.47 316.593 422.701 316.5 422.944 316.456C423.404 316.374 423.877 316.472 424.266 316.73C424.655 316.988 424.93 317.386 425.034 317.841C428.113 332.235 437.769 341.459 451.162 342.629C465.839 343.913 481.595 334.257 484.424 309.924C484.473 309.449 484.706 309.013 485.074 308.709C485.442 308.405 485.914 308.258 486.389 308.299C486.63 308.319 486.864 308.387 487.078 308.499C487.292 308.611 487.482 308.764 487.635 308.951C487.789 309.137 487.904 309.352 487.973 309.584C488.041 309.815 488.063 310.058 488.037 310.298C485.322 333.246 470.235 347.945 450.833 346.253Z" fill="#F0F0F0"/>
<path d="M422.433 302.699C422.192 302.679 421.958 302.611 421.744 302.499C421.53 302.387 421.34 302.233 421.187 302.047C421.033 301.861 420.918 301.645 420.849 301.414C420.781 301.182 420.759 300.939 420.785 300.699C423.489 277.752 438.575 263.041 457.967 264.745C475.007 266.233 486.424 278.956 488.207 298.12C488.226 298.361 488.196 298.603 488.12 298.832C488.044 299.061 487.923 299.273 487.765 299.455C487.606 299.637 487.413 299.785 487.196 299.891C486.98 299.998 486.744 300.06 486.503 300.074C486.029 300.097 485.565 299.934 485.209 299.62C484.853 299.306 484.632 298.866 484.595 298.393C482.947 281.126 472.757 269.686 457.66 268.369C443.04 267.085 427.215 276.73 424.398 301.04C424.378 301.278 424.311 301.51 424.202 301.722C424.092 301.934 423.941 302.123 423.759 302.277C423.576 302.431 423.365 302.547 423.138 302.62C422.91 302.692 422.671 302.719 422.433 302.699Z" fill="#F0F0F0"/>
<path d="M451.571 336.517C448.872 336.301 446.228 335.641 443.744 334.563C443.512 334.462 443.304 334.313 443.133 334.127C442.962 333.941 442.831 333.722 442.749 333.483C442.667 333.244 442.635 332.99 442.656 332.738C442.676 332.486 442.749 332.241 442.869 332.019C443.082 331.628 443.433 331.331 443.852 331.184C444.272 331.037 444.731 331.051 445.141 331.224C447.51 332.241 450.041 332.826 452.616 332.95C463.738 333.586 475.484 325.703 476.643 306.663C477.347 294.928 473.326 285.454 465.828 280.921C465.44 280.687 465.154 280.315 465.025 279.88C464.897 279.445 464.936 278.978 465.135 278.57C465.248 278.345 465.406 278.145 465.599 277.983C465.793 277.821 466.017 277.701 466.259 277.63C466.501 277.558 466.755 277.537 467.005 277.568C467.255 277.599 467.496 277.681 467.714 277.809C476.404 283.057 481.062 293.713 480.266 306.879C479.13 325.237 467.702 337.46 452.4 336.585L451.571 336.517Z" fill="#F0F0F0"/>
<path d="M435.394 325.191C435.185 325.333 434.949 325.43 434.701 325.476C434.453 325.523 434.198 325.517 433.951 325.461C433.705 325.405 433.473 325.298 433.27 325.148C433.067 324.998 432.897 324.808 432.77 324.589C429.403 318.329 427.923 311.226 428.51 304.141C429.578 286.567 440.109 274.605 454.411 274.401C454.663 274.396 454.913 274.443 455.146 274.539C455.379 274.635 455.589 274.778 455.764 274.96C455.939 275.141 456.075 275.356 456.163 275.593C456.25 275.829 456.288 276.08 456.274 276.332C456.246 276.786 456.048 277.214 455.72 277.529C455.392 277.845 454.957 278.026 454.502 278.036C443.892 278.241 433.236 286.261 432.146 304.357C431.594 310.752 432.912 317.169 435.94 322.828C436.168 323.221 436.238 323.686 436.137 324.129C436.036 324.571 435.77 324.959 435.394 325.214V325.191Z" fill="#F0F0F0"/>
<path d="M460.228 323.76C460.056 323.356 460.036 322.903 460.172 322.486C460.307 322.068 460.59 321.714 460.966 321.488C465.749 318.614 468.68 312.582 468.725 305.3C468.725 299.472 467.078 294.542 463.966 291.418C462.757 290.22 461.316 289.282 459.732 288.661C458.148 288.04 456.453 287.749 454.753 287.806C449.152 287.806 444.608 290.884 442.098 296.292C441.904 296.703 441.563 297.026 441.141 297.196C440.72 297.367 440.251 297.372 439.826 297.212C439.589 297.124 439.372 296.988 439.19 296.812C439.009 296.637 438.865 296.426 438.769 296.192C438.673 295.958 438.626 295.707 438.632 295.454C438.638 295.202 438.696 294.953 438.803 294.724C441.916 288.101 447.743 284.182 454.707 284.17C456.888 284.114 459.059 284.5 461.087 285.304C463.115 286.108 464.96 287.315 466.51 288.851C470.316 292.668 472.383 298.518 472.338 305.334C472.27 313.911 468.657 321.113 462.773 324.646C462.55 324.768 462.304 324.841 462.051 324.862C461.798 324.883 461.544 324.851 461.304 324.767C461.064 324.684 460.845 324.551 460.659 324.378C460.474 324.204 460.327 323.994 460.228 323.76Z" fill="#F0F0F0"/>
<path d="M447.141 310.344C446.899 310.443 446.637 310.488 446.376 310.477C446.114 310.465 445.858 310.397 445.625 310.277C445.391 310.158 445.187 309.989 445.025 309.783C444.864 309.576 444.748 309.338 444.687 309.083C444.562 308.594 444.472 308.083 444.392 307.561C443.358 300.745 447.016 294.849 452.889 293.792C454.257 293.495 455.675 293.522 457.03 293.871C458.385 294.22 459.64 294.882 460.694 295.803C460.891 295.979 461.047 296.197 461.149 296.441C461.25 296.685 461.296 296.949 461.282 297.213C461.268 297.477 461.194 297.735 461.067 297.967C460.939 298.198 460.761 298.399 460.546 298.552L460.432 298.632C460.092 298.869 459.68 298.981 459.266 298.95C458.852 298.919 458.462 298.746 458.16 298.461C457.523 297.923 456.77 297.541 455.96 297.344C455.149 297.147 454.305 297.14 453.491 297.325C449.016 298.132 447.312 302.789 447.948 306.97C448.016 307.379 448.084 307.777 448.186 308.106C448.296 308.534 448.247 308.987 448.049 309.382C447.85 309.776 447.516 310.086 447.107 310.253L447.141 310.344Z" fill="#F0F0F0"/>
<path d="M453.151 317.342C452.864 317.314 452.59 317.213 452.353 317.049C452.116 316.886 451.925 316.664 451.798 316.406C451.67 316.148 451.611 315.861 451.625 315.574C451.639 315.286 451.726 315.007 451.878 314.763L452.038 314.513C452.201 314.253 452.432 314.042 452.706 313.904C452.981 313.766 453.288 313.705 453.594 313.729C454.164 313.762 454.736 313.727 455.298 313.627C459.206 312.923 460.978 309.287 460.978 305.584C460.967 305.139 461.117 304.705 461.401 304.363C461.685 304.02 462.084 303.792 462.523 303.721C462.775 303.682 463.032 303.697 463.278 303.765C463.524 303.832 463.753 303.951 463.95 304.113C464.147 304.275 464.308 304.476 464.423 304.704C464.537 304.932 464.602 305.182 464.613 305.436C464.715 311.366 461.205 316.262 455.945 317.205C455.024 317.376 454.084 317.422 453.151 317.342Z" fill="#F0F0F0"/>
<path d="M453.957 310.628C453.04 310.551 452.17 310.188 451.469 309.591C450.768 308.994 450.272 308.193 450.049 307.299C449.985 307.047 449.982 306.784 450.041 306.53C450.099 306.277 450.217 306.041 450.384 305.842C450.552 305.643 450.765 305.487 451.005 305.387C451.245 305.287 451.505 305.245 451.765 305.266H452.185C452.503 305.299 452.805 305.424 453.053 305.626C453.301 305.828 453.485 306.097 453.582 306.402C453.622 306.56 453.71 306.702 453.834 306.808C453.958 306.914 454.113 306.979 454.275 306.993C455.15 307.072 455.298 305.857 455.32 305.561C455.373 305.119 455.29 304.671 455.082 304.278C454.768 303.899 454.607 303.417 454.627 302.926C454.656 302.565 454.792 302.221 455.018 301.937C455.243 301.654 455.549 301.445 455.894 301.336C456.239 301.228 456.609 301.225 456.957 301.328C457.304 301.431 457.612 301.635 457.842 301.915C458.729 303.035 459.137 304.46 458.978 305.879C458.683 308.867 456.581 310.855 453.957 310.628Z" fill="#F0F0F0"/>
<path d="M419.786 269.97C419.548 269.95 419.317 269.884 419.105 269.774C418.894 269.664 418.706 269.514 418.553 269.331C418.4 269.148 418.284 268.937 418.213 268.709C418.142 268.482 418.117 268.243 418.138 268.005L419.513 252.249L435.269 253.635C435.507 253.655 435.738 253.722 435.95 253.831C436.161 253.941 436.349 254.092 436.502 254.274C436.655 254.457 436.771 254.668 436.842 254.896C436.913 255.123 436.938 255.363 436.917 255.6C436.896 255.838 436.83 256.07 436.72 256.282C436.611 256.494 436.46 256.683 436.278 256.837C436.095 256.991 435.884 257.107 435.656 257.18C435.429 257.252 435.189 257.279 434.951 257.259L422.819 256.191L421.762 268.323C421.741 268.561 421.673 268.793 421.562 269.004C421.451 269.216 421.299 269.404 421.116 269.557C420.932 269.71 420.72 269.825 420.492 269.896C420.264 269.967 420.024 269.992 419.786 269.97Z" fill="#F0F0F0"/>
<path d="M494.683 276.525C494.445 276.505 494.214 276.438 494.002 276.329C493.791 276.219 493.603 276.068 493.45 275.886C493.297 275.703 493.181 275.492 493.11 275.264C493.039 275.037 493.014 274.797 493.036 274.56L494.092 262.427L481.96 261.371C481.721 261.35 481.49 261.281 481.278 261.17C481.067 261.059 480.879 260.908 480.726 260.724C480.573 260.541 480.458 260.329 480.387 260.1C480.316 259.872 480.29 259.632 480.312 259.394C480.332 259.157 480.399 258.925 480.509 258.714C480.619 258.502 480.769 258.315 480.952 258.161C481.135 258.008 481.346 257.893 481.573 257.822C481.801 257.751 482.04 257.725 482.278 257.747L498.034 259.122L496.659 274.912C496.608 275.387 496.371 275.822 496.002 276.124C495.632 276.426 495.158 276.57 494.683 276.525Z" fill="#F0F0F0"/>
<path d="M489.104 361.248L473.348 359.874C473.11 359.852 472.879 359.784 472.667 359.673C472.455 359.562 472.268 359.41 472.115 359.227C471.962 359.043 471.846 358.831 471.775 358.603C471.704 358.375 471.679 358.135 471.701 357.897C471.721 357.659 471.788 357.428 471.898 357.216C472.007 357.005 472.158 356.817 472.341 356.664C472.523 356.511 472.734 356.395 472.962 356.324C473.19 356.253 473.429 356.228 473.666 356.25L485.799 357.306L486.855 345.185C486.875 344.946 486.942 344.713 487.053 344.5C487.163 344.287 487.314 344.098 487.498 343.944C487.682 343.79 487.894 343.674 488.123 343.602C488.352 343.53 488.593 343.505 488.832 343.526C489.069 343.546 489.301 343.613 489.512 343.723C489.724 343.833 489.912 343.983 490.065 344.166C490.218 344.349 490.333 344.56 490.404 344.788C490.476 345.015 490.501 345.254 490.479 345.492L489.104 361.248Z" fill="#F0F0F0"/>
<path d="M426.34 355.727L410.584 354.341L411.959 338.596C412.005 338.116 412.238 337.673 412.608 337.362C412.977 337.052 413.454 336.9 413.935 336.938C414.173 336.959 414.405 337.027 414.616 337.138C414.828 337.249 415.016 337.401 415.169 337.584C415.322 337.768 415.437 337.98 415.508 338.208C415.579 338.436 415.604 338.676 415.582 338.914L414.526 351.024L426.647 352.092C426.885 352.112 427.117 352.179 427.329 352.288C427.541 352.398 427.73 352.548 427.884 352.731C428.038 352.913 428.154 353.124 428.227 353.352C428.299 353.58 428.326 353.819 428.306 354.057C428.265 354.539 428.036 354.985 427.667 355.297C427.299 355.61 426.822 355.765 426.34 355.727Z" fill="#F0F0F0"/>
<path d="M84.8931 321.636C84.5971 321.658 84.3041 321.563 84.0769 321.372C83.8498 321.181 83.7064 320.909 83.6776 320.613L82.8369 310.935L92.5156 310.083C92.8117 310.06 93.1046 310.155 93.3318 310.346C93.5589 310.537 93.7023 310.809 93.7312 311.105C93.7503 311.399 93.6543 311.689 93.4635 311.914C93.2727 312.138 93.0021 312.28 92.7088 312.309L85.2566 312.968L85.9041 320.42C85.9265 320.714 85.8335 321.006 85.6448 321.233C85.456 321.46 85.1865 321.604 84.8931 321.636Z" fill="#E0E0E0"/>
<path d="M130.947 317.603C130.652 317.625 130.361 317.532 130.134 317.344C129.907 317.155 129.763 316.885 129.731 316.592L129.084 309.128L121.62 309.787C121.324 309.809 121.031 309.715 120.804 309.524C120.577 309.333 120.433 309.06 120.405 308.765C120.382 308.469 120.477 308.176 120.668 307.949C120.859 307.721 121.132 307.578 121.427 307.549L131.106 306.709L131.958 316.387C131.98 316.682 131.887 316.973 131.698 317.2C131.51 317.427 131.24 317.571 130.947 317.603Z" fill="#E0E0E0"/>
<path d="M135.718 359.305L126.028 360.157C125.732 360.18 125.439 360.085 125.212 359.894C124.985 359.703 124.842 359.431 124.813 359.135C124.791 358.839 124.885 358.546 125.076 358.319C125.267 358.092 125.54 357.948 125.835 357.92L133.287 357.272L132.64 349.82C132.617 349.526 132.71 349.234 132.899 349.007C133.088 348.78 133.357 348.636 133.651 348.604C133.945 348.582 134.236 348.675 134.463 348.864C134.69 349.052 134.835 349.322 134.866 349.615L135.718 359.305Z" fill="#E0E0E0"/>
<path d="M97.1162 362.679L87.4716 363.52L86.6196 353.83C86.6005 353.536 86.6964 353.246 86.8872 353.021C87.078 352.796 87.3486 352.655 87.642 352.626C87.9343 352.606 88.2228 352.701 88.4472 352.889C88.6716 353.078 88.8145 353.345 88.8461 353.637L89.505 361.1L96.9572 360.441C97.2532 360.419 97.5461 360.514 97.7733 360.705C98.0005 360.896 98.1438 361.168 98.1727 361.464C98.1835 361.613 98.1647 361.763 98.1174 361.905C98.0701 362.047 97.9952 362.178 97.8971 362.291C97.7989 362.404 97.6794 362.497 97.5454 362.563C97.4114 362.63 97.2655 362.669 97.1162 362.679Z" fill="#E0E0E0"/>
<path d="M130.163 160.176L93.1522 163.357L92.3911 154.689C92.3355 150.552 93.8461 146.548 96.6199 143.478C99.3937 140.409 103.226 138.501 107.347 138.139C111.468 137.777 115.574 138.986 118.841 141.525C122.107 144.064 124.293 147.743 124.96 151.826L125.392 156.87L130.742 156.405L130.299 151.361C130.05 148.516 129.243 145.748 127.924 143.215C126.606 140.682 124.801 138.433 122.613 136.598C120.425 134.762 117.897 133.376 115.173 132.517C112.45 131.659 109.584 131.345 106.739 131.594C100.993 132.097 95.683 134.862 91.976 139.281C90.1406 141.469 88.754 143.997 87.8954 146.72C87.0369 149.444 86.7233 152.31 86.9724 155.155L87.7335 163.879C85.6261 164.292 83.7455 165.469 82.4537 167.184C81.1619 168.9 80.55 171.032 80.7358 173.172L83.3826 203.435C83.4771 204.577 83.7962 205.689 84.3217 206.708C84.8472 207.726 85.5687 208.631 86.4448 209.37C87.3209 210.109 88.3343 210.667 89.4269 211.014C90.5195 211.36 91.6697 211.487 92.8114 211.387L134.31 207.763C135.452 207.669 136.564 207.35 137.583 206.824C138.601 206.299 139.506 205.577 140.245 204.701C140.984 203.825 141.542 202.811 141.888 201.719C142.234 200.626 142.361 199.476 142.262 198.334L139.615 168.071C139.513 166.932 139.188 165.824 138.658 164.81C138.128 163.797 137.404 162.897 136.526 162.164C135.648 161.431 134.634 160.878 133.542 160.537C132.451 160.196 131.302 160.073 130.163 160.176ZM114.418 183.498L115.327 193.915C115.388 194.334 115.363 194.762 115.253 195.171C115.143 195.58 114.951 195.963 114.689 196.295C114.426 196.627 114.098 196.903 113.725 197.104C113.352 197.305 112.942 197.428 112.52 197.465C112.098 197.502 111.673 197.453 111.27 197.32C110.868 197.187 110.497 196.973 110.18 196.692C109.864 196.411 109.607 196.068 109.428 195.684C109.248 195.3 109.149 194.884 109.136 194.461L108.227 184.032C107.29 183.457 106.558 182.6 106.136 181.584C105.714 180.569 105.623 179.446 105.876 178.376C106.13 177.306 106.714 176.343 107.546 175.624C108.379 174.905 109.417 174.467 110.513 174.373C111.608 174.278 112.706 174.532 113.649 175.098C114.592 175.663 115.333 176.512 115.766 177.523C116.198 178.534 116.301 179.656 116.059 180.729C115.817 181.801 115.243 182.771 114.418 183.498Z" fill="#EBEBEB"/>
<path d="M193.62 177.659L189.882 171.536C187.999 171.804 186.086 171.804 184.202 171.536L180.454 177.636L179.738 177.443C177.309 176.803 174.977 175.836 172.808 174.569L172.172 174.206L173.751 167.571C173.782 167.443 173.838 167.321 173.915 167.214C173.993 167.107 174.092 167.017 174.205 166.948C174.318 166.88 174.443 166.834 174.574 166.814C174.705 166.794 174.838 166.801 174.967 166.833C175.224 166.895 175.447 167.057 175.585 167.282C175.723 167.508 175.767 167.78 175.705 168.037L174.455 173.206C176.07 174.085 177.772 174.794 179.533 175.319L183.191 169.344L183.862 169.457C185.984 169.798 188.147 169.798 190.269 169.457L190.927 169.344L194.585 175.319C196.349 174.798 198.051 174.089 199.663 173.206L198.039 166.39L198.584 165.992C200.064 164.925 201.39 163.66 202.526 162.232C202.684 162.026 202.916 161.89 203.172 161.852C203.428 161.814 203.69 161.877 203.901 162.028C204.011 162.104 204.105 162.203 204.176 162.317C204.247 162.431 204.294 162.558 204.314 162.691C204.335 162.824 204.327 162.96 204.293 163.09C204.259 163.22 204.199 163.342 204.116 163.448C203 164.857 201.714 166.124 200.288 167.219L201.958 174.183L201.311 174.546C199.144 175.812 196.817 176.778 194.392 177.42L193.62 177.659ZM170.65 164.322C170.343 163.97 170.036 163.595 169.741 163.186L162.777 164.856L162.403 164.22C161.145 162.046 160.178 159.717 159.528 157.291L159.347 156.575L165.447 152.826C165.179 150.942 165.179 149.03 165.447 147.146L159.347 143.409L159.528 142.682C160.178 140.259 161.145 137.933 162.403 135.763L162.777 135.116L169.741 136.786C170.904 135.264 172.264 133.904 173.785 132.742L172.524 127.471C172.463 127.213 172.506 126.942 172.644 126.716C172.783 126.49 173.005 126.328 173.263 126.266C173.39 126.236 173.521 126.231 173.65 126.252C173.779 126.273 173.902 126.319 174.013 126.387C174.124 126.456 174.22 126.546 174.296 126.652C174.372 126.758 174.426 126.878 174.455 127.005L176.035 133.571L175.489 133.957C173.739 135.216 172.205 136.751 170.945 138.501L170.548 139.046L163.732 137.422C162.848 139.034 162.14 140.737 161.619 142.5L167.583 146.158L167.48 146.817C167.101 148.936 167.101 151.105 167.48 153.224L167.583 153.894L161.619 157.552C162.142 159.311 162.85 161.009 163.732 162.618L170.548 160.994L170.945 161.539C171.298 162.054 171.677 162.551 172.081 163.027C172.256 163.211 172.354 163.455 172.354 163.709C172.354 163.963 172.256 164.207 172.081 164.391C171.984 164.483 171.87 164.555 171.744 164.602C171.619 164.649 171.485 164.67 171.351 164.664C171.217 164.657 171.086 164.624 170.965 164.565C170.845 164.506 170.737 164.424 170.65 164.322ZM211.251 164.879L208.683 164.266C208.426 164.204 208.203 164.042 208.065 163.816C207.926 163.591 207.883 163.319 207.945 163.061C208.007 162.804 208.168 162.582 208.394 162.443C208.62 162.305 208.891 162.262 209.149 162.323L210.285 162.584C211.163 160.975 211.867 159.276 212.387 157.518L206.423 153.86L206.536 153.19C206.915 151.071 206.915 148.901 206.536 146.783L206.423 146.124L212.387 142.466C211.869 140.703 211.165 139.001 210.285 137.388L203.469 139.012L203.083 138.467C201.82 136.719 200.286 135.185 198.539 133.923L197.993 133.537L199.618 126.721C198.005 125.841 196.303 125.136 194.54 124.619L190.848 130.64L190.189 130.526C188.067 130.186 185.904 130.186 183.782 130.526L183.112 130.64L179.488 124.642L178.806 124.846C178.564 124.926 178.299 124.908 178.07 124.796C177.841 124.683 177.665 124.485 177.579 124.244C177.533 124.12 177.511 123.987 177.516 123.854C177.521 123.722 177.552 123.591 177.608 123.47C177.664 123.35 177.744 123.242 177.842 123.152C177.941 123.063 178.056 122.994 178.182 122.949C178.681 122.79 179.193 122.643 179.692 122.506L180.408 122.313L184.157 128.425C186.04 128.145 187.954 128.145 189.837 128.425L193.574 122.313L194.301 122.506C196.725 123.153 199.051 124.12 201.22 125.38L201.867 125.755L200.197 132.719C201.721 133.879 203.081 135.239 204.241 136.763L211.205 135.093L211.58 135.741C212.842 137.908 213.809 140.235 214.454 142.659L214.647 143.386L208.535 147.123C208.819 149.006 208.819 150.921 208.535 152.803L214.647 156.552L214.454 157.268C213.809 159.695 212.842 162.026 211.58 164.197L211.251 164.879ZM186.736 159.722C184.26 159.624 181.913 158.596 180.161 156.845C178.409 155.093 177.382 152.745 177.284 150.27C177.217 147.835 178.063 145.464 179.657 143.622C181.25 141.78 183.476 140.602 185.895 140.319C186.037 140.301 186.181 140.314 186.318 140.356C186.454 140.398 186.581 140.469 186.688 140.563C186.795 140.658 186.881 140.774 186.94 140.904C187 141.034 187.03 141.175 187.031 141.318C187.03 141.56 186.94 141.793 186.779 141.973C186.618 142.153 186.396 142.268 186.156 142.295C184.473 142.487 182.899 143.227 181.677 144.4C180.454 145.573 179.65 147.115 179.389 148.789C179.128 150.463 179.423 152.176 180.23 153.666C181.037 155.156 182.311 156.34 183.856 157.035C185.401 157.731 187.131 157.901 188.782 157.518C190.432 157.135 191.911 156.22 192.992 154.915C194.072 153.61 194.694 151.987 194.763 150.294C194.831 148.601 194.342 146.932 193.37 145.544C193.23 145.348 193.168 145.106 193.198 144.866C193.227 144.626 193.345 144.406 193.529 144.249C193.635 144.155 193.76 144.085 193.895 144.042C194.03 144 194.173 143.987 194.314 144.004C194.455 144.022 194.59 144.069 194.711 144.142C194.833 144.216 194.937 144.314 195.017 144.431C196.05 145.909 196.652 147.646 196.755 149.447C196.858 151.248 196.458 153.042 195.6 154.628C194.742 156.215 193.46 157.531 191.896 158.431C190.333 159.33 188.55 159.777 186.747 159.722H186.736Z" fill="#F0F0F0"/>
<path d="M123.04 260.814L120.62 256.872C119.396 257.054 118.152 257.054 116.928 256.872L114.509 260.814L114.043 260.689C112.475 260.276 110.969 259.653 109.567 258.838L109.158 258.599L110.181 254.305C110.221 254.14 110.325 253.998 110.469 253.908C110.614 253.819 110.787 253.79 110.953 253.828C111.036 253.848 111.114 253.884 111.183 253.934C111.252 253.984 111.31 254.048 111.354 254.121C111.399 254.193 111.428 254.274 111.441 254.359C111.454 254.443 111.45 254.529 111.43 254.612L110.635 257.952C111.677 258.522 112.778 258.98 113.918 259.315L116.281 255.464L116.701 255.532C118.074 255.759 119.475 255.759 120.848 255.532L121.268 255.464L123.642 259.315C124.776 258.972 125.872 258.516 126.914 257.952L125.869 253.567L126.221 253.305C127.176 252.619 128.032 251.805 128.765 250.886C128.865 250.751 129.014 250.66 129.18 250.635C129.346 250.609 129.516 250.65 129.652 250.749C129.721 250.799 129.781 250.862 129.826 250.935C129.871 251.007 129.901 251.088 129.915 251.173C129.929 251.257 129.926 251.344 129.906 251.427C129.886 251.51 129.85 251.589 129.799 251.658C129.076 252.569 128.244 253.389 127.323 254.1L128.459 258.644L128.038 258.883C126.637 259.7 125.132 260.323 123.563 260.735L123.04 260.814ZM108.204 252.192L107.613 251.476L103.069 252.544L102.831 252.135C102.03 250.727 101.423 249.218 101.024 247.648L100.899 247.182L104.841 244.763C104.66 243.539 104.66 242.295 104.841 241.071L100.899 238.651L101.024 238.185C101.436 236.616 102.059 235.111 102.876 233.709L103.115 233.289L107.659 234.425C108.389 233.43 109.24 232.53 110.192 231.744L109.385 228.336C109.365 228.254 109.361 228.169 109.375 228.085C109.388 228.002 109.417 227.922 109.462 227.85C109.506 227.778 109.565 227.715 109.633 227.666C109.702 227.617 109.78 227.582 109.862 227.564C110.028 227.526 110.202 227.555 110.346 227.644C110.491 227.733 110.594 227.876 110.635 228.041L111.657 232.278L111.294 232.539C110.168 233.347 109.182 234.333 108.374 235.459L108.113 235.811L103.728 234.766C103.164 235.807 102.707 236.903 102.365 238.037L106.216 240.4L106.148 240.832C106.031 241.515 105.97 242.207 105.966 242.9C105.97 243.596 106.031 244.292 106.148 244.978L106.216 245.399L102.365 247.762C102.705 248.9 103.162 250 103.728 251.045L108.113 249.988L108.374 250.34C108.609 250.677 108.863 250.999 109.135 251.306C109.247 251.424 109.31 251.581 109.31 251.743C109.31 251.906 109.247 252.063 109.135 252.181C109.077 252.245 109.005 252.297 108.925 252.333C108.846 252.369 108.76 252.388 108.672 252.389C108.585 252.39 108.498 252.373 108.417 252.339C108.337 252.305 108.264 252.255 108.204 252.192ZM134.434 252.544L132.776 252.158C132.693 252.138 132.615 252.102 132.546 252.052C132.477 252.001 132.419 251.938 132.374 251.865C132.33 251.792 132.3 251.711 132.287 251.627C132.274 251.543 132.278 251.457 132.298 251.374C132.317 251.292 132.352 251.214 132.401 251.145C132.45 251.076 132.513 251.018 132.585 250.973C132.657 250.929 132.737 250.899 132.82 250.886C132.904 250.873 132.989 250.877 133.071 250.897L133.787 251.067C134.358 250.025 134.815 248.924 135.15 247.784L131.299 245.421L131.367 245.001C131.484 244.314 131.545 243.619 131.549 242.922C131.545 242.229 131.484 241.538 131.367 240.855L131.299 240.423L135.15 238.06C134.812 236.924 134.355 235.828 133.787 234.788L129.402 235.834L129.14 235.481C128.333 234.356 127.347 233.37 126.221 232.562L125.869 232.301L126.914 227.916C125.875 227.347 124.778 226.89 123.642 226.552L121.268 230.404L120.848 230.335C119.475 230.108 118.074 230.108 116.701 230.335L116.281 230.404L113.918 226.552L113.475 226.689C113.317 226.74 113.145 226.726 112.996 226.652C112.848 226.578 112.734 226.448 112.68 226.291C112.649 226.212 112.635 226.126 112.638 226.041C112.641 225.956 112.661 225.872 112.697 225.795C112.733 225.717 112.784 225.648 112.848 225.591C112.911 225.534 112.985 225.49 113.066 225.462L114.043 225.167L114.509 225.053L116.928 228.995C118.152 228.813 119.396 228.813 120.62 228.995L123.04 225.053L123.506 225.167C125.073 225.587 126.579 226.214 127.982 227.03L128.402 227.268L127.266 231.812C128.244 232.569 129.122 233.447 129.879 234.425L134.423 233.289L134.661 233.709C135.478 235.111 136.101 236.616 136.513 238.185L136.638 238.651L132.696 241.071C132.878 242.295 132.878 243.539 132.696 244.763L136.638 247.182L136.513 247.648C136.099 249.216 135.476 250.722 134.661 252.124L134.434 252.544ZM118.598 249.216C117.055 249.11 115.604 248.439 114.524 247.331C113.443 246.224 112.809 244.757 112.741 243.211C112.674 241.666 113.178 240.149 114.158 238.952C115.138 237.754 116.524 236.96 118.053 236.72C118.144 236.71 118.236 236.72 118.323 236.748C118.411 236.776 118.491 236.822 118.559 236.883C118.628 236.944 118.683 237.018 118.721 237.102C118.759 237.185 118.779 237.276 118.78 237.367C118.781 237.525 118.723 237.677 118.618 237.795C118.514 237.912 118.369 237.986 118.212 238.003C117.254 238.113 116.348 238.497 115.603 239.11C114.859 239.723 114.307 240.539 114.016 241.458C113.724 242.377 113.705 243.361 113.96 244.291C114.215 245.221 114.733 246.058 115.453 246.7C116.173 247.342 117.063 247.762 118.016 247.909C118.969 248.056 119.945 247.925 120.825 247.53C121.705 247.136 122.452 246.495 122.976 245.686C123.5 244.876 123.779 243.932 123.778 242.968C123.781 241.942 123.463 240.941 122.87 240.105C122.783 239.976 122.746 239.82 122.764 239.666C122.783 239.511 122.857 239.369 122.972 239.264C123.04 239.203 123.121 239.157 123.209 239.129C123.296 239.101 123.389 239.092 123.48 239.103C123.572 239.114 123.66 239.144 123.739 239.191C123.817 239.239 123.885 239.302 123.937 239.378C124.602 240.334 124.988 241.455 125.053 242.617C125.119 243.78 124.86 244.937 124.307 245.961C123.754 246.986 122.927 247.836 121.919 248.419C120.912 249.001 119.762 249.293 118.598 249.261V249.216Z" fill="#E6E6E6"/>
<path d="M284 485.083C405.646 485.083 504.259 479.326 504.259 472.224C504.259 465.122 405.646 459.364 284 459.364C162.355 459.364 63.7412 465.122 63.7412 472.224C63.7412 479.326 162.355 485.083 284 485.083Z" fill="#F5F5F5"/>
<path d="M412.879 165.663H375.891L349.763 464.715H386.751C391.942 464.615 396.917 462.618 400.739 459.103C404.56 455.587 406.963 450.795 407.494 445.63L430.316 184.736C430.582 182.306 430.326 179.846 429.566 177.522C428.806 175.198 427.56 173.062 425.91 171.257C424.26 169.453 422.244 168.02 419.997 167.056C417.75 166.091 415.324 165.616 412.879 165.663Z" fill="#1169B0"/>
<path d="M405.336 165.663H280.149C274.957 165.76 269.98 167.753 266.157 171.267C262.334 174.78 259.928 179.571 259.394 184.736L236.572 445.63C236.309 448.059 236.566 450.516 237.325 452.838C238.084 455.161 239.328 457.295 240.975 459.1C242.622 460.905 244.634 462.339 246.877 463.307C249.12 464.275 251.544 464.755 253.987 464.715H379.162C384.347 464.604 389.313 462.603 393.126 459.089C396.94 455.574 399.338 450.788 399.872 445.63L422.694 184.736C422.958 182.312 422.704 179.86 421.949 177.541C421.194 175.223 419.955 173.091 418.313 171.288C416.672 169.484 414.666 168.05 412.429 167.08C410.192 166.111 407.774 165.627 405.336 165.663Z" fill="#1169B0"/>
<path opacity="0.3" d="M405.336 165.663H280.149C274.957 165.76 269.98 167.753 266.157 171.267C262.334 174.78 259.928 179.571 259.394 184.736L236.572 445.63C236.309 448.059 236.566 450.516 237.325 452.838C238.084 455.161 239.328 457.295 240.975 459.1C242.622 460.905 244.634 462.339 246.877 463.307C249.12 464.275 251.544 464.755 253.987 464.715H379.162C384.347 464.604 389.313 462.603 393.126 459.089C396.94 455.574 399.338 450.788 399.872 445.63L422.694 184.736C422.958 182.312 422.704 179.86 421.949 177.541C421.194 175.223 419.955 173.091 418.313 171.288C416.672 169.484 414.666 168.05 412.429 167.08C410.192 166.111 407.774 165.627 405.336 165.663Z" fill="white"/>
<path opacity="0.4" d="M404.802 171.775H371.79C370.805 171.783 369.846 172.086 369.036 172.645C368.226 173.204 367.602 173.993 367.246 174.91C365.944 178.279 363.667 181.184 360.707 183.254C357.747 185.324 354.237 186.465 350.626 186.531H331.155C327.754 186.6 324.435 185.48 321.77 183.365C319.106 181.25 317.262 178.272 316.557 174.944C316.369 174.044 315.872 173.237 315.152 172.665C314.433 172.092 313.535 171.789 312.615 171.809H279.615C276.086 171.871 272.703 173.225 270.105 175.613C267.507 178.002 265.875 181.26 265.517 184.77L242.683 445.664C242.5 447.316 242.672 448.988 243.186 450.568C243.701 452.149 244.546 453.601 245.667 454.829C246.787 456.057 248.156 457.031 249.683 457.688C251.209 458.345 252.859 458.668 254.52 458.637H379.708C383.237 458.572 386.62 457.216 389.218 454.826C391.816 452.435 393.448 449.176 393.805 445.664L416.628 184.77C416.814 183.118 416.645 181.444 416.133 179.862C415.621 178.28 414.777 176.825 413.657 175.595C412.538 174.365 411.169 173.388 409.642 172.729C408.115 172.07 406.465 171.745 404.802 171.775Z" fill="white"/>
<path d="M373.608 313.536H285.999C285.397 313.546 284.8 313.428 284.247 313.189C283.694 312.951 283.198 312.597 282.792 312.153C282.386 311.708 282.079 311.182 281.891 310.61C281.704 310.037 281.641 309.432 281.705 308.833L282.148 303.812C282.278 302.539 282.87 301.357 283.812 300.491C284.754 299.624 285.981 299.133 287.26 299.109H374.88C375.482 299.099 376.079 299.217 376.632 299.456C377.185 299.694 377.681 300.047 378.087 300.492C378.493 300.937 378.8 301.463 378.988 302.035C379.175 302.607 379.238 303.213 379.174 303.812L378.742 308.833C378.609 310.109 378.013 311.292 377.067 312.159C376.121 313.025 374.89 313.515 373.608 313.536Z" fill="white"/>
<path d="M371.722 335.12H284.102C283.501 335.13 282.904 335.012 282.351 334.773C281.799 334.535 281.303 334.181 280.898 333.736C280.493 333.291 280.187 332.765 280.001 332.193C279.815 331.62 279.753 331.015 279.82 330.417L280.251 325.396C280.384 324.124 280.977 322.944 281.918 322.078C282.859 321.212 284.085 320.719 285.363 320.693H372.983C373.585 320.683 374.183 320.801 374.735 321.04C375.288 321.278 375.784 321.631 376.19 322.076C376.597 322.521 376.903 323.047 377.091 323.619C377.278 324.191 377.342 324.797 377.277 325.396L376.834 330.417C376.701 331.689 376.109 332.869 375.167 333.735C374.226 334.601 373.001 335.094 371.722 335.12Z" fill="white"/>
<path opacity="0.1" d="M346.991 176.659C346.847 178.073 346.189 179.385 345.142 180.346C344.095 181.307 342.732 181.85 341.311 181.874C340.643 181.886 339.981 181.755 339.367 181.491C338.754 181.227 338.203 180.835 337.753 180.342C337.303 179.849 336.963 179.265 336.755 178.63C336.548 177.995 336.479 177.323 336.551 176.659C336.696 175.246 337.354 173.934 338.401 172.973C339.448 172.012 340.811 171.468 342.231 171.445C342.899 171.433 343.562 171.563 344.176 171.828C344.789 172.092 345.339 172.483 345.79 172.977C346.24 173.47 346.58 174.054 346.787 174.689C346.994 175.324 347.064 175.995 346.991 176.659Z" fill="black"/>
<path opacity="0.1" d="M344.628 176.659C344.547 177.431 344.188 178.147 343.617 178.672C343.046 179.197 342.302 179.496 341.526 179.511C341.161 179.518 340.799 179.447 340.463 179.303C340.127 179.158 339.826 178.944 339.58 178.674C339.334 178.404 339.148 178.085 339.035 177.738C338.922 177.39 338.885 177.023 338.925 176.659C339.003 175.887 339.362 175.17 339.933 174.644C340.505 174.118 341.25 173.821 342.026 173.808C342.391 173.803 342.753 173.875 343.088 174.02C343.422 174.165 343.723 174.379 343.968 174.648C344.214 174.918 344.4 175.237 344.514 175.583C344.628 175.93 344.666 176.297 344.628 176.659Z" fill="black"/>
<g opacity="0.8">
<path d="M389.387 185.361C389.191 185.364 388.996 185.325 388.816 185.247C388.636 185.169 388.475 185.054 388.343 184.909C388.211 184.764 388.111 184.592 388.05 184.406C387.989 184.22 387.968 184.023 387.989 183.828L388.239 181.033C388.281 180.62 388.473 180.237 388.779 179.956C389.085 179.676 389.483 179.517 389.898 179.511C390.093 179.508 390.286 179.547 390.465 179.624C390.644 179.701 390.805 179.816 390.937 179.959C391.069 180.103 391.169 180.273 391.231 180.458C391.292 180.643 391.314 180.839 391.295 181.033L391.045 183.828C391.004 184.242 390.812 184.626 390.507 184.909C390.201 185.191 389.803 185.352 389.387 185.361Z" fill="white"/>
<path d="M401.61 185.361C401.414 185.364 401.22 185.325 401.04 185.247C400.86 185.169 400.699 185.054 400.567 184.909C400.434 184.764 400.335 184.592 400.274 184.406C400.213 184.22 400.192 184.023 400.213 183.828L400.792 177.273C400.834 176.86 401.026 176.477 401.332 176.196C401.638 175.915 402.036 175.757 402.451 175.751C402.646 175.748 402.839 175.787 403.018 175.864C403.197 175.941 403.358 176.055 403.49 176.199C403.622 176.343 403.722 176.513 403.784 176.698C403.845 176.883 403.867 177.079 403.848 177.273L403.269 183.828C403.227 184.242 403.036 184.626 402.73 184.909C402.425 185.191 402.026 185.352 401.61 185.361Z" fill="white"/>
<path d="M395.498 185.361C395.302 185.364 395.107 185.325 394.928 185.247C394.748 185.169 394.586 185.054 394.454 184.909C394.322 184.764 394.222 184.592 394.161 184.406C394.1 184.22 394.08 184.023 394.101 183.828L394.51 179.159C394.551 178.743 394.745 178.357 395.053 178.074C395.36 177.791 395.762 177.631 396.18 177.625C396.375 177.622 396.569 177.661 396.749 177.739C396.928 177.817 397.089 177.933 397.22 178.078C397.351 178.223 397.45 178.394 397.509 178.581C397.569 178.767 397.588 178.964 397.565 179.159L397.156 183.828C397.115 184.242 396.923 184.626 396.618 184.909C396.312 185.191 395.914 185.352 395.498 185.361Z" fill="white"/>
</g>
<g opacity="0.8">
<path d="M284.726 185.361H277.047C276.937 185.364 276.827 185.342 276.725 185.299C276.624 185.255 276.533 185.19 276.458 185.108C276.384 185.026 276.328 184.929 276.295 184.824C276.261 184.719 276.25 184.608 276.263 184.498L276.615 180.374C276.64 180.14 276.75 179.923 276.923 179.764C277.097 179.605 277.323 179.515 277.558 179.511H285.238C285.348 179.508 285.458 179.53 285.559 179.573C285.661 179.617 285.752 179.682 285.826 179.764C285.901 179.846 285.956 179.942 285.99 180.048C286.024 180.153 286.034 180.264 286.021 180.374L285.658 184.498C285.638 184.732 285.532 184.95 285.359 185.11C285.187 185.27 284.961 185.359 284.726 185.361Z" fill="white"/>
<path d="M288.282 184.236C288.171 184.239 288.061 184.217 287.959 184.174C287.857 184.13 287.765 184.065 287.69 183.984C287.615 183.902 287.558 183.806 287.523 183.7C287.487 183.595 287.475 183.484 287.486 183.373L287.657 181.487C287.679 181.252 287.788 181.034 287.962 180.874C288.137 180.715 288.364 180.626 288.6 180.624C288.71 180.622 288.82 180.643 288.922 180.687C289.023 180.73 289.114 180.795 289.188 180.877C289.263 180.959 289.319 181.056 289.352 181.161C289.386 181.266 289.397 181.378 289.384 181.487L289.225 183.373C289.2 183.607 289.09 183.824 288.916 183.983C288.743 184.142 288.517 184.232 288.282 184.236Z" fill="white"/>
</g>
<path d="M359.172 280.513C374.459 265.879 375.983 242.664 362.577 228.66C349.171 214.656 325.911 215.166 310.624 229.8C295.338 244.434 293.813 267.649 307.219 281.654C320.625 295.658 343.885 295.147 359.172 280.513Z" fill="white"/>
<path d="M335.029 253.76C325.396 253.76 317.251 257.429 316.558 265.392L315.785 274.242H350.694L351.467 265.392C352.16 257.429 344.674 253.76 335.029 253.76Z" fill="#1169B0"/>
<path d="M335.347 250.113C339.823 250.113 341.891 246.489 342.277 242.013C342.663 237.538 341.243 233.914 336.767 233.914C332.292 233.914 330.235 237.549 329.838 242.013C329.44 246.478 330.872 250.113 335.347 250.113Z" fill="#1169B0"/>
<path d="M369.608 306.016C367.234 306.016 365.223 306.925 365.064 308.89L364.871 311.082H373.493L373.686 308.89C373.846 306.925 371.994 306.016 369.608 306.016Z" fill="#1169B0"/>
<path d="M369.688 305.118C370.824 305.118 371.301 304.221 371.404 303.119C371.506 302.017 371.142 301.12 370.04 301.12C368.938 301.12 368.427 302.017 368.325 303.119C368.223 304.221 368.586 305.118 369.688 305.118Z" fill="#1169B0"/>
<path d="M343.071 356.704H308.991C308.067 356.721 307.15 356.541 306.301 356.175C305.452 355.81 304.691 355.268 304.067 354.586C303.444 353.903 302.973 353.096 302.686 352.217C302.399 351.339 302.302 350.409 302.403 349.49C302.605 347.537 303.515 345.725 304.961 344.396C306.407 343.067 308.289 342.314 310.252 342.277H344.332C345.256 342.262 346.172 342.443 347.02 342.809C347.868 343.175 348.629 343.717 349.252 344.399C349.875 345.081 350.346 345.888 350.634 346.765C350.921 347.643 351.019 348.572 350.921 349.49C350.721 351.445 349.812 353.258 348.366 354.587C346.919 355.917 345.036 356.67 343.071 356.704Z" fill="#1169B0"/>
<path d="M338.948 437.155H302.471C301.493 437.182 300.52 436.997 299.619 436.614C298.718 436.231 297.91 435.658 297.251 434.935C296.591 434.212 296.095 433.355 295.796 432.423C295.497 431.491 295.403 430.505 295.519 429.533L297.848 402.928C298.056 400.864 299.014 398.948 300.54 397.543C302.066 396.138 304.055 395.342 306.129 395.305H342.617C343.593 395.288 344.562 395.479 345.458 395.865C346.354 396.252 347.158 396.824 347.816 397.546C348.474 398.267 348.97 399.12 349.273 400.048C349.575 400.976 349.676 401.958 349.57 402.928L347.241 429.533C347.028 431.597 346.067 433.511 344.539 434.916C343.011 436.32 341.023 437.117 338.948 437.155Z" fill="#1169B0"/>
<g opacity="0.6">
<path d="M327.702 409.642C327.761 409.061 327.697 408.474 327.513 407.921C327.329 407.367 327.03 406.858 326.634 406.429C326.239 405.999 325.757 405.658 325.221 405.429C324.684 405.199 324.105 405.087 323.521 405.098C322.279 405.115 321.085 405.587 320.167 406.425C319.248 407.262 318.667 408.406 318.534 409.642C318.462 410.333 318.564 411.031 318.832 411.672C319.1 412.313 319.525 412.877 320.068 413.311L319.273 422.478C319.234 422.826 319.269 423.177 319.377 423.51C319.485 423.842 319.663 424.147 319.899 424.406C320.134 424.664 320.422 424.869 320.743 425.006C321.064 425.144 321.411 425.212 321.76 425.205C322.501 425.189 323.21 424.903 323.754 424.401C324.298 423.899 324.639 423.215 324.714 422.478L325.521 413.311C326.129 412.895 326.64 412.351 327.016 411.717C327.393 411.083 327.627 410.375 327.702 409.642Z" fill="white"/>
</g>
<path d="M342.935 400.849H338.232L339.368 387.683C339.566 385.855 339.374 384.007 338.803 382.26C338.233 380.512 337.297 378.906 336.058 377.548C334.819 376.191 333.306 375.112 331.619 374.383C329.931 373.655 328.108 373.294 326.27 373.324C322.364 373.4 318.621 374.902 315.746 377.547C312.871 380.192 311.063 383.797 310.661 387.683L309.525 400.849H304.822L305.958 387.683C306.487 382.526 308.886 377.741 312.701 374.231C316.516 370.722 321.484 368.73 326.668 368.632C329.107 368.59 331.527 369.068 333.768 370.034C336.008 370.999 338.018 372.431 339.663 374.232C341.308 376.034 342.551 378.165 343.309 380.484C344.067 382.803 344.323 385.257 344.06 387.683L342.935 400.849Z" fill="#1169B0"/>
<path d="M370.188 326.18L370.335 324.896C370.366 324.599 370.333 324.298 370.239 324.014C370.145 323.73 369.993 323.469 369.791 323.248C369.589 323.027 369.343 322.851 369.069 322.732C368.795 322.613 368.499 322.553 368.2 322.556C367.563 322.569 366.953 322.814 366.485 323.245C366.016 323.676 365.721 324.263 365.655 324.896L365.541 326.157C365.287 326.164 365.044 326.264 364.858 326.437C364.671 326.611 364.555 326.847 364.53 327.1L364.235 330.508C364.22 330.627 364.231 330.748 364.268 330.862C364.304 330.977 364.365 331.082 364.446 331.17C364.527 331.259 364.626 331.329 364.737 331.375C364.848 331.422 364.967 331.444 365.087 331.439H369.767C370.021 331.435 370.264 331.338 370.45 331.166C370.636 330.994 370.753 330.76 370.778 330.508L371.074 327.1C371.083 326.979 371.067 326.858 371.027 326.745C370.986 326.631 370.922 326.527 370.838 326.44C370.754 326.353 370.653 326.285 370.541 326.24C370.429 326.195 370.308 326.175 370.188 326.18ZM368.063 323.158C368.289 323.155 368.512 323.2 368.719 323.29C368.926 323.379 369.111 323.511 369.264 323.678C369.416 323.844 369.531 324.04 369.602 324.254C369.674 324.468 369.699 324.694 369.676 324.919L369.563 326.18H366.041L366.155 324.919C366.204 324.443 366.425 324.002 366.777 323.678C367.128 323.354 367.585 323.169 368.063 323.158Z" fill="#1169B0"/>
<path d="M299.733 327.532L298.097 327.191C298.052 327.181 298.009 327.162 297.972 327.134C297.935 327.105 297.905 327.069 297.884 327.027C297.864 326.986 297.853 326.94 297.852 326.894C297.852 326.847 297.862 326.801 297.881 326.759L298.563 325.146C298.591 325.076 298.594 324.999 298.571 324.927C298.547 324.856 298.5 324.795 298.435 324.755C298.371 324.716 298.296 324.7 298.221 324.712C298.147 324.723 298.079 324.76 298.029 324.817L296.791 326.089C296.761 326.127 296.723 326.157 296.68 326.178C296.637 326.199 296.589 326.21 296.541 326.21C296.493 326.21 296.445 326.199 296.402 326.178C296.359 326.157 296.321 326.127 296.291 326.089L295.28 324.817C295.064 324.544 294.598 324.817 294.678 325.146L295.076 326.759C295.087 326.806 295.089 326.855 295.081 326.903C295.073 326.951 295.055 326.996 295.028 327.037C295.001 327.077 294.966 327.112 294.926 327.139C294.885 327.165 294.839 327.183 294.792 327.191L293.099 327.532C292.735 327.6 292.69 328.111 293.042 328.179L294.678 328.52C294.724 328.529 294.767 328.548 294.804 328.576C294.841 328.605 294.87 328.642 294.89 328.684C294.91 328.726 294.92 328.772 294.918 328.819C294.917 328.865 294.905 328.911 294.882 328.952L294.224 330.576C294.195 330.646 294.192 330.723 294.216 330.795C294.239 330.866 294.287 330.927 294.351 330.967C294.415 331.006 294.491 331.022 294.566 331.01C294.64 330.999 294.708 330.962 294.757 330.905L295.996 329.633C296.028 329.599 296.066 329.571 296.109 329.553C296.152 329.534 296.199 329.524 296.246 329.524C296.293 329.524 296.339 329.534 296.382 329.553C296.425 329.571 296.464 329.599 296.496 329.633L297.507 330.905C297.722 331.178 298.188 330.905 298.097 330.576L297.7 328.963C297.683 328.867 297.704 328.768 297.76 328.687C297.815 328.606 297.899 328.551 297.995 328.531L299.688 328.19C300.04 328.111 300.085 327.6 299.733 327.532Z" fill="#263238"/>
<path d="M310.48 327.532L308.844 327.191C308.799 327.181 308.756 327.162 308.719 327.134C308.682 327.105 308.652 327.069 308.631 327.027C308.611 326.986 308.6 326.94 308.599 326.894C308.599 326.847 308.609 326.801 308.629 326.759L309.31 325.146C309.339 325.076 309.341 324.999 309.318 324.927C309.295 324.856 309.247 324.795 309.183 324.755C309.119 324.716 309.043 324.7 308.968 324.712C308.894 324.723 308.826 324.76 308.776 324.817L307.538 326.089C307.508 326.127 307.47 326.157 307.427 326.178C307.384 326.199 307.336 326.21 307.288 326.21C307.24 326.21 307.192 326.199 307.149 326.178C307.106 326.157 307.068 326.127 307.038 326.089L306.027 324.817C305.811 324.544 305.346 324.817 305.436 325.146L305.834 326.759C305.844 326.807 305.844 326.856 305.834 326.904C305.825 326.952 305.805 326.997 305.778 327.038C305.75 327.078 305.715 327.112 305.674 327.139C305.633 327.165 305.587 327.183 305.539 327.191L303.846 327.532C303.482 327.6 303.437 328.111 303.789 328.179L305.425 328.52C305.471 328.529 305.513 328.549 305.55 328.577C305.587 328.605 305.617 328.642 305.638 328.683C305.659 328.725 305.67 328.771 305.67 328.817C305.671 328.864 305.661 328.91 305.641 328.952L304.959 330.565C304.931 330.634 304.928 330.712 304.952 330.783C304.975 330.855 305.023 330.916 305.087 330.955C305.151 330.995 305.227 331.01 305.301 330.999C305.376 330.988 305.444 330.951 305.493 330.894L306.731 329.622C306.763 329.587 306.802 329.56 306.845 329.541C306.888 329.522 306.934 329.513 306.981 329.513C307.028 329.513 307.075 329.522 307.118 329.541C307.161 329.56 307.199 329.587 307.231 329.622L308.242 330.894C308.458 331.167 308.924 330.894 308.844 330.565L308.447 328.952C308.437 328.905 308.436 328.856 308.445 328.809C308.454 328.762 308.472 328.717 308.499 328.676C308.525 328.636 308.559 328.602 308.599 328.575C308.639 328.548 308.684 328.529 308.731 328.52L310.423 328.179C310.787 328.111 310.832 327.6 310.48 327.532Z" fill="#263238"/>
<path d="M321.227 327.532L319.602 327.191C319.555 327.184 319.511 327.165 319.473 327.138C319.435 327.11 319.404 327.073 319.382 327.031C319.361 326.989 319.351 326.942 319.351 326.894C319.352 326.847 319.364 326.801 319.386 326.759L320.068 325.146C320.112 325.074 320.125 324.987 320.105 324.905C320.084 324.823 320.032 324.752 319.96 324.709C319.888 324.665 319.801 324.652 319.719 324.672C319.637 324.692 319.566 324.744 319.523 324.816L318.296 326.089C318.265 326.127 318.226 326.157 318.182 326.178C318.137 326.199 318.089 326.21 318.04 326.21C317.991 326.21 317.943 326.199 317.899 326.178C317.854 326.157 317.815 326.127 317.785 326.089L316.774 324.816C316.558 324.544 316.092 324.816 316.183 325.146L316.58 326.759C316.59 326.806 316.591 326.855 316.582 326.902C316.573 326.949 316.555 326.994 316.528 327.034C316.502 327.074 316.468 327.109 316.428 327.136C316.388 327.163 316.344 327.181 316.296 327.191L314.604 327.532C314.24 327.6 314.195 328.111 314.547 328.179L316.171 328.52C316.217 328.529 316.26 328.549 316.297 328.577C316.334 328.605 316.364 328.642 316.384 328.683C316.405 328.725 316.416 328.771 316.417 328.817C316.417 328.864 316.407 328.91 316.387 328.952L315.706 330.565C315.662 330.637 315.649 330.724 315.669 330.806C315.689 330.888 315.741 330.958 315.814 331.002C315.886 331.046 315.973 331.059 316.055 331.039C316.137 331.018 316.207 330.966 316.251 330.894L317.478 329.622C317.51 329.587 317.548 329.56 317.591 329.541C317.634 329.522 317.681 329.513 317.728 329.513C317.775 329.513 317.821 329.522 317.864 329.541C317.907 329.56 317.946 329.587 317.978 329.622L319 330.894C319.216 331.167 319.682 330.894 319.591 330.565L319.193 328.952C319.176 328.857 319.196 328.759 319.249 328.679C319.302 328.599 319.384 328.542 319.477 328.52L321.17 328.179C321.488 328.111 321.579 327.6 321.227 327.532Z" fill="#263238"/>
<path d="M331.985 327.532L330.349 327.191C330.303 327.181 330.261 327.162 330.224 327.134C330.187 327.105 330.157 327.069 330.136 327.027C330.115 326.986 330.104 326.94 330.104 326.894C330.103 326.847 330.113 326.801 330.133 326.759L330.815 325.146C330.843 325.076 330.846 324.999 330.822 324.927C330.799 324.856 330.751 324.795 330.687 324.755C330.623 324.716 330.547 324.7 330.473 324.712C330.398 324.723 330.33 324.76 330.281 324.817L329.042 326.089C329.013 326.127 328.975 326.157 328.931 326.178C328.888 326.199 328.841 326.21 328.793 326.21C328.744 326.21 328.697 326.199 328.654 326.178C328.61 326.157 328.572 326.127 328.543 326.089L327.532 324.817C327.316 324.544 326.85 324.817 326.93 325.146L327.327 326.759C327.339 326.806 327.34 326.855 327.332 326.903C327.324 326.951 327.306 326.996 327.279 327.037C327.253 327.077 327.218 327.112 327.177 327.139C327.137 327.165 327.091 327.183 327.043 327.191L325.35 327.532C324.987 327.6 324.942 328.111 325.35 328.179L326.986 328.52C327.032 328.529 327.075 328.548 327.112 328.576C327.149 328.605 327.179 328.642 327.198 328.684C327.218 328.726 327.228 328.772 327.227 328.819C327.225 328.865 327.213 328.911 327.191 328.952L326.521 330.565C326.492 330.634 326.489 330.712 326.513 330.783C326.536 330.855 326.584 330.916 326.648 330.955C326.712 330.995 326.788 331.01 326.863 330.999C326.937 330.988 327.005 330.951 327.054 330.894L328.293 329.622C328.325 329.587 328.363 329.56 328.406 329.541C328.449 329.522 328.496 329.513 328.543 329.513C328.59 329.513 328.636 329.522 328.679 329.541C328.722 329.56 328.761 329.587 328.793 329.622L329.804 330.894C330.019 331.167 330.485 330.894 330.394 330.565L329.997 328.952C329.98 328.855 330.002 328.756 330.057 328.676C330.112 328.595 330.196 328.539 330.292 328.52L331.985 328.179C332.291 328.111 332.337 327.6 331.985 327.532Z" fill="#263238"/>
<path d="M342.731 327.532L341.095 327.191C341.05 327.181 341.007 327.162 340.97 327.134C340.933 327.105 340.903 327.069 340.882 327.027C340.862 326.986 340.851 326.94 340.85 326.894C340.85 326.847 340.86 326.801 340.88 326.759L341.561 325.146C341.59 325.076 341.592 324.999 341.569 324.927C341.546 324.856 341.498 324.795 341.434 324.755C341.37 324.716 341.294 324.7 341.219 324.712C341.145 324.723 341.077 324.76 341.027 324.817L339.789 326.089C339.759 326.127 339.721 326.157 339.678 326.178C339.635 326.199 339.587 326.21 339.539 326.21C339.491 326.21 339.443 326.199 339.4 326.178C339.357 326.157 339.319 326.127 339.289 326.089L338.278 324.817C338.062 324.544 337.597 324.817 337.687 325.146L338.085 326.759C338.095 326.807 338.095 326.856 338.085 326.904C338.076 326.952 338.057 326.997 338.029 327.038C338.001 327.078 337.966 327.112 337.925 327.139C337.884 327.165 337.838 327.183 337.79 327.191L336.097 327.532C335.733 327.6 335.688 328.111 336.04 328.179L337.676 328.52C337.722 328.529 337.764 328.549 337.801 328.577C337.838 328.605 337.868 328.642 337.889 328.683C337.91 328.725 337.921 328.771 337.921 328.817C337.922 328.864 337.912 328.91 337.892 328.952L337.21 330.565C337.182 330.634 337.179 330.712 337.203 330.783C337.226 330.855 337.274 330.916 337.338 330.955C337.402 330.995 337.478 331.01 337.552 330.999C337.627 330.988 337.695 330.951 337.744 330.894L338.982 329.622C339.014 329.587 339.053 329.56 339.096 329.541C339.139 329.522 339.185 329.513 339.232 329.513C339.279 329.513 339.326 329.522 339.369 329.541C339.412 329.56 339.45 329.587 339.482 329.622L340.493 330.894C340.709 331.167 341.175 330.894 341.095 330.565L340.698 328.952C340.688 328.905 340.687 328.856 340.696 328.809C340.705 328.762 340.723 328.717 340.75 328.676C340.776 328.636 340.81 328.602 340.85 328.575C340.89 328.548 340.935 328.529 340.982 328.52L342.674 328.179C343.072 328.111 343.072 327.6 342.731 327.532Z" fill="#263238"/>
<path d="M353.478 327.532L351.842 327.191C351.796 327.182 351.753 327.163 351.716 327.134C351.679 327.106 351.65 327.069 351.63 327.027C351.61 326.985 351.6 326.939 351.601 326.892C351.603 326.846 351.615 326.8 351.637 326.759L352.319 325.146C352.341 325.11 352.355 325.07 352.361 325.029C352.368 324.988 352.366 324.946 352.356 324.905C352.346 324.864 352.328 324.826 352.303 324.792C352.278 324.759 352.247 324.73 352.211 324.709C352.175 324.687 352.136 324.673 352.094 324.666C352.053 324.66 352.011 324.662 351.97 324.672C351.929 324.682 351.891 324.7 351.857 324.725C351.824 324.75 351.795 324.781 351.774 324.817L350.547 326.089C350.516 326.127 350.477 326.157 350.433 326.178C350.389 326.2 350.34 326.21 350.291 326.21C350.242 326.21 350.194 326.2 350.15 326.178C350.105 326.157 350.066 326.127 350.036 326.089L349.025 324.817C348.809 324.544 348.343 324.817 348.434 325.146L348.831 326.759C348.841 326.806 348.842 326.855 348.833 326.902C348.824 326.949 348.806 326.994 348.779 327.034C348.753 327.074 348.719 327.109 348.679 327.136C348.639 327.163 348.595 327.181 348.547 327.191L346.855 327.532C346.491 327.6 346.446 328.111 346.798 328.179L348.422 328.52C348.468 328.529 348.511 328.549 348.548 328.577C348.585 328.605 348.615 328.642 348.635 328.683C348.656 328.725 348.667 328.771 348.668 328.817C348.668 328.864 348.658 328.91 348.638 328.952L347.957 330.565C347.913 330.637 347.9 330.724 347.92 330.806C347.94 330.888 347.992 330.958 348.065 331.002C348.137 331.046 348.224 331.059 348.306 331.039C348.388 331.018 348.458 330.966 348.502 330.894L349.729 329.622C349.761 329.587 349.799 329.56 349.842 329.541C349.885 329.522 349.932 329.513 349.979 329.513C350.026 329.513 350.072 329.522 350.115 329.541C350.158 329.56 350.197 329.587 350.229 329.622L351.24 330.894C351.293 330.954 351.364 330.993 351.443 331.007C351.521 331.021 351.602 331.007 351.672 330.969C351.742 330.931 351.797 330.87 351.827 330.797C351.858 330.723 351.863 330.641 351.842 330.565L351.444 328.952C351.427 328.857 351.447 328.759 351.5 328.679C351.553 328.599 351.635 328.542 351.728 328.52L353.421 328.179C353.784 328.111 353.83 327.6 353.478 327.532Z" fill="#263238"/>
<path d="M327.565 304.005H307.39C306.77 304.016 306.177 304.253 305.72 304.671C305.264 305.09 304.977 305.661 304.913 306.277C304.881 306.567 304.911 306.86 305.001 307.138C305.091 307.415 305.24 307.67 305.437 307.885C305.634 308.1 305.874 308.271 306.142 308.385C306.411 308.5 306.7 308.556 306.992 308.549H327.167C327.786 308.538 328.38 308.301 328.837 307.883C329.293 307.464 329.58 306.893 329.644 306.277C329.674 305.987 329.643 305.695 329.552 305.418C329.461 305.142 329.313 304.888 329.116 304.673C328.92 304.458 328.68 304.287 328.412 304.172C328.145 304.057 327.856 304 327.565 304.005Z" fill="#263238"/>
<path d="M348.059 304.005H336.347C335.729 304.016 335.137 304.253 334.682 304.672C334.228 305.091 333.943 305.662 333.882 306.277C333.849 306.566 333.879 306.858 333.969 307.135C334.058 307.411 334.206 307.666 334.402 307.881C334.597 308.096 334.837 308.267 335.103 308.382C335.37 308.497 335.659 308.554 335.949 308.549H347.616C348.234 308.538 348.826 308.301 349.281 307.882C349.735 307.463 350.02 306.892 350.081 306.277C350.113 305.992 350.085 305.703 349.998 305.43C349.911 305.157 349.767 304.905 349.577 304.69C349.386 304.476 349.152 304.304 348.891 304.186C348.629 304.068 348.346 304.006 348.059 304.005Z" fill="#263238"/>
<path d="M363.52 406.983C356.389 409.7 349.951 413.968 344.674 419.479C341.469 416.991 337.649 415.421 333.62 414.935L333.087 414.856L332.859 417.537L333.155 417.65C337.572 419.277 341.308 422.352 343.754 426.375L344.14 427.011L344.56 426.329C349.265 418.819 355.904 412.713 363.781 408.653L364.043 408.517L364.19 406.745L363.52 406.983Z" fill="#263238"/>
<path opacity="0.2" d="M262.007 183.316C260.56 185.844 259.669 188.652 259.395 191.552L242.479 384.922H294.826L305.346 344.606L301.881 304.278L312.4 263.961L308.992 223.644L319.512 183.316H262.007Z" fill="black"/>
<path d="M304.392 212.284L314.911 171.956H182.533L172.025 212.284L175.479 252.601L164.971 292.918L168.424 333.246L157.916 373.562H290.283L300.802 333.246L297.337 292.918L307.857 252.601L304.392 212.284Z" fill="#1169B0"/>
<path opacity="0.7" d="M304.392 212.284L314.911 171.956H182.533L172.025 212.284L175.479 252.601L164.971 292.918L168.424 333.246L157.916 373.562H290.283L300.802 333.246L297.337 292.918L307.857 252.601L304.392 212.284Z" fill="white"/>
<path opacity="0.5" d="M304.391 212.284H172.024L182.532 171.956H314.91L304.391 212.284Z" fill="white"/>
<path opacity="0.5" d="M297.336 292.918H164.97L175.478 252.601H307.856L297.336 292.918Z" fill="white"/>
<path opacity="0.5" d="M290.282 373.562H157.904L168.424 333.246H300.802L290.282 373.562Z" fill="white"/>
<path opacity="0.2" d="M286.681 229.131C285.323 229.524 283.914 229.715 282.5 229.699C280.583 229.784 278.675 229.394 276.945 228.563C276.632 228.378 276.275 228.28 275.912 228.279C275.578 228.284 275.251 228.37 274.957 228.529H274.889C274.382 228.814 273.84 229.032 273.276 229.177C272.005 229.512 270.694 229.676 269.38 229.665C268.982 229.665 268.596 229.665 268.244 229.665C267.224 229.6 266.214 229.421 265.233 229.131C265.089 229.088 264.94 229.062 264.79 229.052C264.54 229.031 264.289 229.063 264.052 229.144C263.815 229.226 263.597 229.355 263.413 229.525C263.228 229.695 263.081 229.901 262.979 230.13C262.878 230.359 262.826 230.607 262.825 230.858V232.085H211.296C210.349 232.085 209.412 232.271 208.537 232.634C207.663 232.997 206.868 233.528 206.199 234.198C205.53 234.868 205 235.664 204.639 236.539C204.277 237.414 204.092 238.352 204.094 239.298V246.557C204.091 247.505 204.275 248.444 204.635 249.321C204.996 250.197 205.526 250.994 206.195 251.665C206.864 252.336 207.659 252.869 208.535 253.232C209.41 253.595 210.348 253.782 211.296 253.782H269.834H270.22C270.845 254.305 271.504 254.827 272.208 255.361C272.913 255.895 273.912 256.634 274.832 257.293C275.146 257.52 275.524 257.642 275.912 257.642C276.299 257.642 276.677 257.52 276.991 257.293C284.352 251.953 289.078 248.273 289.078 238.162V230.892C289.081 230.601 289.016 230.314 288.886 230.054C288.756 229.793 288.566 229.568 288.332 229.396C288.098 229.224 287.826 229.11 287.538 229.064C287.251 229.018 286.957 229.041 286.681 229.131Z" fill="black"/>
<path d="M268.71 228.097H210.183C206.199 228.097 202.97 231.327 202.97 235.311V242.57C202.97 246.554 206.199 249.784 210.183 249.784H268.71C272.694 249.784 275.924 246.554 275.924 242.57V235.311C275.924 231.327 272.694 228.097 268.71 228.097Z" fill="#1169B0"/>
<path d="M281.377 225.7C279.46 225.782 277.552 225.392 275.821 224.564C275.514 224.376 275.16 224.276 274.799 224.276C274.438 224.276 274.084 224.376 273.777 224.564C272.042 225.394 270.131 225.784 268.21 225.7C266.797 225.716 265.388 225.524 264.03 225.132C263.756 225.04 263.464 225.015 263.179 225.058C262.893 225.101 262.622 225.212 262.388 225.38C262.154 225.549 261.963 225.771 261.832 226.029C261.7 226.286 261.632 226.57 261.633 226.859V234.13C261.633 244.251 266.359 247.932 273.72 253.271C274.034 253.498 274.411 253.621 274.799 253.621C275.187 253.621 275.564 253.498 275.878 253.271C283.24 247.932 287.965 244.251 287.965 234.13V226.859C287.964 226.57 287.894 226.285 287.762 226.028C287.629 225.771 287.437 225.549 287.202 225.381C286.967 225.212 286.695 225.102 286.409 225.059C286.123 225.016 285.831 225.041 285.557 225.132C284.199 225.525 282.79 225.716 281.377 225.7Z" fill="#1169B0"/>
<path opacity="0.3" d="M281.377 225.7C279.46 225.782 277.552 225.392 275.821 224.564C275.514 224.376 275.16 224.276 274.799 224.276C274.438 224.276 274.084 224.376 273.777 224.564C272.042 225.394 270.131 225.784 268.21 225.7C266.797 225.716 265.388 225.524 264.03 225.132C263.756 225.04 263.464 225.015 263.179 225.058C262.893 225.101 262.622 225.212 262.388 225.38C262.154 225.549 261.963 225.771 261.832 226.029C261.7 226.286 261.632 226.57 261.633 226.859V234.13C261.633 244.251 266.359 247.932 273.72 253.271C274.034 253.498 274.411 253.621 274.799 253.621C275.187 253.621 275.564 253.498 275.878 253.271C283.24 247.932 287.965 244.251 287.965 234.13V226.859C287.964 226.57 287.894 226.285 287.762 226.028C287.629 225.771 287.437 225.549 287.202 225.381C286.967 225.212 286.695 225.102 286.409 225.059C286.123 225.016 285.831 225.041 285.557 225.132C284.199 225.525 282.79 225.716 281.377 225.7Z" fill="white"/>
<path opacity="0.2" d="M273.777 224.542C272.042 225.371 270.131 225.761 268.21 225.678C266.797 225.692 265.388 225.501 264.03 225.11C263.756 225.018 263.464 224.992 263.179 225.035C262.893 225.078 262.622 225.189 262.388 225.358C262.154 225.527 261.963 225.749 261.832 226.006C261.7 226.263 261.632 226.548 261.633 226.836V234.107C261.633 244.229 266.359 247.909 273.72 253.248C274.049 253.488 274.449 253.611 274.856 253.601V224.246C274.475 224.239 274.1 224.341 273.777 224.542Z" fill="white"/>
<path d="M285.353 232.153C280.924 233.888 276.98 236.667 273.856 240.253C271.678 238.647 269.124 237.626 266.438 237.288H266.086V239.026L266.279 239.094C269.266 240.172 271.84 242.158 273.64 244.774L273.924 245.183L274.163 244.74C276.774 239.886 280.752 235.905 285.602 233.289L285.773 233.209V232.073L285.353 232.153Z" fill="#263238"/>
<path d="M312.57 183.305H307.549C306.903 183.317 306.262 183.191 305.669 182.936C305.075 182.68 304.543 182.301 304.108 181.824C303.672 181.347 303.344 180.782 303.144 180.168C302.944 179.553 302.877 178.903 302.949 178.261L303.392 173.24C303.528 171.874 304.161 170.606 305.17 169.677C306.179 168.747 307.495 168.22 308.867 168.196H313.888C314.535 168.183 315.178 168.307 315.772 168.562C316.367 168.816 316.901 169.195 317.338 169.673C317.774 170.15 318.104 170.716 318.304 171.331C318.505 171.946 318.572 172.597 318.5 173.24L318.057 178.261C317.905 179.622 317.265 180.882 316.257 181.809C315.249 182.736 313.939 183.267 312.57 183.305Z" fill="#1169B0"/>
<path d="M314.661 173.229L313.57 172.024L310.821 174.546L308.526 172.024L307.22 173.229L309.526 175.751L306.788 178.272L307.879 179.465L310.616 176.943L312.922 179.465L314.218 178.272L311.911 175.751L314.661 173.229Z" fill="white"/>
<path d="M200.356 226.621C203.264 229.79 206.036 233.073 208.796 236.379C211.557 239.685 214.226 243.059 216.885 246.444C216.998 246.592 216.953 246.535 216.976 246.58C216.998 246.626 216.976 246.637 216.976 246.648C216.995 246.69 217.022 246.729 217.055 246.762C217.152 246.9 217.275 247.017 217.417 247.106C217.56 247.196 217.718 247.257 217.884 247.284C218.013 247.302 218.142 247.302 218.271 247.284C218.339 247.29 218.407 247.29 218.475 247.284H218.577C218.634 247.284 218.577 247.284 218.759 247.216L221.599 245.671C225.416 243.649 229.267 241.673 233.243 239.9L236.572 244.024C233.368 246.966 230.028 250.658 226.654 253.362L224.11 255.361C223.952 255.49 223.785 255.608 223.61 255.714C223.417 255.851 223.216 255.976 223.008 256.088C222.596 256.325 222.172 256.538 221.735 256.725C220.855 257.094 219.931 257.35 218.986 257.486C217.075 257.766 215.124 257.571 213.306 256.918C212.382 256.589 211.503 256.143 210.693 255.589C210.285 255.316 209.898 254.998 209.557 254.691C209.364 254.532 209.205 254.35 209.024 254.18L208.569 253.726C205.559 250.636 202.594 247.523 199.686 244.354C196.777 241.184 193.903 237.992 191.154 234.675L200.356 226.621Z" fill="#B55B52"/>
<path d="M231.744 242.4L234.391 233.891L241.366 237.367C241.366 237.367 240.344 243.57 235.277 244.649L231.744 242.4Z" fill="#B55B52"/>
<path d="M237.174 231.54L243.468 233.266L241.355 237.367L234.38 233.891L237.174 231.54Z" fill="#B55B52"/>
<path d="M163.686 228.938C162.936 232.551 162.005 236.129 161.039 239.696C160.074 243.263 159.017 246.796 157.915 250.329L157.506 251.658L157.302 252.317C157.274 252.412 157.236 252.503 157.188 252.59C157.059 252.955 156.986 253.338 156.972 253.726C156.948 254.551 157.178 255.364 157.631 256.054C157.855 256.357 158.102 256.642 158.37 256.906L159.313 257.94L161.176 260.019C162.391 261.428 163.618 262.836 164.777 264.313L160.812 268.857C159.176 267.926 157.608 266.915 156.041 265.915L153.712 264.37L152.576 263.586C152.19 263.313 151.872 263.132 151.247 262.62C149.024 260.726 147.49 258.15 146.885 255.293C146.58 253.837 146.507 252.342 146.669 250.863C146.669 250.499 146.782 250.09 146.839 249.727L146.964 249.045L147.203 247.682C147.839 244.036 148.521 240.4 149.282 236.788C150.043 233.175 150.861 229.574 151.826 226.019L163.686 228.938Z" fill="#B55B52"/>
<path d="M160.892 263.95L165.572 261.553L167.639 269.505C167.639 269.505 163.879 270.947 160.971 269.096L160.892 263.95Z" fill="#B55B52"/>
<path d="M172.047 258.997L172.263 266.312L167.026 269.732L165.208 261.7L172.047 258.997Z" fill="#B55B52"/>
<path d="M187.372 191.382C187.486 191.939 187.883 192.336 188.247 192.268C188.61 192.2 188.826 191.677 188.713 191.132C188.599 190.587 188.201 190.178 187.838 190.246C187.474 190.314 187.259 190.848 187.372 191.382Z" fill="#263238"/>
<path d="M187.826 192.348C188.849 193.932 190.083 195.369 191.495 196.619C191.167 196.973 190.765 197.251 190.317 197.433C189.87 197.616 189.388 197.699 188.905 197.675L187.826 192.348Z" fill="#A02724"/>
<path d="M184.68 188.678C184.614 188.677 184.55 188.658 184.496 188.622C184.441 188.586 184.398 188.535 184.372 188.475C184.345 188.415 184.337 188.349 184.347 188.284C184.357 188.219 184.386 188.159 184.43 188.11C184.785 187.708 185.231 187.395 185.73 187.198C186.23 187 186.769 186.924 187.304 186.974C187.348 186.982 187.39 186.999 187.427 187.024C187.465 187.048 187.497 187.08 187.522 187.117C187.548 187.153 187.565 187.195 187.575 187.239C187.584 187.283 187.585 187.328 187.576 187.372C187.569 187.415 187.554 187.457 187.531 187.495C187.507 187.532 187.477 187.564 187.441 187.59C187.405 187.615 187.364 187.633 187.321 187.643C187.278 187.652 187.233 187.653 187.19 187.644C186.766 187.604 186.339 187.665 185.944 187.823C185.549 187.981 185.197 188.232 184.918 188.553C184.857 188.624 184.772 188.669 184.68 188.678Z" fill="#263238"/>
<path d="M170.991 199.3C172.24 204.514 173.501 214.068 169.025 217.533C169.025 217.533 170.775 222.826 182.657 222.826C195.721 222.826 188.905 219.418 188.905 219.418C181.771 218.032 181.953 211.841 183.225 207.786L170.991 199.3Z" fill="#B55B52"/>
<path d="M167.628 218.498C166.856 217.056 165.992 215.397 167.765 214.874C169.719 214.306 182.249 213.25 185.941 214.318C184.805 216.328 186.724 218.862 186.724 218.862L167.628 218.498Z" fill="#263238"/>
<path d="M178.011 462.261H186.201L187.019 445.766H178.817L178.011 462.261Z" fill="#B55B52"/>
<path d="M125.994 459.989L134.298 460.432L139.342 444.176L131.038 443.733L125.994 459.989Z" fill="#B55B52"/>
<path d="M134.048 459.773L126.221 458.081C126.084 458.049 125.94 458.066 125.814 458.128C125.688 458.19 125.587 458.294 125.528 458.421L122.813 464.317C122.746 464.46 122.713 464.617 122.716 464.775C122.719 464.933 122.758 465.088 122.831 465.228C122.903 465.369 123.007 465.491 123.134 465.585C123.261 465.679 123.407 465.743 123.563 465.771C126.3 466.317 127.664 466.442 131.106 467.191C133.219 467.646 138.001 468.816 140.921 469.463C143.84 470.111 144.851 467.294 143.715 466.771C138.603 464.442 136.468 462.386 135.082 460.466C134.833 460.117 134.465 459.871 134.048 459.773Z" fill="#263238"/>
<path d="M185.77 461.432H177.989C177.848 461.434 177.712 461.483 177.603 461.571C177.494 461.66 177.417 461.783 177.387 461.92L175.978 468.248C175.942 468.401 175.941 468.56 175.976 468.714C176.01 468.868 176.08 469.011 176.178 469.134C176.277 469.257 176.402 469.355 176.545 469.422C176.687 469.489 176.843 469.523 177.001 469.52C179.806 469.52 183.817 469.304 187.395 469.304C191.519 469.304 195.074 469.532 199.891 469.532C202.81 469.532 203.628 466.578 202.401 466.305C196.824 465.09 192.28 464.953 187.463 461.988C186.96 461.653 186.375 461.461 185.77 461.432Z" fill="#263238"/>
<path d="M154.178 219.941C147.998 222.883 146.316 240.718 146.316 240.718L161.618 247.784C164.205 243.422 165.614 238.462 165.708 233.391C166.015 224.178 160.505 216.976 154.178 219.941Z" fill="#263238"/>
<path opacity="0.4" d="M162.448 230.937C159.688 235.232 159.949 241.866 160.903 247.466L161.585 247.784C164.169 243.421 165.578 238.462 165.674 233.391C165.674 232.846 165.674 232.255 165.674 231.767L162.448 230.937Z" fill="black"/>
<path d="M196.88 219.509C196.88 219.509 204.469 228.075 197.301 281.08H159.21C158.949 275.23 162.618 246.705 156.938 219.146C161.148 218.336 165.406 217.797 169.684 217.533C175.08 217.226 180.488 217.226 185.884 217.533C189.595 217.908 193.271 218.569 196.88 219.509Z" fill="#1169B0"/>
<path opacity="0.6" d="M196.88 219.509C196.88 219.509 204.469 228.075 197.301 281.08H159.21C158.949 275.23 162.618 246.705 156.938 219.146C161.148 218.336 165.406 217.797 169.684 217.533C175.08 217.226 180.488 217.226 185.884 217.533C189.595 217.908 193.271 218.569 196.88 219.509Z" fill="#FAFAFA"/>
<path opacity="0.2" d="M200.209 235.709L200.072 235.584L192.495 231.54C191.723 243.206 196.937 250.522 200.038 253.714C200.427 247.72 200.484 241.709 200.209 235.709Z" fill="black"/>
<path opacity="0.2" d="M187.02 445.766L186.599 454.275H178.397L178.818 445.766H187.02Z" fill="black"/>
<path opacity="0.2" d="M131.038 443.744L139.342 444.176L136.741 452.56L128.437 452.117L131.038 443.744Z" fill="black"/>
<path d="M168.355 194.006C170.184 200.822 170.911 204.923 175.171 207.763C181.51 212.034 189.394 207.127 189.644 199.891C189.86 193.381 186.838 183.305 179.511 181.93C177.893 181.61 176.22 181.71 174.652 182.221C173.084 182.732 171.673 183.636 170.554 184.847C169.435 186.058 168.646 187.536 168.261 189.14C167.876 190.743 167.908 192.419 168.355 194.006Z" fill="#B55B52"/>
<path d="M183.794 281.08C183.794 281.08 175.705 335.506 171.298 355.909C166.413 378.288 140.353 452.128 140.353 452.128L127.596 449.368C127.596 449.368 143.943 389.159 148.044 357.942C149.634 345.753 151.554 326.134 153.985 309.742C156.337 293.838 159.233 281.092 159.233 281.092L183.794 281.08Z" fill="#263238"/>
<path d="M143.408 447.868L141.023 452.48L126.687 449.368L127.891 445.062L143.408 447.868Z" fill="#1169B0"/>
<path opacity="0.6" d="M143.408 447.868L141.023 452.48L126.687 449.368L127.891 445.062L143.408 447.868Z" fill="white"/>
<path opacity="0.6" d="M178.681 300.472C169.332 302.301 170.32 337.165 171.445 355.091C174.148 342.413 178.09 318.035 180.783 300.722C180.131 300.401 179.39 300.313 178.681 300.472Z" fill="black"/>
<path d="M197.3 281.08C197.3 281.08 201.106 334.336 200.333 356.056C199.527 378.651 188.814 452.616 188.814 452.616H176.75C176.75 452.616 176.307 379.912 175.773 357.772C175.182 333.575 172.263 281.069 172.263 281.069L197.3 281.08Z" fill="#263238"/>
<path d="M191.132 447.823C191.189 447.823 190.451 452.832 190.451 452.832H175.774L175.376 448.356L191.132 447.823Z" fill="#1169B0"/>
<path opacity="0.6" d="M191.132 447.823C191.189 447.823 190.451 452.832 190.451 452.832H175.774L175.376 448.356L191.132 447.823Z" fill="white"/>
<path d="M192.438 229.472C192.438 243.763 200.038 249.647 200.038 249.647L212.432 237.583C209.499 232.68 206.158 228.033 202.447 223.69C195.278 215.476 192.438 220.293 192.438 229.472Z" fill="#263238"/>
<path opacity="0.2" d="M189.167 202.481C188.914 203.197 188.49 203.84 187.932 204.355C187.373 204.87 186.697 205.24 185.963 205.434C185.155 205.599 184.422 206.019 183.872 206.633C183.321 207.247 182.983 208.021 182.907 208.842C184.378 208.35 185.712 207.518 186.8 206.412C187.888 205.306 188.699 203.959 189.167 202.481Z" fill="black"/>
<path d="M185.964 180.431C188.508 177.216 184.589 177.023 184.589 177.023C185.611 173.195 181.022 175.251 181.022 175.251C178.273 171.456 176.717 176.08 176.717 176.08C173.865 172.865 173.309 178.113 173.309 178.113C170.446 174.035 168.992 179.92 168.992 179.92C166.356 175.682 164.743 181.192 164.743 181.192C159.302 179.249 161.88 184.907 161.88 184.907C157.246 185.032 160.972 188.633 160.972 188.633C155.405 188.633 160.313 191.825 160.313 191.825C155.894 194.722 161.449 195.506 161.449 195.506C157.848 201.186 164.039 199.05 164.039 199.05C161.528 204.639 167.083 202.174 167.083 202.174C166.731 207.559 169.832 206.093 171.332 205.093C171.616 206.229 172.161 207.365 173.161 207.456C175.103 207.718 175.433 204.048 175.433 204.048C175.433 204.048 177.228 205.457 178.739 204.696C180.25 203.935 179.682 202.015 179.682 202.015C180.009 202.26 180.408 202.393 180.818 202.393C181.227 202.393 181.626 202.26 181.954 202.015C182.601 201.515 182.601 197.903 181.783 196.63L184.737 195.494C184.737 195.494 186.929 195.188 185.952 192.291C185.363 190.626 185.311 188.818 185.805 187.122C189.144 185.554 186.395 183.714 186.395 183.714C190.269 181.226 185.964 180.431 185.964 180.431Z" fill="#263238"/>
<path d="M179.976 194.256C180.439 195.951 181.449 197.445 182.85 198.505C184.702 199.891 186.088 198.505 185.952 196.426C185.838 194.54 184.725 191.552 182.68 190.984C180.635 190.416 179.488 192.245 179.976 194.256Z" fill="#B55B52"/>
</svg>
