<svg width="209" height="209" viewBox="0 0 209 209" fill="none" xmlns="http://www.w3.org/2000/svg">
<path d="M209 159.843H0V159.948H209V159.843Z" fill="#EBEBEB"/>
<path d="M188.058 166.569H174.214V166.673H188.058V166.569Z" fill="#EBEBEB"/>
<path d="M138.45 167.706H134.817V167.81H138.45V167.706Z" fill="#EBEBEB"/>
<path d="M173.796 162.69H165.774V162.794H173.796V162.69Z" fill="#EBEBEB"/>
<path d="M39.9821 163.392H21.9287V163.497H39.9821V163.392Z" fill="#EBEBEB"/>
<path d="M46.352 163.392H43.7061V163.497H46.352V163.392Z" fill="#EBEBEB"/>
<path d="M94.1123 165.156H54.9541V165.26H94.1123V165.156Z" fill="#EBEBEB"/>
<path d="M99.0659 141.2H18.3543C17.722 141.199 17.116 140.947 16.6693 140.5C16.2226 140.052 15.9717 139.446 15.9717 138.814V25.3559C15.9772 24.7272 16.2305 24.1261 16.6766 23.6831C17.1227 23.2401 17.7256 22.9911 18.3543 22.99H99.0659C99.6989 22.99 100.306 23.2415 100.754 23.6891C101.201 24.1367 101.453 24.7438 101.453 25.3768V138.814C101.453 139.447 101.201 140.054 100.754 140.501C100.306 140.949 99.6989 141.2 99.0659 141.2ZM18.3543 23.0736C17.7497 23.0747 17.1703 23.3156 16.7432 23.7435C16.3161 24.1714 16.0762 24.7513 16.0762 25.3559V138.814C16.0762 139.418 16.3161 139.998 16.7432 140.426C17.1703 140.854 17.7497 141.095 18.3543 141.096H99.0659C99.6709 141.095 100.251 140.854 100.678 140.426C101.106 139.998 101.347 139.419 101.348 138.814V25.3559C101.347 24.7509 101.106 24.171 100.678 23.7433C100.251 23.3155 99.6709 23.0747 99.0659 23.0736H18.3543Z" fill="#EBEBEB"/>
<path d="M189.483 141.2H108.768C108.135 141.199 107.529 140.947 107.081 140.5C106.634 140.053 106.382 139.446 106.381 138.814V25.3559C106.387 24.7268 106.642 24.1257 107.088 23.6829C107.535 23.24 108.139 22.9911 108.768 22.99H189.483C190.111 22.9922 190.713 23.2417 191.158 23.6846C191.604 24.1275 191.856 24.7279 191.862 25.3559V138.814C191.862 139.445 191.612 140.051 191.166 140.498C190.72 140.946 190.115 141.198 189.483 141.2ZM108.768 23.0736C108.163 23.0747 107.583 23.3155 107.155 23.7433C106.727 24.171 106.486 24.7509 106.485 25.3559V138.814C106.486 139.419 106.727 139.998 107.155 140.426C107.583 140.854 108.163 141.095 108.768 141.096H189.483C190.088 141.095 190.668 140.854 191.096 140.426C191.524 139.998 191.765 139.419 191.766 138.814V25.3559C191.765 24.7509 191.524 24.171 191.096 23.7433C190.668 23.3155 190.088 23.0747 189.483 23.0736H108.768Z" fill="#EBEBEB"/>
<path d="M181.981 159.229L181.784 130.387L177.5 126.771L175.519 117.232L172.952 114.239L171.573 107.551L169.232 110.594L167.907 128.848L166.582 126.758L165.528 119.652L163.413 121.926L160.767 122.591L159.225 137.672L119.933 142.358L111.744 135.357L108.4 121.709L104.952 118.148L103.936 111.606L100.638 112.747V119.69L97.8332 121.304L96.6336 135.394L93.114 140.264L92.115 131.557C92.115 131.557 89.4189 129.4 88.8212 128.882C88.2234 128.364 84.8251 118.892 85.3392 118.185C85.8534 117.479 84.6035 111.334 84.6035 111.334L81.2052 113.37V123.544L77.6564 124.443L77.1255 128.882L68.08 130.345L66.6254 123.544H62.5917L61.3377 127.419L57.6676 127.394L51.8616 131.574L47.0839 122.202L42.2183 124.434L38.7197 116.317L35.0455 121.074L33.6828 136.51L31.7976 136.728L30.924 133.384L27.3877 136.728V159.229H181.981Z" fill="#F5F5F5"/>
<path d="M133.58 41.0476H125.425C125.092 41.0245 124.781 40.8749 124.555 40.6294C124.329 40.3839 124.206 40.0612 124.211 39.7277C124.216 39.3942 124.348 39.0753 124.581 38.8364C124.814 38.5975 125.129 38.4569 125.463 38.4435C125.588 38.4442 125.714 38.4625 125.835 38.4978C125.815 38.3593 125.806 38.2196 125.805 38.0798C125.806 37.3488 126.098 36.6482 126.615 36.1317C127.132 35.6153 127.833 35.3252 128.564 35.3252C128.735 35.3256 128.906 35.341 129.074 35.3712C129.345 34.9228 129.755 34.5749 130.241 34.3805C130.727 34.186 131.264 34.1554 131.769 34.2935C132.275 34.4315 132.721 34.7306 133.041 35.1453C133.361 35.5601 133.537 36.0679 133.542 36.5917H133.58C133.88 36.5787 134.179 36.6265 134.46 36.7323C134.741 36.8381 134.998 36.9997 135.214 37.2072C135.431 37.4148 135.604 37.6641 135.722 37.9402C135.839 38.2162 135.9 38.5132 135.9 38.8134C135.9 39.1135 135.839 39.4106 135.722 39.6866C135.604 39.9626 135.431 40.212 135.214 40.4195C134.998 40.6271 134.741 40.7887 134.46 40.8945C134.179 41.0002 133.88 41.0481 133.58 41.0351V41.0476Z" fill="#F5F5F5"/>
<path d="M38.1973 60.1627H30.0421C29.7094 60.1397 29.3981 59.99 29.1724 59.7445C28.9466 59.499 28.8234 59.1764 28.8283 58.8429C28.8331 58.5094 28.9655 58.1904 29.1983 57.9515C29.431 57.7126 29.7465 57.572 30.0797 57.5586C30.206 57.5587 30.3315 57.5784 30.4518 57.6171C30.4328 57.4786 30.4231 57.3389 30.4225 57.1991C30.4236 56.4678 30.7146 55.7667 31.2318 55.2496C31.7489 54.7324 32.45 54.4414 33.1813 54.4403C33.3511 54.44 33.5206 54.4568 33.6871 54.4905C33.9588 54.0434 34.3685 53.6968 34.8545 53.503C35.3404 53.3091 35.8762 53.2786 36.381 53.4159C36.8859 53.5532 37.3324 53.8509 37.6532 54.2641C37.974 54.6774 38.1518 55.1837 38.1597 55.7069H38.1973C38.4972 55.6938 38.7965 55.7417 39.0774 55.8475C39.3583 55.9532 39.6149 56.1148 39.8317 56.3224C40.0484 56.53 40.221 56.7793 40.3388 57.0553C40.4567 57.3313 40.5174 57.6284 40.5174 57.9285C40.5174 58.2287 40.4567 58.5257 40.3388 58.8017C40.221 59.0778 40.0484 59.3271 39.8317 59.5347C39.6149 59.7423 39.3583 59.9038 39.0774 60.0096C38.7965 60.1154 38.4972 60.1632 38.1973 60.1502V60.1627Z" fill="#F5F5F5"/>
<path d="M30.5142 151.391L37.4196 150.012L38.9787 131.131L43.6896 127.866L45.3323 111.673L49.5667 106.908L51.5355 110.62L54.7582 116.492L55.8325 122.248L57.655 127.385L61.5925 133.543L65.1288 130.387C65.1288 130.387 67.0558 127.26 67.9754 126.855C68.895 126.449 72.6695 126.098 72.6695 126.098L77.9113 131.114V135.027L83.2742 137.886L86.5722 141.205L88.5452 143.637L92.211 145.543C100.266 139.984 119.511 121.822 126.023 105.62L131.67 97.7493L138.672 95.5882L145.698 102.828C145.698 102.828 154.798 135.114 189.902 160.93H22.9902L30.5142 151.391Z" fill="#EBEBEB"/>
<path d="M153.134 96.2988H161.147C161.125 96.1045 161.114 95.9092 161.114 95.7136C161.114 94.3146 161.669 92.9728 162.659 91.9835C163.648 90.9943 164.99 90.4385 166.389 90.4385H166.581C166.965 89.4147 167.695 88.558 168.646 88.0176C169.596 87.4773 170.706 87.2876 171.782 87.4816C172.858 87.6756 173.832 88.241 174.533 89.0792C175.235 89.9175 175.621 90.9754 175.622 92.0687C176.725 92.121 177.77 92.581 178.553 93.3594C179.336 94.1379 179.802 95.1795 179.861 96.2821H180.07C180.692 96.2821 181.288 96.5292 181.728 96.9689C182.168 97.4087 182.415 98.0052 182.415 98.6271C182.415 99.249 182.168 99.8455 181.728 100.285C181.288 100.725 180.692 100.972 180.07 100.972H153.134C152.512 100.972 151.916 100.725 151.476 100.285C151.036 99.8455 150.789 99.249 150.789 98.6271C150.789 98.0052 151.036 97.4087 151.476 96.9689C151.916 96.5292 152.512 96.2821 153.134 96.2821V96.2988Z" fill="#F5F5F5"/>
<path d="M52.1459 39.8479H57.2664C57.253 39.7244 57.2461 39.6002 57.2455 39.4759C57.251 38.5871 57.6079 37.7366 58.2384 37.1101C58.8688 36.4835 59.7215 36.1319 60.6104 36.1319H60.7316C60.9755 35.4788 61.4409 34.9321 62.0468 34.587C62.6526 34.242 63.3603 34.1206 64.0464 34.244C64.7326 34.3674 65.3536 34.7278 65.8013 35.2623C66.2489 35.7967 66.4947 36.4714 66.4958 37.1686C67.1984 37.2017 67.8637 37.4946 68.3626 37.9905C68.8615 38.4863 69.1585 39.1497 69.1961 39.8521H69.3298C69.7267 39.8521 70.1073 40.0098 70.388 40.2904C70.6686 40.5711 70.8263 40.9517 70.8263 41.3486C70.8263 41.7454 70.6686 42.1261 70.388 42.4067C70.1073 42.6873 69.7267 42.845 69.3298 42.845H52.1459C51.749 42.845 51.3683 42.6873 51.0877 42.4067C50.8071 42.1261 50.6494 41.7454 50.6494 41.3486C50.6494 40.9517 50.8071 40.5711 51.0877 40.2904C51.3683 40.0098 51.749 39.8521 52.1459 39.8521V39.8479Z" fill="#F5F5F5"/>
<path d="M83.7509 57.7969C84.6341 56.3798 85.8664 55.2133 87.3296 54.4091C88.7929 53.6048 90.4381 53.1897 92.1078 53.2036C93.7774 53.2174 95.4156 53.6597 96.8653 54.4881C98.315 55.3166 99.5277 56.5033 100.387 57.9348C101.165 57.7157 101.983 57.6799 102.776 57.8301C103.57 57.9804 104.318 58.3126 104.962 58.8007C105.605 59.2888 106.127 59.9194 106.486 60.6432C106.844 61.3669 107.031 62.1639 107.029 62.9717H109.788C110.463 62.9987 111.102 63.286 111.57 63.7734C112.039 64.2607 112.3 64.9104 112.3 65.5863C112.3 66.2622 112.039 66.9118 111.57 67.3992C111.102 67.8866 110.463 68.1739 109.788 68.2009H100.266C99.4787 69.4443 98.42 70.4934 97.1694 71.2695C95.9188 72.0456 94.5088 72.5286 93.045 72.6822C91.5812 72.8358 90.1016 72.6561 88.7172 72.1566C87.3327 71.657 86.0793 70.8505 85.0509 69.7976C84.8837 69.7976 84.7207 69.8227 84.5493 69.8227C83.0128 69.8283 81.532 69.2481 80.4082 68.2003C79.2845 67.1524 78.6023 65.7157 78.5006 64.1826C78.3988 62.6495 78.8852 61.1353 79.8606 59.9481C80.836 58.761 82.2272 57.9902 83.7509 57.7927V57.7969Z" fill="#F5F5F5"/>
<path d="M159.032 45.2987C159.491 44.5612 160.132 43.9541 160.893 43.5355C161.654 43.1168 162.51 42.9007 163.379 42.9078C164.247 42.915 165.099 43.1451 165.853 43.5762C166.608 44.0073 167.238 44.6249 167.685 45.3697C167.925 45.3042 168.172 45.2705 168.421 45.2694C169.142 45.2694 169.835 45.5561 170.345 46.0664C170.855 46.5767 171.142 47.2689 171.142 47.9906H172.576C172.936 47.9906 173.281 48.1337 173.536 48.3885C173.791 48.6432 173.934 48.9888 173.934 49.3491C173.934 49.7094 173.791 50.0549 173.536 50.3097C173.281 50.5644 172.936 50.7076 172.576 50.7076H167.618C167.21 51.3555 166.66 51.9024 166.01 52.3071C165.36 52.7119 164.626 52.964 163.865 53.0444C163.103 53.1249 162.333 53.0316 161.613 52.7717C160.892 52.5117 160.24 52.0918 159.705 51.5436C159.618 51.5436 159.534 51.5436 159.446 51.5436C158.629 51.5736 157.833 51.2842 157.226 50.7368C156.619 50.1894 156.249 49.427 156.194 48.6114C156.14 47.7958 156.406 46.9911 156.935 46.368C157.464 45.7448 158.215 45.3523 159.028 45.2736L159.032 45.2987Z" fill="#F5F5F5"/>
<path d="M104.5 178.72C149.261 178.72 185.546 176.602 185.546 173.988C185.546 171.375 149.261 169.257 104.5 169.257C59.7396 169.257 23.4541 171.375 23.4541 173.988C23.4541 176.602 59.7396 178.72 104.5 178.72Z" fill="#F5F5F5"/>
<path d="M112.533 161.816C112.533 161.816 119.497 155.688 117.411 154.652C115.325 153.615 112.788 159.283 112.533 158.414C112.278 157.544 113.896 149.782 110.025 150.321C106.155 150.86 110.025 158.414 110.025 158.414C110.025 158.414 107.162 155.316 106.159 155.801C105.156 156.286 109.206 161.799 109.206 161.799L112.533 161.816Z" fill="#407BFF"/>
<path d="M35.7222 159.216C35.7222 159.216 41.6244 154.016 39.8563 153.138C38.0881 152.261 35.948 157.064 35.7222 156.332C35.4965 155.601 36.8759 149.009 33.5988 149.468C30.3217 149.928 33.5988 156.332 33.5988 156.332C33.5988 156.332 31.1702 153.707 30.3175 154.117C29.4648 154.526 32.9049 159.208 32.9049 159.208L35.7222 159.216Z" fill="#407BFF"/>
<path d="M126.027 160.048C126.027 160.048 121.483 151.182 122.624 150.313C123.765 149.443 126.027 157.72 126.027 157.076C126.027 156.432 125.901 145.159 128 145.606C130.098 146.053 128 156.432 128 156.432C128 156.432 130.825 151.128 131.933 151.529C133.041 151.93 128.669 158.238 128.669 158.238C128.669 158.238 131.277 156.658 131.933 156.783C132.589 156.909 128.669 160.048 128.669 160.048H126.027Z" fill="#407BFF"/>
<path d="M46.3353 57.776C54.014 57.0487 54.4278 63.072 58.265 62.8756C62.1023 62.6791 66.0858 62.2695 67.5739 66.5498C69.062 70.8301 66.6417 71.6619 68.9282 75.3278C71.2147 78.9937 73.1082 81.4348 70.6295 84.7328C68.1507 88.0308 65.8266 87.525 64.3009 91.705C62.7752 95.885 57.5753 97.8496 54.1937 95.6719C50.8121 93.4941 49.3909 92.5243 46.9205 94.351C44.4501 96.1776 43.8649 98.6982 39.501 98.4557C35.1371 98.2133 35.6679 95.9226 31.977 93.5024C28.2861 91.0822 26.2922 91.2076 24.3109 86.9984C22.3296 82.7891 23.2826 79.2236 26.9485 76.2808C30.6143 73.3381 28.2401 67.9543 30.3761 64.7566C32.512 61.5589 35.4171 63.1556 38.9116 62.4283C42.4061 61.701 41.8293 58.2023 46.3353 57.776Z" fill="#407BFF"/>
<path opacity="0.7" d="M46.3353 57.776C54.014 57.0487 54.4278 63.072 58.265 62.8756C62.1023 62.6791 66.0858 62.2695 67.5739 66.5498C69.062 70.8301 66.6417 71.6619 68.9282 75.3278C71.2147 78.9937 73.1082 81.4348 70.6295 84.7328C68.1507 88.0308 65.8266 87.525 64.3009 91.705C62.7752 95.885 57.5753 97.8496 54.1937 95.6719C50.8121 93.4941 49.3909 92.5243 46.9205 94.351C44.4501 96.1776 43.8649 98.6982 39.501 98.4557C35.1371 98.2133 35.6679 95.9226 31.977 93.5024C28.2861 91.0822 26.2922 91.2076 24.3109 86.9984C22.3296 82.7891 23.2826 79.2236 26.9485 76.2808C30.6143 73.3381 28.2401 67.9543 30.3761 64.7566C32.512 61.5589 35.4171 63.1556 38.9116 62.4283C42.4061 61.701 41.8293 58.2023 46.3353 57.776Z" fill="#FAFAFA"/>
<path d="M46.6817 103.388C46.6817 98.6814 32.8584 83.4453 32.8584 83.4453L33.4687 82.0032L40.6457 89.6819L38.8734 76.8451L40.0355 75.7583L42.8068 90.9902C42.8068 90.9902 46.9032 95.2204 47.8228 97.2602C47.8228 97.2602 49.9128 91.2076 55.5433 84.2437L54.5693 75.1564L55.5433 74.2661L57.349 83.182L64.1081 76.8493L65.174 78.2371C65.174 78.2371 58.8664 84.5071 55.5349 88.1144C52.2034 91.7217 52.0571 95.6384 52.0571 100.115V159.622H46.6817V103.388Z" fill="#407BFF"/>
<path opacity="0.8" d="M46.6817 103.388C46.6817 98.6814 32.8584 83.4453 32.8584 83.4453L33.4687 82.0032L40.6457 89.6819L38.8734 76.8451L40.0355 75.7583L42.8068 90.9902C42.8068 90.9902 46.9032 95.2204 47.8228 97.2602C47.8228 97.2602 49.9128 91.2076 55.5433 84.2437L54.5693 75.1564L55.5433 74.2661L57.349 83.182L64.1081 76.8493L65.174 78.2371C65.174 78.2371 58.8664 84.5071 55.5349 88.1144C52.2034 91.7217 52.0571 95.6384 52.0571 100.115V159.622H46.6817V103.388Z" fill="white"/>
<path d="M40.8714 159.622C40.8129 158.915 40.909 158.004 41.7325 157.732C43.1244 157.273 43.952 156.194 43.9019 154.974C43.8517 153.753 45.3231 152.566 46.4099 153.72C47.4967 154.873 47.3629 152.838 48.8301 152.348C50.2973 151.859 51.5387 153.047 51.1375 154.138C50.7362 155.228 52.1825 155.91 53.9172 154.974C55.6519 154.037 57.5579 155.734 57.1901 157.064C56.8223 158.393 57.1232 158.531 58.2184 158.092C59.1045 157.736 60.555 158.481 60.7264 159.634L40.8714 159.622Z" fill="#407BFF"/>
<path opacity="0.6" d="M40.8714 159.622C40.8129 158.915 40.909 158.004 41.7325 157.732C43.1244 157.273 43.952 156.194 43.9019 154.974C43.8517 153.753 45.3231 152.566 46.4099 153.72C47.4967 154.873 47.3629 152.838 48.8301 152.348C50.2973 151.859 51.5387 153.047 51.1375 154.138C50.7362 155.228 52.1825 155.91 53.9172 154.974C55.6519 154.037 57.5579 155.734 57.1901 157.064C56.8223 158.393 57.1232 158.531 58.2184 158.092C59.1045 157.736 60.555 158.481 60.7264 159.634L40.8714 159.622Z" fill="#FAFAFA"/>
<path d="M98.5303 113.579L97.1844 117.458L90.7681 119.414L94.7098 158.547H80.5689C80.9074 154.693 82.5126 136.49 82.8386 131.156L76.3262 118.796H77.6262L77.8978 119.214C78.9015 120.815 80.1273 122.266 81.5386 123.523C82.0561 124.008 82.6301 124.429 83.2483 124.777C83.8585 123.055 84.9412 100.236 84.9412 100.236C84.9412 100.236 86.2787 103.493 90.4629 101.536L90.8433 116.112L95.0233 115.276L99.0654 107.238H100.687L99.2284 110.699L102.639 109.959L105.565 106.197L106.589 106.448L103.943 110.511L98.5303 113.579Z" fill="#407BFF"/>
<g opacity="0.8">
<path d="M98.5303 113.579L97.1844 117.458L90.7681 119.414L94.7098 158.547H80.5689C80.9074 154.693 82.5126 136.49 82.8386 131.156L76.3262 118.796H77.6262L77.8978 119.214C78.9015 120.815 80.1273 122.266 81.5386 123.523C82.0561 124.008 82.6301 124.429 83.2483 124.777C83.8585 123.055 84.9412 100.236 84.9412 100.236C84.9412 100.236 86.2787 103.493 90.4629 101.536L90.8433 116.112L95.0233 115.276L99.0654 107.238H100.687L99.2284 110.699L102.639 109.959L105.565 106.197L106.589 106.448L103.943 110.511L98.5303 113.579Z" fill="white"/>
</g>
<path d="M66.7498 92.5452C65.715 92.9492 64.8289 93.6606 64.2108 94.5836C63.5928 95.5066 63.2724 96.5969 63.2929 97.7075C63.3533 98.8172 63.7237 99.8876 64.3622 100.797C65.0006 101.707 65.8814 102.419 66.9044 102.853C67.9384 103.259 69.0588 103.396 70.1601 103.25C71.2614 103.103 72.3074 102.679 73.1995 102.017C73.2915 104.145 74.7461 106.456 76.7734 107.1C77.7968 107.404 78.8875 107.395 79.9061 107.076C80.9247 106.756 81.8249 106.14 82.4917 105.307C87.9549 108.739 107.087 110.013 110.452 95.3918C111.146 92.3738 109.465 89.1761 106.999 87.2993C104.533 85.4225 101.398 84.6534 98.3255 84.2772C95.3995 79.629 88.9372 77.0917 83.499 77.8191C80.7756 78.2257 78.2205 79.3874 76.1237 81.1724C74.027 82.9574 72.4723 85.2943 71.6362 87.9179C66.0893 87.9347 66.6662 92.913 66.7498 92.5452Z" fill="#407BFF"/>
<path d="M73.501 121.308C73.8133 121.768 74.2504 122.13 74.7609 122.35C75.2714 122.571 75.8343 122.642 76.3835 122.554C76.9327 122.466 77.4455 122.224 77.8619 121.855C78.2782 121.486 78.5809 121.006 78.7343 120.472C80.0301 121.383 82.0324 121.157 83.3323 120.271C83.9923 119.825 84.5013 119.189 84.7919 118.447C85.0825 117.706 85.1411 116.893 84.9598 116.117C84.7786 115.342 84.3661 114.639 83.7769 114.103C83.1877 113.567 82.4497 113.222 81.6603 113.115C81.5961 112.389 81.3635 111.688 80.9811 111.068C80.5988 110.447 80.0771 109.925 79.4575 109.541C78.8099 109.143 78.0814 108.895 77.3256 108.816C76.5697 108.736 75.8056 108.827 75.0894 109.081C74.2521 108.941 73.3934 109.003 72.5849 109.262C71.7764 109.521 71.0415 109.969 70.4412 110.569C69.9898 110.984 69.6341 111.492 69.3988 112.058C69.1635 112.624 69.0542 113.234 69.0785 113.846C69.1234 114.458 69.3595 115.04 69.7533 115.511C70.1471 115.981 70.6787 116.316 71.273 116.467C71.0582 116.909 70.9362 117.389 70.9146 117.88C70.893 118.37 70.9724 118.86 71.1476 119.318C71.5197 120.246 72.5688 120.961 73.501 121.308Z" fill="#407BFF"/>
<g opacity="0.6">
<path d="M66.7498 92.5452C65.715 92.9492 64.8289 93.6606 64.2108 94.5836C63.5928 95.5066 63.2724 96.5969 63.2929 97.7075C63.3533 98.8172 63.7237 99.8876 64.3622 100.797C65.0006 101.707 65.8814 102.419 66.9044 102.853C67.9384 103.259 69.0588 103.396 70.1601 103.25C71.2614 103.103 72.3074 102.679 73.1995 102.017C73.2915 104.145 74.7461 106.456 76.7734 107.1C77.7968 107.404 78.8875 107.395 79.9061 107.076C80.9247 106.756 81.8249 106.14 82.4917 105.307C87.9549 108.739 107.087 110.013 110.452 95.3918C111.146 92.3738 109.465 89.1761 106.999 87.2993C104.533 85.4225 101.398 84.6534 98.3255 84.2772C95.3995 79.629 88.9372 77.0917 83.499 77.8191C80.7756 78.2257 78.2205 79.3874 76.1237 81.1724C74.027 82.9574 72.4723 85.2943 71.6362 87.9179C66.0893 87.9347 66.6662 92.913 66.7498 92.5452Z" fill="#FAFAFA"/>
</g>
<path opacity="0.7" d="M73.501 121.308C73.8133 121.768 74.2504 122.13 74.7609 122.35C75.2714 122.571 75.8343 122.642 76.3835 122.554C76.9327 122.466 77.4455 122.224 77.8619 121.855C78.2782 121.486 78.5809 121.006 78.7343 120.472C80.0301 121.383 82.0324 121.157 83.3323 120.271C83.9923 119.825 84.5013 119.189 84.7919 118.447C85.0825 117.706 85.1411 116.893 84.9598 116.117C84.7786 115.342 84.3661 114.639 83.7769 114.103C83.1877 113.567 82.4497 113.222 81.6603 113.115C81.5961 112.389 81.3635 111.688 80.9811 111.068C80.5988 110.447 80.0771 109.925 79.4575 109.541C78.8099 109.143 78.0814 108.895 77.3256 108.816C76.5697 108.736 75.8056 108.827 75.0894 109.081C74.2521 108.941 73.3934 109.003 72.5849 109.262C71.7764 109.521 71.0415 109.969 70.4412 110.569C69.9898 110.984 69.6341 111.492 69.3988 112.058C69.1635 112.624 69.0542 113.234 69.0785 113.846C69.1234 114.458 69.3595 115.04 69.7533 115.511C70.1471 115.981 70.6787 116.316 71.273 116.467C71.0582 116.909 70.9362 117.389 70.9146 117.88C70.893 118.37 70.9724 118.86 71.1476 119.318C71.5197 120.246 72.5688 120.961 73.501 121.308Z" fill="#FAFAFA"/>
<path d="M101.047 99.1998C100.522 99.0187 99.9558 98.9909 99.4152 99.1198C98.8747 99.2486 98.3821 99.5287 97.9949 99.9273C97.6077 100.326 97.342 100.826 97.2289 101.37C97.1158 101.915 97.16 102.48 97.3562 102.999C95.772 103.05 94.309 104.433 93.7907 105.925C93.5321 106.68 93.5089 107.495 93.7241 108.262C93.9393 109.03 94.3827 109.714 94.9956 110.224C95.6085 110.734 96.3619 111.046 97.156 111.118C97.9501 111.19 98.7473 111.019 99.442 110.628C99.9287 111.171 100.536 111.592 101.214 111.859C101.893 112.125 102.624 112.229 103.35 112.162C104.105 112.089 104.835 111.849 105.485 111.46C106.136 111.07 106.692 110.54 107.112 109.909C107.865 109.517 108.514 108.951 109.004 108.258C109.494 107.566 109.811 106.766 109.93 105.925C110.042 105.323 110.022 104.704 109.871 104.11C109.719 103.517 109.44 102.964 109.052 102.489C108.648 102.023 108.107 101.697 107.507 101.556C106.906 101.416 106.276 101.469 105.708 101.708C105.614 101.226 105.423 100.769 105.146 100.365C104.87 99.96 104.513 99.6162 104.099 99.3544C103.267 98.8612 101.992 98.9197 101.047 99.1998Z" fill="#407BFF"/>
<path opacity="0.7" d="M101.047 99.1998C100.522 99.0187 99.9558 98.9909 99.4152 99.1198C98.8747 99.2486 98.3821 99.5287 97.9949 99.9273C97.6077 100.326 97.342 100.826 97.2289 101.37C97.1158 101.915 97.16 102.48 97.3562 102.999C95.772 103.05 94.309 104.433 93.7907 105.925C93.5321 106.68 93.5089 107.495 93.7241 108.262C93.9393 109.03 94.3827 109.714 94.9956 110.224C95.6085 110.734 96.3619 111.046 97.156 111.118C97.9501 111.19 98.7473 111.019 99.442 110.628C99.9287 111.171 100.536 111.592 101.214 111.859C101.893 112.125 102.624 112.229 103.35 112.162C104.105 112.089 104.835 111.849 105.485 111.46C106.136 111.07 106.692 110.54 107.112 109.909C107.865 109.517 108.514 108.951 109.004 108.258C109.494 107.566 109.811 106.766 109.93 105.925C110.042 105.323 110.022 104.704 109.871 104.11C109.719 103.517 109.44 102.964 109.052 102.489C108.648 102.023 108.107 101.697 107.507 101.556C106.906 101.416 106.276 101.469 105.708 101.708C105.614 101.226 105.423 100.769 105.146 100.365C104.87 99.96 104.513 99.6162 104.099 99.3544C103.267 98.8612 101.992 98.9197 101.047 99.1998Z" fill="#FAFAFA"/>
<path d="M102.055 160.148C103.568 159.12 102.205 157.373 100.692 157.168C99.1789 156.963 97.649 155.153 97.5779 154.004C97.5069 152.854 94.7773 149.31 90.5346 151.496C86.2919 153.682 87.5835 151.818 84.5112 151.203C81.4389 150.589 79.4952 152.357 80.8537 153.686C80.8537 153.686 77.7689 153.159 76.4982 155.111C75.2274 157.063 76.4982 158.28 76.4982 158.28C76.4982 158.28 70.6963 158.163 71.2188 160.596C71.7413 163.028 102.055 160.148 102.055 160.148Z" fill="#407BFF"/>
<path opacity="0.6" d="M102.055 160.148C103.568 159.12 102.205 157.373 100.692 157.168C99.1789 156.963 97.649 155.153 97.5779 154.004C97.5069 152.854 94.7773 149.31 90.5346 151.496C86.2919 153.682 87.5835 151.818 84.5112 151.203C81.4389 150.589 79.4952 152.357 80.8537 153.686C80.8537 153.686 77.7689 153.159 76.4982 155.111C75.2274 157.063 76.4982 158.28 76.4982 158.28C76.4982 158.28 70.6963 158.163 71.2188 160.596C71.7413 163.028 102.055 160.148 102.055 160.148Z" fill="#FAFAFA"/>
<path d="M137.267 160.408C137.204 159.634 137.309 158.631 138.216 158.318C139.745 157.812 140.657 156.625 140.602 155.283C140.548 153.941 142.166 152.633 143.378 153.891C144.59 155.149 144.423 152.925 146.036 152.382C147.65 151.839 149.017 153.155 148.578 154.355C148.139 155.555 149.727 156.303 151.633 155.283C153.539 154.263 155.634 156.119 155.232 157.569C154.831 159.02 155.161 159.183 156.365 158.698C157.339 158.305 158.936 159.116 159.111 160.391L137.267 160.408Z" fill="#407BFF"/>
<path opacity="0.6" d="M137.267 160.408C137.204 159.634 137.309 158.631 138.216 158.318C139.745 157.812 140.657 156.625 140.602 155.283C140.548 153.941 142.166 152.633 143.378 153.891C144.59 155.149 144.423 152.925 146.036 152.382C147.65 151.839 149.017 153.155 148.578 154.355C148.139 155.555 149.727 156.303 151.633 155.283C153.539 154.263 155.634 156.119 155.232 157.569C154.831 159.02 155.161 159.183 156.365 158.698C157.339 158.305 158.936 159.116 159.111 160.391L137.267 160.408Z" fill="#FAFAFA"/>
<path d="M182.708 79.3322C182.14 78.9496 181.47 78.7458 180.785 78.747C180.392 78.2203 180.785 77.493 181.203 76.9705C181.621 76.448 182.156 75.9046 182.039 75.2567C181.855 74.2786 180.505 74.1783 179.531 74.3204C179.201 73.7185 179.243 72.987 179.113 72.3182C178.983 71.6494 178.478 70.9221 177.792 70.9722C177.107 71.0224 176.718 71.7246 176.082 71.8417C175.343 71.9796 174.741 71.3025 174.189 70.7883C174.121 70.7243 174.048 70.6656 173.972 70.6127C174.189 68.6147 176.087 69.0243 177.734 68.8321C179.013 68.6816 175.802 65.3083 178.415 64.3971C178.921 64.2843 179.372 64.001 179.694 63.5945C179.84 63.2859 179.872 62.936 179.786 62.6059C179.699 62.2758 179.5 61.9866 179.222 61.7888C178.653 61.4086 177.983 61.2063 177.299 61.2077C176.906 60.6769 177.299 59.9287 177.717 59.4312C178.135 58.9338 178.674 58.3653 178.553 57.7174C178.369 56.7393 177.019 56.639 176.045 56.7769C175.71 56.175 175.756 55.4477 175.627 54.7747C175.497 54.1017 174.991 53.3786 174.306 53.4288C173.62 53.4789 173.232 54.1853 172.596 54.3024C171.856 54.4361 171.255 53.759 170.707 53.249C170.159 52.7391 169.169 52.3838 168.742 53.0024C168.487 53.3744 168.604 53.9136 168.324 54.2564C167.869 54.8918 166.878 54.4361 166.272 53.9429C165.666 53.4497 164.692 52.9815 164.22 53.6043C164.097 53.809 164.004 54.03 163.944 54.2606C163.876 54.4244 163.783 54.5767 163.668 54.712C163.568 54.2564 163.555 53.7757 163.455 53.3159C163.313 52.6429 162.819 51.9198 162.134 51.9699C161.448 52.0201 161.06 52.7223 160.424 52.8394C159.684 52.9773 159.082 52.3002 158.535 51.7902C157.987 51.2802 156.997 50.9249 156.57 51.5436C156.315 51.9156 156.432 52.4548 156.152 52.8185C156.096 52.8998 156.024 52.9682 155.939 53.0191C155.726 52.9815 155.521 52.9606 155.291 52.9439C154.898 52.4172 155.291 51.6899 155.709 51.1674C156.127 50.6449 156.666 50.1015 156.545 49.4536C156.361 48.4755 155.011 48.3751 154.037 48.5173C153.703 47.9153 153.745 47.1838 153.619 46.5109C153.494 45.8379 152.984 45.1189 152.298 45.1691C151.613 45.2192 151.224 45.9215 150.589 46.0385C149.849 46.1765 149.247 45.4993 148.699 44.9852C148.152 44.471 147.161 44.1199 146.735 44.7427C146.48 45.1106 146.597 45.654 146.317 45.9967C145.861 46.6279 144.87 46.1723 144.264 45.679C143.658 45.1858 142.684 44.7218 142.212 45.3405C142.09 45.547 141.997 45.7692 141.936 46.0009C141.597 46.8369 140.653 47.2215 139.905 47.7356C139.156 48.2497 138.533 49.3156 139.11 50.0137C139.395 50.3606 139.917 50.5195 140.047 50.9458C140.21 51.4809 139.629 51.9281 139.211 52.2709C138.667 52.6889 138.408 53.7799 138.68 54.5406C138.458 54.7264 138.199 54.8606 137.919 54.9336C137.179 55.0715 136.577 54.3943 136.026 53.8802C135.474 53.3661 134.487 53.0191 134.061 53.6378C133.806 54.0098 133.923 54.549 133.643 54.9127C133.187 55.5438 132.197 55.0924 131.591 54.5992C130.984 54.1059 130.006 53.6378 129.534 54.2564C129.416 54.4647 129.323 54.6864 129.258 54.9168C128.92 55.7528 127.975 56.1374 127.227 56.6515C126.478 57.1657 125.856 58.2316 126.432 58.9296C126.708 59.264 127.197 59.4229 127.352 59.8158C126.855 59.5943 126.307 59.5608 126.014 59.983C125.722 60.4052 125.876 60.8942 125.596 61.237C125.137 61.8682 124.146 61.4126 123.544 60.9193C122.942 60.4261 121.96 59.9621 121.487 60.5807C121.366 60.7873 121.273 61.0095 121.212 61.2412C120.873 62.0772 119.928 62.4617 119.18 62.9759C118.432 63.49 117.809 64.5559 118.386 65.254C118.67 65.6009 119.193 65.7598 119.322 66.1861C119.485 66.7212 118.925 67.1684 118.486 67.5112C117.746 68.0797 117.529 69.8729 118.444 70.4121C118.825 70.6378 119.402 70.7298 119.477 71.1687C119.552 71.6076 119.134 71.8417 118.858 72.1301C118.682 72.333 118.552 72.5716 118.477 72.8296C118.402 73.0876 118.383 73.3588 118.423 73.6246C118.463 73.8903 118.56 74.1443 118.707 74.3691C118.854 74.5938 119.048 74.784 119.276 74.9265C119.498 75.0477 119.769 75.148 119.841 75.3863C119.868 75.5645 119.84 75.7468 119.761 75.9088C119.655 76.2307 119.608 76.5692 119.623 76.9078C119.615 77.0246 119.653 77.1398 119.728 77.2297C119.814 77.293 119.918 77.3267 120.024 77.3258C121.37 77.4512 122.048 77.004 122.817 78.2203C122.881 78.3437 122.973 78.4508 123.084 78.5338C123.197 78.5987 123.323 78.6373 123.452 78.6467C124.376 78.7679 125.011 78.2287 125.868 78.1493C127.055 78.0573 127.273 78.676 128.288 79.2152C129.885 80.0512 130.7 79.6332 131.06 78.5297C131.157 78.2182 131.221 77.8974 131.252 77.5724C131.26 77.3302 131.321 77.0925 131.43 76.876C131.539 76.6595 131.693 76.4692 131.883 76.3184H131.912C132.773 76.4313 133.388 75.9673 134.157 75.8461C134.32 75.8461 134.479 75.8461 134.642 75.821C135.557 75.8545 135.833 76.402 136.732 76.8869C137.153 77.1345 137.624 77.2858 138.111 77.33C138.22 77.84 137.693 78.2705 137.275 78.584C136.54 79.1525 136.322 80.9457 137.238 81.4849C137.618 81.7106 138.195 81.8026 138.27 82.2415C138.345 82.6804 137.927 82.9145 137.652 83.2029C137.475 83.4058 137.345 83.6445 137.27 83.9025C137.195 84.1604 137.177 84.4316 137.216 84.6974C137.256 84.9631 137.353 85.2171 137.5 85.4419C137.648 85.6666 137.842 85.8568 138.07 85.9993C138.291 86.1205 138.563 86.2209 138.634 86.4591C138.661 86.6373 138.633 86.8196 138.554 86.9816C138.446 87.303 138.399 87.6419 138.416 87.9806C138.409 88.0974 138.446 88.2126 138.521 88.3025C138.605 88.3658 138.708 88.3996 138.814 88.3986C140.164 88.524 140.841 88.0768 141.61 89.2932C141.674 89.4165 141.766 89.5236 141.878 89.6067C141.99 89.6715 142.116 89.7101 142.245 89.7195C143.169 89.8407 143.804 89.3015 144.661 89.2221C145.848 89.1301 146.066 89.7488 147.082 90.288C148.678 91.124 149.493 90.706 149.853 89.6025C149.95 89.291 150.015 88.9702 150.045 88.6453C150.263 86.6472 152.16 87.0569 153.807 86.8646C153.864 86.8626 153.92 86.8458 153.968 86.8157C154.016 86.7856 154.056 86.7434 154.083 86.6932H154.183C155.107 86.8186 155.743 86.2752 156.599 86.2C157.787 86.108 158.004 86.7266 159.02 87.2659C160.616 88.1019 161.432 87.6839 161.791 86.5803C161.889 86.2675 161.953 85.9453 161.983 85.6189C162.155 84.0682 163.338 83.9678 164.629 83.9135C164.635 84.2174 164.718 84.5148 164.871 84.7775C165.024 85.0402 165.241 85.2593 165.503 85.4141C165.72 85.5353 165.992 85.6357 166.067 85.8739C166.092 86.0521 166.065 86.2338 165.988 86.3964C165.88 86.7181 165.832 87.0566 165.846 87.3954C165.836 87.4525 165.841 87.5109 165.858 87.5659C165.876 87.6209 165.906 87.6709 165.947 87.7118C165.988 87.7526 166.038 87.7832 166.093 87.8009C166.148 87.8185 166.207 87.8229 166.264 87.8134C167.614 87.9388 168.287 87.4916 169.056 88.7121C169.122 88.8333 169.213 88.9388 169.323 89.0215C169.436 89.0858 169.562 89.1244 169.691 89.1343C170.619 89.2555 171.255 88.7163 172.111 88.6369C173.294 88.5449 173.516 89.1636 174.532 89.7028C176.128 90.5388 176.944 90.1208 177.303 89.0173C177.4 88.7058 177.465 88.385 177.495 88.0601C177.713 86.062 179.61 86.4717 181.257 86.2794C182.541 86.1289 179.33 82.7515 181.943 81.8402C182.45 81.7298 182.902 81.4459 183.222 81.0377C183.337 80.7366 183.349 80.4057 183.256 80.097C183.163 79.7884 182.97 79.5193 182.708 79.3322Z" fill="#407BFF"/>
<path d="M133.964 97.0429C133.516 96.7439 132.99 96.5839 132.451 96.5831C132.138 96.1651 132.451 95.5799 132.777 95.187C133.103 94.794 133.526 94.351 133.429 93.8368C133.283 93.0677 132.221 93.0008 131.448 93.097C131.185 92.6246 131.218 92.0478 131.105 91.5211C130.993 90.9944 130.604 90.4218 130.065 90.4594C129.525 90.497 129.229 91.0529 128.719 91.1449C128.138 91.2536 127.665 90.7269 127.231 90.3089C126.796 89.8909 126.018 89.6275 125.684 90.1166C125.483 90.4092 125.575 90.8356 125.366 91.1198C125.007 91.6172 124.225 91.2619 123.753 90.8732C123.28 90.4844 122.499 90.1166 122.131 90.6057C122.036 90.7684 121.963 90.9426 121.914 91.124C121.65 91.7844 120.902 92.0854 120.317 92.4909C119.732 92.8963 119.234 93.7448 119.69 94.2841C119.916 94.5558 120.325 94.6812 120.43 95.0198C120.555 95.4378 120.112 95.793 119.765 96.0606C119.184 96.5078 119.013 97.9207 119.732 98.347C120.033 98.5226 120.484 98.5978 120.547 98.9406C120.609 99.2833 120.275 99.4714 120.058 99.6972C119.92 99.858 119.818 100.047 119.76 100.251C119.702 100.454 119.689 100.668 119.722 100.877C119.754 101.087 119.832 101.287 119.949 101.463C120.066 101.64 120.22 101.789 120.4 101.9C120.576 101.996 120.789 102.076 120.848 102.264C120.868 102.406 120.846 102.551 120.785 102.682C120.7 102.935 120.661 103.201 120.672 103.468C120.665 103.511 120.669 103.556 120.682 103.598C120.696 103.641 120.719 103.679 120.749 103.711C120.78 103.743 120.818 103.768 120.859 103.783C120.901 103.798 120.946 103.803 120.99 103.798C122.051 103.898 122.582 103.547 123.188 104.504C123.241 104.6 123.312 104.684 123.397 104.751C123.488 104.801 123.587 104.831 123.69 104.839C124.417 104.935 124.919 104.5 125.592 104.446C126.524 104.375 126.7 104.864 127.498 105.282C128.752 105.95 129.396 105.608 129.68 104.742C129.755 104.496 129.807 104.242 129.835 103.986C130.002 102.414 131.507 102.732 132.79 102.586C133.797 102.464 131.268 99.81 133.329 99.0911C133.727 99.002 134.083 98.7792 134.337 98.4599C134.449 98.2173 134.473 97.9431 134.405 97.6844C134.338 97.4258 134.182 97.1989 133.964 97.0429Z" fill="#407BFF"/>
<g opacity="0.7">
<path d="M182.708 79.3322C182.14 78.9496 181.47 78.7458 180.785 78.747C180.392 78.2203 180.785 77.493 181.203 76.9705C181.621 76.448 182.156 75.9046 182.039 75.2567C181.855 74.2786 180.505 74.1783 179.531 74.3204C179.201 73.7185 179.243 72.987 179.113 72.3182C178.983 71.6494 178.478 70.9221 177.792 70.9722C177.107 71.0224 176.718 71.7246 176.082 71.8417C175.343 71.9796 174.741 71.3025 174.189 70.7883C174.121 70.7243 174.048 70.6656 173.972 70.6127C174.189 68.6147 176.087 69.0243 177.734 68.8321C179.013 68.6816 175.802 65.3083 178.415 64.3971C178.921 64.2843 179.372 64.001 179.694 63.5945C179.84 63.2859 179.872 62.936 179.786 62.6059C179.699 62.2758 179.5 61.9866 179.222 61.7888C178.653 61.4086 177.983 61.2063 177.299 61.2077C176.906 60.6769 177.299 59.9287 177.717 59.4312C178.135 58.9338 178.674 58.3653 178.553 57.7174C178.369 56.7393 177.019 56.639 176.045 56.7769C175.71 56.175 175.756 55.4477 175.627 54.7747C175.497 54.1017 174.991 53.3786 174.306 53.4288C173.62 53.4789 173.232 54.1853 172.596 54.3024C171.856 54.4361 171.255 53.759 170.707 53.249C170.159 52.7391 169.169 52.3838 168.742 53.0024C168.487 53.3744 168.604 53.9136 168.324 54.2564C167.869 54.8918 166.878 54.4361 166.272 53.9429C165.666 53.4497 164.692 52.9815 164.22 53.6043C164.097 53.809 164.004 54.03 163.944 54.2606C163.876 54.4244 163.783 54.5767 163.668 54.712C163.568 54.2564 163.555 53.7757 163.455 53.3159C163.313 52.6429 162.819 51.9198 162.134 51.9699C161.448 52.0201 161.06 52.7223 160.424 52.8394C159.684 52.9773 159.082 52.3002 158.535 51.7902C157.987 51.2802 156.997 50.9249 156.57 51.5436C156.315 51.9156 156.432 52.4548 156.152 52.8185C156.096 52.8998 156.024 52.9682 155.939 53.0191C155.726 52.9815 155.521 52.9606 155.291 52.9439C154.898 52.4172 155.291 51.6899 155.709 51.1674C156.127 50.6449 156.666 50.1015 156.545 49.4536C156.361 48.4755 155.011 48.3751 154.037 48.5173C153.703 47.9153 153.745 47.1838 153.619 46.5109C153.494 45.8379 152.984 45.1189 152.298 45.1691C151.613 45.2192 151.224 45.9215 150.589 46.0385C149.849 46.1765 149.247 45.4993 148.699 44.9852C148.152 44.471 147.161 44.1199 146.735 44.7427C146.48 45.1106 146.597 45.654 146.317 45.9967C145.861 46.6279 144.87 46.1723 144.264 45.679C143.658 45.1858 142.684 44.7218 142.212 45.3405C142.09 45.547 141.997 45.7692 141.936 46.0009C141.597 46.8369 140.653 47.2215 139.905 47.7356C139.156 48.2497 138.533 49.3156 139.11 50.0137C139.395 50.3606 139.917 50.5195 140.047 50.9458C140.21 51.4809 139.629 51.9281 139.211 52.2709C138.667 52.6889 138.408 53.7799 138.68 54.5406C138.458 54.7264 138.199 54.8606 137.919 54.9336C137.179 55.0715 136.577 54.3943 136.026 53.8802C135.474 53.3661 134.487 53.0191 134.061 53.6378C133.806 54.0098 133.923 54.549 133.643 54.9127C133.187 55.5438 132.197 55.0924 131.591 54.5992C130.984 54.1059 130.006 53.6378 129.534 54.2564C129.416 54.4647 129.323 54.6864 129.258 54.9168C128.92 55.7528 127.975 56.1374 127.227 56.6515C126.478 57.1657 125.856 58.2316 126.432 58.9296C126.708 59.264 127.197 59.4229 127.352 59.8158C126.855 59.5943 126.307 59.5608 126.014 59.983C125.722 60.4052 125.876 60.8942 125.596 61.237C125.137 61.8682 124.146 61.4126 123.544 60.9193C122.942 60.4261 121.96 59.9621 121.487 60.5807C121.366 60.7873 121.273 61.0095 121.212 61.2412C120.873 62.0772 119.928 62.4617 119.18 62.9759C118.432 63.49 117.809 64.5559 118.386 65.254C118.67 65.6009 119.193 65.7598 119.322 66.1861C119.485 66.7212 118.925 67.1684 118.486 67.5112C117.746 68.0797 117.529 69.8729 118.444 70.4121C118.825 70.6378 119.402 70.7298 119.477 71.1687C119.552 71.6076 119.134 71.8417 118.858 72.1301C118.682 72.333 118.552 72.5716 118.477 72.8296C118.402 73.0876 118.383 73.3588 118.423 73.6246C118.463 73.8903 118.56 74.1443 118.707 74.3691C118.854 74.5938 119.048 74.784 119.276 74.9265C119.498 75.0477 119.769 75.148 119.841 75.3863C119.868 75.5645 119.84 75.7468 119.761 75.9088C119.655 76.2307 119.608 76.5692 119.623 76.9078C119.615 77.0246 119.653 77.1398 119.728 77.2297C119.814 77.293 119.918 77.3267 120.024 77.3258C121.37 77.4512 122.048 77.004 122.817 78.2203C122.881 78.3437 122.973 78.4508 123.084 78.5338C123.197 78.5987 123.323 78.6373 123.452 78.6467C124.376 78.7679 125.011 78.2287 125.868 78.1493C127.055 78.0573 127.273 78.676 128.288 79.2152C129.885 80.0512 130.7 79.6332 131.06 78.5297C131.157 78.2182 131.221 77.8974 131.252 77.5724C131.26 77.3302 131.321 77.0925 131.43 76.876C131.539 76.6595 131.693 76.4692 131.883 76.3184H131.912C132.773 76.4313 133.388 75.9673 134.157 75.8461C134.32 75.8461 134.479 75.8461 134.642 75.821C135.557 75.8545 135.833 76.402 136.732 76.8869C137.153 77.1345 137.624 77.2858 138.111 77.33C138.22 77.84 137.693 78.2705 137.275 78.584C136.54 79.1525 136.322 80.9457 137.238 81.4849C137.618 81.7106 138.195 81.8026 138.27 82.2415C138.345 82.6804 137.927 82.9145 137.652 83.2029C137.475 83.4058 137.345 83.6445 137.27 83.9025C137.195 84.1604 137.177 84.4316 137.216 84.6974C137.256 84.9631 137.353 85.2171 137.5 85.4419C137.648 85.6666 137.842 85.8568 138.07 85.9993C138.291 86.1205 138.563 86.2209 138.634 86.4591C138.661 86.6373 138.633 86.8196 138.554 86.9816C138.446 87.303 138.399 87.6419 138.416 87.9806C138.409 88.0974 138.446 88.2126 138.521 88.3025C138.605 88.3658 138.708 88.3996 138.814 88.3986C140.164 88.524 140.841 88.0768 141.61 89.2932C141.674 89.4165 141.766 89.5236 141.878 89.6067C141.99 89.6715 142.116 89.7101 142.245 89.7195C143.169 89.8407 143.804 89.3015 144.661 89.2221C145.848 89.1301 146.066 89.7488 147.082 90.288C148.678 91.124 149.493 90.706 149.853 89.6025C149.95 89.291 150.015 88.9702 150.045 88.6453C150.263 86.6472 152.16 87.0569 153.807 86.8646C153.864 86.8626 153.92 86.8458 153.968 86.8157C154.016 86.7856 154.056 86.7434 154.083 86.6932H154.183C155.107 86.8186 155.743 86.2752 156.599 86.2C157.787 86.108 158.004 86.7266 159.02 87.2659C160.616 88.1019 161.432 87.6839 161.791 86.5803C161.889 86.2675 161.953 85.9453 161.983 85.6189C162.155 84.0682 163.338 83.9678 164.629 83.9135C164.635 84.2174 164.718 84.5148 164.871 84.7775C165.024 85.0402 165.241 85.2593 165.503 85.4141C165.72 85.5353 165.992 85.6357 166.067 85.8739C166.092 86.0521 166.065 86.2338 165.988 86.3964C165.88 86.7181 165.832 87.0566 165.846 87.3954C165.836 87.4525 165.841 87.5109 165.858 87.5659C165.876 87.6209 165.906 87.6709 165.947 87.7118C165.988 87.7526 166.038 87.7832 166.093 87.8009C166.148 87.8185 166.207 87.8229 166.264 87.8134C167.614 87.9388 168.287 87.4916 169.056 88.7121C169.122 88.8333 169.213 88.9388 169.323 89.0215C169.436 89.0858 169.562 89.1244 169.691 89.1343C170.619 89.2555 171.255 88.7163 172.111 88.6369C173.294 88.5449 173.516 89.1636 174.532 89.7028C176.128 90.5388 176.944 90.1208 177.303 89.0173C177.4 88.7058 177.465 88.385 177.495 88.0601C177.713 86.062 179.61 86.4717 181.257 86.2794C182.541 86.1289 179.33 82.7515 181.943 81.8402C182.45 81.7298 182.902 81.4459 183.222 81.0377C183.337 80.7366 183.349 80.4057 183.256 80.097C183.163 79.7884 182.97 79.5193 182.708 79.3322Z" fill="#FAFAFA"/>
<path d="M133.964 97.0429C133.516 96.7439 132.99 96.5839 132.451 96.5831C132.138 96.1651 132.451 95.5799 132.777 95.187C133.103 94.794 133.526 94.351 133.429 93.8368C133.283 93.0677 132.221 93.0008 131.448 93.097C131.185 92.6246 131.218 92.0478 131.105 91.5211C130.993 90.9944 130.604 90.4218 130.065 90.4594C129.525 90.497 129.229 91.0529 128.719 91.1449C128.138 91.2536 127.665 90.7269 127.231 90.3089C126.796 89.8909 126.018 89.6275 125.684 90.1166C125.483 90.4092 125.575 90.8356 125.366 91.1198C125.007 91.6172 124.225 91.2619 123.753 90.8732C123.28 90.4844 122.499 90.1166 122.131 90.6057C122.036 90.7684 121.963 90.9426 121.914 91.124C121.65 91.7844 120.902 92.0854 120.317 92.4909C119.732 92.8963 119.234 93.7448 119.69 94.2841C119.916 94.5558 120.325 94.6812 120.43 95.0198C120.555 95.4378 120.112 95.793 119.765 96.0606C119.184 96.5078 119.013 97.9207 119.732 98.347C120.033 98.5226 120.484 98.5978 120.547 98.9406C120.609 99.2833 120.275 99.4714 120.058 99.6972C119.92 99.858 119.818 100.047 119.76 100.251C119.702 100.454 119.689 100.668 119.722 100.877C119.754 101.087 119.832 101.287 119.949 101.463C120.066 101.64 120.22 101.789 120.4 101.9C120.576 101.996 120.789 102.076 120.848 102.264C120.868 102.406 120.846 102.551 120.785 102.682C120.7 102.935 120.661 103.201 120.672 103.468C120.665 103.511 120.669 103.556 120.682 103.598C120.696 103.641 120.719 103.679 120.749 103.711C120.78 103.743 120.818 103.768 120.859 103.783C120.901 103.798 120.946 103.803 120.99 103.798C122.051 103.898 122.582 103.547 123.188 104.504C123.241 104.6 123.312 104.684 123.397 104.751C123.488 104.801 123.587 104.831 123.69 104.839C124.417 104.935 124.919 104.5 125.592 104.446C126.524 104.375 126.7 104.864 127.498 105.282C128.752 105.95 129.396 105.608 129.68 104.742C129.755 104.496 129.807 104.242 129.835 103.986C130.002 102.414 131.507 102.732 132.79 102.586C133.797 102.464 131.268 99.81 133.329 99.0911C133.727 99.002 134.083 98.7792 134.337 98.4599C134.449 98.2173 134.473 97.9431 134.405 97.6844C134.338 97.4258 134.182 97.1989 133.964 97.0429Z" fill="#FAFAFA"/>
</g>
<path d="M162.748 87.5877L165.172 81.0377L169.511 75.984L168.838 75.3654L164.783 79.3824L164.42 72.6944L162.89 72.6233C162.89 72.6233 164.562 80.3229 163.078 83.1569C163.078 83.1569 156.992 95.3542 153.945 97.8496C153.772 97.9934 153.619 98.1592 153.489 98.3429C152.725 96.0581 151.692 93.872 150.413 91.8304C151.704 88.9379 154.488 82.5717 155.495 79.165C156.286 76.5043 156.913 73.7975 157.372 71.06L156.256 70.3787C156.256 70.3787 153.092 83.5707 148.314 89.1887C147.046 87.9073 145.59 86.8263 143.996 85.9826C143.72 84.1685 143.716 81.0335 145.146 76.2056L144.31 75.3445C144.31 75.3445 142.22 79.9843 142.124 84.9334C141.468 84.5576 140.838 84.1387 140.238 83.6794C136.058 80.4357 133.3 74.8053 133.3 74.8053L131.665 74.7259C131.665 74.7259 135.666 83.8842 140.669 86.8479C145.672 89.8115 148.678 96.5413 148.858 98.2843C148.908 98.7776 148.77 103.99 148.544 111.184C143.11 107.51 129.734 98.4599 129.028 97.8329L128.948 99.5049L148.41 115.389C147.871 132.109 147.031 155.517 146.897 159.279L154.839 159.663C155.178 154.48 157.042 124.192 155.337 107.51C155.441 107.012 155.554 106.44 155.671 105.775C156.77 99.5634 163.061 90.3967 164.303 88.9379C165.544 87.479 169.16 82.856 169.16 82.856L168.508 81.7733L162.748 87.5877Z" fill="#407BFF"/>
<path opacity="0.8" d="M162.748 87.5877L165.172 81.0377L169.511 75.984L168.838 75.3654L164.783 79.3824L164.42 72.6944L162.89 72.6233C162.89 72.6233 164.562 80.3229 163.078 83.1569C163.078 83.1569 156.992 95.3542 153.945 97.8496C153.772 97.9934 153.619 98.1592 153.489 98.3429C152.725 96.0581 151.692 93.872 150.413 91.8304C151.704 88.9379 154.488 82.5717 155.495 79.165C156.286 76.5043 156.913 73.7975 157.372 71.06L156.256 70.3787C156.256 70.3787 153.092 83.5707 148.314 89.1887C147.046 87.9073 145.59 86.8263 143.996 85.9826C143.72 84.1685 143.716 81.0335 145.146 76.2056L144.31 75.3445C144.31 75.3445 142.22 79.9843 142.124 84.9334C141.468 84.5576 140.838 84.1387 140.238 83.6794C136.058 80.4357 133.3 74.8053 133.3 74.8053L131.665 74.7259C131.665 74.7259 135.666 83.8842 140.669 86.8479C145.672 89.8115 148.678 96.5413 148.858 98.2843C148.908 98.7776 148.77 103.99 148.544 111.184C143.11 107.51 129.734 98.4599 129.028 97.8329L128.948 99.5049L148.41 115.389C147.871 132.109 147.031 155.517 146.897 159.279L154.839 159.663C155.178 154.48 157.042 124.192 155.337 107.51C155.441 107.012 155.554 106.44 155.671 105.775C156.77 99.5634 163.061 90.3967 164.303 88.9379C165.544 87.479 169.16 82.856 169.16 82.856L168.508 81.7733L162.748 87.5877Z" fill="white"/>
<path d="M165.109 160.408C165.172 159.634 165.068 158.631 164.16 158.318C162.631 157.812 161.719 156.625 161.774 155.283C161.828 153.941 160.21 152.633 159.002 153.891C157.794 155.149 157.953 152.925 156.34 152.382C154.726 151.839 153.359 153.155 153.798 154.355C154.237 155.555 152.649 156.303 150.743 155.283C148.837 154.263 146.742 156.119 147.144 157.569C147.545 159.02 147.219 159.183 146.011 158.698C145.037 158.305 143.44 159.116 143.265 160.391L165.109 160.408Z" fill="#407BFF"/>
<path opacity="0.6" d="M165.109 160.408C165.172 159.634 165.068 158.631 164.16 158.318C162.631 157.812 161.719 156.625 161.774 155.283C161.828 153.941 160.21 152.633 159.002 153.891C157.794 155.149 157.953 152.925 156.34 152.382C154.726 151.839 153.359 153.155 153.798 154.355C154.237 155.555 152.649 156.303 150.743 155.283C148.837 154.263 146.742 156.119 147.144 157.569C147.545 159.02 147.219 159.183 146.011 158.698C145.037 158.305 143.44 159.116 143.265 160.391L165.109 160.408Z" fill="#FAFAFA"/>
<path opacity="0.6" d="M112.533 161.816C112.533 161.816 119.497 155.688 117.411 154.652C115.325 153.615 112.788 159.283 112.533 158.414C112.278 157.544 113.896 149.782 110.025 150.321C106.155 150.86 110.025 158.414 110.025 158.414C110.025 158.414 107.162 155.316 106.159 155.801C105.156 156.286 109.206 161.799 109.206 161.799L112.533 161.816Z" fill="#FAFAFA"/>
<path opacity="0.6" d="M35.7222 159.216C35.7222 159.216 41.6244 154.016 39.8563 153.138C38.0881 152.261 35.948 157.064 35.7222 156.332C35.4965 155.601 36.8759 149.009 33.5988 149.468C30.3217 149.928 33.5988 156.332 33.5988 156.332C33.5988 156.332 31.1702 153.707 30.3175 154.117C29.4648 154.526 32.9049 159.208 32.9049 159.208L35.7222 159.216Z" fill="#FAFAFA"/>
<path opacity="0.6" d="M126.027 160.048C126.027 160.048 121.483 151.182 122.624 150.313C123.765 149.443 126.027 157.72 126.027 157.076C126.027 156.432 125.901 145.159 128 145.606C130.098 146.053 128 156.432 128 156.432C128 156.432 130.825 151.128 131.933 151.529C133.041 151.93 128.669 158.238 128.669 158.238C128.669 158.238 131.277 156.658 131.933 156.783C132.589 156.909 128.669 160.048 128.669 160.048H126.027Z" fill="#FAFAFA"/>
<path d="M185.554 158.995H25.113C23.7616 158.995 22.4656 159.531 21.51 160.487C20.5544 161.443 20.0176 162.739 20.0176 164.09C20.0176 164.36 20.0707 164.626 20.1738 164.875C20.2769 165.124 20.4281 165.351 20.6187 165.541C20.8093 165.732 21.0355 165.883 21.2845 165.986C21.5336 166.089 21.8004 166.142 22.07 166.142H188.597C188.867 166.143 189.134 166.09 189.383 165.987C189.632 165.884 189.859 165.733 190.049 165.543C190.24 165.352 190.391 165.125 190.494 164.876C190.597 164.627 190.65 164.36 190.649 164.09C190.649 162.739 190.113 161.443 189.157 160.487C188.201 159.531 186.905 158.995 185.554 158.995Z" fill="#407BFF"/>
<path opacity="0.4" d="M185.554 158.995H25.113C23.7616 158.995 22.4656 159.531 21.51 160.487C20.5544 161.443 20.0176 162.739 20.0176 164.09C20.0176 164.36 20.0707 164.626 20.1738 164.875C20.2769 165.124 20.4281 165.351 20.6187 165.541C20.8093 165.732 21.0355 165.883 21.2845 165.986C21.5336 166.089 21.8004 166.142 22.07 166.142H188.597C188.867 166.143 189.134 166.09 189.383 165.987C189.632 165.884 189.859 165.733 190.049 165.543C190.24 165.352 190.391 165.125 190.494 164.876C190.597 164.627 190.65 164.36 190.649 164.09C190.649 162.739 190.113 161.443 189.157 160.487C188.201 159.531 186.905 158.995 185.554 158.995Z" fill="#FAFAFA"/>
<path d="M148.173 119.477H150.509C151.091 119.477 151.562 119.005 151.562 118.424V114.122C151.562 113.541 151.091 113.069 150.509 113.069H148.173C147.591 113.069 147.119 113.541 147.119 114.122V118.424C147.119 119.005 147.591 119.477 148.173 119.477Z" fill="#263238"/>
<path opacity="0.4" d="M148.173 119.477H150.509C151.091 119.477 151.562 119.005 151.562 118.424V114.122C151.562 113.541 151.091 113.069 150.509 113.069H148.173C147.591 113.069 147.119 113.541 147.119 114.122V118.424C147.119 119.005 147.591 119.477 148.173 119.477Z" fill="white"/>
<path d="M147.282 115.945C146.956 116.282 146.57 116.557 146.145 116.756C146.024 116.801 145.919 116.88 145.842 116.983C145.764 117.086 145.717 117.208 145.706 117.337L145.593 118.913C145.587 119.006 145.6 119.099 145.631 119.187C145.662 119.274 145.711 119.355 145.774 119.423C145.838 119.491 145.915 119.545 146 119.583C146.085 119.62 146.177 119.64 146.271 119.64H147.307C147.416 119.64 147.524 119.615 147.621 119.565L148.699 119.005C148.809 118.948 148.902 118.861 148.966 118.755C149.03 118.649 149.064 118.527 149.063 118.403V116.426C149.063 116.246 148.991 116.074 148.864 115.947C148.737 115.82 148.565 115.748 148.386 115.748H147.759C147.58 115.749 147.409 115.819 147.282 115.945Z" fill="#263238"/>
<path opacity="0.3" d="M147.282 115.945C146.956 116.282 146.57 116.557 146.145 116.756C146.024 116.801 145.919 116.88 145.842 116.983C145.764 117.086 145.717 117.208 145.706 117.337L145.593 118.913C145.587 119.006 145.6 119.099 145.631 119.187C145.662 119.274 145.711 119.355 145.774 119.423C145.838 119.491 145.915 119.545 146 119.583C146.085 119.62 146.177 119.64 146.271 119.64H147.307C147.416 119.64 147.524 119.615 147.621 119.565L148.699 119.005C148.809 118.948 148.902 118.861 148.966 118.755C149.03 118.649 149.064 118.527 149.063 118.403V116.426C149.063 116.246 148.991 116.074 148.864 115.947C148.737 115.82 148.565 115.748 148.386 115.748H147.759C147.58 115.749 147.409 115.819 147.282 115.945Z" fill="white"/>
<path d="M64.0037 127.812C63.8892 127.813 63.7752 127.798 63.6651 127.766C63.5065 127.721 63.3581 127.646 63.2285 127.544C63.0989 127.443 62.9907 127.316 62.9099 127.173C62.8292 127.029 62.7775 126.871 62.7579 126.707C62.7383 126.544 62.7512 126.378 62.7957 126.219L69.0908 103.802C69.3462 102.898 69.8892 102.103 70.6374 101.536C71.3857 100.968 72.2984 100.66 73.2374 100.659H95.454C95.7866 100.659 96.1056 100.791 96.3408 101.026C96.5759 101.261 96.708 101.58 96.708 101.913C96.708 102.245 96.5759 102.564 96.3408 102.799C96.1056 103.034 95.7866 103.167 95.454 103.167H73.2374C72.845 103.168 72.4637 103.296 72.1508 103.533C71.838 103.77 71.6105 104.102 71.5026 104.479L65.2076 126.896C65.1339 127.159 64.9764 127.391 64.7592 127.556C64.5419 127.721 64.2767 127.811 64.0037 127.812Z" fill="#263238"/>
<path d="M46.8871 126.746C46.6442 126.748 46.4059 126.679 46.2013 126.548C45.9966 126.417 45.8344 126.23 45.7344 126.008C45.6343 125.787 45.6007 125.541 45.6376 125.301C45.6746 125.061 45.7804 124.837 45.9424 124.656L60.0834 108.429C60.5645 107.878 61.1581 107.436 61.8243 107.133C62.4905 106.83 63.2139 106.673 63.9457 106.674H69.2292C69.5618 106.674 69.8807 106.806 70.1159 107.041C70.3511 107.276 70.4832 107.595 70.4832 107.928C70.4832 108.26 70.3511 108.579 70.1159 108.814C69.8807 109.049 69.5618 109.182 69.2292 109.182H63.954C63.5809 109.181 63.2121 109.26 62.8724 109.415C62.5327 109.569 62.2302 109.795 61.9852 110.076L47.8401 126.303C47.7228 126.441 47.5768 126.553 47.4123 126.629C47.2477 126.706 47.0685 126.745 46.8871 126.746Z" fill="#263238"/>
<path d="M156.465 146.229H161.565C167.229 146.229 171.819 152.574 171.819 160.399C171.819 168.224 167.221 174.574 161.565 174.574H156.465C150.802 174.574 146.212 168.228 146.212 160.399C146.212 152.57 150.802 146.229 156.465 146.229Z" fill="black"/>
<path d="M85.401 146.229H90.5006C96.1645 146.229 100.754 152.574 100.754 160.399C100.754 168.224 96.1561 174.574 90.5006 174.574H85.401C79.7371 174.574 75.1475 168.228 75.1475 160.399C75.1475 152.57 79.7371 146.229 85.401 146.229Z" fill="black"/>
<path d="M32.5029 154.037H37.7447L42.8442 160.236H66.5365C67.0747 161.12 67.8358 161.846 68.7433 162.343C69.6508 162.839 70.6729 163.089 71.7071 163.066C75.3939 163.066 76.2048 160.617 76.2048 160.617H89.9487L91.6207 163.066H116.086L119.873 160.399H140.255C140.255 160.399 141.313 163.066 145.087 163.066C146.156 163.082 147.213 162.832 148.162 162.338C149.11 161.844 149.921 161.122 150.521 160.236H156.172C157.418 160.239 158.637 159.869 159.67 159.173C160.703 158.477 161.505 157.488 161.97 156.332L168.353 140.473H32.5029V154.037Z" fill="#263238"/>
<path d="M116.693 146.229H121.793C127.456 146.229 132.046 152.574 132.046 160.399C132.046 168.224 127.448 174.574 121.793 174.574H116.693C111.029 174.574 106.439 168.228 106.439 160.399C106.439 152.57 111.029 146.229 116.693 146.229Z" fill="black"/>
<path opacity="0.2" d="M115.087 147.232C119.819 147.232 123.656 153.13 123.656 160.399C123.656 167.668 119.819 173.566 115.087 173.566C110.356 173.566 106.522 167.672 106.522 160.399C106.522 153.126 110.351 147.232 115.087 147.232Z" fill="white"/>
<path opacity="0.2" d="M114.347 153.285C116.905 153.285 118.979 156.47 118.979 160.391C118.979 164.312 116.889 167.497 114.347 167.497C111.806 167.497 109.716 164.312 109.716 160.391C109.716 156.47 111.789 153.285 114.347 153.285Z" fill="white"/>
<path opacity="0.7" d="M116.091 156.842C117.37 156.842 118.407 158.435 118.407 160.399C118.407 162.364 117.37 163.96 116.091 163.96C114.812 163.96 113.775 162.364 113.775 160.399C113.775 158.435 114.812 156.842 116.091 156.842Z" fill="white"/>
<path d="M45.6285 146.229H50.7281C56.392 146.229 60.9817 152.574 60.9817 160.399C60.9817 168.224 56.3837 174.574 50.7281 174.574H45.6285C39.9646 174.574 35.375 168.228 35.375 160.399C35.375 152.57 39.9646 146.229 45.6285 146.229Z" fill="black"/>
<path opacity="0.2" d="M44.0228 147.232C48.7546 147.232 52.5918 153.13 52.5918 160.399C52.5918 167.668 48.7546 173.566 44.0228 173.566C39.2911 173.566 35.458 167.672 35.458 160.399C35.458 153.126 39.2911 147.232 44.0228 147.232Z" fill="white"/>
<path opacity="0.2" d="M43.2838 153.285C45.8419 153.285 47.9152 156.47 47.9152 160.391C47.9152 164.312 45.8252 167.497 43.2838 167.497C40.7423 167.497 38.6523 164.312 38.6523 160.391C38.6523 156.47 40.7256 153.285 43.2838 153.285Z" fill="white"/>
<path opacity="0.7" d="M45.0518 156.842C46.2723 156.842 47.2588 158.363 47.2588 160.236C47.2588 162.109 46.2723 163.63 45.0518 163.63C43.8312 163.63 42.8447 162.109 42.8447 160.236C42.8447 158.363 43.8312 156.842 45.0518 156.842Z" fill="white"/>
<path d="M176.111 130.458V156.374H129.399L126.126 147.136C125.727 146.004 124.986 145.024 124.006 144.331C123.026 143.637 121.855 143.265 120.655 143.265H113.549C112.278 143.271 111.045 143.694 110.037 144.469C109.03 145.244 108.305 146.327 107.973 147.554L105.532 156.399H57.7542L54.8867 147.345C54.5146 146.169 53.7776 145.142 52.7825 144.413C51.7874 143.684 50.586 143.291 49.3524 143.29H42.4888C41.0748 143.292 39.7095 143.807 38.6474 144.741C37.7738 145.517 37.151 146.536 36.8584 147.667L34.6513 156.386H29.9697V123.31C29.9692 123.058 30.0184 122.808 30.1147 122.575C30.2109 122.342 30.3522 122.13 30.5305 121.952C30.7087 121.774 30.9204 121.633 31.1535 121.536C31.3865 121.44 31.6362 121.391 31.8884 121.391H69.7132C69.7132 121.391 71.172 111.903 74.5327 103.539C74.6857 103.156 74.9292 102.817 75.2423 102.55C75.5554 102.283 75.9287 102.096 76.3301 102.005C78.4494 101.532 83.6577 100.792 95.462 100.792C127.69 100.792 134.29 102.782 134.29 102.782C143.728 109.541 152.381 120.313 152.381 120.313C153.15 120.455 153.896 120.603 154.617 120.756C158.777 121.578 162.872 122.696 166.873 124.1C169.44 124.989 171.915 126.124 174.263 127.49L174.485 127.624L174.56 127.67C175.033 127.966 175.423 128.377 175.695 128.864C175.966 129.352 176.109 129.9 176.111 130.458Z" fill="#407BFF"/>
<path d="M179.058 142.342V156.282C179.057 157.018 178.764 157.724 178.242 158.245C177.721 158.765 177.015 159.057 176.278 159.057H132.33C130.796 159.057 129.843 157.803 129.404 156.386L126.127 147.136C125.68 145.869 124.807 144.796 123.656 144.101C123.656 142.571 130.399 139.549 131.933 139.549H143.156L144.907 143.357C145.15 143.882 145.538 144.327 146.026 144.639C146.513 144.95 147.079 145.116 147.658 145.117H166.886C167.572 145.115 168.233 144.856 168.738 144.392C169.244 143.928 169.558 143.292 169.62 142.609L169.879 139.553H176.27C176.636 139.552 176.999 139.624 177.338 139.763C177.677 139.903 177.985 140.108 178.244 140.368C178.503 140.627 178.708 140.935 178.848 141.273C178.988 141.612 179.059 141.975 179.058 142.342Z" fill="#263238"/>
<path d="M150.241 120.539H146.141L137.91 119.477H123.656L119.058 120.539H106.932C106.932 120.539 105.068 109.537 101.808 102.92C101.808 102.92 120.618 102.289 134.14 104.199C134.14 104.199 140.928 108.375 150.241 120.539Z" fill="#263238"/>
<path d="M103.036 120.539H83.9084C83.6322 120.539 83.3589 120.482 83.1062 120.37C82.8535 120.259 82.627 120.095 82.4412 119.891L81.0911 118.403C80.907 118.198 80.682 118.035 80.4306 117.924C80.1793 117.812 79.9073 117.754 79.6323 117.755H72.0205C73.2202 110.724 75.0886 106.724 75.9163 104.203C76.0331 103.841 76.254 103.522 76.5514 103.285C76.8487 103.047 77.2094 102.903 77.5883 102.87C78.6751 102.79 79.7702 102.723 80.8487 102.673L82.1946 102.615C91.1273 102.28 99.2114 102.824 99.2114 102.824C100.315 104.793 101.561 111.456 102.321 116.028C102.764 118.624 103.036 120.539 103.036 120.539Z" fill="#263238"/>
<path opacity="0.2" d="M179.058 142.342V156.282C179.057 157.018 178.764 157.724 178.242 158.245C177.721 158.765 177.015 159.057 176.278 159.057H132.33C130.796 159.057 129.843 157.803 129.404 156.386L126.127 147.136C125.68 145.869 124.807 144.796 123.656 144.101C123.656 142.571 130.399 139.549 131.933 139.549H143.156L144.907 143.357C145.15 143.882 145.538 144.327 146.026 144.639C146.513 144.95 147.079 145.116 147.658 145.117H166.886C167.572 145.115 168.233 144.856 168.738 144.392C169.244 143.928 169.558 143.292 169.62 142.609L169.879 139.553H176.27C176.636 139.552 176.999 139.624 177.338 139.763C177.677 139.903 177.985 140.108 178.244 140.368C178.503 140.627 178.708 140.935 178.848 141.273C178.988 141.612 179.059 141.975 179.058 142.342Z" fill="white"/>
<path d="M133.404 139.93L130.06 139.959C129.817 139.959 129.584 139.863 129.411 139.691C129.239 139.519 129.142 139.287 129.141 139.044V132.247C129.142 131.857 129.297 131.483 129.573 131.208C129.848 130.932 130.222 130.777 130.612 130.775H134.178C133.788 130.777 133.414 130.932 133.138 131.208C132.863 131.483 132.707 131.857 132.706 132.247V139.044C132.708 139.248 132.777 139.446 132.903 139.606C133.03 139.767 133.206 139.88 133.404 139.93Z" fill="#407BFF"/>
<path d="M132.719 139.039V132.247C132.719 131.857 132.874 131.482 133.15 131.206C133.426 130.93 133.8 130.775 134.19 130.775H138.211C138.496 130.776 138.775 130.858 139.013 131.013C139.252 131.168 139.441 131.389 139.557 131.649L142.78 138.818C142.832 138.933 142.854 139.059 142.844 139.185C142.834 139.311 142.793 139.432 142.725 139.538C142.656 139.644 142.562 139.731 142.451 139.792C142.341 139.852 142.216 139.884 142.09 139.884L133.638 139.959C133.518 139.959 133.398 139.935 133.286 139.889C133.175 139.843 133.073 139.775 132.988 139.69C132.903 139.604 132.835 139.503 132.789 139.391C132.743 139.28 132.719 139.16 132.719 139.039Z" fill="#407BFF"/>
<path d="M174.92 130.775H171.672C171.386 130.775 171.111 130.882 170.9 131.075C170.688 131.267 170.557 131.532 170.531 131.816L169.879 138.993C169.871 139.106 169.887 139.218 169.924 139.324C169.961 139.43 170.019 139.528 170.095 139.611C170.171 139.694 170.262 139.761 170.364 139.808C170.467 139.855 170.577 139.881 170.69 139.884H175.906V132.238C175.907 132.015 175.855 131.794 175.754 131.593C175.654 131.393 175.509 131.219 175.329 131.085L174.92 130.775Z" fill="#407BFF"/>
<path opacity="0.7" d="M132.719 139.039V132.247C132.719 131.857 132.874 131.482 133.15 131.206C133.426 130.93 133.8 130.775 134.19 130.775H138.211C138.496 130.776 138.775 130.858 139.013 131.013C139.252 131.168 139.441 131.389 139.557 131.649L142.78 138.818C142.832 138.933 142.854 139.059 142.844 139.185C142.834 139.311 142.793 139.432 142.725 139.538C142.656 139.644 142.562 139.731 142.451 139.792C142.341 139.852 142.216 139.884 142.09 139.884L133.638 139.959C133.518 139.959 133.398 139.935 133.286 139.889C133.175 139.843 133.073 139.775 132.988 139.69C132.903 139.604 132.835 139.503 132.789 139.391C132.743 139.28 132.719 139.16 132.719 139.039Z" fill="white"/>
<path opacity="0.7" d="M174.92 130.775H171.672C171.386 130.775 171.111 130.882 170.9 131.075C170.688 131.267 170.557 131.532 170.531 131.816L169.879 138.993C169.871 139.106 169.887 139.218 169.924 139.324C169.961 139.43 170.019 139.528 170.095 139.611C170.171 139.694 170.262 139.761 170.364 139.808C170.467 139.855 170.577 139.881 170.69 139.884H175.906V132.238C175.907 132.015 175.855 131.794 175.754 131.593C175.654 131.393 175.509 131.219 175.329 131.085L174.92 130.775Z" fill="white"/>
<path d="M140.661 136.418C140.661 137.781 139.77 138.885 138.667 138.885C137.563 138.885 136.673 137.781 136.673 136.418C136.673 135.056 137.563 133.956 138.667 133.956C139.77 133.956 140.661 135.06 140.661 136.418Z" fill="white"/>
<path d="M135.235 134.901C135.886 134.901 136.414 134.267 136.414 133.484C136.414 132.702 135.886 132.067 135.235 132.067C134.584 132.067 134.057 132.702 134.057 133.484C134.057 134.267 134.584 134.901 135.235 134.901Z" fill="white"/>
<path d="M172.474 138.885C173.576 138.885 174.468 137.781 174.468 136.418C174.468 135.056 173.576 133.952 172.474 133.952C171.373 133.952 170.48 135.056 170.48 136.418C170.48 137.781 171.373 138.885 172.474 138.885Z" fill="white"/>
<path d="M175.79 133.484C175.748 133.708 175.644 133.916 175.489 134.083C175.334 134.25 175.134 134.37 174.913 134.427C174.693 134.485 174.46 134.479 174.243 134.409C174.026 134.339 173.833 134.209 173.688 134.034C173.542 133.859 173.449 133.645 173.42 133.419C173.391 133.193 173.427 132.963 173.524 132.757C173.621 132.551 173.774 132.376 173.967 132.254C174.159 132.132 174.383 132.067 174.611 132.067C174.955 132.1 175.271 132.267 175.492 132.533C175.713 132.798 175.82 133.14 175.79 133.484Z" fill="white"/>
<path opacity="0.2" d="M133.404 139.93L130.06 139.959C129.817 139.959 129.584 139.863 129.411 139.691C129.239 139.519 129.142 139.287 129.141 139.044V132.247C129.142 131.857 129.297 131.483 129.573 131.208C129.848 130.932 130.222 130.777 130.612 130.775H134.178C133.788 130.777 133.414 130.932 133.138 131.208C132.863 131.483 132.707 131.857 132.706 132.247V139.044C132.708 139.248 132.778 139.445 132.904 139.606C133.031 139.766 133.206 139.88 133.404 139.93Z" fill="white"/>
<path d="M177.098 132.238V139.88H175.907V132.238C175.906 132.015 175.853 131.794 175.753 131.594C175.653 131.394 175.508 131.22 175.33 131.085L174.912 130.775H176.103L176.521 131.085C176.701 131.219 176.846 131.393 176.946 131.594C177.046 131.794 177.098 132.015 177.098 132.238Z" fill="#407BFF"/>
<path opacity="0.2" d="M177.098 132.238V139.88H175.907V132.238C175.906 132.015 175.853 131.794 175.753 131.594C175.653 131.394 175.508 131.22 175.33 131.085L174.912 130.775H176.103L176.521 131.085C176.701 131.218 176.847 131.392 176.947 131.593C177.048 131.793 177.099 132.014 177.098 132.238Z" fill="white"/>
<path opacity="0.4" d="M130.612 130.775H134.177C133.787 130.777 133.414 130.932 133.138 131.208C132.862 131.483 132.707 131.857 132.706 132.247V135.327H129.161V132.247C129.162 131.861 129.315 131.49 129.586 131.215C129.857 130.94 130.225 130.782 130.612 130.775Z" fill="black"/>
<path opacity="0.4" d="M177.098 132.238V135.327H175.907V132.238C175.906 132.015 175.853 131.794 175.753 131.594C175.653 131.394 175.508 131.22 175.33 131.085L174.912 130.775H176.103L176.521 131.085C176.701 131.218 176.847 131.392 176.947 131.593C177.048 131.793 177.099 132.014 177.098 132.238Z" fill="black"/>
<path opacity="0.4" d="M168.976 131.428L168.035 142.484C168.01 142.772 167.878 143.041 167.664 143.237C167.451 143.433 167.171 143.541 166.882 143.541H147.654C147.379 143.542 147.11 143.463 146.878 143.315C146.647 143.167 146.463 142.955 146.349 142.705L141.091 131.285C141.071 131.245 141.058 131.201 141.053 131.156C141.046 131.097 141.051 131.036 141.068 130.979C141.086 130.922 141.115 130.869 141.155 130.824C141.194 130.78 141.243 130.744 141.298 130.72C141.352 130.695 141.412 130.683 141.471 130.684H168.286C168.382 130.683 168.476 130.702 168.564 130.739C168.652 130.777 168.731 130.833 168.795 130.903C168.86 130.973 168.91 131.056 168.941 131.146C168.972 131.237 168.984 131.332 168.976 131.428Z" fill="black"/>
<path d="M167.956 131.9L167.02 142.956C167.007 143.17 166.932 143.375 166.802 143.545H147.658C147.383 143.546 147.114 143.468 146.883 143.319C146.651 143.171 146.468 142.959 146.354 142.709L141.095 131.29C141.075 131.249 141.062 131.205 141.058 131.16H167.27C167.365 131.16 167.459 131.18 167.545 131.218C167.632 131.256 167.71 131.312 167.774 131.381C167.838 131.45 167.888 131.532 167.919 131.622C167.95 131.711 167.963 131.806 167.956 131.9Z" fill="#263238"/>
<path opacity="0.2" d="M167.956 131.9L167.563 136.569L167.496 137.351L167.02 142.956C167.007 143.17 166.932 143.375 166.802 143.545H147.658C147.383 143.546 147.114 143.468 146.883 143.319C146.651 143.171 146.468 142.959 146.354 142.709L143.883 137.355L143.528 136.573L141.095 131.29C141.075 131.249 141.062 131.205 141.058 131.16H167.27C167.365 131.16 167.459 131.18 167.545 131.218C167.632 131.256 167.71 131.312 167.774 131.381C167.838 131.45 167.888 131.532 167.919 131.622C167.95 131.711 167.963 131.806 167.956 131.9Z" fill="white"/>
<path d="M144.665 131.716L145.138 131.156H142.813L143.286 131.716H144.665Z" fill="#263238"/>
<path d="M149.422 131.716L149.894 131.156H147.57L148.043 131.716H149.422Z" fill="#263238"/>
<path d="M154.179 131.716L154.651 131.156H152.327L152.799 131.716H154.179Z" fill="#263238"/>
<path d="M158.936 131.716L159.408 131.156H157.084L157.556 131.716H158.936Z" fill="#263238"/>
<path d="M163.696 131.716L164.165 131.156H161.845L162.313 131.716H163.696Z" fill="#263238"/>
<path d="M167.943 131.716C167.915 131.558 167.832 131.416 167.709 131.314C167.586 131.211 167.43 131.155 167.27 131.156H166.602L167.074 131.716H167.943Z" fill="#263238"/>
<path d="M142.976 131.917L142.333 131.156H141.058C141.062 131.201 141.075 131.245 141.095 131.285L141.76 132.732H142.287L142.976 131.917Z" fill="#263238"/>
<path d="M145.664 132.736H147.044L147.733 131.917L147.09 131.156H145.614L144.975 131.917L145.664 132.736Z" fill="#263238"/>
<path d="M150.421 132.736H151.801L152.49 131.917L151.851 131.156H150.371L149.731 131.917L150.421 132.736Z" fill="#263238"/>
<path d="M155.178 132.736H156.557L157.247 131.917L156.608 131.156H155.132L154.488 131.917L155.178 132.736Z" fill="#263238"/>
<path d="M159.935 132.736H161.314L162.004 131.917L161.364 131.156H159.889L159.245 131.917L159.935 132.736Z" fill="#263238"/>
<path d="M164.696 132.736H166.075L166.765 131.917L166.121 131.156H164.645L164.006 131.917L164.696 132.736Z" fill="#263238"/>
<path d="M144.665 132.117H143.286L142.592 132.932L143.286 133.752H144.665L145.355 132.932L144.665 132.117Z" fill="#263238"/>
<path d="M149.422 133.752L150.111 132.932L149.422 132.117H148.042L147.353 132.932L148.042 133.752H149.422Z" fill="#263238"/>
<path d="M154.178 133.752L154.868 132.932L154.178 132.117H152.799L152.109 132.932L152.799 133.752H154.178Z" fill="#263238"/>
<path d="M158.935 133.752L159.625 132.932L158.935 132.117H157.556L156.866 132.932L157.556 133.752H158.935Z" fill="#263238"/>
<path d="M163.696 133.752L164.386 132.932L163.696 132.117H162.313L161.623 132.932L162.313 133.752H163.696Z" fill="#263238"/>
<path d="M166.385 132.932L167.074 133.752H167.802L167.936 132.117H167.074L166.385 132.932Z" fill="#263238"/>
<path d="M142.287 133.137H141.944L142.555 134.454L142.977 133.952L142.287 133.137Z" fill="#263238"/>
<path d="M147.044 134.772L147.733 133.952L147.044 133.137H145.664L144.975 133.952L145.664 134.772H147.044Z" fill="#263238"/>
<path d="M150.421 134.772H151.801L152.49 133.952L151.801 133.137H150.421L149.731 133.952L150.421 134.772Z" fill="#263238"/>
<path d="M155.178 134.772H156.557L157.247 133.952L156.557 133.137H155.178L154.488 133.952L155.178 134.772Z" fill="#263238"/>
<path d="M159.935 134.772H161.314L162.004 133.952L161.314 133.137H159.935L159.245 133.952L159.935 134.772Z" fill="#263238"/>
<path d="M164.696 134.772H166.075L166.765 133.952L166.075 133.137H164.696L164.006 133.952L164.696 134.772Z" fill="#263238"/>
<path d="M144.665 135.787L145.355 134.972L144.665 134.153H143.286L142.722 134.822L143.027 135.482L143.286 135.787H144.665Z" fill="#263238"/>
<path d="M148.042 134.153L147.353 134.972L148.042 135.787H149.422L150.111 134.972L149.422 134.153H148.042Z" fill="#263238"/>
<path d="M152.799 134.153L152.109 134.972L152.799 135.787H154.178L154.868 134.972L154.178 134.153H152.799Z" fill="#263238"/>
<path d="M157.556 134.153L156.866 134.972L157.556 135.787H158.935L159.625 134.972L158.935 134.153H157.556Z" fill="#263238"/>
<path d="M163.696 134.153H162.313L161.623 134.972L162.313 135.787H163.696L164.386 134.972L163.696 134.153Z" fill="#263238"/>
<path d="M166.385 134.972L167.074 135.787H167.626L167.764 134.153H167.074L166.385 134.972Z" fill="#263238"/>
<path d="M147.044 136.807L147.733 135.988L147.044 135.173H145.664L144.975 135.988L145.664 136.807H147.044Z" fill="#263238"/>
<path d="M150.421 135.173L149.731 135.988L150.421 136.807H151.801L152.49 135.988L151.801 135.173H150.421Z" fill="#263238"/>
<path d="M155.178 135.173L154.488 135.988L155.178 136.807H156.557L157.247 135.988L156.557 135.173H155.178Z" fill="#263238"/>
<path d="M159.935 135.173L159.245 135.988L159.935 136.807H161.314L162.004 135.988L161.314 135.173H159.935Z" fill="#263238"/>
<path d="M164.696 135.173L164.006 135.988L164.696 136.807H166.075L166.765 135.988L166.075 135.173H164.696Z" fill="#263238"/>
<path d="M145.355 137.008L144.665 136.193H143.353L144.105 137.827H144.665L145.355 137.008Z" fill="#263238"/>
<path d="M148.042 137.827H149.422L150.111 137.008L149.422 136.193H148.042L147.353 137.008L148.042 137.827Z" fill="#263238"/>
<path d="M152.799 136.193L152.109 137.008L152.799 137.827H154.178L154.868 137.008L154.178 136.193H152.799Z" fill="#263238"/>
<path d="M158.935 137.827L159.625 137.008L158.935 136.193H157.556L156.866 137.008L157.556 137.827H158.935Z" fill="#263238"/>
<path d="M163.696 137.827L164.386 137.008L163.696 136.193H162.313L161.623 137.008L162.313 137.827H163.696Z" fill="#263238"/>
<path d="M166.385 137.008L167.074 137.827H167.455L167.593 136.193H167.074L166.385 137.008Z" fill="#263238"/>
<path d="M147.044 137.208H145.664L144.975 138.028L145.664 138.843H147.044L147.733 138.028L147.044 137.208Z" fill="#263238"/>
<path d="M151.801 138.843L152.49 138.028L151.801 137.208H150.421L149.731 138.028L150.421 138.843H151.801Z" fill="#263238"/>
<path d="M156.557 138.843L157.247 138.028L156.557 137.208H155.178L154.488 138.028L155.178 138.843H156.557Z" fill="#263238"/>
<path d="M161.314 138.843L162.004 138.028L161.314 137.208H159.935L159.245 138.028L159.935 138.843H161.314Z" fill="#263238"/>
<path d="M164.696 137.208L164.006 138.028L164.696 138.843H166.075L166.765 138.028L166.075 137.208H164.696Z" fill="#263238"/>
<path d="M144.665 138.228H144.289L144.908 139.57L145.355 139.044L144.665 138.228Z" fill="#263238"/>
<path d="M149.422 139.863L150.111 139.044L149.422 138.228H148.042L147.353 139.044L148.042 139.863H149.422Z" fill="#263238"/>
<path d="M154.178 139.863L154.868 139.044L154.178 138.228H152.799L152.109 139.044L152.799 139.863H154.178Z" fill="#263238"/>
<path d="M158.935 139.863L159.625 139.044L158.935 138.228H157.556L156.866 139.044L157.556 139.863H158.935Z" fill="#263238"/>
<path d="M163.696 139.863L164.386 139.044L163.696 138.228H162.313L161.623 139.044L162.313 139.863H163.696Z" fill="#263238"/>
<path d="M166.385 139.044L167.074 139.863H167.283L167.421 138.228H167.074L166.385 139.044Z" fill="#263238"/>
<path d="M147.044 140.883L147.733 140.063L147.044 139.248H145.664L145.079 139.938L145.33 140.486L145.664 140.883H147.044Z" fill="#263238"/>
<path d="M150.421 140.883H151.801L152.49 140.063L151.801 139.248H150.421L149.731 140.063L150.421 140.883Z" fill="#263238"/>
<path d="M156.557 140.883L157.247 140.063L156.557 139.248H155.178L154.488 140.063L155.178 140.883H156.557Z" fill="#263238"/>
<path d="M161.314 140.883L162.004 140.063L161.314 139.248H159.935L159.245 140.063L159.935 140.883H161.314Z" fill="#263238"/>
<path d="M164.696 139.248L164.006 140.063L164.696 140.883H166.075L166.765 140.063L166.075 139.248H164.696Z" fill="#263238"/>
<path d="M149.422 140.264H148.042L147.353 141.083L148.042 141.898H149.422L150.111 141.083L149.422 140.264Z" fill="#263238"/>
<path d="M154.178 140.264H152.799L152.109 141.083L152.799 141.898H154.178L154.868 141.083L154.178 140.264Z" fill="#263238"/>
<path d="M158.935 140.264H157.556L156.866 141.083L157.556 141.898H158.935L159.625 141.083L158.935 140.264Z" fill="#263238"/>
<path d="M163.696 140.264H162.313L161.623 141.083L162.313 141.898H163.696L164.386 141.083L163.696 140.264Z" fill="#263238"/>
<path d="M166.385 141.083L167.074 141.898H167.112L167.25 140.264H167.074L166.385 141.083Z" fill="#263238"/>
<path d="M147.733 142.12L147.043 141.284H145.697L146.354 142.705C146.387 142.78 146.428 142.851 146.475 142.918H147.043L147.733 142.12Z" fill="#263238"/>
<path d="M150.421 141.284L149.731 142.099L150.421 142.918H151.801L152.49 142.099L151.801 141.284H150.421Z" fill="#263238"/>
<path d="M155.178 141.284L154.488 142.099L155.178 142.918H156.557L157.247 142.099L156.557 141.284H155.178Z" fill="#263238"/>
<path d="M159.935 141.284L159.245 142.099L159.935 142.918H161.314L162.004 142.099L161.314 141.284H159.935Z" fill="#263238"/>
<path d="M166.075 141.284H164.696L164.006 142.099L164.696 142.918H166.075L166.765 142.099L166.075 141.284Z" fill="#263238"/>
<path d="M149.422 142.304H148.042L147.353 143.119L147.708 143.541H149.756L150.111 143.119L149.422 142.304Z" fill="#263238"/>
<path d="M154.178 142.304H152.799L152.109 143.119L152.465 143.541H154.513L154.868 143.119L154.178 142.304Z" fill="#263238"/>
<path d="M158.935 142.304H157.556L156.866 143.119L157.222 143.541H159.27L159.625 143.119L158.935 142.304Z" fill="#263238"/>
<path d="M163.696 142.304H162.313L161.623 143.119L161.983 143.541H164.027L164.386 143.119L163.696 142.304Z" fill="#263238"/>
<path d="M167.074 142.3L166.385 143.136L166.74 143.554H166.803C166.932 143.383 167.008 143.178 167.02 142.964L167.079 142.312L167.074 142.3Z" fill="#263238"/>
<path d="M146.894 143.32C146.974 143.37 147.06 143.412 147.149 143.445L147.044 143.32H146.894Z" fill="#263238"/>
<path d="M150.421 143.32L150.233 143.541H151.989L151.801 143.32H150.421Z" fill="#263238"/>
<path d="M155.178 143.32L154.99 143.541H156.746L156.558 143.32H155.178Z" fill="#263238"/>
<path d="M159.935 143.32L159.751 143.541H161.502L161.314 143.32H159.935Z" fill="#263238"/>
<path d="M164.696 143.32L164.508 143.541H166.259L166.075 143.32H164.696Z" fill="#263238"/>
<path d="M167.563 136.569L167.496 137.351H143.884L143.528 136.569H167.563Z" fill="#263238"/>
<path opacity="0.2" d="M167.563 136.569L167.496 137.351H143.884L143.528 136.569H167.563Z" fill="white"/>
<path d="M163.759 135.628H148.306L147.14 137.008L148.306 138.387H163.759L164.926 137.008L163.759 135.628Z" fill="#263238"/>
<path opacity="0.2" d="M163.759 135.628H148.306L147.14 137.008L148.306 138.387H163.759L164.926 137.008L163.759 135.628Z" fill="white"/>
<path opacity="0.2" d="M165.862 149.719H149.334V157.486H165.862V149.719Z" fill="white"/>
<path d="M140.999 155.387H137.183C136.861 155.387 136.553 155.26 136.326 155.032C136.098 154.805 135.971 154.497 135.971 154.175V146.839C135.971 146.518 136.098 146.209 136.326 145.982C136.553 145.755 136.861 145.627 137.183 145.627H141.175C141.405 145.627 141.63 145.693 141.825 145.815C142.019 145.938 142.175 146.113 142.274 146.321L143.353 148.616C143.469 148.87 143.497 149.155 143.432 149.427L142.178 154.468C142.113 154.731 141.962 154.965 141.748 155.132C141.534 155.299 141.27 155.389 140.999 155.387Z" fill="#263238"/>
<path opacity="0.4" d="M140.661 150.175C140.661 151.429 139.825 152.449 138.822 152.449C137.818 152.449 136.982 151.429 136.982 150.175C136.982 148.921 137.818 147.897 138.822 147.897C139.825 147.897 140.661 148.917 140.661 150.175Z" fill="white"/>
<path d="M172.245 155.387H176.061C176.383 155.387 176.691 155.26 176.919 155.032C177.146 154.805 177.274 154.497 177.274 154.175V146.839C177.274 146.518 177.146 146.209 176.919 145.982C176.691 145.755 176.383 145.627 176.061 145.627H172.069C171.839 145.627 171.614 145.693 171.42 145.815C171.225 145.938 171.069 146.113 170.97 146.321L169.892 148.616C169.776 148.87 169.748 149.155 169.812 149.427L171.066 154.468C171.131 154.731 171.282 154.965 171.496 155.132C171.71 155.299 171.974 155.389 172.245 155.387Z" fill="#263238"/>
<path opacity="0.4" d="M174.468 150.175C174.468 151.429 173.632 152.449 172.629 152.449C171.626 152.449 170.79 151.429 170.79 150.175C170.79 148.921 171.626 147.897 172.629 147.897C173.632 147.897 174.468 148.917 174.468 150.175Z" fill="white"/>
<path d="M38.6478 144.728C37.7742 145.504 37.1514 146.523 36.8588 147.654L34.6517 156.386H34.589C34.4388 156.709 34.1991 156.983 33.8984 157.174C33.5976 157.365 33.2483 157.466 32.892 157.465H29.4058C29.1599 157.465 28.9164 157.416 28.6892 157.322C28.462 157.228 28.2556 157.09 28.0817 156.916C27.9078 156.742 27.7699 156.536 27.6757 156.309C27.5816 156.082 27.5332 155.838 27.5332 155.592V141.1C27.5329 140.696 27.6517 140.3 27.8747 139.963C28.0976 139.625 28.415 139.361 28.7872 139.202L29.4184 139.227H34.1836C34.5714 139.228 34.9523 139.33 35.2882 139.523C35.6242 139.717 35.9034 139.996 36.098 140.331L38.6478 144.728Z" fill="#263238"/>
<path opacity="0.2" d="M38.6478 144.728C37.7742 145.504 37.1514 146.523 36.8588 147.654L34.6517 156.386H34.589C34.4388 156.709 34.1991 156.983 33.8984 157.174C33.5976 157.365 33.2483 157.466 32.892 157.465H29.4058C29.1599 157.465 28.9164 157.416 28.6892 157.322C28.462 157.228 28.2556 157.09 28.0817 156.916C27.9078 156.742 27.7699 156.536 27.6757 156.309C27.5816 156.082 27.5332 155.838 27.5332 155.592V141.1C27.5329 140.696 27.6517 140.3 27.8747 139.963C28.0976 139.625 28.415 139.361 28.7872 139.202L29.4184 139.227H34.1836C34.5714 139.228 34.9523 139.33 35.2882 139.523C35.6242 139.717 35.9034 139.996 36.098 140.331L38.6478 144.728Z" fill="white"/>
<path d="M33.0924 127.908V139.194H28.7745V128.527C28.7728 128.336 28.8089 128.147 28.8806 127.971C28.9524 127.794 29.0583 127.634 29.1924 127.499C29.3265 127.364 29.486 127.256 29.6618 127.183C29.8376 127.11 30.0261 127.072 30.2166 127.072H32.2731C32.4919 127.076 32.7003 127.166 32.8535 127.323C33.0067 127.479 33.0925 127.689 33.0924 127.908Z" fill="#407BFF"/>
<path opacity="0.2" d="M33.0924 127.908V139.194H28.7745V128.527C28.7728 128.336 28.8089 128.147 28.8806 127.971C28.9524 127.794 29.0583 127.634 29.1924 127.499C29.3265 127.364 29.486 127.256 29.6618 127.183C29.8376 127.11 30.0261 127.072 30.2166 127.072H32.2731C32.4919 127.076 32.7003 127.166 32.8535 127.323C33.0067 127.479 33.0925 127.689 33.0924 127.908Z" fill="white"/>
<path opacity="0.4" d="M33.0925 127.908V131.386H28.7745V128.531C28.7723 128.34 28.808 128.151 28.8794 127.974C28.9509 127.797 29.0568 127.636 29.1909 127.5C29.3251 127.365 29.4848 127.257 29.6609 127.183C29.8369 127.11 30.0258 127.072 30.2166 127.072H32.2732C32.492 127.076 32.7004 127.166 32.8535 127.323C33.0067 127.479 33.0925 127.689 33.0925 127.908Z" fill="black"/>
<path opacity="0.7" d="M33.0924 131.382H28.7744V135.369H33.0924V131.382Z" fill="white"/>
<path opacity="0.2" d="M102.652 153.494H72.2379C71.7968 153.493 71.3617 153.392 70.966 153.197C70.5704 153.002 70.2247 152.719 69.9556 152.369L69.3369 151.571C69.0118 151.15 68.8106 150.646 68.7559 150.116C67.0839 134.165 68.8186 122.252 68.8353 122.135C68.8446 122.081 68.8746 122.032 68.919 122C68.9635 121.967 69.0189 121.953 69.0736 121.96C69.101 121.963 69.1275 121.972 69.1513 121.986C69.1751 122.001 69.1959 122.019 69.2123 122.041C69.2287 122.064 69.2404 122.089 69.2467 122.116C69.2531 122.143 69.2539 122.171 69.2492 122.198C69.2492 122.315 67.5019 134.178 69.1697 150.07C69.2163 150.527 69.3901 150.961 69.6713 151.324L70.2858 152.123C70.5166 152.421 70.8124 152.662 71.1507 152.829C71.489 152.996 71.8608 153.083 72.2379 153.084H102.652C102.979 153.083 103.296 152.976 103.558 152.779C103.819 152.583 104.01 152.307 104.102 151.993L106.827 142.538C107.224 141.18 108.049 139.987 109.179 139.136C110.309 138.285 111.683 137.822 113.097 137.815H122.908C123.753 137.816 124.582 138.05 125.303 138.492L127.238 139.679C127.262 139.693 127.282 139.712 127.299 139.734C127.315 139.756 127.327 139.782 127.334 139.808C127.34 139.835 127.341 139.863 127.337 139.89C127.333 139.917 127.324 139.944 127.309 139.967C127.295 139.991 127.276 140.011 127.254 140.028C127.232 140.044 127.207 140.056 127.18 140.063C127.153 140.069 127.125 140.07 127.098 140.066C127.071 140.062 127.045 140.053 127.021 140.038L125.086 138.847C124.43 138.446 123.676 138.233 122.908 138.233H113.106C111.78 138.238 110.492 138.671 109.433 139.468C108.374 140.265 107.601 141.383 107.229 142.655L104.499 152.102C104.381 152.502 104.138 152.853 103.806 153.103C103.473 153.354 103.068 153.491 102.652 153.494Z" fill="black"/>
<path opacity="0.2" d="M103.04 151.057C102.988 151.057 102.938 151.038 102.899 151.003C102.861 150.968 102.837 150.92 102.831 150.869C101.26 136.406 102.831 121.96 102.831 121.814C102.839 121.759 102.867 121.71 102.909 121.676C102.952 121.641 103.007 121.625 103.061 121.63C103.089 121.632 103.115 121.64 103.14 121.653C103.164 121.666 103.186 121.684 103.203 121.705C103.221 121.727 103.234 121.751 103.242 121.778C103.25 121.804 103.252 121.832 103.249 121.86C103.249 122.006 101.682 136.41 103.249 150.823C103.255 150.878 103.239 150.933 103.205 150.976C103.17 151.019 103.12 151.046 103.065 151.053L103.04 151.057Z" fill="black"/>
<path opacity="0.2" d="M82.2079 102.615C80.9209 107.587 80.0016 112.647 79.4574 117.755H77.6768C78.3768 112.658 79.4412 107.618 80.8619 102.673L82.2079 102.615Z" fill="white"/>
<path opacity="0.2" d="M78.4705 117.333C78.443 117.33 78.4163 117.322 78.3919 117.309C78.3675 117.296 78.346 117.278 78.3285 117.257C78.311 117.235 78.2979 117.211 78.29 117.184C78.2821 117.158 78.2795 117.13 78.2824 117.103C78.9846 110.415 81.0203 102.841 81.0412 102.765C81.0559 102.712 81.0909 102.667 81.1386 102.64C81.1864 102.612 81.243 102.605 81.2962 102.619C81.3227 102.626 81.3477 102.638 81.3695 102.654C81.3913 102.671 81.4096 102.692 81.4233 102.716C81.4369 102.739 81.4456 102.766 81.4489 102.793C81.4522 102.82 81.45 102.848 81.4425 102.874C81.4425 102.949 79.3985 110.482 78.7004 117.144C78.6941 117.2 78.6665 117.25 78.6236 117.285C78.5807 117.32 78.5258 117.337 78.4705 117.333Z" fill="black"/>
<path opacity="0.2" d="M77.6886 151.057C77.6345 151.057 77.5826 151.036 77.5437 150.999C77.5047 150.961 77.4817 150.91 77.4796 150.856C76.9055 140.072 77.1668 129.259 78.2612 118.516C78.2643 118.488 78.2729 118.461 78.2864 118.437C78.2998 118.413 78.318 118.392 78.3398 118.375C78.3616 118.357 78.3865 118.345 78.4132 118.337C78.4399 118.33 78.4678 118.328 78.4953 118.332C78.5227 118.335 78.5492 118.343 78.5732 118.357C78.5972 118.37 78.6182 118.389 78.635 118.41C78.6517 118.432 78.6639 118.457 78.6708 118.484C78.6777 118.511 78.6791 118.538 78.675 118.566C77.5859 129.286 77.3259 140.075 77.8976 150.835C77.8998 150.891 77.8801 150.946 77.8426 150.987C77.805 151.029 77.7527 151.054 77.6969 151.057H77.6886Z" fill="black"/>
<path opacity="0.2" d="M174.56 127.607H167.763C166.643 126.562 164.273 126.035 161.84 126.035H142.015C139.569 126.035 138.825 127.607 138.825 127.607H129.161C126.214 125.199 108.106 121.839 108.106 121.839C111.032 120.785 119.953 121.107 119.953 121.107C123.191 121.532 126.404 122.128 129.579 122.892C126.749 121.421 121.09 120.539 121.09 120.539L123.66 119.477H137.914L147.553 121.003H152.937L154.609 120.743C158.768 121.566 162.864 122.683 166.865 124.087L174.263 127.49L174.56 127.607Z" fill="white"/>
<path opacity="0.2" d="M84.5482 126.558H81.0495C80.7303 126.558 80.4241 126.431 80.1983 126.205C79.9725 125.979 79.8457 125.673 79.8457 125.354C79.8452 125.196 79.8759 125.039 79.9361 124.892C79.9964 124.745 80.085 124.612 80.1968 124.5C80.3087 124.388 80.4416 124.299 80.5879 124.238C80.7342 124.177 80.8911 124.146 81.0495 124.146H84.5482C84.7067 124.145 84.8636 124.176 85.0102 124.236C85.1567 124.297 85.2899 124.385 85.4022 124.497C85.5144 124.609 85.6034 124.742 85.6642 124.888C85.725 125.034 85.7562 125.191 85.7562 125.35C85.7568 125.509 85.7259 125.666 85.6654 125.813C85.6049 125.96 85.5159 126.093 85.4036 126.205C85.2914 126.318 85.158 126.406 85.0112 126.467C84.8643 126.528 84.707 126.558 84.5482 126.558Z" fill="white"/>
<path opacity="0.2" d="M103.036 120.539H98.8311L99.1028 116.635C99.1144 116.47 99.1882 116.315 99.3093 116.203C99.4303 116.09 99.5896 116.028 99.7548 116.028H102.338C102.764 118.624 103.036 120.539 103.036 120.539Z" fill="white"/>
<path d="M99.0785 113.069H96.7418C96.1601 113.069 95.6885 113.541 95.6885 114.122V118.424C95.6885 119.005 96.1601 119.477 96.7418 119.477H99.0785C99.6602 119.477 100.132 119.005 100.132 118.424V114.122C100.132 113.541 99.6602 113.069 99.0785 113.069Z" fill="#263238"/>
<path opacity="0.4" d="M99.0785 113.069H96.7418C96.1601 113.069 95.6885 113.541 95.6885 114.122V118.424C95.6885 119.005 96.1601 119.477 96.7418 119.477H99.0785C99.6602 119.477 100.132 119.005 100.132 118.424V114.122C100.132 113.541 99.6602 113.069 99.0785 113.069Z" fill="white"/>
<path d="M99.9685 115.945C100.295 116.282 100.68 116.557 101.105 116.756C101.223 116.803 101.325 116.883 101.399 116.986C101.473 117.089 101.516 117.21 101.523 117.337L101.636 118.913C101.643 119.005 101.631 119.098 101.6 119.186C101.57 119.274 101.521 119.354 101.458 119.423C101.395 119.491 101.318 119.545 101.233 119.583C101.148 119.62 101.056 119.64 100.963 119.64H99.9434C99.8344 119.64 99.7269 119.615 99.6299 119.565L98.5514 119.005C98.4407 118.948 98.3478 118.862 98.2829 118.755C98.2181 118.649 98.1837 118.527 98.1836 118.403V116.426C98.1847 116.246 98.257 116.073 98.3846 115.946C98.5123 115.82 98.685 115.748 98.8649 115.748H99.4836C99.6647 115.748 99.8389 115.818 99.9685 115.945Z" fill="#263238"/>
<path opacity="0.3" d="M99.9685 115.945C100.295 116.282 100.68 116.557 101.105 116.756C101.223 116.803 101.325 116.883 101.399 116.986C101.473 117.089 101.516 117.21 101.523 117.337L101.636 118.913C101.643 119.005 101.631 119.098 101.6 119.186C101.57 119.274 101.521 119.354 101.458 119.423C101.395 119.491 101.318 119.545 101.233 119.583C101.148 119.62 101.056 119.64 100.963 119.64H99.9434C99.8344 119.64 99.7269 119.615 99.6299 119.565L98.5514 119.005C98.4407 118.948 98.3478 118.862 98.2829 118.755C98.2181 118.649 98.1837 118.527 98.1836 118.403V116.426C98.1847 116.246 98.257 116.073 98.3846 115.946C98.5123 115.82 98.685 115.748 98.8649 115.748H99.4836C99.6647 115.748 99.8389 115.818 99.9685 115.945Z" fill="white"/>
<path opacity="0.2" d="M119.51 103.547C119.51 103.547 127.322 108.981 131.594 114.235C130.793 111.98 129.658 109.858 128.225 107.94C128.225 107.94 134.044 111.999 137.785 118.281L146.437 119.477H148.732C148.732 119.477 139.695 108.973 134.081 104.596C134.081 104.596 127.138 103.81 119.51 103.547Z" fill="white"/>
</svg>
